<svg width="80" height="80" viewBox="0 0 80 80" fill="none" xmlns="http://www.w3.org/2000/svg">
<path style="mix-blend-mode:screen" d="M37.7775 71.6488C56.3121 71.6488 71.3373 56.6235 71.3373 38.0889C71.3373 19.5544 56.3121 4.52911 37.7775 4.52911C19.2429 4.52911 4.21768 19.5544 4.21768 38.0889C4.21768 56.6235 19.2429 71.6488 37.7775 71.6488Z" fill="url(#paint0_radial_1107_70)"/>
<path style="mix-blend-mode:screen" d="M60 59.9999C71.0457 48.9542 71.0457 31.0456 60 19.9999C48.9543 8.95421 31.0457 8.95421 20 19.9999C8.95431 31.0456 8.95431 48.9542 20 59.9999C31.0457 71.0456 48.9543 71.0456 60 59.9999Z" fill="url(#paint1_radial_1107_70)"/>
<path style="mix-blend-mode:screen" d="M37.477 64.59C52.3838 64.59 64.4682 52.5056 64.4682 37.5988C64.4682 22.692 52.3838 10.6076 37.477 10.6076C22.5702 10.6076 10.4858 22.692 10.4858 37.5988C10.4858 52.5056 22.5702 64.59 37.477 64.59Z" fill="url(#paint2_radial_1107_70)"/>
<path fill-rule="evenodd" clip-rule="evenodd" d="M63.4353 43.8083L63.2429 44.4983C63.237 44.531 63.2266 44.5577 63.2162 44.5949C61.5857 50.1977 58.179 55.1191 53.509 58.6179C48.8391 62.1167 43.1587 64.0034 37.3235 63.994C36.8474 63.994 36.3579 63.9836 35.89 63.9568H35.8848C35.1785 63.919 34.4781 63.8551 33.7881 63.7697C29.3647 63.1913 25.1562 61.5161 21.5451 58.8967C21.2139 58.6561 20.8871 58.4102 20.5722 58.1592C21.1923 57.6237 22.5032 57.5702 22.5032 57.5702L20.6791 56.1211L16.1062 53.6605C15.2241 52.5478 14.4335 51.3655 13.7421 50.1252C13.5757 49.831 13.4151 49.5315 13.2601 49.2265C13.2601 49.2161 13.2497 49.2109 13.2445 49.1997C13.0841 48.8734 12.9288 48.5474 12.7788 48.2216H12.7736C12.303 47.1859 11.8994 46.1211 11.5652 45.0338C11.3186 44.2473 11.1047 43.4399 10.9339 42.6163C10.9298 42.6099 10.928 42.6023 10.9287 42.5947C10.8106 42.0221 10.7059 41.439 10.6316 40.8508C10.449 39.5843 10.3579 38.3062 10.359 37.0265C10.359 36.7295 10.3642 36.422 10.3754 36.1279C10.3858 35.6822 10.4125 35.2366 10.4556 34.8073C10.4987 34.378 10.5358 33.9405 10.5893 33.5127C10.5905 33.4803 10.5939 33.4481 10.5997 33.4162C10.6799 32.8176 10.7764 32.2345 10.8967 31.6515C11.0616 30.8156 11.2706 29.989 11.5229 29.1752C11.8563 28.0509 12.2691 26.9517 12.758 25.8857C13.2228 24.8595 13.7535 23.8644 14.3467 22.9067C16.1871 21.933 17.3636 21.425 17.3636 21.425C17.3636 21.425 48.7591 15.1935 49.2464 14.6588C49.7336 14.124 52.1081 14.4612 52.1081 14.4612C53.5784 15.4286 54.9521 16.5354 56.2101 17.7663C56.5072 18.05 56.7879 18.3494 57.0769 18.6494C57.264 18.8522 57.4482 19.0661 57.6324 19.2748C57.9429 19.6276 58.2481 19.9967 58.5422 20.3658C59.6207 21.7366 60.563 23.2092 61.3557 24.7627C61.6654 25.3614 61.9499 25.9764 62.2113 26.6025C62.2113 26.6077 62.2165 26.6129 62.2165 26.6181C64.6392 36.0959 61.6498 44.1351 61.6498 44.1351C62.2254 43.9382 62.8272 43.828 63.4353 43.8083Z" fill="url(#paint3_radial_1107_70)"/>
<path fill-rule="evenodd" clip-rule="evenodd" d="M63.4353 43.8083L63.2429 44.4983C63.237 44.531 63.2266 44.5577 63.2162 44.5949C61.5857 50.1977 58.179 55.1191 53.509 58.6179C48.8391 62.1167 43.1587 64.0034 37.3235 63.994C36.8474 63.994 36.3579 63.9836 35.89 63.9568H35.8848C35.1785 63.919 34.4781 63.8551 33.7881 63.7697C29.3647 63.1913 25.1562 61.5161 21.5451 58.8967C21.2139 58.6561 20.8871 58.4102 20.5722 58.1592C21.1923 57.6237 22.5032 57.5702 22.5032 57.5702L20.6791 56.1211L16.1062 53.6605C15.2241 52.5478 14.4335 51.3655 13.7421 50.1252C13.5757 49.831 13.4151 49.5315 13.2601 49.2265C13.2601 49.2161 13.2497 49.2109 13.2445 49.1997C13.0841 48.8734 12.9288 48.5474 12.7788 48.2216H12.7736C12.303 47.1859 11.8994 46.1211 11.5652 45.0338C11.3186 44.2473 11.1047 43.4399 10.9339 42.6163C10.9298 42.6099 10.928 42.6023 10.9287 42.5947C10.8106 42.0221 10.7059 41.439 10.6316 40.8508C10.449 39.5843 10.3579 38.3062 10.359 37.0265C10.359 36.7295 10.3642 36.422 10.3754 36.1279C10.3858 35.6822 10.4125 35.2366 10.4556 34.8073C10.4987 34.378 10.5358 33.9405 10.5893 33.5127C10.5905 33.4803 10.5939 33.4481 10.5997 33.4162C10.6799 32.8176 10.7764 32.2345 10.8967 31.6515C11.0616 30.8156 11.2706 29.989 11.5229 29.1752C11.8563 28.0509 12.2691 26.9517 12.758 25.8857C13.2228 24.8595 13.7535 23.8644 14.3467 22.9067C16.1871 21.933 17.3636 21.425 17.3636 21.425C17.3636 21.425 48.7591 15.1935 49.2464 14.6588C49.7336 14.124 52.1081 14.4612 52.1081 14.4612C53.5784 15.4286 54.9521 16.5354 56.2101 17.7663C56.5072 18.05 56.7879 18.3494 57.0769 18.6494C57.264 18.8522 57.4482 19.0661 57.6324 19.2748C57.9429 19.6276 58.2481 19.9967 58.5422 20.3658C59.6207 21.7366 60.563 23.2092 61.3557 24.7627C61.6654 25.3614 61.9499 25.9764 62.2113 26.6025C62.2113 26.6077 62.2165 26.6129 62.2165 26.6181C64.6392 36.0959 61.6498 44.1351 61.6498 44.1351C62.2254 43.9382 62.8272 43.828 63.4353 43.8083Z" fill="url(#paint4_radial_1107_70)"/>
<path fill-rule="evenodd" clip-rule="evenodd" d="M62.6652 37.024C62.6659 37.9671 62.6123 38.9094 62.5048 39.8463C62.3529 41.2657 62.0756 42.6687 61.6759 44.039C61.6691 44.07 61.6602 44.1006 61.6491 44.1304C60.1161 49.3938 56.9154 54.0171 52.5285 57.3047C48.1416 60.5924 42.8057 62.3666 37.3236 62.3604C36.8779 62.3604 36.4197 62.3493 35.9755 62.3225H35.9703C35.3071 62.2906 34.649 62.2267 34.0021 62.1465C29.8468 61.604 25.8935 60.0298 22.5026 57.5676C22.0057 57.2149 21.5237 56.8353 21.0587 56.4447C20.9302 56.3377 20.8017 56.2308 20.6792 56.1186C18.4703 54.1853 16.6071 51.8896 15.1697 49.3301C15.0145 49.0524 14.8652 48.7686 14.7152 48.4857C14.7152 48.4745 14.71 48.4693 14.7048 48.4589C14.5495 48.1537 14.4077 47.8492 14.2658 47.5387H14.2606C13.8173 46.5662 13.4384 45.5656 13.1265 44.5433C12.8895 43.7982 12.6912 43.0413 12.5323 42.2758C12.5282 42.2694 12.5263 42.2618 12.5271 42.2542C12.4149 41.7143 12.3184 41.1684 12.2434 40.6203C12.0713 39.4297 11.9855 38.2284 11.9864 37.0255C11.9864 36.7425 11.9923 36.4588 12.0027 36.1803C12.0139 35.7636 12.0406 35.3462 12.077 34.9399C12.1134 34.5337 12.1513 34.1229 12.2055 33.7256C12.2064 33.6951 12.2099 33.6648 12.2159 33.635C12.2902 33.0727 12.3815 32.5209 12.4944 31.9765C12.6484 31.191 12.8448 30.4145 13.0827 29.6503C13.3967 28.5938 13.7843 27.5606 14.2428 26.5583C14.7336 25.4769 15.3002 24.4315 15.9384 23.43C16.3767 22.7367 16.8517 22.0673 17.3615 21.4247C18.0688 20.5167 18.8381 19.6588 19.6639 18.8571C24.3868 14.2498 30.7256 11.6745 37.3236 11.6824C37.5909 11.6824 37.8583 11.6883 38.1205 11.6935C38.4042 11.7039 38.6872 11.7151 38.9709 11.7359C39.7575 11.7893 40.5381 11.8755 41.3031 11.998C41.3135 11.998 41.3186 12.004 41.3298 12.004C41.9715 12.0998 42.6028 12.2268 43.223 12.3753C44.0251 12.5677 44.8117 12.792 45.5819 13.0594C46.1062 13.2362 46.6217 13.4308 47.1275 13.6484C47.507 13.8088 47.8761 13.9744 48.2415 14.1505C48.3062 14.1831 48.37 14.2099 48.4339 14.2418C50.8799 15.438 53.1176 17.0199 55.0612 18.9269C55.339 19.1943 55.6064 19.4728 55.8737 19.7558C56.0505 19.9489 56.2273 20.1464 56.3981 20.3447C56.6952 20.676 56.9759 21.0236 57.2537 21.3712C60.2525 25.1796 62.0891 29.7722 62.5434 34.5983C62.625 35.4043 62.6656 36.2139 62.6652 37.024Z" fill="url(#paint5_radial_1107_70)"/>
<path style="mix-blend-mode:screen" fill-rule="evenodd" clip-rule="evenodd" d="M24.9525 26.9272C24.9525 26.9272 24.284 28.4215 24.8403 29.9382C25.3966 31.4548 26.9712 30.4484 28.8458 29.9382C30.7204 29.4279 32.6463 27.4575 33.8621 26.2387C35.078 25.0199 36.244 23.348 36.1423 21.7266C36.0405 20.1053 34.3293 19.0402 34.3293 19.0402C34.3293 19.0402 34.9517 18.2463 34.4288 21.4236C33.906 24.601 33.1944 25.7314 32.5148 26.2387C31.8353 26.7459 29.7668 27.9469 28.6378 28.6228C27.5089 29.2987 26.2493 29.9976 25.5021 29.8334C24.7549 29.6693 24.3605 27.9915 24.9525 26.9272Z" fill="url(#paint6_radial_1107_70)"/>
<path style="mix-blend-mode:screen" fill-rule="evenodd" clip-rule="evenodd" d="M28.3867 25.8325C28.3867 25.8325 27.4271 26.6851 27.6804 27.3722C27.9337 28.0592 29.76 27.6195 30.9231 26.1422C32.0862 24.6649 31.1675 23.4684 31.1675 23.4684C31.1675 23.4684 30.7397 25.9335 29.6078 26.365C28.4759 26.7965 28.1045 26.6168 28.1045 26.6168C28.1045 26.6168 27.927 26.423 28.3867 25.8325Z" fill="url(#paint7_radial_1107_70)"/>
<path style="mix-blend-mode:screen" fill-rule="evenodd" clip-rule="evenodd" d="M25.4792 26.8997C25.4792 26.8997 26.4135 25.8406 27.4771 24.8491C28.5407 23.8575 30.3826 23.475 30.3826 23.475C30.3826 23.475 29.3079 22.9054 27.9317 23.7067C26.5554 24.5081 25.4792 26.8997 25.4792 26.8997Z" fill="url(#paint8_radial_1107_70)"/>
<path style="mix-blend-mode:screen" fill-rule="evenodd" clip-rule="evenodd" d="M21.6634 26.9156C21.6634 26.9156 23.8291 24.5077 26.4643 23.4716C29.0995 22.4355 30.0108 22.1347 31.1769 21.1692C31.9622 20.5343 32.7911 19.9553 33.6575 19.4364C33.6575 19.4364 31.0929 19.5664 27.1736 22.0501C23.2543 24.5337 21.6522 26.1075 21.6634 26.9156Z" fill="url(#paint9_radial_1107_70)"/>
<path style="mix-blend-mode:screen" fill-rule="evenodd" clip-rule="evenodd" d="M16.3788 26.4367C16.3788 26.4367 20.1296 22.6882 23.0685 21.2191C26.0075 19.75 27.9831 18.7867 30.6183 18.1279C33.2534 17.4691 37.3236 16.3202 37.3236 16.3202L38.0589 15.9488C38.0589 15.9488 29.6802 16.1181 24.1811 19.4329C18.682 22.7477 16.3788 26.4367 16.3788 26.4367Z" fill="url(#paint10_radial_1107_70)"/>
<path style="mix-blend-mode:screen" fill-rule="evenodd" clip-rule="evenodd" d="M20.8763 30.7614C20.8763 30.7614 21.5009 35.9389 22.4011 36.1713C23.3013 36.4038 26.5306 36.38 31.3286 33.9261C36.1266 31.4721 37.1018 32.0396 39.7904 29.3056C42.4791 26.5717 43.5686 23.4693 44.402 21.4254C45.2353 19.3814 45.4774 17.0485 45.219 16.3229C45.219 16.3229 46.1251 16.8636 46.1251 18.8905C46.1251 20.9173 45.5175 24.3227 44.656 26.2939C43.7944 28.2651 41.5648 31.3555 38.8791 32.8759C36.1934 34.3962 30.8228 37.3151 25.5532 37.2743C20.2836 37.2334 21.1162 36.8524 20.577 35.8015C20.0378 34.7505 20.8763 30.7614 20.8763 30.7614Z" fill="url(#paint11_radial_1107_70)"/>
<g style="mix-blend-mode:multiply" opacity="0.5">
<path fill-rule="evenodd" clip-rule="evenodd" d="M12.6658 35.1789C12.6658 35.1789 13.6076 37.2659 14.1349 39.174C14.6622 41.082 14.5605 44.324 16.7396 44.8305C18.9188 45.3371 21.9587 46.7564 23.127 46.4014C24.2953 46.0464 28.5957 45.2754 30.9813 45.7433C33.3669 46.2113 37.72 45.9454 39.2403 45.1856C40.7607 44.4258 44.0331 42.4739 45.5891 41.879C47.1451 41.2841 49.2938 39.5899 51.1454 37.7086C52.997 35.8273 52.9717 33.6831 53.4278 32.6195C53.8838 31.5559 54.7959 27.2986 54.6949 25.3735C54.5938 23.4484 53.4278 19.8506 53.4278 19.8506L52.3441 18.7054C52.3441 18.7054 53.681 23.6504 53.0735 27.1471C52.466 30.6438 53.023 32.0617 50.5906 35.4062C48.1582 38.7506 44.7632 41.3851 40.9634 42.6521C37.1637 43.9192 34.7246 43.7662 30.7785 44.1324C27.0939 44.4733 22.5098 44.2126 20.6864 43.738C19.0525 43.3117 16.8436 42.2147 15.1717 39.5453C13.4999 36.876 12.6658 35.1789 12.6658 35.1789Z" fill="#7D72B3"/>
</g>
<g style="mix-blend-mode:multiply" opacity="0.4">
<path fill-rule="evenodd" clip-rule="evenodd" d="M21.0428 29.7077C21.0428 29.7077 21.3911 35.3294 22.1071 35.8136C22.8231 36.2979 24.3353 36.4977 25.7554 36.0164C27.1755 35.5351 32.038 33.9368 32.8743 33.4317C33.7107 32.9267 38.8325 30.3665 39.8418 29.606C40.8512 28.8454 42.1977 26.1427 42.6538 25.5819C43.1098 25.0211 44.3509 21.6767 44.7059 20.4096C45.0609 19.1425 45.3142 17.6229 45.3142 17.6229C45.3142 17.6229 45.4152 16.9136 44.8069 16.6856C44.1986 16.4576 44.0991 16.6856 44.0991 16.6856C44.0991 16.6856 43.9713 17.5212 43.4388 19.9283C42.9063 22.3355 35.7375 30.5945 32.1145 32.7477C28.4916 34.9008 25.0461 34.9758 23.8042 34.8273C22.5624 34.6787 21.0176 30.6703 21.0428 29.7077Z" fill="#7D72B3"/>
</g>
<g style="mix-blend-mode:multiply" opacity="0.4">
<path fill-rule="evenodd" clip-rule="evenodd" d="M20.8759 30.7617C20.8759 30.7617 21.0245 27.2612 21.9291 26.0862C22.8337 24.9112 25.8655 22.4885 27.6599 21.5764C29.4543 20.6644 32.0657 19.3713 32.9748 19.1789C33.8839 18.9866 34.5249 19.1789 34.5249 19.1789C34.5249 19.1789 33.4309 18.5848 30.9227 19.2205C28.4145 19.8563 25.5751 22.1855 24.2092 22.9074C22.8434 23.6293 20.7133 25.3769 20.206 26.2637C19.6987 27.1506 20.8759 30.7617 20.8759 30.7617Z" fill="#7D72B3"/>
</g>
<g style="mix-blend-mode:multiply" opacity="0.4">
<path fill-rule="evenodd" clip-rule="evenodd" d="M14.7115 27.0689L22.4863 20.2567L27.3021 18.0783C27.3021 18.0783 32.0629 16.4607 34.2421 15.9519C36.4212 15.4431 41.3105 15.2916 41.3105 15.2916L43.8736 15.5701C43.8736 15.5701 39.4173 13.1377 32.8235 14.9113C26.2296 16.685 21.8527 18.899 19.9276 20.7179C18.0025 22.5369 15.0955 26.1792 14.7115 27.0689Z" fill="#7D72B3"/>
</g>
<path style="mix-blend-mode:screen" fill-rule="evenodd" clip-rule="evenodd" d="M14.494 27.3726C14.494 27.3726 10.317 32.4141 12.3439 35.5165C14.3708 38.6188 15.2672 43.0922 15.8547 44.132C16.4422 45.1718 23.1675 46.736 24.5638 46.4129C25.9602 46.0898 29.3106 45.2112 31.5016 46.0594C31.5016 46.0594 35.3823 45.7259 36.4971 45.7259C37.612 45.7259 39.6388 44.7797 40.112 44.5435C40.5851 44.3073 43.2195 43.4621 44.5683 42.9221C45.9171 42.3822 48.0813 40.694 48.96 40.0166C49.8386 39.3393 52.1351 36.6053 52.5741 35.7608C53.013 34.9164 54.3284 29.984 54.6685 27.6533C55.0087 25.3226 54.0068 20.8292 53.2499 19.2754C52.4931 17.7216 50.1082 16.2689 50.1082 16.2689L50.2471 15.5663L52.1039 14.4581C52.1039 14.4581 55.3429 18.705 55.6467 22.3726C55.8249 24.5227 56.3226 29.1105 55.7566 31.0787C55.3028 32.6592 53.7513 37.305 52.404 38.9649C51.0567 40.6249 46.9992 44.8606 44.8371 45.6821C42.6751 46.5035 36.2959 47.608 32.5414 47.6874C29.7718 47.7439 23.6733 47.2485 20.6757 47.1467C17.6781 47.045 15.5346 45.1674 14.3425 44.2145C13.1505 43.2616 13.5567 40.6687 12.3372 38.6211C11.1176 36.5734 10.4514 33.8498 10.753 32.3673C11.0545 30.8849 14.494 27.3726 14.494 27.3726Z" fill="url(#paint12_radial_1107_70)"/>
<path fill-rule="evenodd" clip-rule="evenodd" d="M21.8287 46.5657C21.187 46.4172 20.6091 46.0629 19.9719 45.9025C19.6139 45.8171 19.2604 45.7636 18.9076 45.6618C18.5444 45.5578 18.1707 45.495 17.7935 45.4747C17.0552 45.4479 16.2902 45.2771 15.8201 44.651C15.4203 44.1062 15.1263 43.4912 14.9533 42.838C14.7023 41.9393 14.4616 41.0406 14.1831 40.1427C13.9292 39.3316 13.5696 38.5575 13.1136 37.8402C12.9316 37.5432 12.7764 37.252 12.5788 36.9683C12.3969 36.7121 12.1451 36.4655 12.0062 36.1766L12.001 36.1714C11.6482 35.4227 11.5249 34.5938 11.5465 33.7805C11.5569 33.3423 11.6802 32.9301 11.776 32.5023C11.9045 31.9624 12.0441 31.4863 12.3219 30.9998C12.5789 30.5542 12.8299 30.1011 13.0869 29.6466C13.6588 28.6409 14.2581 27.6353 14.9697 26.7314C15.9001 25.5822 16.8918 24.4841 17.9406 23.4419C18.5399 22.8321 19.2188 22.2973 19.9036 21.7893C20.4814 21.3615 21.0176 20.8906 21.5888 20.4576C22.5729 19.709 23.6959 19.2217 24.7973 18.687C26.1298 18.0453 27.4615 17.4243 28.8467 16.9171C30.4901 16.3176 32.1761 15.842 33.8905 15.494C35.8423 15.0981 37.9012 15.0179 39.8917 15.0283C40.9827 15.0343 42.148 14.8946 43.1916 15.3017C43.7798 15.5312 44.4646 15.7614 44.9741 16.1142C45.0914 16.1944 45.1449 16.2107 45.2199 16.3177C45.2644 16.3867 45.2987 16.4617 45.3217 16.5405C45.4019 16.7277 45.4984 17.0381 45.4984 17.2364C45.4984 17.4555 45.4019 17.6479 45.4019 17.8781C45.4071 18.2042 45.3217 18.4983 45.3113 18.8192C45.2949 19.1905 45.2043 19.4772 45.1509 19.8352C45.0439 20.4985 44.9473 21.135 44.6904 21.7611C44.319 22.665 44.0702 23.6179 43.658 24.5092C43.5354 24.7825 43.3163 24.9904 43.193 25.2638C43.0757 25.5096 42.9702 25.7131 42.8291 25.9485C42.5669 26.3868 42.353 26.8398 42.0537 27.2587C41.4335 28.1143 40.8022 29.0286 39.9837 29.7097C38.9944 30.5334 37.9138 31.1914 36.7804 31.796C36.0421 32.1859 35.2719 32.5016 34.5233 32.8759C33.8548 33.2079 33.1864 33.5503 32.512 33.8652C30.7792 34.6733 28.9388 35.2719 27.1206 35.8394C26.5962 36.005 26.1045 36.1817 25.5609 36.256C25.0692 36.3258 24.4965 36.4863 24.0012 36.4788C23.4557 36.4533 22.9168 36.3487 22.4013 36.1684C21.5353 35.8795 21.4499 34.9384 21.3853 34.1571C21.3431 33.5741 21.2688 32.9939 21.1625 32.4191C21.0771 31.9534 21.0392 31.4937 20.9322 31.0228C20.821 30.5475 20.76 30.0618 20.7503 29.5738C20.7399 28.9529 20.9805 28.3706 21.1216 27.766C21.213 27.3753 21.2553 26.9742 21.4187 26.5999C21.649 26.054 22.0872 25.5839 22.5209 25.1932C22.9547 24.8025 23.4033 24.4067 23.8415 24.0048C24.1036 23.759 24.4141 23.577 24.6919 23.3527C25.1849 22.9732 25.7155 22.6451 26.2754 22.3738C26.7143 22.1436 27.0352 21.7797 27.4414 21.5123C27.8729 21.2269 28.3191 20.9646 28.7783 20.7265C29.169 20.5341 29.5953 20.4004 29.9979 20.24C30.3299 20.1115 30.6344 19.9184 30.9716 19.8062C31.2813 19.6993 31.6029 19.6674 31.9074 19.5389C32.1969 19.4133 32.4947 19.3078 32.7987 19.2232C33.1463 19.1378 33.5362 18.9937 33.8897 18.9826C34.5849 18.9722 34.9295 19.3198 35.1033 19.9934C35.3499 20.9136 35.0662 21.689 34.732 22.5395C34.4646 23.2242 34.1705 23.9031 33.9083 24.599C33.5607 25.5237 32.737 26.0102 32.0418 26.6415C31.2869 27.321 30.4319 27.8803 29.5069 28.3C29.2232 28.4285 28.9187 28.5035 28.6402 28.6209C28.3995 28.7278 28.1641 28.8615 27.9235 28.9922C27.7682 29.0776 27.6561 29.2009 27.512 29.2967C27.3835 29.3829 27.2335 29.4304 27.0998 29.5195C26.779 29.7397 26.4398 29.9318 26.086 30.0937C25.7436 30.2489 25.0647 30.3403 24.8397 29.9384C24.7223 29.7357 24.7379 29.452 24.6844 29.2225C24.6276 28.9588 24.6027 28.6892 24.6102 28.4196C24.6102 28.1366 24.6637 27.9279 24.706 27.6553C24.7483 27.3827 24.8664 27.1844 24.9518 26.9275C25.2088 26.2003 25.7116 25.6596 26.1558 25.061C26.4336 24.6815 26.6757 24.3071 27.001 23.9536C27.4823 23.4404 28.1611 23.1834 28.8407 23.0126C29.4505 22.864 30.3596 22.6806 30.9203 23.0341C31.3964 23.3312 31.0689 23.9751 30.9099 24.371C30.8245 24.5901 30.7332 24.8166 30.6582 25.0395C30.6047 25.2051 30.5839 25.3922 30.4873 25.5527C30.289 25.8847 29.8991 26.1149 29.605 26.3697C29.4713 26.4818 29.2574 26.6422 29.0962 26.6965C28.8934 26.7603 28.6744 26.7551 28.4708 26.8034C28.3691 26.8242 28.3156 26.952 28.1923 26.9044C28.0802 26.8673 28.0802 26.7388 28.1017 26.6215C28.1232 26.5041 28.1715 26.4075 28.1923 26.3058C28.1983 26.2843 28.1715 26.2471 28.1767 26.2204C28.2621 25.9047 28.6632 25.5089 28.8452 25.2415C29.1341 25.3588 28.9358 25.5304 28.8823 25.6581C28.8572 25.7643 28.8376 25.8716 28.8236 25.9797C28.8021 26.0704 28.6632 26.236 28.765 26.3325C28.8348 26.4016 29.0695 26.2791 29.1445 26.2523C29.7654 26.0332 30.1665 25.3536 30.3588 24.7387C30.4821 24.3376 30.4606 23.6424 30.0164 23.4656C29.6852 23.3371 29.2841 23.407 28.9358 23.401C27.6791 23.3802 26.9356 24.7223 26.2672 25.5891C25.8175 26.1824 25.4604 26.8405 25.2081 27.5409C25.0261 28.0222 24.9511 28.5198 24.8233 29.0063C24.7268 29.3651 24.6094 29.9162 25.1598 29.8411C25.4806 29.7929 25.8282 29.6183 26.1335 29.5203C26.3934 29.4354 26.6458 29.3291 26.8881 29.2024C27.284 28.9885 27.7281 28.9291 28.1396 28.7479C28.4612 28.603 28.7872 28.427 29.1051 28.2718C29.934 27.8707 30.7391 27.0522 31.3192 26.3459C31.7046 25.8698 32.255 25.5118 32.694 25.0788C33.1537 24.6235 33.4003 24.0568 33.7152 23.5005C34.0301 22.9442 34.1913 22.3865 34.3309 21.7626C34.4587 21.2063 34.7906 20.5742 34.6191 19.9971C34.4379 19.3985 33.6677 19.3874 33.17 19.4772C32.7578 19.5463 32.3033 19.6161 31.9134 19.7743C31.1855 20.0625 30.4688 20.3729 29.7468 20.6656C28.6075 21.1365 27.6605 21.9119 26.6178 22.5484C26.0882 22.8692 25.5163 23.1151 25.0239 23.5005C24.6607 23.7843 24.3131 24.1155 23.9648 24.426C23.7189 24.6488 23.5102 24.8909 23.2376 25.084C22.8796 25.3351 22.5209 25.6128 22.2535 25.9612C22.0307 26.2441 21.7826 26.5813 21.6594 26.9267C21.568 27.1993 21.6534 27.4563 21.6697 27.734C21.6913 28.1136 21.5843 28.4671 21.568 28.8414C21.5524 29.2373 21.568 29.6436 21.5732 30.0394C21.5732 30.8148 21.4558 31.5687 21.4722 32.3553C21.4826 32.8365 21.5895 33.3446 21.6861 33.8206C21.7604 34.2009 21.9156 34.527 21.9423 34.9176C21.9535 35.1635 21.9958 35.4999 22.2156 35.6604C22.3226 35.7413 22.4615 35.7621 22.587 35.8089C22.7125 35.8557 22.8017 35.8891 22.9086 35.9211C22.9673 35.9426 23.0312 35.9537 23.0958 35.9745C23.1433 36.0013 23.1812 36.0711 23.2295 36.0926C23.3572 36.1461 23.5503 36.1142 23.684 36.0874C23.9937 36.028 24.299 35.9537 24.6094 35.9003C25.3848 35.7666 26.1691 35.7822 26.9119 35.5044C27.7623 35.1835 28.554 34.723 29.394 34.3807C30.6507 33.8674 31.9988 33.4931 33.202 32.8462C33.7419 32.5491 34.3034 32.2788 34.8597 32.0292C36.181 31.435 37.5662 30.9537 38.7271 30.061C39.1727 29.7186 39.5077 29.3279 39.8879 28.9269C40.1018 28.6966 40.3336 28.4939 40.5237 28.2421C41.1046 27.4989 41.6219 26.708 42.0701 25.878C42.2572 25.5304 42.3671 25.1509 42.5617 24.8033C42.8588 24.2633 43.225 23.7872 43.5035 23.2309C43.782 22.6746 43.9365 22.1399 44.1185 21.562C44.2306 21.2092 44.3108 20.9203 44.3004 20.546C44.2893 19.7966 44.3695 19.1497 44.6718 18.4664C44.8374 18.095 45.0729 17.5358 44.9496 17.1131C44.885 16.9052 44.5856 16.851 44.4037 16.7923C43.9759 16.6482 43.5325 16.5412 43.1203 16.3593C42.7407 16.1885 42.4682 15.9879 42.0507 15.9137C41.898 15.8792 41.7416 15.863 41.5851 15.8654C41.184 15.8869 40.8364 16.1625 40.4353 16.1491C40.3016 16.1439 40.2125 16.1008 40.0714 16.0748C39.8634 16.0377 39.6384 16.0644 39.4349 16.0592C38.9751 16.0429 38.531 15.9575 38.066 15.9627C37.5201 15.9679 36.9854 16.0161 36.4402 16.0481C35.9322 16.0748 35.4182 16.0325 34.9102 16.0481C34.5842 16.0592 34.3807 16.2085 34.0932 16.337C33.8311 16.4551 33.5369 16.5026 33.2644 16.6044C33.0237 16.7009 32.7994 16.7863 32.5424 16.7967C32.1837 16.8027 31.8257 16.7492 31.4781 16.8235C31.0458 16.9346 30.6235 17.0814 30.2155 17.2624C29.0762 17.7489 27.9695 18.3587 26.7871 18.733C26.2152 18.9098 25.627 18.99 25.0707 19.2143C24.862 19.3005 24.68 19.4497 24.4928 19.573C24.1215 19.8241 23.7278 20.0543 23.3431 20.295C22.4815 20.8409 21.6631 21.4395 20.8453 22.0493C19.8798 22.766 18.9625 23.4827 18.1656 24.3918C16.7745 25.9916 15.3254 27.6063 14.1222 29.3554C13.5496 30.1791 12.9079 31.0674 12.5016 31.9869C12.4905 32.0084 12.4853 32.0247 12.4749 32.0455C12.2521 32.5751 12.1325 33.1314 12.2075 33.704C12.2067 33.7149 12.2085 33.7259 12.2127 33.736C12.2766 34.2069 12.4801 34.7632 12.6672 35.191C12.8544 35.6188 13.0096 36.0733 13.2503 36.4796C13.5125 36.9252 13.8756 37.2929 14.0673 37.7741C14.2968 38.3683 14.5055 39.0041 14.6822 39.6191C14.9078 40.3987 15.0915 41.1898 15.2326 41.9891C15.3291 42.4808 15.4094 42.9784 15.6396 43.4277C15.9657 44.059 16.6608 44.2937 17.2283 44.6629C17.4822 44.845 17.787 44.9425 18.0995 44.9414C18.6083 44.9681 19.0895 45.0899 19.576 45.2385C20.6158 45.5593 21.6512 45.7948 22.7422 45.7784C23.3892 45.7732 24.0049 45.5965 24.6414 45.5163C25.2356 45.442 25.8297 45.3826 26.4165 45.2868C26.952 45.2006 27.4756 45.0513 28.0215 45.0513C28.5619 45.0561 29.0994 45.131 29.6206 45.2741C30.5118 45.5207 31.3853 45.7198 32.3159 45.6811C32.8833 45.6648 33.4396 45.5326 34.0011 45.4992C34.5307 45.4665 35.0335 45.5475 35.5609 45.5846C36.4922 45.6433 37.385 45.413 38.2517 45.13C38.8459 44.9377 39.3376 44.654 39.8671 44.3383C40.295 44.0873 40.7064 44.0122 41.1773 43.889C42.1075 43.651 43.0041 43.2969 43.8459 42.835C44.9369 42.2149 45.8356 41.3006 46.891 40.6373C47.4904 40.266 48.1641 40.0164 48.7478 39.6153C49.2305 39.2887 49.68 38.9156 50.0899 38.5013C50.566 38.02 51.0154 37.5172 51.4915 37.0359C51.8554 36.6645 51.9995 36.207 52.2134 35.7473C52.5342 35.0677 52.6471 34.3673 52.7645 33.629C52.8818 32.8908 53.2101 32.2594 53.5243 31.5858C53.9254 30.7242 54.267 29.9169 54.3532 28.9543C54.4222 28.2324 54.5188 27.5045 54.5188 26.7774C54.5188 26.3117 54.4386 25.8572 54.3799 25.3974C54.3212 24.9696 54.2351 24.5574 54.1445 24.1348C54.0271 23.6149 54.0427 23.0816 53.9469 22.5573C53.8607 22.1079 53.7241 21.6319 53.5986 21.1885C53.51 20.8673 53.3993 20.5526 53.2673 20.2467C53.0321 19.6976 52.7206 19.1845 52.3419 18.7226C52.1814 18.5355 51.9779 18.476 51.7967 18.3423C51.6571 18.2354 51.6252 18.1448 51.4647 18.0646C51.2419 17.9524 51.0191 17.8418 50.7963 17.717C50.4435 17.5135 50.0424 17.4548 49.6889 17.2624C49.3524 17.0805 49.0472 16.8398 48.7233 16.6363C48.3594 16.4068 47.9903 16.2516 47.6754 15.9515C47.3605 15.6515 47.1614 15.2727 46.8621 14.9734C46.5568 14.6629 46.1194 14.4594 45.771 14.192C45.1665 13.7219 44.4549 13.684 43.7761 13.3951C43.4285 13.2465 43.0965 13.2243 42.7363 13.1492C42.3241 13.0638 42.0463 12.8121 41.6073 12.7638C41.2167 12.7214 40.8319 12.7162 40.4524 12.6093C40.2317 12.5462 40.0061 12.5015 39.778 12.4756C39.3235 12.4325 38.8868 12.4964 38.4359 12.5447C38.0401 12.5878 37.639 12.5662 37.2431 12.5662C36.9111 12.5662 36.5635 12.5981 36.2323 12.5447C35.2905 12.4006 34.2581 12.4162 33.3067 12.4808C32.3976 12.5447 31.5093 12.6093 30.6485 12.9086C29.9154 13.1596 29.1935 13.3735 28.4768 13.6684C27.9844 13.866 27.5566 14.1386 27.0968 14.3955C25.9894 15.0157 24.9734 15.7755 23.9195 16.4811C22.743 17.2624 21.6356 18.1284 20.5029 18.9789C19.7647 19.5352 19.0175 20.0863 18.2881 20.6589C17.9732 20.9099 17.668 21.1721 17.3687 21.4395C18.076 20.5316 18.8453 19.6737 19.6711 18.8719C24.3898 14.261 30.7259 11.6804 37.3233 11.6824C37.5907 11.6824 37.8581 11.6883 38.1203 11.6935C38.404 11.7039 38.687 11.7151 38.9707 11.7359C39.7572 11.7893 40.5378 11.8755 41.3028 11.998C41.3132 11.998 41.3184 12.004 41.3296 12.004C42.2015 12.2387 43.0675 12.4905 43.9343 12.7526C44.6562 12.9717 45.3833 13.1693 46.0949 13.4159C46.5657 13.5763 47.0255 13.7872 47.48 13.9722C47.8922 14.1482 48.3468 14.2982 48.7323 14.5173C49.3576 14.8701 49.9407 15.341 50.5185 15.7688C50.9016 16.0645 51.266 16.3838 51.6096 16.7247C52.097 17.2 52.5308 17.7272 52.9034 18.297C53.7701 19.6399 54.4631 21.1587 54.7862 22.7207C55.0647 24.036 55.0268 25.4643 54.9733 26.8056C54.9331 27.5487 54.8338 28.2873 54.6762 29.0145C54.5158 29.7899 54.2432 30.5118 54.163 31.3169C54.1251 31.7076 54.1898 32.1087 54.1251 32.4941C54.0717 32.8098 53.9543 33.1143 53.8905 33.43C53.7648 34.0998 53.5486 34.7494 53.248 35.361C52.8313 36.2003 52.2639 36.8955 51.6601 37.6182C50.9805 38.4255 50.2533 39.2009 49.547 39.9949C48.8407 40.7888 47.9799 41.4335 47.0656 41.9794C46.3541 42.4072 45.6269 42.9204 44.8508 43.2198C44.1237 43.5087 43.3 43.9209 42.5135 44.0063C41.9148 44.065 41.4387 44.29 40.9537 44.6532C40.6567 44.8671 40.4398 45.156 40.1672 45.3863C39.9214 45.595 39.6324 45.6589 39.3383 45.7576C38.6372 45.9931 37.9532 45.9396 37.2201 45.9396C36.1803 45.9396 35.1501 46.0414 34.1125 46.1483C33.5928 46.2122 33.0687 46.2336 32.5454 46.2122C32.0745 46.1855 31.6096 46.0636 31.1439 46.0035C30.624 45.9396 30.1041 45.9292 29.5931 45.8483C29.2169 45.7801 28.8322 45.773 28.4538 45.8275C28.1225 45.8646 27.7905 45.8275 27.4593 45.8542C27.1169 45.8861 26.7797 45.9611 26.4373 46.0087C24.8776 46.2233 23.4174 46.9401 21.8287 46.5657Z" fill="#00C4FF"/>
<path style="mix-blend-mode:screen" fill-rule="evenodd" clip-rule="evenodd" d="M20.572 58.1581C20.572 58.1581 26.5034 59.1979 29.2002 59.1236C33.2762 59.0055 37.9739 59.5121 41.6222 59.6138C45.2704 59.7156 51.6489 56.7239 52.8127 56.1758C53.9766 55.6277 56.7915 54.0219 59.2477 51.2976C61.7038 48.5733 62.6731 44.1326 62.6731 44.1326H61.6489C61.6489 44.1326 61.2597 46.054 59.7795 48.2101C58.8882 49.5039 57.5855 50.6373 55.8022 52.1785C53.2368 54.3955 49.8968 56.1023 46.5293 56.9415C42.047 58.0556 38.0623 57.7496 35.3142 58.1596C31.3355 58.7538 22.5023 57.347 22.5023 57.347L20.572 58.1581Z" fill="url(#paint13_radial_1107_70)"/>
<path fill-rule="evenodd" clip-rule="evenodd" d="M19.0059 55.2195C19.0059 55.2195 19.9521 57.6801 20.5723 58.1577C20.5723 58.1577 21.8743 58.2372 22.5034 57.5687L20.6792 56.1197L19.0059 55.2195Z" fill="url(#paint14_radial_1107_70)"/>
<path fill-rule="evenodd" clip-rule="evenodd" d="M62.7493 39.5446C62.7493 39.5446 63.3836 42.3246 63.4356 43.8048C63.4356 43.8048 62.4456 44.4294 61.6531 44.1316C61.6494 44.1301 62.5837 40.7314 62.7493 39.5446Z" fill="url(#paint15_radial_1107_70)"/>
<path fill-rule="evenodd" clip-rule="evenodd" d="M45.5817 13.063C45.5817 13.063 50.8692 13.5934 52.1073 14.4594C52.1073 14.4594 51.2323 15.439 50.2505 15.5675C50.2468 15.5675 45.9613 13.1893 45.5817 13.063Z" fill="#FF61C7"/>
<path fill-rule="evenodd" clip-rule="evenodd" d="M14.3465 22.9039L16.5145 22.5623L17.3634 21.4222C17.3634 21.4222 15.8081 22.1062 14.3465 22.9039Z" fill="#FF61C7"/>
<g style="mix-blend-mode:multiply" opacity="0.5">
<path fill-rule="evenodd" clip-rule="evenodd" d="M16.106 53.6576C16.106 53.6576 26.3622 56.6352 34.3687 56.7882C42.3753 56.9412 45.3825 55.1542 48.8444 53.8173C52.3062 52.4804 57.9895 49.4093 59.7037 47.1425C61.4179 44.8757 62.7488 39.543 62.7488 39.543C62.7488 39.543 61.103 47.5473 59.6792 48.9621C58.2554 50.377 51.8992 54.661 50.7843 55.2181C49.6695 55.7751 46.6407 58.0753 41.1624 57.4351C41.1624 57.4351 37.4793 57.955 36.1468 57.8533C34.8144 57.7515 32.7452 59.0951 28.9424 57.8659C28.9424 57.8659 23.6543 57.6 22.4978 57.346C21.3414 57.092 16.106 53.6576 16.106 53.6576Z" fill="#54469B"/>
</g>
<path fill-rule="evenodd" clip-rule="evenodd" d="M18.5972 42.8944C18.5972 42.8944 27.0983 44.3672 33.257 43.7389C39.4156 43.1106 42.746 41.5716 44.5025 40.4234C46.259 39.2751 49.7015 35.5957 50.9887 33.9238C52.2758 32.252 52.9257 28.066 52.9257 28.066C52.9257 28.066 53.1574 32.151 52.1087 33.9238C51.06 35.6967 47.4444 39.0612 45.9701 40.0394C44.4958 41.0176 40.2697 43.3378 38.0631 43.7389C35.8565 44.14 32.2142 45.2555 29.5768 44.7713C26.9394 44.287 20.5379 44.3695 18.5972 42.8944Z" fill="#B04FE2"/>
<path fill-rule="evenodd" clip-rule="evenodd" d="M30.3832 56.5027C30.3832 56.5027 39.2334 55.8937 42.2734 55.2178C45.3133 54.5419 49.3114 52.8976 52.1077 51.8756C54.9041 50.8536 57.0149 48.8208 58.556 47.6933C60.0972 46.5659 62.0721 41.8823 62.0721 41.8823C62.0721 41.8823 60.8095 46.5258 58.8784 48.0409C56.9473 49.5561 51.9889 52.3331 46.3925 54.816C40.1693 57.5737 35.3319 56.7879 30.3832 56.5027Z" fill="#8B40E0"/>
<path fill-rule="evenodd" clip-rule="evenodd" d="M61.2218 45.3909C61.3607 44.9683 61.51 44.5509 61.6497 44.1342C61.1613 45.8068 60.5017 47.4246 59.6814 48.9619L59.6651 48.9775C59.4297 49.2077 59.1407 49.3897 58.9224 49.6407C58.704 49.8918 58.4998 50.1435 58.2591 50.379C57.1042 51.5235 55.7829 52.5076 54.4185 53.3952C53.0178 54.3102 51.6162 55.1777 50.081 55.8461C48.909 56.3667 47.6963 56.7905 46.4551 57.1132C45.4546 57.3702 44.3851 57.4846 43.3527 57.5306C42.8284 57.5574 42.3129 57.6428 41.793 57.6911C41.1461 57.7609 40.4829 57.7497 39.8464 57.8626C38.7384 58.0699 37.6183 58.2056 36.493 58.2689C35.5356 58.3224 34.5834 58.4561 33.6261 58.4561C32.3961 58.4509 31.1751 58.2578 29.9466 58.2637C28.7538 58.2741 27.5499 58.2206 26.363 58.1152C25.6515 58.0453 24.9563 57.9116 24.2552 57.8314C23.661 57.7624 23.0891 57.6339 22.5009 57.5692C22.004 57.2165 21.522 56.8369 21.057 56.4463C20.9285 56.3393 20.8 56.2324 20.6775 56.1202C21.3511 56.3341 22.0196 56.5658 22.6992 56.7783C23.6506 57.0753 24.7209 57.2543 25.7154 57.3769C26.5324 57.4786 27.5075 57.5537 28.3097 57.3502C29.1438 57.1414 29.7647 57.4088 30.5237 57.7215C30.8765 57.8701 31.2353 57.9354 31.6044 58.0424C32.1243 58.1909 32.5083 58.1605 33.0378 58.0906C33.5028 58.032 33.99 57.9518 34.455 57.85C34.8508 57.7646 35.2303 57.6042 35.6314 57.5529C36.3273 57.4668 37.0649 57.3657 37.7608 57.4883C38.5629 57.6272 39.3599 57.7111 40.1672 57.5796C40.9835 57.4384 41.8099 57.3639 42.6382 57.3568C42.9073 57.3571 43.1758 57.382 43.4404 57.4311C43.7508 57.4846 44.0398 57.3992 44.3443 57.3672C44.8809 57.3184 45.4114 57.2162 45.9277 57.062C46.4194 56.9067 46.8933 56.6906 47.3716 56.5057C48.3134 56.1529 49.1638 55.8053 49.9979 55.2379C50.699 54.7677 51.4744 54.4357 52.1859 53.9812C52.8648 53.543 53.4693 52.9919 54.1645 52.5745C54.8976 52.1288 55.566 51.5852 56.2664 51.089C56.7121 50.7734 57.1064 50.399 57.5498 50.0782C57.9353 49.8004 58.3579 49.5813 58.7159 49.2656C59.3309 48.7413 59.9043 48.1746 60.3046 47.4631C60.6811 46.8059 60.9885 46.1114 61.2218 45.3909Z" fill="#00C4FF"/>
<path fill-rule="evenodd" clip-rule="evenodd" d="M34.0674 31.3056C34.0674 31.3056 40.1823 26.3004 42.7506 21.4222C42.7506 21.4222 35.6249 28.7424 34.0674 31.3056Z" fill="#FF77F4"/>
<path fill-rule="evenodd" clip-rule="evenodd" d="M27.6378 37.2723C27.6378 37.2723 31.5 37.2968 35.7721 35.5158C40.0443 33.7347 42.1863 30.0598 42.1863 30.0598C42.1863 30.0598 39.2963 32.8219 36.1487 34.3675C33.001 35.9131 30.6191 36.2904 27.6378 37.2723Z" fill="#EA9CF4"/>
<path fill-rule="evenodd" clip-rule="evenodd" d="M42.9056 29.1779C42.9056 29.1779 43.3379 28.075 44.149 26.1417C44.96 24.2084 45.598 23.1708 45.598 23.1708C45.598 23.1708 45.3366 26.1224 42.9056 29.1779Z" fill="#EA9CF4"/>
<path fill-rule="evenodd" clip-rule="evenodd" d="M26.3152 47.4522C26.3152 47.4522 31.6829 48.7565 38.6756 47.4522C45.6683 46.148 45.9721 45.7225 47.8972 44.2125C49.8223 42.7026 51.1912 40.7685 51.951 40.0384C52.7108 39.3083 53.6674 36.7704 53.6674 36.7704C53.6674 36.7704 51.6903 40.3251 48.8561 42.704C46.0218 45.083 43.6919 46.249 38.9289 46.9583C34.1658 47.6676 28.6912 47.5934 26.3152 47.4522Z" fill="#D374F4"/>
<path fill-rule="evenodd" clip-rule="evenodd" d="M31.0253 59.1063C31.0253 59.1063 35.8886 59.5259 37.865 59.9315C39.8414 60.337 43.6412 60.3221 45.8203 59.5185C47.9994 58.7149 52.3154 56.4043 52.3154 56.4043C52.3154 56.4043 48.2876 58.6644 43.4881 59.1717C38.6887 59.679 35.772 58.8672 31.0253 59.1063Z" fill="#D374F4"/>
<path fill-rule="evenodd" clip-rule="evenodd" d="M53.7288 55.6953C53.7288 55.6953 56.8155 53.6223 58.3336 52.2461C58.3314 52.2461 56.7145 54.4586 53.7288 55.6953Z" fill="#D374F4"/>
<path fill-rule="evenodd" clip-rule="evenodd" d="M30.2681 29.3018C30.2681 29.3018 33.7916 26.6496 34.9101 24.7333C36.0286 22.8171 36.14 21.7246 36.14 21.7246C36.14 21.7246 36.6384 23.5888 34.5231 25.9581C32.4079 28.3274 30.2681 29.3018 30.2681 29.3018Z" fill="#F2C4F8"/>
<path style="mix-blend-mode:screen" opacity="0.5" fill-rule="evenodd" clip-rule="evenodd" d="M22.0393 27.4518C21.7533 28.7449 21.4644 30.0595 21.9041 31.3065C22.3438 32.5536 23.0182 33.3631 23.6606 33.4307C24.3031 33.4983 25.2478 31.9787 25.2144 31.539C25.181 31.0993 24.1672 29.9518 24.1003 28.8028C24.0335 27.6538 25.2842 25.9656 25.2144 25.3239C25.1446 24.6822 22.5087 25.3247 22.0393 27.4518Z" fill="url(#paint16_linear_1107_70)"/>
<path style="mix-blend-mode:screen" opacity="0.5" fill-rule="evenodd" clip-rule="evenodd" d="M22.6137 22.1629C22.1904 21.7084 19.3458 24.3747 17.3634 26.4365C15.3811 28.4983 13.427 31.2011 13.2562 32.9235C13.0854 34.6458 14.5062 37.2491 17.0738 39.5455C19.6414 41.842 26.3244 43.9358 27.9316 42.9903C29.5389 42.0448 28.9469 39.1051 27.6345 38.3958C26.3221 37.6865 22.0693 39.1163 20.0766 37.0218C18.0839 34.9273 18.9833 32.1131 19.2321 29.7483C19.5359 26.8517 20.448 24.4111 21.2924 23.6677C21.7973 23.2266 22.2416 22.7206 22.6137 22.1629Z" fill="url(#paint17_linear_1107_70)"/>
<path fill-rule="evenodd" clip-rule="evenodd" d="M13.8815 31.0798C13.3312 32.9478 13.2658 34.942 14.4156 36.4787C15.5653 38.0154 16.432 36.8649 16.8368 33.1208C17.2416 29.3768 17.0106 26.8159 17.0106 26.8159C17.0106 26.8159 14.5738 28.7284 13.8815 31.0798Z" fill="#FFFFF8"/>
<path fill-rule="evenodd" clip-rule="evenodd" d="M15.7588 37.571C14.9826 38.2922 16.8372 39.7249 17.1395 39.0327C17.4418 38.3405 16.2638 37.1031 15.7588 37.571Z" fill="#F5CEFA"/>
<path fill-rule="evenodd" clip-rule="evenodd" d="M13.7007 43.2232C13.6264 44.4116 14.3045 45.7581 16.3797 46.535C18.4549 47.3119 20.0799 47.1002 20.0799 47.1002C20.0799 47.1002 17.6512 46.6182 16.3151 45.6831C14.9789 44.748 13.7007 43.2232 13.7007 43.2232Z" fill="#F5CEFA"/>
<path fill-rule="evenodd" clip-rule="evenodd" d="M22.2098 27.6347C21.525 26.7286 22.4163 25.4875 23.6722 24.7247C24.9282 23.9619 25.0834 24.1922 24.8108 24.8591C24.5383 25.5261 24.1305 26.9321 23.543 27.6347C22.9555 28.3373 22.6176 28.1717 22.2098 27.6347Z" fill="#FFFFF8"/>
<path fill-rule="evenodd" clip-rule="evenodd" d="M26.7249 26.0575C26.4649 25.6119 26.99 24.3159 27.7068 24.4347C28.4235 24.5535 28.249 24.8395 27.9132 25.3133C27.6622 25.6676 26.9707 26.4772 26.7249 26.0575Z" fill="#FFFFF8"/>
<path fill-rule="evenodd" clip-rule="evenodd" d="M31.9145 28.2812C31.6702 27.7769 33.6696 26.2365 33.9399 26.3976C34.2103 26.5588 34.0357 27.3743 33.5686 27.6796C33.1014 27.9848 32 28.4609 31.9145 28.2812Z" fill="#FFFFF8"/>
<defs>
<radialGradient id="paint0_radial_1107_70" cx="0" cy="0" r="1" gradientUnits="userSpaceOnUse" gradientTransform="translate(37.7775 38.0889) scale(33.5598 33.5598)">
<stop stop-color="#E213FF"/>
<stop offset="1"/>
</radialGradient>
<radialGradient id="paint1_radial_1107_70" cx="0" cy="0" r="1" gradientUnits="userSpaceOnUse" gradientTransform="translate(39.9998 39.9995) scale(28.2843 28.2843)">
<stop stop-color="#E213FF"/>
<stop offset="1"/>
</radialGradient>
<radialGradient id="paint2_radial_1107_70" cx="0" cy="0" r="1" gradientUnits="userSpaceOnUse" gradientTransform="translate(37.477 37.5988) scale(26.9912 26.9912)">
<stop stop-color="#E213FF"/>
<stop offset="1"/>
</radialGradient>
<radialGradient id="paint3_radial_1107_70" cx="0" cy="0" r="1" gradientUnits="userSpaceOnUse" gradientTransform="translate(20.4585 27.5702) scale(41.4074 41.4074)">
<stop offset="0.01" stop-color="#FF9AFF"/>
<stop offset="0.09" stop-color="#FB94FF"/>
<stop offset="0.21" stop-color="#F183FF"/>
<stop offset="0.34" stop-color="#E068FF"/>
<stop offset="0.49" stop-color="#C841FF"/>
<stop offset="0.64" stop-color="#A910FF"/>
<stop offset="0.68" stop-color="#9F00FF"/>
<stop offset="0.74" stop-color="#9900F8"/>
<stop offset="0.83" stop-color="#8700E5"/>
<stop offset="0.93" stop-color="#6A00C6"/>
<stop offset="1" stop-color="#5200AB"/>
</radialGradient>
<radialGradient id="paint4_radial_1107_70" cx="0" cy="0" r="1" gradientUnits="userSpaceOnUse" gradientTransform="translate(20.4585 27.5702) scale(41.4074 41.4074)">
<stop offset="0.01" stop-color="#FF9AFF"/>
<stop offset="0.09" stop-color="#FB94FF"/>
<stop offset="0.21" stop-color="#F183FF"/>
<stop offset="0.34" stop-color="#E068FF"/>
<stop offset="0.49" stop-color="#C841FF"/>
<stop offset="0.64" stop-color="#A910FF"/>
<stop offset="0.68" stop-color="#9F00FF"/>
<stop offset="0.74" stop-color="#9900F8"/>
<stop offset="0.83" stop-color="#8700E5"/>
<stop offset="0.93" stop-color="#6A00C6"/>
<stop offset="1" stop-color="#5200AB"/>
</radialGradient>
<radialGradient id="paint5_radial_1107_70" cx="0" cy="0" r="1" gradientUnits="userSpaceOnUse" gradientTransform="translate(21.6328 25.1717) scale(40.7033 40.7033)">
<stop offset="0.01" stop-color="#FF9AFF"/>
<stop offset="0.09" stop-color="#FB94FF"/>
<stop offset="0.21" stop-color="#F183FF"/>
<stop offset="0.34" stop-color="#E068FF"/>
<stop offset="0.49" stop-color="#C841FF"/>
<stop offset="0.64" stop-color="#A910FF"/>
<stop offset="0.68" stop-color="#9F00FF"/>
<stop offset="0.74" stop-color="#9900F8"/>
<stop offset="0.83" stop-color="#8700E5"/>
<stop offset="0.93" stop-color="#6A00C6"/>
<stop offset="1" stop-color="#5200AB"/>
</radialGradient>
<radialGradient id="paint6_radial_1107_70" cx="0" cy="0" r="1" gradientUnits="userSpaceOnUse" gradientTransform="translate(26.986 20.8681) scale(9.10129 9.1013)">
<stop stop-color="white"/>
<stop offset="1" stop-color="#623964"/>
</radialGradient>
<radialGradient id="paint7_radial_1107_70" cx="0" cy="0" r="1" gradientUnits="userSpaceOnUse" gradientTransform="translate(28.4335 24.1569) scale(3.16621 3.16622)">
<stop stop-color="white"/>
<stop offset="1" stop-color="#623964"/>
</radialGradient>
<radialGradient id="paint8_radial_1107_70" cx="0" cy="0" r="1" gradientUnits="userSpaceOnUse" gradientTransform="translate(26.4863 23.8635) scale(3.3363)">
<stop stop-color="white"/>
<stop offset="1" stop-color="#623964"/>
</radialGradient>
<radialGradient id="paint9_radial_1107_70" cx="0" cy="0" r="1" gradientUnits="userSpaceOnUse" gradientTransform="translate(24.1262 20.65) scale(7.70721)">
<stop stop-color="white"/>
<stop offset="1" stop-color="#623964"/>
</radialGradient>
<radialGradient id="paint10_radial_1107_70" cx="0" cy="0" r="1" gradientUnits="userSpaceOnUse" gradientTransform="translate(20.8322 17.6548) scale(13.0667 13.0667)">
<stop stop-color="white"/>
<stop offset="1" stop-color="#623964"/>
</radialGradient>
<radialGradient id="paint11_radial_1107_70" cx="0" cy="0" r="1" gradientUnits="userSpaceOnUse" gradientTransform="translate(25.6757 19.7238) scale(18.207)">
<stop stop-color="white"/>
<stop offset="1" stop-color="#623964"/>
</radialGradient>
<radialGradient id="paint12_radial_1107_70" cx="0" cy="0" r="1" gradientUnits="userSpaceOnUse" gradientTransform="translate(19.9983 19.8592) scale(30.7598)">
<stop stop-color="white"/>
<stop offset="1" stop-color="#623964"/>
</radialGradient>
<radialGradient id="paint13_radial_1107_70" cx="0" cy="0" r="1" gradientUnits="userSpaceOnUse" gradientTransform="translate(29.218 46.6489) scale(24.2431 24.2431)">
<stop stop-color="#FFFF4A"/>
<stop offset="1" stop-color="#360038"/>
</radialGradient>
<radialGradient id="paint14_radial_1107_70" cx="0" cy="0" r="1" gradientUnits="userSpaceOnUse" gradientTransform="translate(19.6714 56.0023) scale(2.6166 2.6166)">
<stop stop-color="#6D00C2"/>
<stop offset="0.4" stop-color="#6600BC"/>
<stop offset="0.98" stop-color="#5300AC"/>
<stop offset="1" stop-color="#5200AB"/>
</radialGradient>
<radialGradient id="paint15_radial_1107_70" cx="0" cy="0" r="1" gradientUnits="userSpaceOnUse" gradientTransform="translate(61.9888 40.7864) scale(2.73321)">
<stop stop-color="#1F0081"/>
<stop offset="0.73" stop-color="#260087"/>
<stop offset="1" stop-color="#2A008B"/>
</radialGradient>
<linearGradient id="paint16_linear_1107_70" x1="21.6783" y1="29.2596" x2="25.2181" y2="29.2596" gradientUnits="userSpaceOnUse">
<stop stop-color="#BDFFE8"/>
<stop offset="0.2" stop-color="#8BBBAA"/>
<stop offset="0.42" stop-color="#5A796E"/>
<stop offset="0.61" stop-color="#33453F"/>
<stop offset="0.78" stop-color="#171F1D"/>
<stop offset="0.91" stop-color="#060808"/>
<stop offset="1"/>
</linearGradient>
<linearGradient id="paint17_linear_1107_70" x1="13.2428" y1="32.6672" x2="28.9031" y2="32.6672" gradientUnits="userSpaceOnUse">
<stop stop-color="#BDFFE8"/>
<stop offset="0.2" stop-color="#8BBBAA"/>
<stop offset="0.42" stop-color="#5A796E"/>
<stop offset="0.61" stop-color="#33453F"/>
<stop offset="0.78" stop-color="#171F1D"/>
<stop offset="0.91" stop-color="#060808"/>
<stop offset="1"/>
</linearGradient>
</defs>
</svg>
