<svg width="100" height="100" viewBox="0 0 100 100" fill="none" xmlns="http://www.w3.org/2000/svg">
<path style="mix-blend-mode:screen" d="M95.0162 49.9999C95.0162 25.1385 74.862 4.98427 50.0005 4.98427C25.1391 4.98427 4.98492 25.1385 4.98492 49.9999C4.98492 74.8613 25.1391 95.0155 50.0006 95.0155C74.862 95.0155 95.0162 74.8613 95.0162 49.9999Z" fill="url(#paint0_radial_1107_553)"/>
<path style="mix-blend-mode:screen" d="M75 75C88.8071 61.1929 88.8071 38.8071 75 25C61.1929 11.1929 38.8071 11.1929 25 25C11.1929 38.8071 11.1929 61.1929 25 75C38.8071 88.8071 61.1929 88.8071 75 75Z" fill="url(#paint1_radial_1107_553)"/>
<path style="mix-blend-mode:screen" d="M73.8569 73.8567C87.0326 60.681 87.0326 39.319 73.8569 26.1433C60.6813 12.9677 39.3193 12.9677 26.1436 26.1433C12.9679 39.319 12.9679 60.681 26.1436 73.8567C39.3193 87.0323 60.6812 87.0323 73.8569 73.8567Z" fill="url(#paint2_radial_1107_553)"/>
<path fill-rule="evenodd" clip-rule="evenodd" d="M80.6013 49.4635C80.6047 53.4802 79.816 57.4581 78.2803 61.1697C76.7445 64.8812 74.4919 68.2534 71.6514 71.0934C68.8109 73.9333 65.4382 76.1852 61.7263 77.7202C58.0145 79.2552 54.0364 80.0431 50.0197 80.0389C49.4774 80.0389 48.9289 80.0254 48.3929 79.9931H48.3866C47.5862 79.9546 46.7921 79.8775 46.0114 79.7798C40.2543 79.0264 34.8337 76.6388 30.3916 72.8998C27.5262 70.4878 25.1188 67.5791 23.2849 64.3133C23.0976 63.9781 22.9165 63.6357 22.7364 63.2933C22.7364 63.2808 22.7301 63.2745 22.7229 63.2611C22.5365 62.8936 22.3644 62.5252 22.1941 62.1515H22.1879C21.6526 60.978 21.1954 59.7704 20.8192 58.5367C20.5333 57.6375 20.2939 56.7242 20.1022 55.8003C20.0972 55.7926 20.095 55.7834 20.0959 55.7743C19.9596 55.1218 19.844 54.4639 19.7535 53.8024C19.5454 52.3661 19.4418 50.9166 19.4434 49.4653C19.4434 48.6201 19.4756 47.7739 19.5536 46.9485C19.5922 46.4187 19.6504 45.8962 19.7212 45.3728C20.1078 42.4207 20.9322 39.5428 22.1672 36.8337C24.5969 31.4841 28.5151 26.9468 33.4539 23.7638C38.3926 20.5808 44.1432 18.8866 50.0188 18.8836C50.3414 18.8836 50.6641 18.8899 50.9805 18.897C51.322 18.9096 51.6644 18.9221 52.0068 18.9481C53.7361 19.0602 55.4527 19.3193 57.1381 19.7225C58.1061 19.9556 59.0552 20.2263 59.9847 20.5489C60.6121 20.7622 61.2395 20.9971 61.8499 21.2588C62.3079 21.4524 62.7534 21.6532 63.1943 21.8656C63.2714 21.9041 63.3494 21.9364 63.4265 21.9758C66.3785 23.4191 69.0789 25.3281 71.4241 27.6297C71.7593 27.9523 72.082 28.2876 72.4047 28.6299C72.618 28.8621 72.8304 29.1014 73.0375 29.3398C73.396 29.7405 73.7348 30.1599 74.07 30.5794C76.7413 33.9752 78.66 37.9003 79.6988 42.0941C80.2985 44.5047 80.6016 46.9794 80.6013 49.4635Z" fill="url(#paint3_radial_1107_553)"/>
<g style="mix-blend-mode:multiply" opacity="0.4">
<path fill-rule="evenodd" clip-rule="evenodd" d="M19.4407 49.4635C19.4407 49.4635 26.6514 62.2582 33.6228 64.2426C40.5942 66.227 48.5542 64.9659 51.2754 65.9796C53.9965 66.9933 55.4763 71.1503 55.4763 71.1503L56.49 71.7311C56.49 71.7311 58.8159 68.12 60.2401 70.2531C60.2401 70.2531 59.6728 67.2299 61.3838 63.5488C63.0948 59.8678 64.2385 55.9142 66.3574 54.6504C68.4762 53.3866 72.3554 52.7995 75.4297 54.023C78.504 55.2464 80.0967 55.0089 80.0967 55.0089L80.3262 53.5605L80.5565 52.2833C80.5565 52.2833 77.614 52.7512 75.2468 51.2373C75.2468 51.2373 75.5713 51.8029 77.4051 48.3781C79.2389 44.9534 79.0274 41.8638 79.0274 41.8638L78.7639 39.019C78.7639 39.019 77.778 48.8872 73.6174 51.7509C73.6174 51.7509 64.338 49.8301 60.414 60.7829C60.414 60.7829 59.7427 68.1083 55.8545 67.9048C51.9664 67.7014 53.3118 62.9107 47.6857 62.8614C42.0596 62.8121 38.6465 65.1254 33.0761 61.9489C27.5056 58.7725 19.4407 49.4635 19.4407 49.4635Z" fill="#7D72B3"/>
</g>
<g style="mix-blend-mode:multiply" opacity="0.4">
<path fill-rule="evenodd" clip-rule="evenodd" d="M48.3921 79.9927C48.3921 79.9927 52.2462 74.2331 56.491 74.2645C60.7359 74.2959 62.6889 75.8357 66.0321 73.8845C69.3753 71.9332 70.7646 70.7134 72.3062 69.6719C73.8478 68.6304 74.1077 68.2996 74.1077 68.2996L74.8033 67.38C74.8033 67.38 72.4594 66.2426 70.3935 67.9133C68.3275 69.584 64.5944 73.3655 61.6268 73.3467C58.6592 73.3279 58.808 71.6222 55.4773 72.9595C52.1467 74.2968 45.134 79.0238 45.134 79.0238C45.134 79.0238 46.4041 79.9515 48.3921 79.9927Z" fill="#7D72B3"/>
</g>
<g style="mix-blend-mode:multiply" opacity="0.4">
<path fill-rule="evenodd" clip-rule="evenodd" d="M21.124 59.4789L21.4915 60.4881C21.4915 60.4881 27.4536 63.7793 31.2189 68.3612C34.9843 72.9431 35.6538 76.046 35.6538 76.046C35.6538 76.046 36.3234 73.3159 33.0788 68.181C29.8342 63.0461 22.8484 60.2318 21.124 59.4789Z" fill="#7D72B3"/>
</g>
<path fill-rule="evenodd" clip-rule="evenodd" d="M63.4297 21.9758C63.3284 21.9846 63.2275 21.9987 63.1277 22.018C62.8091 22.0767 62.481 22.0548 62.1731 21.9543C61.9293 21.8853 61.7536 21.7849 61.4937 21.7419C61.1226 21.6836 60.7767 21.525 60.4065 21.473C60.0139 21.4201 59.6751 21.2669 59.3032 21.1342C59.0119 21.0275 58.855 21.0652 58.5772 21.1342C58.2993 21.2032 58.0994 21.0912 57.8503 20.9854C57.5688 20.8635 57.2883 20.842 56.9907 20.7838C56.2163 20.6251 55.4473 20.375 54.6783 20.1788C54.2006 20.0569 53.7605 20.0569 53.2729 20.0515C52.8911 20.047 52.546 20.1581 52.1642 20.1581C51.9202 20.1497 51.6772 20.1231 51.4373 20.0784C51.1773 20.0309 50.912 20.0837 50.6521 20.047C50.2649 19.9878 50.0579 19.9296 49.6662 20.0515C49.374 20.1474 49.1463 20.1366 48.8541 20.1528C48.5139 20.1822 48.1769 20.2407 47.8467 20.3275C47.2619 20.4746 46.6616 20.5513 46.0586 20.5561C45.7001 20.5561 45.1677 20.4548 44.8235 20.5767C44.6003 20.6565 44.4892 20.8949 44.335 21.0544C44.0383 21.3619 43.6717 21.6379 43.4226 21.983C43.1734 22.3281 42.892 22.683 42.9135 23.1177C42.935 23.4942 43.1098 23.9342 43.272 24.2829C43.4414 24.6486 43.4997 24.9829 43.1232 25.2267C42.6441 25.5547 42.1184 25.8088 41.5637 25.9805C41.2051 26.0863 40.8798 26.1499 40.5777 25.8909C40.4666 25.7959 40.3985 25.6094 40.2595 25.5323C40.1206 25.4553 39.9682 25.5323 39.8114 25.5798C39.4378 25.7033 39.057 25.8042 38.6713 25.8819C38.432 25.9195 38.2231 26.0468 37.9919 26.0889C37.7114 26.1418 37.5097 25.9348 37.2175 26.0038C36.8097 26.0997 36.401 26.2727 35.977 26.2906C35.6741 26.3067 35.2923 26.1741 35.0377 26.0217C34.8889 25.9366 34.8522 25.8523 34.6792 25.8998C34.5133 25.9609 34.3679 26.0674 34.2597 26.2073C34.1593 26.3507 34.1217 26.5362 34.0213 26.685C33.9146 26.849 33.8143 27.0085 33.7184 27.1833C33.5428 27.5188 33.3408 27.8398 33.1143 28.1433C32.9547 28.3557 32.8454 28.6416 32.6661 28.8379C32.5765 28.9445 32.3793 29.0171 32.2628 29.0978C31.9446 29.321 31.6103 29.5227 31.3028 29.7611C30.7086 30.228 30.1466 30.7425 29.5416 31.1951C29.08 31.5402 28.4329 31.7419 27.9077 31.9588C27.5787 32.0914 27.2399 32.1873 26.911 32.3245C26.8043 32.3675 26.608 32.4141 26.5184 32.4948C26.4019 32.5952 26.3391 32.7807 26.2316 32.9187C25.9457 33.2692 25.6427 33.6187 25.4249 34.0221C25.302 34.254 25.2023 34.4974 25.1273 34.749C25.0108 35.094 24.8253 35.4122 24.7088 35.7564C24.4704 36.4779 24.422 37.2308 24.1567 37.9469C24.0034 38.3664 23.7802 38.7482 23.5893 39.1301C23.2604 39.7772 23.2129 40.5462 23.117 41.2624C23.0675 41.6989 23.082 42.1404 23.16 42.5727C23.2398 43.0128 23.2182 43.469 23.2129 43.9172C23.2075 44.394 22.9054 44.861 22.6025 45.2222C22.3273 45.5565 21.9079 45.6838 21.6004 45.9805C21.3405 46.235 21.0277 46.5263 20.9165 46.8875C20.8681 47.0462 20.9112 47.2272 20.8843 47.3966C20.8153 47.7731 20.7203 48.1289 20.6665 48.5107C20.6146 48.9737 20.5918 49.4395 20.5984 49.9053C20.5984 50.1438 20.5822 50.3885 20.593 50.6269C20.6038 50.8653 20.688 51.067 20.7041 51.2955C20.7149 51.4542 20.6826 51.6137 20.7041 51.7723C20.7355 51.9516 20.8045 52.1389 20.8475 52.3101C20.9533 52.7341 21.0331 53.1481 21.1164 53.5721C21.1899 53.9647 21.3441 54.3519 21.466 54.7373C21.6286 55.2606 21.7562 55.7942 21.8478 56.3345C21.9276 56.7369 21.9222 57.1564 21.9805 57.5651C22.028 57.8932 22.1024 58.2275 22.1185 58.5564C22.1346 59.0548 22.0127 59.554 22.0074 60.0577C22.002 60.9065 22.3417 61.7553 22.538 62.5718C22.5962 62.7995 22.6545 63.0334 22.7172 63.2611C20.3612 58.5978 19.239 53.4086 19.4577 48.1885C19.6764 42.9684 21.2287 37.8914 23.9666 33.4415C26.7044 28.9916 30.5366 25.3172 35.0976 22.7688C39.6586 20.2203 44.7964 18.8828 50.0211 18.8836C50.6897 18.8836 51.3476 18.9042 52.0046 18.9472C55.9749 19.1966 59.8572 20.2257 63.4297 21.9758Z" fill="url(#paint4_linear_1107_553)"/>
<g style="mix-blend-mode:multiply" opacity="0.4">
<path fill-rule="evenodd" clip-rule="evenodd" d="M26.9203 32.325C26.9203 32.325 33.8039 38.4798 42.8851 38.6564C51.9664 38.833 55.3437 38.2217 58.3624 34.8588C61.3811 31.4959 64.6365 25.7972 64.6365 25.7972C64.6365 25.7972 60.7573 27.666 58.0738 31.3193C55.3903 34.9726 42.7148 41.1956 26.9203 32.325Z" fill="#7D72B3"/>
</g>
<g opacity="0.7">
<g style="mix-blend-mode:multiply" opacity="0.4">
<path fill-rule="evenodd" clip-rule="evenodd" d="M27.4685 32.5004C26.5677 33.567 25.7826 34.6515 25.1767 35.9162C24.6389 37.0383 24.4417 38.2887 24.2472 39.5014C24.1325 40.2184 24.0303 40.9462 23.9218 41.6686C23.8259 42.3086 23.6404 42.9844 23.7507 43.6324C23.9012 44.5108 23.946 45.4797 24.3673 46.2809C24.7961 47.1164 25.3037 47.909 25.883 48.6481C26.4682 49.3902 27.1754 49.7236 28.1237 49.7899C28.6364 49.8258 29.1464 49.7469 29.6608 49.8141C30.3725 49.9083 31.086 50.0382 31.7958 50.1521C33.2254 50.3815 34.8316 50.3923 35.8587 49.2199C36.6923 48.2689 37.0867 47.0831 37.6173 45.9511C38.1819 44.7447 38.8936 43.7444 39.9476 42.9252C40.7256 42.3229 41.4077 41.6453 42.1552 41.0098C42.494 40.7212 42.6993 40.4093 43.0847 40.1933C43.4701 39.9773 43.6664 39.7451 43.9971 39.4422C44.2938 39.1688 44.655 38.9842 44.9194 38.6723C45.3407 38.1757 45.6786 37.5071 45.9053 36.9039C46.1428 36.2702 46.2585 35.598 46.3535 34.932C46.4431 34.2795 46.2486 33.6243 46.0461 33.0023C45.6589 31.8183 44.6487 31.0753 43.6978 30.3403C42.52 29.4315 41.1334 29.0281 39.6841 28.7431C38.3666 28.4841 36.7801 28.4312 35.4563 28.666C34.0554 28.9134 32.6159 29.1142 31.3109 29.721C30.3573 30.1646 29.7809 30.7804 29.011 31.4329C28.6193 31.7654 28.1443 31.994 27.7903 32.3686C27.3 32.8894 26.8411 33.4522 27.4685 32.5004Z" fill="#7D72B3"/>
</g>
<g style="mix-blend-mode:multiply" opacity="0.4">
<path fill-rule="evenodd" clip-rule="evenodd" d="M41.3295 26.7924C41.5195 26.4608 41.7355 25.9858 41.999 25.6721C42.1508 25.5113 42.3163 25.364 42.4938 25.232C43.0046 24.8036 43.564 24.4406 44.2129 24.2541C44.574 24.1506 44.9559 24.1435 45.3207 24.2335C45.6846 24.3231 46.3443 24.5759 46.6239 24.8421C47.1438 25.3378 46.8032 26.1865 46.6445 26.7593C46.4859 27.332 46.3057 27.8931 45.785 28.2615C45.4388 28.5085 45.0484 28.6868 44.635 28.7867C44.4092 28.8378 44.1806 28.8226 43.952 28.8503C43.7708 28.8846 43.5876 28.9077 43.4035 28.9194C42.9814 28.9194 42.3387 28.6173 42.1612 28.2023C42.0716 27.9863 42.016 27.7622 41.9183 27.5444C41.8439 27.3804 41.7857 27.2056 41.7167 27.0398C41.5867 26.7261 41.4711 26.4223 41.3295 26.7924Z" fill="#7D72B3"/>
</g>
<g style="mix-blend-mode:multiply" opacity="0.4">
<path fill-rule="evenodd" clip-rule="evenodd" d="M46.3838 30.0547C46.2593 30.3878 46.19 30.739 46.1786 31.0944C46.3354 31.1841 46.3901 31.3803 46.5443 31.4709C46.6984 31.5614 46.8705 31.5229 47.039 31.522C47.3456 31.522 47.6413 31.522 47.6933 31.1482C47.7381 30.8184 47.4468 30.5782 47.1995 30.3989C47.0202 30.2698 46.668 29.9687 46.4654 30.2196L46.3838 30.0547Z" fill="#7D72B3"/>
</g>
<g style="mix-blend-mode:multiply" opacity="0.4">
<path fill-rule="evenodd" clip-rule="evenodd" d="M50.6247 35.0271C50.2276 35.3103 49.7992 35.5649 49.42 35.8669C48.9387 36.2488 48.5614 36.7354 48.1876 37.2186C47.7233 37.82 47.1766 38.4492 47.2913 39.2585C47.4061 40.0679 47.6758 40.7195 48.288 41.2555C48.9961 41.8757 50.0905 41.8721 50.9151 42.2737C51.6196 42.6169 52.0695 43.3268 52.4226 44.0017C52.9604 45.0262 54.0835 45.2081 55.1115 45.4017C55.7793 45.5272 56.4407 45.6231 57.1148 45.7056C58.0209 45.8158 58.9172 45.9897 59.8252 46.0767C61.4896 46.2371 63.1683 46.6207 64.8444 46.4863C66.6227 46.3438 68.2342 45.7101 69.697 44.6937C70.9437 43.8261 72.0578 42.3194 72.3859 40.827C72.7309 39.2585 72.2156 37.5107 71.4564 36.1421C70.4592 34.3702 69.3157 32.6847 68.0379 31.1031C67.337 30.2221 66.5241 29.4369 65.8079 28.5657C65.1989 27.8187 64.5256 27.1265 63.7958 26.497C62.1358 25.0692 60.0743 23.8906 57.8434 23.7732C56.9888 23.7247 56.1336 23.8572 55.3338 24.1622C54.6338 24.4311 54.1274 24.8353 53.6075 25.3704C52.2873 26.7292 51.5972 28.459 51.0253 30.2346C50.7636 31.0484 50.5189 31.9689 50.6148 32.8339C50.6444 33.0983 50.7851 33.308 50.7815 33.559C50.7815 33.7929 50.7815 34.0277 50.7815 34.2626C50.7955 34.3833 50.7833 34.5056 50.7457 34.6211C50.6704 34.8075 50.4813 35.0047 50.6247 35.0271Z" fill="#7D72B3"/>
</g>
<g style="mix-blend-mode:multiply" opacity="0.4">
<path fill-rule="evenodd" clip-rule="evenodd" d="M43.6123 41.0604C42.7501 41.5633 41.8654 41.9567 41.2326 42.7634C41.1206 42.9068 40.9539 43.0672 41.0121 43.2608C41.0776 43.4742 41.3178 43.5952 41.5033 43.6722C42.1433 43.9411 42.9257 44.0792 43.6123 43.9411C44.2289 43.8192 45.0401 43.4034 45.3735 42.8432C45.7948 42.136 45.3188 40.9995 44.4261 41.056C44.2926 41.0649 44.1904 41.1294 44.0604 41.1456C43.9547 41.1581 43.8409 41.1375 43.7333 41.1456C43.6453 41.1487 43.5595 41.1733 43.4832 41.2173C43.3757 41.2576 43.2341 41.3804 43.6123 41.0604Z" fill="#7D72B3"/>
</g>
<g style="mix-blend-mode:multiply" opacity="0.4">
<path fill-rule="evenodd" clip-rule="evenodd" d="M25.9208 52.8823C25.5704 53.2005 25.2208 53.4443 25.0191 53.8682C24.8337 54.2501 24.6953 54.6531 24.6069 55.0684C24.528 55.4385 24.4276 55.8338 24.5172 56.212C24.6015 56.5508 24.761 56.8878 24.8758 57.2195C25.0322 57.6386 25.1606 58.0677 25.2602 58.5039C25.3759 59.0587 25.5811 59.5319 25.8285 60.0419C26.0723 60.5406 26.3447 61.0248 26.6441 61.4921C26.9525 61.9779 27.3101 62.3597 27.708 62.7747C29.1018 64.2267 30.8056 65.7648 32.8842 66.0265C33.9346 66.1582 35.029 65.8885 35.7962 65.1356C36.6352 64.3128 37.1703 63.1279 37.3486 61.9725C37.501 60.9866 37.4006 59.9702 36.8682 59.1151C36.4442 58.4331 35.9809 57.6999 35.4341 57.1092C35.0639 56.7104 34.6373 56.368 34.2349 56.0041C33.8324 55.6402 33.4506 55.2602 33.0132 54.9402C32.246 54.3791 31.5048 53.7884 30.7321 53.2372C30.033 52.7335 29.2784 52.1859 28.4242 51.9824C27.8353 51.8408 27.19 51.7234 26.6083 51.9501C26.3591 52.0478 26.1673 52.1294 26.0409 52.3597C25.9782 52.4718 25.8312 52.6654 25.8222 52.7935C25.8016 52.7909 25.7792 52.7962 25.9208 52.8823Z" fill="#7D72B3"/>
</g>
<g style="mix-blend-mode:multiply" opacity="0.4">
<path fill-rule="evenodd" clip-rule="evenodd" d="M31.3822 51.4955C31.4108 51.7411 31.4386 51.9876 31.4673 52.2331C31.4843 52.3129 31.5023 52.3936 31.5193 52.4733C31.5677 52.5244 31.7523 52.546 31.8169 52.554C32.066 52.5827 32.3358 52.4492 32.5339 52.2968C32.8324 52.0646 32.9668 51.5233 32.6908 51.2472C32.5864 51.141 32.4565 51.0635 32.3135 51.022C32.1705 50.9806 32.0192 50.9767 31.8742 51.0106C31.7138 51.0429 31.0335 51.4014 31.3033 51.6586L31.3822 51.4955Z" fill="#7D72B3"/>
</g>
<g style="mix-blend-mode:multiply" opacity="0.4">
<path fill-rule="evenodd" clip-rule="evenodd" d="M72.3114 44.8115C72.4181 44.2639 72.4297 43.9152 72.7658 43.5047C73.0589 43.1462 73.3798 42.8173 73.6621 42.4534C74.1775 41.7847 74.4966 40.996 74.6893 40.1768C74.8596 39.4535 74.6821 38.7499 75.0057 38.0516C75.0827 37.8858 75.1733 37.5703 75.348 37.4906C75.5094 37.4171 75.8347 37.4789 75.9808 37.5659C76.1269 37.6528 76.2802 37.8455 76.4048 37.9557C76.6219 38.1572 76.8284 38.3699 77.0232 38.593C78.0423 39.7026 78.6052 41.3572 78.598 42.8522C78.5926 43.7288 78.4985 44.5408 78.2072 45.3618C78.0984 45.6889 77.9569 46.0042 77.7851 46.303C77.5637 46.6776 77.2894 46.9026 76.9264 47.1347C75.8706 47.8096 74.337 47.5578 73.4551 46.7233C73.1279 46.4141 72.9773 45.9893 72.764 45.6263C72.5964 45.3412 72.4387 45.0822 72.3786 44.7425C72.3553 44.7398 72.3329 44.7344 72.3114 44.8115Z" fill="#7D72B3"/>
</g>
<g style="mix-blend-mode:multiply" opacity="0.4">
<path fill-rule="evenodd" clip-rule="evenodd" d="M72.3103 33.3152C72.4895 33.9122 72.5729 34.562 73.1842 34.8703C73.3253 34.9412 73.4764 34.9902 73.6323 35.0155C73.7865 35.0227 73.9012 34.9348 74.0195 34.8461C74.6612 34.3747 74.2884 33.2928 73.8582 32.8043C73.6036 32.5166 73.3096 32.4225 72.9565 32.3176C72.7952 32.2701 72.8346 32.2567 72.6975 32.3176C72.6039 32.3511 72.5237 32.414 72.4689 32.4969C72.4164 32.599 72.3884 32.7119 72.3873 32.8267C72.3764 32.9166 72.3557 33.0049 72.3255 33.0903C72.2799 33.276 72.3025 33.4719 72.3891 33.6424L72.3103 33.3152Z" fill="#7D72B3"/>
</g>
<g style="mix-blend-mode:multiply" opacity="0.4">
<path fill-rule="evenodd" clip-rule="evenodd" d="M67.5004 58.1817C67.3427 58.5878 67.219 59.0117 67.0397 59.4079C66.8497 59.8291 66.6597 60.2549 66.4805 60.6815C66.0099 61.8073 65.7464 62.976 65.4425 64.152C65.1284 65.3902 64.9103 66.6509 64.79 67.9227C64.7246 68.577 64.6233 69.2071 64.6413 69.8686C64.6547 70.3373 64.652 70.911 64.8205 71.3582C64.9236 71.6361 65.1844 72.06 65.4748 72.1855C65.8539 72.3486 66.3335 72.0313 66.6525 71.8736C67.9002 71.256 68.9596 70.3176 69.95 69.3514C70.9252 68.4004 71.9165 67.4988 72.7285 66.3936C73.096 65.8899 73.5047 65.3933 73.8131 64.8502C74.0703 64.3967 74.246 63.9019 74.4808 63.4367C74.7004 63.0011 74.8599 62.5404 75.067 62.0986C75.3241 61.5625 75.544 61.0094 75.7249 60.4431C76.0592 59.3586 76.3523 58.2517 75.9749 57.1268C75.8184 56.657 75.5428 56.2357 75.1751 55.904C74.8074 55.5722 74.3601 55.3414 73.8767 55.2338C73.3434 55.1191 72.7438 54.9649 72.1952 55.0035C71.6406 55.0531 71.0967 55.1864 70.5819 55.3987C70.1401 55.5759 69.7141 55.7899 69.3083 56.0387C69.0842 56.1785 68.9327 56.373 68.7552 56.5639C68.4484 56.8831 68.174 57.232 67.936 57.6054C67.8295 57.773 67.7063 57.9294 67.5686 58.0724C67.3606 58.3018 67.2737 58.6415 67.5004 58.1817Z" fill="#7D72B3"/>
</g>
<g style="mix-blend-mode:multiply" opacity="0.4">
<path fill-rule="evenodd" clip-rule="evenodd" d="M62.6904 72.2902C62.0432 72.534 61.5055 72.7697 60.9534 73.1793C60.2919 73.6705 59.6761 74.1742 59.2029 74.8518C59.0299 75.1001 58.6839 75.5258 58.943 75.8189C59.1688 76.0734 59.5336 76.051 59.8392 76.0448C60.2868 76.0394 60.7295 75.9504 61.1443 75.7821C61.5288 75.6208 61.8765 75.4093 62.2736 75.2721C62.6545 75.1413 63.1699 74.8885 63.4298 74.5605C63.5759 74.3741 63.6611 74.1177 63.7955 73.9178C63.8486 73.849 63.8867 73.7698 63.9075 73.6854C63.9283 73.601 63.9314 73.5132 63.9165 73.4276C63.8775 73.1585 63.7564 72.9081 63.5696 72.7105C63.411 72.5653 63.1081 72.4201 62.8956 72.447C62.7724 72.4635 62.6519 72.496 62.5371 72.5438C62.2772 72.655 62.0674 72.9749 62.6904 72.2902Z" fill="#7D72B3"/>
</g>
<g style="mix-blend-mode:multiply" opacity="0.4">
<path fill-rule="evenodd" clip-rule="evenodd" d="M61.8764 68.5363C61.7438 68.0496 61.5941 67.6659 61.6371 67.1775C61.6747 66.7356 61.6694 66.3618 61.9015 65.9621C61.9992 65.7936 62.2824 65.2612 62.4725 65.194C62.5791 65.1758 62.6878 65.1737 62.7951 65.1877C63.125 65.2307 63.323 65.6358 63.3912 65.9334C63.496 66.3905 63.4234 66.9283 63.427 67.3962C63.4365 67.7529 63.3734 68.1079 63.2415 68.4394C63.1303 68.7155 62.9099 68.7083 62.6302 68.7003C62.3506 68.6922 62.2421 68.6106 62.0395 68.452C61.9651 68.3937 61.8603 68.3722 61.7886 68.314C61.698 68.2342 61.7285 68.1248 61.8764 68.5363Z" fill="#7D72B3"/>
</g>
<g style="mix-blend-mode:multiply" opacity="0.4">
<path fill-rule="evenodd" clip-rule="evenodd" d="M61.3043 49.2127C61.2477 49.5499 61.224 49.8918 61.2335 50.2336C61.3572 50.2336 61.4863 50.4622 61.6467 50.5025C61.8726 50.559 62.1074 50.4192 62.2822 50.2784C62.6676 49.971 62.7734 49.3875 62.6873 48.9268C62.6013 48.4661 62.0832 48.4303 61.7104 48.4787C61.5619 48.4963 61.4206 48.5519 61.2998 48.64C61.0731 48.8408 61.0534 49.0837 61.0596 49.3777L61.3043 49.2127Z" fill="#7D72B3"/>
</g>
<g style="mix-blend-mode:multiply" opacity="0.4">
<path fill-rule="evenodd" clip-rule="evenodd" d="M32.1163 70.2484C32.3242 69.8899 32.5044 69.4973 32.7715 69.1791C33.0769 68.8076 33.4062 68.4564 33.7574 68.1278C34.1859 67.737 34.6824 67.3767 35.1413 67.0217C35.567 66.6919 36.0027 66.371 36.4589 66.0851C37.2557 65.5859 38.0776 65.2569 38.9613 64.9513C39.6749 64.6917 40.4454 64.6297 41.1913 64.772C41.9612 64.9298 42.7087 65.3636 43.2752 65.8987C43.8184 66.4132 44.3893 67.0379 44.7236 67.7146C45.4075 69.0967 45.1431 70.5953 44.6752 71.9989C44.4664 72.6263 44.0308 73.3756 43.5056 73.7825C43.2028 74.0095 42.8541 74.1677 42.4838 74.2459C42.0688 74.3355 41.5973 74.4807 41.1779 74.5345C39.3351 74.7675 37.4457 74.634 35.6952 73.9896C35.0024 73.735 34.323 73.4222 33.6588 73.0995C33.1394 72.8619 32.6865 72.4999 32.3404 72.0455C32.0804 71.695 31.8582 71.2783 31.8716 70.8328C31.8779 70.6329 31.9451 70.4537 31.9702 70.2601C32.0536 70.2583 32.1262 70.2045 32.1163 70.2484Z" fill="#7D72B3"/>
</g>
<g style="mix-blend-mode:multiply" opacity="0.4">
<path fill-rule="evenodd" clip-rule="evenodd" d="M45.9776 71.0629C45.8493 71.3968 45.7669 71.7465 45.7329 72.1026C45.8575 72.1743 45.8503 72.3796 45.9435 72.4934C45.9871 72.5532 46.0436 72.6025 46.1087 72.6375C46.1739 72.6726 46.2461 72.6925 46.32 72.696C46.4931 72.7099 46.6672 72.7072 46.8398 72.6879C47.0926 72.6485 47.1482 72.5552 47.279 72.3688C47.426 72.16 47.4645 72.0694 47.4466 71.7925C47.4401 71.5966 47.378 71.4066 47.2674 71.2449C47.1795 71.1229 47.0765 71.0127 46.9608 70.9168C46.7197 70.7429 46.5387 70.8415 46.3074 70.9822L45.9776 71.0629Z" fill="#7D72B3"/>
</g>
<g style="mix-blend-mode:multiply" opacity="0.4">
<path fill-rule="evenodd" clip-rule="evenodd" d="M76.1425 55.1658C75.8647 54.9497 75.6287 54.6849 75.446 54.3842C75.4717 54.2624 75.4668 54.1361 75.4317 54.0167C75.386 53.703 75.3277 53.4475 75.3923 53.1294C75.4733 52.7658 75.6664 52.4369 75.9445 52.189C76.2226 51.9412 76.5715 51.787 76.942 51.7482C77.4367 51.6917 78.1564 52.0924 78.4173 52.4939C78.6942 52.9196 78.8072 53.4924 78.8296 53.9889C78.8484 54.4012 78.7561 54.8924 78.5069 55.2357C78.3339 55.475 77.9844 55.4839 77.7101 55.4929C77.3924 55.5019 77.0758 55.4537 76.7752 55.3504C76.5476 55.2742 76.2948 55.1084 76.1425 55.1658Z" fill="#7D72B3"/>
</g>
</g>
<path style="mix-blend-mode:screen" fill-rule="evenodd" clip-rule="evenodd" d="M31.8885 73.3453C28.7084 70.6836 26.1009 67.405 24.2233 63.7074C23.0259 61.3462 22.1432 58.8382 21.5981 56.2475C21.5932 56.2394 21.5913 56.2299 21.5927 56.2206C21.1595 54.1446 20.9408 52.0296 20.9402 49.9089C20.9406 41.799 24.1625 34.0214 29.8971 28.2868C35.6317 22.5523 43.4093 19.3304 51.5192 19.3299C52.1869 19.3299 52.8448 19.3514 53.5027 19.3936C55.5403 19.5253 57.5596 19.861 59.5303 20.3956C57.0916 19.5985 54.5619 19.1131 52.0014 18.9508C51.3444 18.9078 50.6865 18.8871 50.0179 18.8871C46.0023 18.8857 42.0258 19.6756 38.3156 21.2117C34.6055 22.7478 31.2344 24.9999 28.395 27.8394C25.5556 30.6789 23.3035 34.05 21.7676 37.7602C20.2316 41.4704 19.4418 45.447 19.4434 49.4625C19.4437 51.5832 19.662 53.6982 20.095 55.7743C20.0936 55.7836 20.0955 55.7931 20.1004 55.8012C20.6456 58.3928 21.5285 60.9017 22.7265 63.2637C24.668 67.0874 27.3893 70.4617 30.7149 73.1692C34.0405 75.8767 37.8966 77.8572 42.0345 78.983C38.3228 77.7705 34.8784 75.8567 31.8885 73.3453Z" fill="url(#paint5_radial_1107_553)"/>
<g style="mix-blend-mode:multiply" opacity="0.4">
<path fill-rule="evenodd" clip-rule="evenodd" d="M22.9901 46.1727C22.9901 46.1727 40.1093 53.1575 49.403 52.5991C58.6967 52.0407 62.6494 46.7176 66.3583 41.857C70.0672 36.9964 71.46 31.1507 71.46 31.1507C71.46 31.1507 64.4223 44.7296 55.6852 48.3256L50.6659 49.342C50.6659 49.342 53.2831 47.3889 55.1106 45.4054C56.9382 43.4219 63.984 40.5359 64.6392 38.218C65.2944 35.9002 65.2191 32.09 66.3592 29.6539C67.4993 27.2178 68.6367 25.2056 68.6367 25.2056L65.6152 24.683L64.1964 28.0137C64.1964 28.0137 63.7985 33.5546 62.7139 36.559C61.6294 39.5634 51.0298 47.7887 48.6403 49.1663C46.2507 50.5439 25.1439 47.6354 22.9901 46.1727Z" fill="#7D72B3"/>
</g>
<g style="mix-blend-mode:soft-light">
<g style="mix-blend-mode:multiply" opacity="0.4">
<path fill-rule="evenodd" clip-rule="evenodd" d="M53.5357 75.4559C53.6002 75.4317 54.7009 74.9307 55.0244 74.954C55.1589 74.9639 55.2996 75.0732 55.4009 75.1333C55.6958 75.2982 55.8858 75.5438 55.849 75.8871C55.8015 76.3782 55.2647 77.02 54.6758 77.2315C53.9462 77.5004 53.1772 77.1616 52.9182 76.6803C52.6591 76.199 53.3224 75.2955 54.0555 75.2794L53.5357 75.4559Z" fill="#7D72B3"/>
</g>
<path fill-rule="evenodd" clip-rule="evenodd" d="M39.2083 45.0298C38.805 45.719 37.7931 46.9819 38.0987 47.9687C38.2305 48.3909 38.5307 48.8301 38.7198 49.2289C39.237 50.3233 40.2785 51.4222 41.5736 50.6307C43.0265 49.7425 42.3956 48.1211 41.7807 46.9425C41.5521 46.5033 41.2169 45.9619 40.7607 45.7146C40.4663 45.5653 40.1539 45.4544 39.8312 45.3847C39.3472 45.2888 39.6905 44.9778 39.2083 45.0262V45.0298Z" fill="#FF9F84"/>
<path fill-rule="evenodd" clip-rule="evenodd" d="M48.9918 22.5264C48.9347 22.8793 48.9244 23.2383 48.9613 23.5939C49.0751 23.5715 49.1594 23.6754 49.2777 23.6736C49.433 23.6549 49.5814 23.5982 49.7097 23.5087C49.9365 23.3537 50.053 23.0337 50.0521 22.7711C50.0512 22.5085 50.0252 22.2656 49.7671 22.115C49.4588 21.9357 49.1513 22.0639 48.9918 22.3633V22.5264Z" fill="#FFEF84"/>
<path fill-rule="evenodd" clip-rule="evenodd" d="M42.5517 55.791C42.6099 55.5651 42.6986 54.9502 42.8842 54.6805C43.0366 54.4573 43.3189 54.3318 43.5636 54.2511C44.1014 54.0719 44.6517 54.0961 45.0792 54.4815C45.8285 55.1573 45.8025 56.1665 45.0864 56.8585C44.7619 57.1731 44.3156 57.4912 43.8495 57.5101C43.62 57.519 43.318 57.5459 43.1208 57.4294C42.8774 57.2788 42.6958 57.0461 42.609 56.7733C42.4764 56.3386 42.5588 56.0088 42.7963 55.6278L42.5517 55.791Z" fill="#FF9F84"/>
<path fill-rule="evenodd" clip-rule="evenodd" d="M36.9257 55.4637C36.9257 55.8043 36.7277 56.6047 37.2179 56.7624C37.4545 56.8395 37.7055 56.524 37.744 56.3232C37.7827 56.0898 37.7611 55.8504 37.6813 55.6277C37.5612 55.3525 37.3228 55.1607 37.0889 55.4637H36.9257Z" fill="#FF9F84"/>
<path fill-rule="evenodd" clip-rule="evenodd" d="M23.8801 49.5112C23.9223 50.049 23.9196 50.8378 24.2467 51.3334C24.383 51.5396 24.5156 51.752 24.7773 51.7977C25.0059 51.838 25.1358 51.7009 25.2667 51.5288C25.4961 51.2294 25.5275 51.0242 25.5141 50.6486C25.4941 50.2994 25.4026 49.958 25.2452 49.6457C25.1358 49.4279 24.9485 49.2674 24.7746 49.0972C24.6187 48.9448 24.5057 48.9107 24.2835 48.934C23.9877 48.9654 24.0074 49.3212 23.959 49.5883L23.8801 49.5112Z" fill="#FF9F84"/>
<path fill-rule="evenodd" clip-rule="evenodd" d="M69.2114 46.9859C69.2195 46.9357 69.2804 46.0305 69.448 45.827C69.5188 45.7374 69.682 45.6845 69.7788 45.637C70.0629 45.4972 70.3703 45.4577 70.6625 45.5949C71.0811 45.7939 71.4091 46.3693 71.3294 46.8327C71.2308 47.4081 70.5765 47.8042 70.0253 47.8114C69.4741 47.8186 68.9703 47.0702 69.293 46.5781L69.2114 46.9859Z" fill="#FF9F84"/>
<path fill-rule="evenodd" clip-rule="evenodd" d="M37.7726 54.2456C37.7726 54.2205 37.8067 53.7679 37.8909 53.6666C37.9395 53.6249 37.9954 53.5927 38.0558 53.5716C38.1227 53.5338 38.1975 53.5122 38.2742 53.5085C38.3509 53.5048 38.4275 53.519 38.4977 53.5501C38.6081 53.609 38.6986 53.6992 38.7579 53.8094C38.8172 53.9196 38.8427 54.0448 38.8311 54.1694C38.7818 54.4562 38.4547 54.6543 38.1795 54.6579C37.9044 54.6615 37.6516 54.2877 37.8129 54.0421L37.7726 54.2456Z" fill="#FF9F84"/>
<path fill-rule="evenodd" clip-rule="evenodd" d="M51.701 59.8339C51.701 59.8079 51.7351 59.3562 51.8194 59.254C51.8681 59.2126 51.924 59.1804 51.9843 59.159C52.0512 59.1214 52.126 59.0999 52.2027 59.0962C52.2794 59.0925 52.3559 59.1066 52.4262 59.1375C52.5365 59.1964 52.6271 59.2866 52.6864 59.3968C52.7457 59.507 52.7711 59.6322 52.7596 59.7568C52.7103 60.0445 52.3831 60.2426 52.108 60.2462C51.8328 60.2498 51.5801 59.876 51.7414 59.6295L51.701 59.8339Z" fill="#FF9F84"/>
<path fill-rule="evenodd" clip-rule="evenodd" d="M61.0993 35.1792C61.0993 35.1541 61.1342 34.7015 61.2176 34.6002C61.2663 34.5583 61.3226 34.5261 61.3834 34.5052C61.4502 34.4674 61.525 34.4457 61.6018 34.442C61.6785 34.4383 61.755 34.4525 61.8253 34.4837C61.9354 34.5428 62.0257 34.6331 62.0848 34.7433C62.1439 34.8534 62.1693 34.9785 62.1578 35.103C62.1085 35.3898 61.7813 35.5879 61.5062 35.5915C61.231 35.5951 60.9792 35.2213 61.1405 34.9758L61.0993 35.1792Z" fill="#FF9F84"/>
<path fill-rule="evenodd" clip-rule="evenodd" d="M41.9332 70.9573C41.9332 70.9322 41.9673 70.4796 42.0516 70.3774C42.1009 70.3377 42.1571 70.3073 42.2174 70.2878C42.2842 70.2499 42.359 70.2283 42.4358 70.2246C42.5125 70.2208 42.589 70.2351 42.6592 70.2663C42.7694 70.3254 42.8597 70.4157 42.9188 70.5258C42.9779 70.636 43.0033 70.7611 42.9918 70.8856C42.9425 71.1724 42.6153 71.3705 42.3402 71.3741C42.065 71.3777 41.8122 71.0039 41.9745 70.7583L41.9332 70.9573Z" fill="#FF9F84"/>
<path fill-rule="evenodd" clip-rule="evenodd" d="M67.1728 54.6496C66.7086 54.94 66.4226 55.0691 66.1457 55.4948C65.9395 55.8121 65.7146 56.1052 65.5532 56.4512C65.4251 56.7245 65.2682 57.1359 65.2924 57.4434C65.3552 58.25 66.3527 57.5402 66.6369 57.2964C67.0232 56.9683 67.3888 56.522 67.4184 56.0012C67.4292 55.7969 67.4355 55.5683 67.3557 55.3738C67.3207 55.2913 67.2777 55.1945 67.2356 55.1139C67.1442 54.9409 67.0626 54.9373 67.1728 54.6496Z" fill="#FF9F84"/>
<path fill-rule="evenodd" clip-rule="evenodd" d="M76.9578 58.1538C76.9937 57.7998 76.8144 59.0788 76.887 59.1344C77.0064 59.1435 77.1262 59.1435 77.2456 59.1344C77.4042 59.1102 77.4472 59.0304 77.5718 58.9345C77.8264 58.7382 78.011 58.6235 78.02 58.2748C78.028 57.9862 77.9769 57.8114 77.6928 57.7245C77.5691 57.6868 77.5091 57.6349 77.3737 57.6761C77.0977 57.755 76.9059 57.9871 76.7965 58.2336L76.9578 58.1538Z" fill="#FF9F84"/>
<path fill-rule="evenodd" clip-rule="evenodd" d="M50.971 22.6934C50.9952 22.4531 50.8742 23.3208 50.9235 23.3575C51.0038 23.3633 51.0844 23.3633 51.1646 23.3575C51.2722 23.3414 51.3009 23.2867 51.3851 23.2222C51.5572 23.0895 51.6827 23.0115 51.6899 22.774C51.6952 22.5786 51.6603 22.4603 51.4685 22.4021C51.3842 22.3761 51.3439 22.342 51.2516 22.3689C51.1629 22.3997 51.0821 22.4493 51.0146 22.5145C50.9471 22.5797 50.8946 22.6587 50.8608 22.7462L50.971 22.6934Z" fill="#FFEF84"/>
<path fill-rule="evenodd" clip-rule="evenodd" d="M67.538 47.6424C67.5622 47.4022 67.4412 48.2698 67.4905 48.3066C67.5707 48.3133 67.6513 48.3133 67.7316 48.3066C67.8391 48.2904 67.8678 48.2367 67.9521 48.1712C68.1241 48.0386 68.2496 47.9615 68.2568 47.7231C68.2622 47.5268 68.2272 47.4085 68.0354 47.3502C67.9512 47.3242 67.9108 47.2911 67.8185 47.3171C67.7298 47.348 67.6489 47.3978 67.5815 47.4631C67.514 47.5285 67.4615 47.6077 67.4277 47.6953L67.538 47.6424Z" fill="#FFEF84"/>
<path fill-rule="evenodd" clip-rule="evenodd" d="M50.069 71.4452C50.3101 71.4452 49.4353 71.4138 49.403 71.4667C49.4052 71.5473 49.4133 71.6276 49.4272 71.7069C49.4541 71.8118 49.5115 71.8351 49.585 71.9122C49.7346 72.0699 49.8243 72.1865 50.0609 72.1685C50.2554 72.1542 50.3701 72.1067 50.4078 71.9095C50.4248 71.8199 50.4544 71.7795 50.4185 71.6908C50.3788 71.6058 50.321 71.5305 50.2492 71.4701C50.1773 71.4098 50.0932 71.3658 50.0026 71.3412L50.069 71.4452Z" fill="#FFEF84"/>
<path fill-rule="evenodd" clip-rule="evenodd" d="M36.1672 45.2125C36.1914 44.9723 36.0704 45.8399 36.1197 45.8766C36.1999 45.8833 36.2806 45.8833 36.3608 45.8766C36.4683 45.8605 36.497 45.8067 36.5813 45.7413C36.7534 45.6086 36.8789 45.5306 36.886 45.2931C36.8914 45.0977 36.8564 44.9794 36.6637 44.9212C36.5795 44.8952 36.54 44.8611 36.4477 44.888C36.359 44.9188 36.278 44.9686 36.2105 45.0339C36.143 45.0993 36.0906 45.1785 36.0569 45.2662L36.1672 45.2125Z" fill="#FFEF84"/>
<path fill-rule="evenodd" clip-rule="evenodd" d="M49.6016 68.8521C49.6375 68.4935 49.4582 69.777 49.5308 69.8326C49.6502 69.8417 49.77 69.8417 49.8894 69.8326C50.048 69.8084 50.091 69.7286 50.2156 69.6327C50.4693 69.4365 50.6548 69.3217 50.6638 68.9722C50.6718 68.6836 50.6198 68.5088 50.3366 68.4227C50.212 68.3851 50.1529 68.3331 50.0166 68.3743C49.7406 68.4532 49.5497 68.6854 49.4403 68.9318L49.6016 68.8521Z" fill="#FF9F84"/>
</g>
<path fill-rule="evenodd" clip-rule="evenodd" d="M32.5235 48.719C42.4293 50.2858 41.8181 52.9003 53.3175 49.7686C64.817 46.6369 73.0469 29.3429 73.0469 29.3429C73.0469 29.3429 73.6214 28.063 73.1365 27.3101C72.9429 27.0098 71.4335 27.6328 71.4335 27.6328C71.6934 33.1835 63.9261 44.6454 55.1523 47.9464C54.2156 48.2987 53.2701 48.4206 52.3899 48.6196C51.9767 48.4116 50.9558 47.475 55.7635 44.2187C61.4102 40.388 63.9575 38.9584 63.4341 34.9761C62.9106 30.9939 67.938 24.6839 67.938 24.6839C67.938 24.6839 68.3019 23.0052 67.3518 21.9592C66.1283 20.6147 63.4341 21.9807 63.4341 21.9807C63.4341 21.9807 62.7349 29.7875 52.8291 34.0063C42.9232 38.2252 37.419 36.1305 33.6286 34.9761C29.8382 33.8217 28.7079 27.544 28.7079 27.544C28.7079 27.544 25.4983 26.8781 24.334 28.9243C23.478 30.4283 24.7194 32.2971 24.7194 32.2971C24.7194 32.2971 30.6932 34.4625 36.0746 36.5267C41.456 38.5909 51.7284 36.7418 55.397 34.9761C59.0655 33.2104 59.0655 30.3916 62.0009 27.8264C63.0423 26.9176 64.2049 26.1577 65.4552 25.5686C65.4552 25.5686 62.2456 30.5197 62.6121 34.0063C62.9787 37.4929 60.7783 37.3683 55.397 43.4838C51.6209 47.7752 48.3252 49.1304 46.6912 49.5651C42.5467 49.9407 38.7841 49.4755 33.6286 48.0773C25.3118 45.8213 20.3186 42.2056 20.3186 42.2056C20.3186 42.2056 19.5944 41.8615 19.3201 42.6538C19.2027 42.9908 19.9475 43.9373 19.9475 43.9373C19.9475 43.9373 22.6167 47.1487 32.5235 48.719Z" fill="url(#paint6_linear_1107_553)"/>
<path fill-rule="evenodd" clip-rule="evenodd" d="M39.486 78.022C39.486 78.022 37.048 76.4983 35.2133 71.7927C33.3786 67.0871 33.6242 67.391 30.1994 64.4233C26.7747 61.4557 20.8188 58.5392 20.8188 58.5392C20.8188 58.5392 20.4164 58.6772 20.4155 58.7973C20.4155 59.4086 21.1226 59.4785 21.1226 59.4785C21.1226 59.4785 26.6797 61.8617 30.1528 65.6952C33.626 69.5287 37.3752 76.3307 34.7042 75.9255C34.7042 75.9255 35.3056 77.6285 36.7119 78.022C38.1182 78.4154 39.486 78.022 39.486 78.022Z" fill="url(#paint7_radial_1107_553)"/>
<path d="M63.8311 55.2391C64.9667 54.0255 66.3407 52.3925 71.9049 52.3602C77.4691 52.328 80.3301 53.5541 80.3301 53.5541C80.3301 53.5541 81.4747 53.2323 81.5975 51.7436C81.6327 51.3183 81.5591 50.891 81.3837 50.502C81.2082 50.113 80.9366 49.775 80.5945 49.5199C80.5372 49.985 79.9752 53.0441 75.2508 51.2309C75.2508 51.1852 76.9224 49.6686 77.2836 46.5836C77.652 43.4528 78.7679 39.0126 78.7679 39.0126C78.7679 39.0126 79.4266 37.9146 78.9982 37.0282C78.8575 36.7369 77.7739 36.6042 77.7739 36.6042C78.7105 42.846 76.3479 50.366 73.7791 51.2309C70.6618 51.2694 66.8597 51.8117 65.1361 52.9473C63.019 54.3482 60.8957 60.6797 59.5342 65.1369C59.1918 66.2412 58.4945 67.4413 57.6036 68.6424C54.1977 69.4616 55.2732 65.3763 53.8024 64.1178C52.3316 62.8594 49.5226 63.5362 47.6897 62.863C45.8567 62.1899 45.3664 60.7334 43.4107 60.5013C41.455 60.2692 38.3691 63.9072 34.852 62.405C31.3349 60.9028 19.5549 46.9529 19.5549 46.9529C19.5549 46.9529 18.4919 46.6974 18.2786 47.4315C18.1136 47.9953 19.4438 49.4706 19.4438 49.4706C19.4438 49.4706 27.635 61.8305 35.4579 63.4376C43.2808 65.0446 50.3803 63.5406 52.8263 65.6649C55.2723 67.7891 55.4471 71.1636 55.4471 71.1896C52.9043 73.8875 49.9161 76.2089 48.5026 76.9259C46.0557 78.1583 42.0349 78.9973 42.0349 78.9973C42.5835 79.6301 43.6868 80.1383 44.8771 80.4556C46.5917 80.9145 47.6888 80.0495 47.6888 80.0495C47.6888 80.0495 46.6948 79.1846 47.9926 78.1001C51.2973 75.3511 53.6393 74.1501 57.0676 73.3372C59.1452 72.846 59.7655 73.7853 60.0621 73.4851V73.4922C63.2574 74.505 65.7877 72.111 68.5366 69.907C71.2856 67.703 74.8044 67.3893 74.8044 67.3893C74.8044 67.3893 76.6284 67.0828 77.1017 66.277C77.5328 65.543 76.5146 64.7435 76.5146 64.7435C76.5146 64.7435 74.9595 65.3825 72.0331 66.8668C69.1067 68.3511 65.9535 72.6694 62.371 72.5341C60.3991 72.4633 60.8088 70.4618 60.6214 70.1777C60.6214 70.0361 60.6286 69.8936 60.6214 69.752V69.7457C60.5641 68.2937 60.2629 66.977 60.2629 65.9248C60.2593 65.6711 60.283 65.4178 60.3337 65.1692C60.6519 63.6043 62.6946 56.4527 63.8311 55.2391ZM57.5955 68.6513C56.9399 69.5251 56.233 70.3593 55.4785 71.1493L57.5955 68.6513ZM60.3391 70.8132C60.3839 71.1493 60.4484 71.4782 60.3974 71.8144C60.3776 71.9882 60.3454 72.1307 60.1778 72.1881C60.081 72.2204 59.9707 72.2338 59.8739 72.2598C59.7237 72.3076 59.5708 72.3462 59.4159 72.3754C59.1689 72.3937 58.921 72.3957 58.6738 72.3817C58.4092 72.3958 58.144 72.3937 57.8797 72.3754C57.7569 72.3566 57.6341 72.3306 57.5122 72.3109C57.3903 72.2912 57.2209 72.2849 57.1115 72.2213C56.8471 72.0734 56.6921 71.7955 56.4922 71.731C56.511 71.4989 56.4985 71.2918 56.5953 71.0857C56.6213 71.0086 56.6473 70.9306 56.6661 70.8535C56.7111 70.7219 56.7628 70.5926 56.8211 70.4663C56.9507 70.1375 57.115 69.8235 57.3114 69.5297C57.4082 69.3818 57.505 69.233 57.5955 69.0815C57.7135 68.9219 57.8477 68.775 57.9962 68.6433C58.19 68.4324 58.4138 68.2512 58.6603 68.1055C58.8611 67.9952 59.1838 67.8411 59.4096 67.9262C59.6355 68.0114 59.7386 68.3071 59.8291 68.5142C59.8826 68.668 59.9257 68.8252 59.9582 68.9847C60.0093 69.1855 60.0998 69.3657 60.1455 69.5727C60.1966 69.7986 60.1966 70.0307 60.2423 70.2566C60.2808 70.4394 60.3068 70.6268 60.3391 70.8132Z" fill="url(#paint8_linear_1107_553)"/>
<path fill-rule="evenodd" clip-rule="evenodd" d="M25.5158 28.2534C25.5158 28.2534 26.8961 31.0902 30.4454 33.6464C30.4454 33.6464 29.2686 29.5315 28.4198 27.8205C28.418 27.8223 27.2546 26.7252 25.5158 28.2534Z" fill="#FFFF0E"/>
<path fill-rule="evenodd" clip-rule="evenodd" d="M44.114 36.9074C44.114 36.9074 46.5268 35.9358 47.2753 36.2988C47.2753 36.2988 44.9655 36.9379 44.114 36.9074Z" fill="#FFFF0E"/>
<path fill-rule="evenodd" clip-rule="evenodd" d="M52.1812 34.675C52.615 34.5352 53.0569 34.4061 53.4817 34.2403C53.855 34.0932 54.2179 33.921 54.568 33.7249C55.0168 33.4796 55.4462 33.2004 55.8524 32.8896C55.9573 32.8089 56.0774 32.7569 56.1849 32.6825C56.3113 32.5929 56.4341 32.4952 56.5569 32.4038C56.6654 32.3222 56.7523 32.2093 56.8563 32.1206C56.9602 32.0318 57.066 31.9413 57.1745 31.8606C57.3582 31.719 57.5482 31.5631 57.7167 31.4035C57.7983 31.3255 57.8763 31.244 57.9623 31.1714C58.0168 31.132 58.0773 31.1017 58.1416 31.0818C58.1676 31.1373 58.1003 31.2691 58.0779 31.3229C58.0212 31.4316 57.9571 31.5365 57.8861 31.6366C57.7418 31.883 57.5052 32.0399 57.3295 32.264C57.2042 32.4078 57.0579 32.532 56.8957 32.6323C56.6685 32.7785 56.433 32.9114 56.1903 33.0303C55.951 33.1549 55.6965 33.2302 55.4625 33.3664C55.2286 33.5027 55.0144 33.5959 54.7885 33.7016C54.638 33.7807 54.492 33.8681 54.3511 33.9634L53.9837 34.1829C53.8044 34.2923 53.6251 34.3981 53.4351 34.4993C53.3347 34.5522 53.2325 34.5952 53.133 34.6499C52.9068 34.7822 52.6511 34.8559 52.3891 34.8641C52.2984 34.8737 52.2066 34.8633 52.1202 34.8337C52.0835 34.8166 52.0073 34.7951 52.0037 34.7485C52.0647 34.7369 52.1193 34.6571 52.1812 34.675Z" fill="#FFFF0E"/>
<path fill-rule="evenodd" clip-rule="evenodd" d="M58.6937 30.4842C58.5822 30.5401 58.4827 30.6172 58.4006 30.7112C58.4006 30.7782 58.3631 30.8551 58.4802 30.8515C58.5378 30.8453 58.5935 30.827 58.6437 30.7979C58.6939 30.7688 58.7374 30.7295 58.7715 30.6826C58.8108 30.6379 58.8939 30.5039 58.8448 30.4404C58.7849 30.36 58.6205 30.4708 58.5722 30.5146L58.6937 30.4842Z" fill="#FFFF0E"/>
<path fill-rule="evenodd" clip-rule="evenodd" d="M63.8603 22.1695C63.7519 22.2908 63.6594 22.4254 63.5851 22.5701C63.5421 22.6795 63.5036 22.7924 63.4615 22.9026C63.3799 23.1195 63.3333 23.3436 63.2643 23.5632C63.1388 23.9647 63.042 24.3699 62.8815 24.7634C62.8098 24.9426 62.722 25.1093 62.6369 25.2805C62.592 25.3701 62.523 25.4553 62.4827 25.5494C62.4424 25.6435 62.3985 25.7018 62.3608 25.7833C62.3364 25.8617 62.3039 25.9374 62.264 26.0092C62.2096 26.0897 62.1608 26.1739 62.1179 26.2611C62.0776 26.3328 61.9207 26.5093 61.9682 26.6017C62.0166 26.6097 62.0623 26.5362 62.091 26.512C62.1807 26.4224 62.2792 26.3507 62.3707 26.2646C62.541 26.1042 62.6906 25.9223 62.8529 25.7529C62.9228 25.6794 62.9703 25.5924 63.0321 25.5144C63.1218 25.4015 63.2293 25.311 63.3163 25.1945C63.457 25.0062 63.612 24.8261 63.7644 24.6504C63.8433 24.5608 63.898 24.4586 63.975 24.3681C64.0521 24.2776 64.1256 24.2121 64.1991 24.1324C64.4295 23.8787 64.6733 23.6358 64.8955 23.375C65.074 23.1652 65.2398 22.9449 65.3921 22.7153C65.5131 22.5361 65.6206 22.3568 65.73 22.1641C65.7748 22.0888 65.8725 21.9069 65.8384 21.8136C65.7945 21.6953 65.6592 21.6469 65.5436 21.6344C65.3585 21.6055 65.1698 21.6094 64.986 21.646C64.8044 21.6947 64.6269 21.7579 64.4554 21.8351C64.2968 21.9015 64.1677 22.0144 64.0154 22.0942C63.9105 22.1399 63.7868 22.1883 63.8603 22.1695Z" fill="#FFFF0E"/>
<path fill-rule="evenodd" clip-rule="evenodd" d="M65.4507 25.8382C65.3978 25.9706 65.3346 26.0986 65.2615 26.2209C65.1925 26.3169 65.128 26.4056 65.0679 26.5078C64.964 26.687 64.8645 26.8663 64.7614 27.0455C64.5741 27.37 64.3392 27.6729 64.1958 28.0189C64.1394 28.1561 64.0802 28.2878 64.0166 28.4223C63.9558 28.5644 63.9049 28.7105 63.8642 28.8596C63.8232 29.0035 63.7903 29.1495 63.7656 29.297C63.7387 29.4162 63.6831 29.5292 63.7172 29.6556C63.8346 29.5041 63.9171 29.3347 64.0246 29.176C64.0896 29.06 64.1691 28.9528 64.2613 28.857C64.3587 28.7648 64.4506 28.6669 64.5364 28.5639C64.629 28.4657 64.7116 28.3585 64.7829 28.2439C64.8457 28.1363 64.8842 28.0243 64.9577 27.9221C65.0312 27.8199 65.0742 27.716 65.137 27.6165C65.2161 27.5023 65.2822 27.3796 65.3341 27.2508C65.4238 27.0007 65.5134 26.7363 65.5788 26.48C65.6149 26.3469 65.6253 26.2082 65.6093 26.0713C65.5869 25.9691 65.43 25.6939 65.4507 25.8382Z" fill="#FFFF0E"/>
<path fill-rule="evenodd" clip-rule="evenodd" d="M63.3396 30.028C63.2921 30.1902 63.2294 30.373 63.1926 30.5415C63.1836 30.5837 63.1693 30.6724 63.2034 30.6993C63.2374 30.7262 63.3351 30.6885 63.3638 30.6616C63.3946 30.6278 63.42 30.5894 63.4391 30.5478C63.503 30.4586 63.5331 30.3497 63.5242 30.2404C63.4991 30.131 63.3978 30.0369 63.3091 30.1507L63.3396 30.028Z" fill="#FFFF0E"/>
<path fill-rule="evenodd" clip-rule="evenodd" d="M60.1302 38.893C59.786 39.2238 59.3871 39.5151 59.1066 39.905C59.0797 39.9426 58.9381 40.1048 58.973 40.1738C59.008 40.2429 59.172 40.1989 59.224 40.1819C59.4258 40.1057 59.6223 40.0158 59.812 39.913C59.954 39.8364 60.0919 39.7523 60.2252 39.6612C60.5353 39.4514 60.8126 39.1968 61.048 38.9056C61.1598 38.7853 61.2507 38.6472 61.3169 38.4969C61.333 38.4547 61.3975 38.3337 61.3823 38.2836C61.3321 38.1159 60.9341 38.2943 60.8508 38.3454C60.7589 38.4126 60.6706 38.4847 60.5864 38.5614C60.5169 38.618 60.4445 38.671 60.3695 38.7201C60.3067 38.7622 60.2476 38.8177 60.1902 38.8644C60.1329 38.911 60.0835 39.0185 60.1302 38.893Z" fill="#FFFF0E"/>
<path fill-rule="evenodd" clip-rule="evenodd" d="M58.5711 40.483C58.4531 40.5375 58.3369 40.5938 58.2216 40.651C58.2216 40.7046 58.0769 40.8029 58.1484 40.8744C58.1877 40.9137 58.3182 40.8619 58.3566 40.8494C58.431 40.8159 58.4968 40.7658 58.5487 40.7028C58.6122 40.642 58.6059 40.6179 58.5711 40.5437V40.483Z" fill="#FFFF0E"/>
<path fill-rule="evenodd" clip-rule="evenodd" d="M50.6633 48.046C50.3806 48.261 50.0809 48.4526 49.767 48.6187C49.3995 48.8132 49.006 48.962 48.643 49.1664C48.0792 49.4854 47.4823 49.7257 46.8917 49.9874C46.7975 50.0286 45.929 50.3692 46.2571 50.5431C46.4085 50.6237 46.56 50.6076 46.7249 50.6121C46.8603 50.6121 46.9938 50.6515 47.1265 50.6569C47.2591 50.6623 47.4034 50.6569 47.5424 50.6569C48.2666 50.6537 48.9825 50.5012 49.6451 50.2088C49.8024 50.1551 49.9545 50.0873 50.0995 50.0062C50.1804 49.9436 50.2565 49.875 50.3272 49.8009C50.4661 49.6694 50.5803 49.514 50.6642 49.342C50.798 49.1098 50.8682 48.8464 50.8676 48.5784C50.8662 48.4683 50.8283 48.3618 50.7601 48.2754C50.7018 48.2082 50.6328 48.1894 50.6633 48.046Z" fill="#FFFF0E"/>
<path fill-rule="evenodd" clip-rule="evenodd" d="M45.6082 50.2054C45.4496 50.1274 45.2712 50.0073 45.0982 50.0001C45.0378 49.999 44.9776 50.0059 44.919 50.0207C44.7863 50.0485 44.5766 50.0646 44.4753 50.165C44.3212 50.3183 44.6546 50.4402 44.7738 50.4707C44.9418 50.5057 45.1143 50.513 45.2847 50.4922C45.4093 50.476 45.6584 50.3676 45.6575 50.2125L45.6907 50.2054H45.6082Z" fill="#FFFF0E"/>
<path fill-rule="evenodd" clip-rule="evenodd" d="M54.984 48.2484C55.6388 48.0456 56.2746 47.7859 56.8842 47.4722C57.1226 47.3521 57.3583 47.2168 57.5851 47.0751C57.7321 46.9855 57.8791 46.8654 58.0332 46.7883C58.0969 46.7561 58.4814 46.5329 58.5307 46.6395C58.5988 46.7776 58.1829 47.0536 58.1237 47.1065C57.9634 47.2385 57.7962 47.3617 57.6227 47.4758C57.4784 47.578 57.3189 47.6291 57.1674 47.716C56.9688 47.8306 56.7632 47.9324 56.5516 48.0207C56.3952 48.0954 56.2334 48.1583 56.0676 48.209C55.9413 48.2421 55.8149 48.2932 55.6876 48.3219C55.5926 48.3434 55.4967 48.3156 55.4017 48.3389C55.2843 48.3676 55.0638 48.425 54.984 48.2484Z" fill="#FFFF0E"/>
<path fill-rule="evenodd" clip-rule="evenodd" d="M69.395 51.7962C69.715 51.7962 70.0995 51.8294 70.4302 51.7828C70.6704 51.7478 70.9106 51.6931 71.1473 51.6734C71.6232 51.6295 72.0902 51.5067 72.5688 51.4888C72.7579 51.4816 72.9488 51.4888 73.1388 51.4888C73.256 51.4776 73.3739 51.4776 73.4911 51.4888C73.5631 51.5122 73.6303 51.5486 73.6891 51.5963C73.8039 51.72 73.6891 51.7021 73.6138 51.7469C73.4603 51.8472 73.2909 51.9209 73.1128 51.9647C72.8135 52.0275 72.5168 52.109 72.2165 52.152C72.0068 52.1825 71.7971 52.1449 71.5891 52.178C71.3149 52.2167 71.0378 52.2326 70.761 52.2255H70.0726C69.9092 52.2197 69.7464 52.2011 69.5859 52.17C69.4416 52.1502 69.3556 52.178 69.2346 52.1108C69.1781 52.0785 69.0876 51.9916 69.395 51.7962Z" fill="#FFFF0E"/>
<path fill-rule="evenodd" clip-rule="evenodd" d="M77.0988 52.1008C77.5084 52.1375 77.7611 52.1904 78.1304 52.1178C78.3724 52.0721 78.6162 52.0327 78.8582 51.9932C79.2206 51.9242 79.5657 51.7841 79.8737 51.5809C80.0395 51.4743 80.3738 51.2422 80.5907 51.3031C80.6851 51.336 80.7689 51.3934 80.8337 51.4695C80.8984 51.5456 80.9417 51.6376 80.9591 51.736C80.9752 51.9646 80.718 52.1519 80.5602 52.2738C80.286 52.4916 79.8764 52.5705 79.5349 52.5902C79.1217 52.6073 78.7082 52.565 78.307 52.4647C78.1833 52.4369 78.0596 52.4002 77.9359 52.3751C77.8248 52.3518 77.5989 52.3804 77.0988 52.1008Z" fill="#FFFF0E"/>
<path fill-rule="evenodd" clip-rule="evenodd" d="M78.0168 36.998C77.9917 37.2758 77.8187 37.9642 78.1682 38.1882C78.3547 38.3074 78.4434 37.9937 78.4461 37.8521C78.4506 37.6487 78.3197 37.1136 78.0786 37.0589L78.0168 36.998Z" fill="#FFFF0E"/>
<path fill-rule="evenodd" clip-rule="evenodd" d="M20.374 43.3172C20.6644 43.6891 20.8787 44.0763 21.2811 44.3112C21.5159 44.4474 21.7436 44.607 22.0062 44.6858C22.2509 44.7602 22.5655 44.8436 22.8209 44.7862C22.959 44.7548 22.9957 44.8014 22.9886 44.6231C22.974 44.5338 22.9383 44.4493 22.8846 44.3766C22.8012 44.2502 22.6731 44.1687 22.5754 44.0548C22.4588 43.9204 22.3907 43.7913 22.2491 43.6811C21.7803 43.3136 21.343 43.0089 20.7756 42.826C20.5712 42.7597 20.5569 42.7364 20.3767 42.8484C20.2342 42.938 20.2289 42.9013 20.2082 43.0689C20.1805 43.2921 20.3418 43.4687 20.4556 43.6434L20.374 43.3172Z" fill="#FFFF0E"/>
<path fill-rule="evenodd" clip-rule="evenodd" d="M20.6188 49.3465C21.0989 50.0925 21.6305 50.8041 22.2097 51.4761C22.6157 51.961 22.8613 52.5722 23.3256 53.0177C23.4018 53.0912 24.2147 53.7903 24.2057 53.387C24.2057 53.2974 23.9736 52.9335 23.9234 52.8492C23.7895 52.6212 23.6398 52.4028 23.4753 52.1958C23.3282 52.0355 23.1914 51.866 23.0656 51.6885C22.9523 51.5151 22.8233 51.3525 22.6803 51.2027C22.4831 50.984 22.3782 50.7097 22.2043 50.4749C22.043 50.258 21.8781 50.0519 21.7221 49.8314C21.5133 49.5356 21.2973 49.204 20.9656 49.0794C20.876 49.0471 20.746 48.9512 20.6358 49.0319C20.4565 49.1672 20.5973 49.61 20.6188 49.3465Z" fill="#FFFF0E"/>
<path fill-rule="evenodd" clip-rule="evenodd" d="M50.0511 63.6993C50.7341 63.5774 51.2871 63.469 51.9593 63.6267C52.2891 63.7038 52.6208 63.806 52.9452 63.9028C53.1541 63.9655 53.4714 64.0265 53.6228 64.1824C53.7743 64.3384 53.7268 64.6395 53.5816 64.7838C53.3835 64.981 52.9425 64.938 52.6952 64.9147C52.1931 64.8801 51.696 64.7936 51.2118 64.6565C50.9348 64.5732 50.5476 64.4352 50.3155 64.2514C50.207 64.1672 49.9283 63.9332 50.0511 63.6993Z" fill="#FFFF0E"/>
<path fill-rule="evenodd" clip-rule="evenodd" d="M59.4288 67.3663C59.0828 67.2901 59.0541 66.6725 59.15 66.4261C59.2038 66.2862 59.2916 66.0613 59.4467 65.9967C59.6017 65.9322 59.6609 66.0424 59.7953 66.0908C59.6521 66.3991 59.4744 66.6902 59.2656 66.9585L59.4288 67.3663Z" fill="#FFFF0E"/>
<path fill-rule="evenodd" clip-rule="evenodd" d="M72.3091 67.123C72.7645 66.8264 73.0728 66.6184 73.5693 66.4705C73.8212 66.3952 74.0811 66.3639 74.333 66.2913C74.6278 66.2016 74.9254 66.0618 75.2293 66.0018C75.3395 65.9794 75.4462 65.9856 75.5537 65.9677C75.6756 65.9462 75.6165 65.8861 75.7554 65.9614C76.0108 66.1012 75.8943 66.2895 75.7285 66.4302C75.413 66.6991 75.1441 66.8048 74.7345 66.9007C74.506 66.9536 74.324 67.08 74.1071 67.1508C73.9744 67.192 73.8382 67.2145 73.7011 67.2503C73.1983 67.3785 72.5843 67.2862 72.3091 67.123Z" fill="#FFFF0E"/>
<path fill-rule="evenodd" clip-rule="evenodd" d="M31.2177 66.0635C31.5045 66.6559 31.7447 67.2287 32.1194 67.7584C32.287 67.9986 32.4142 68.2316 32.6858 68.3473C32.9009 68.4369 33.0443 68.4736 33.0766 68.1805C33.0919 68.0291 32.9664 67.8104 32.883 67.6625C32.6428 67.2341 32.3004 66.863 32.0154 66.4713C31.8971 66.2984 31.7593 66.1396 31.6049 65.9981C31.5009 65.9129 31.1926 65.8188 31.2177 66.0635Z" fill="#FFFF0E"/>
<path fill-rule="evenodd" clip-rule="evenodd" d="M43.2032 79.1073C43.8639 78.9572 44.5125 78.7583 45.1437 78.5121C45.4126 78.4135 45.6815 78.4135 45.9566 78.3553C45.9826 78.3499 46.0122 78.297 46.0507 78.288C46.1341 78.2791 46.2183 78.2791 46.3017 78.288C46.3734 78.288 46.6853 78.2468 46.7498 78.288C47.0044 78.4754 46.4603 78.9701 46.3429 79.0947C46.1014 79.3332 45.8107 79.516 45.4912 79.6304C45.1716 79.7448 44.8309 79.788 44.493 79.7571C44.1595 79.723 43.8566 79.5455 43.533 79.5088C43.326 79.4855 42.8698 79.4084 42.8904 79.1144C42.9943 79.1044 43.0989 79.102 43.2032 79.1073Z" fill="#FFFF0E"/>
<path fill-rule="evenodd" clip-rule="evenodd" d="M55.0259 72.1777C54.4164 72.5927 53.7451 72.953 53.3077 73.5652C53.0066 73.9883 53.5578 73.9013 53.8016 73.809C53.9925 73.7409 54.1734 73.6475 54.3393 73.5311C54.478 73.4244 54.6059 73.3043 54.7212 73.1726C54.818 73.0749 54.9408 72.9934 55.0286 72.8912C55.1164 72.789 55.1541 72.5506 55.2598 72.4798C55.241 72.4313 55.2185 72.3842 55.1926 72.3391L55.0259 72.1777Z" fill="#FFFF0E"/>
<path fill-rule="evenodd" clip-rule="evenodd" d="M38.3924 62.8006C38.8361 62.6133 39.2771 62.4555 39.6912 62.2333C40.0766 62.0271 40.4468 61.8138 40.8402 61.6184C41.344 61.3683 41.888 61.0188 42.4715 61.0053C42.692 61 42.8372 60.8933 43.0398 60.9856C43.1937 61.0406 43.3283 61.1394 43.427 61.2697C43.7245 61.6928 43.1348 62.0997 42.8112 62.3175C42.5638 62.4842 42.338 62.6886 42.061 62.8051C41.7374 62.9413 41.3897 63.0032 41.0625 63.1242C40.5203 63.3259 39.9448 63.549 39.3667 63.6198C39.0768 63.644 38.7879 63.5628 38.5529 63.3913C38.4263 63.3117 38.3164 63.2082 38.2293 63.0865C38.1532 62.9736 38.1056 62.789 38.3924 62.8006Z" fill="#FFFF0E"/>
<path style="mix-blend-mode:screen" d="M52.0978 53.9355C57.6308 51.6199 60.9126 46.8668 59.4279 43.3192C57.9432 39.7716 52.2542 38.7729 46.7212 41.0886C41.1882 43.4042 37.9064 48.1573 39.3911 51.7049C40.8758 55.2525 46.5648 56.2512 52.0978 53.9355Z" fill="url(#paint9_radial_1107_553)"/>
<path style="mix-blend-mode:screen" d="M33.9579 34.2145C36.0956 31.0176 34.7546 26.3705 30.9627 23.8349C27.1709 21.2994 22.364 21.8355 20.2263 25.0323C18.0886 28.2292 19.4296 32.8763 23.2215 35.4118C27.0134 37.9474 31.8202 37.4113 33.9579 34.2145Z" fill="url(#paint10_radial_1107_553)"/>
<path style="mix-blend-mode:screen" d="M85.6051 55.6496C87.5331 52.7663 86.3231 48.5746 82.9023 46.2873C79.4816 43.9999 75.1456 44.483 73.2176 47.3663C71.2895 50.2496 72.4996 54.4413 75.9203 56.7287C79.3411 59.0161 83.6771 58.533 85.6051 55.6496Z" fill="url(#paint11_radial_1107_553)"/>
<path style="mix-blend-mode:screen" d="M42.6541 81.0438C44.5821 78.1605 43.3721 73.9688 39.9513 71.6814C36.5306 69.394 32.1946 69.8771 30.2666 72.7605C28.3386 75.6438 29.5486 79.8355 32.9693 82.1228C36.3901 84.4102 40.7261 83.9271 42.6541 81.0438Z" fill="url(#paint12_radial_1107_553)"/>
<defs>
<radialGradient id="paint0_radial_1107_553" cx="0" cy="0" r="1" gradientUnits="userSpaceOnUse" gradientTransform="translate(50.0007 50.0001) rotate(-45) scale(45.0156)">
<stop stop-color="#FF4000"/>
<stop offset="1"/>
</radialGradient>
<radialGradient id="paint1_radial_1107_553" cx="0" cy="0" r="1" gradientUnits="userSpaceOnUse" gradientTransform="translate(50 50.0002) scale(35.3553)">
<stop stop-color="#FF7300"/>
<stop offset="1"/>
</radialGradient>
<radialGradient id="paint2_radial_1107_553" cx="0" cy="0" r="1" gradientUnits="userSpaceOnUse" gradientTransform="translate(50.0002 50.0002) scale(33.7384)">
<stop stop-color="#FF7900"/>
<stop offset="0.18" stop-color="#FC7800"/>
<stop offset="0.32" stop-color="#F37300"/>
<stop offset="0.43" stop-color="#E36C00"/>
<stop offset="0.54" stop-color="#CC6100"/>
<stop offset="0.64" stop-color="#AF5300"/>
<stop offset="0.74" stop-color="#8C4200"/>
<stop offset="0.83" stop-color="#622E00"/>
<stop offset="0.92" stop-color="#321800"/>
<stop offset="1"/>
</radialGradient>
<radialGradient id="paint3_radial_1107_553" cx="0" cy="0" r="1" gradientUnits="userSpaceOnUse" gradientTransform="translate(31.0845 35.1595) scale(49.1198 49.1198)">
<stop offset="0.01" stop-color="#DE6863"/>
<stop offset="0.2" stop-color="#DB6563"/>
<stop offset="0.35" stop-color="#D15D62"/>
<stop offset="0.49" stop-color="#C14F60"/>
<stop offset="0.62" stop-color="#A93B5E"/>
<stop offset="0.74" stop-color="#8B225B"/>
<stop offset="0.86" stop-color="#670357"/>
<stop offset="0.87" stop-color="#630057"/>
</radialGradient>
<linearGradient id="paint4_linear_1107_553" x1="19.443" y1="41.0732" x2="63.4297" y2="41.0732" gradientUnits="userSpaceOnUse">
<stop offset="0.01" stop-color="#FF7D85"/>
<stop offset="0.3" stop-color="#FC7B84"/>
<stop offset="0.51" stop-color="#F3757F"/>
<stop offset="0.7" stop-color="#E36B77"/>
<stop offset="0.87" stop-color="#CC5C6C"/>
<stop offset="1" stop-color="#B54D61"/>
</linearGradient>
<radialGradient id="paint5_radial_1107_553" cx="0" cy="0" r="1" gradientUnits="userSpaceOnUse" gradientTransform="translate(27.6759 28.6496) scale(40.2482 40.2482)">
<stop stop-color="#FFFF4A"/>
<stop offset="1"/>
</radialGradient>
<linearGradient id="paint6_linear_1107_553" x1="19.3031" y1="36.2982" x2="73.3256" y2="36.2982" gradientUnits="userSpaceOnUse">
<stop offset="0.01" stop-color="#FFB80B"/>
<stop offset="0.39" stop-color="#FFB60C"/>
<stop offset="0.58" stop-color="#FEAE10"/>
<stop offset="0.73" stop-color="#FCA117"/>
<stop offset="0.85" stop-color="#FA8E21"/>
<stop offset="0.97" stop-color="#F7762E"/>
<stop offset="1" stop-color="#F66D33"/>
</linearGradient>
<radialGradient id="paint7_radial_1107_553" cx="0" cy="0" r="1" gradientUnits="userSpaceOnUse" gradientTransform="translate(24.0455 63.7708) scale(15.531)">
<stop offset="0.01" stop-color="#FFB80B"/>
<stop offset="0.39" stop-color="#FFB60C"/>
<stop offset="0.58" stop-color="#FEAE10"/>
<stop offset="0.73" stop-color="#FCA117"/>
<stop offset="0.85" stop-color="#FA8E21"/>
<stop offset="0.97" stop-color="#F7762E"/>
<stop offset="1" stop-color="#F66D33"/>
</radialGradient>
<linearGradient id="paint8_linear_1107_553" x1="18.2624" y1="58.5913" x2="81.6046" y2="58.5913" gradientUnits="userSpaceOnUse">
<stop offset="0.01" stop-color="#FFB80B"/>
<stop offset="0.39" stop-color="#FFB60C"/>
<stop offset="0.58" stop-color="#FEAE10"/>
<stop offset="0.73" stop-color="#FCA117"/>
<stop offset="0.85" stop-color="#FA8E21"/>
<stop offset="0.97" stop-color="#F7762E"/>
<stop offset="1" stop-color="#F66D33"/>
</linearGradient>
<radialGradient id="paint9_radial_1107_553" cx="0" cy="0" r="1" gradientUnits="userSpaceOnUse" gradientTransform="translate(50.3593 47.1604) rotate(-22.71) scale(10.8803 6.97125)">
<stop stop-color="#FF5B00"/>
<stop offset="0.17" stop-color="#C54600"/>
<stop offset="0.4" stop-color="#802E00"/>
<stop offset="0.6" stop-color="#491A00"/>
<stop offset="0.78" stop-color="#210C00"/>
<stop offset="0.92" stop-color="#090300"/>
<stop offset="1"/>
</radialGradient>
<radialGradient id="paint10_radial_1107_553" cx="0" cy="0" r="1" gradientUnits="userSpaceOnUse" gradientTransform="translate(27.5325 30.0685) rotate(33.77) scale(8.27429 6.97124)">
<stop stop-color="#FF5B00"/>
<stop offset="0.17" stop-color="#C54600"/>
<stop offset="0.4" stop-color="#802E00"/>
<stop offset="0.6" stop-color="#491A00"/>
<stop offset="0.78" stop-color="#210C00"/>
<stop offset="0.92" stop-color="#090300"/>
<stop offset="1"/>
</radialGradient>
<radialGradient id="paint11_radial_1107_553" cx="0" cy="0" r="1" gradientUnits="userSpaceOnUse" gradientTransform="translate(79.9416 51.9983) rotate(33.77) scale(7.46382 6.28842)">
<stop stop-color="#FF5B00"/>
<stop offset="0.17" stop-color="#C54600"/>
<stop offset="0.4" stop-color="#802E00"/>
<stop offset="0.6" stop-color="#491A00"/>
<stop offset="0.78" stop-color="#210C00"/>
<stop offset="0.92" stop-color="#090300"/>
<stop offset="1"/>
</radialGradient>
<radialGradient id="paint12_radial_1107_553" cx="0" cy="0" r="1" gradientUnits="userSpaceOnUse" gradientTransform="translate(36.9289 77.4143) rotate(33.77) scale(7.46381 6.28842)">
<stop stop-color="#FF5B00"/>
<stop offset="0.17" stop-color="#C54600"/>
<stop offset="0.4" stop-color="#802E00"/>
<stop offset="0.6" stop-color="#491A00"/>
<stop offset="0.78" stop-color="#210C00"/>
<stop offset="0.92" stop-color="#090300"/>
<stop offset="1"/>
</radialGradient>
</defs>
</svg>
