<svg width="130" height="130" viewBox="0 0 130 130" fill="none" xmlns="http://www.w3.org/2000/svg">
<path style="mix-blend-mode:screen" d="M60.2857 112.571C88.0577 112.571 110.571 90.0577 110.571 62.2857C110.571 34.5137 88.0577 12 60.2857 12C32.5137 12 10 34.5137 10 62.2857C10 90.0577 32.5137 112.571 60.2857 112.571Z" fill="url(#paint0_radial_1107_188)"/>
<path style="mix-blend-mode:screen" d="M55.9981 103.599C79.2443 103.599 98.0892 84.7545 98.0892 61.5083C98.0892 38.262 79.2443 19.4172 55.9981 19.4172C32.7519 19.4172 13.907 38.262 13.907 61.5083C13.907 84.7545 32.7519 103.599 55.9981 103.599Z" fill="url(#paint1_radial_1107_188)"/>
<path style="mix-blend-mode:screen" d="M60.2853 105.124C83.9434 105.124 103.122 85.9458 103.122 62.2877C103.122 38.6296 83.9434 19.4509 60.2853 19.4509C36.6272 19.4509 17.4485 38.6296 17.4485 62.2877C17.4485 85.9458 36.6272 105.124 60.2853 105.124Z" fill="url(#paint2_radial_1107_188)"/>
<path fill-rule="evenodd" clip-rule="evenodd" d="M98.1034 44.8844C98.1034 44.8844 85.7632 31.323 69.3306 26.1255C69.3306 26.1255 39.8619 31.2535 32.8701 43.0976C25.8783 54.9417 21.9064 75.9693 32.8701 88.8816C43.8339 101.794 56.0894 105.947 71.2172 103.408C86.345 100.869 90.229 95.4208 90.229 95.4208C90.229 95.4208 91.0475 88.2954 97.5096 87.0189C97.5096 87.0189 106.484 61.0717 98.1034 44.8844Z" fill="url(#paint3_radial_1107_188)"/>
<path fill-rule="evenodd" clip-rule="evenodd" d="M98.8589 65.4937C98.8639 70.0522 97.9695 74.567 96.2269 78.7794C94.4843 82.9917 91.9277 86.8189 88.7037 90.0416C85.4796 93.2644 81.6514 95.8194 77.4383 97.5603C73.2252 99.3012 68.7101 100.194 64.1515 100.187C63.5415 100.187 62.9162 100.178 62.3062 100.139H62.2985C61.3921 100.092 60.4923 100.007 59.601 99.8971C54.2371 99.1667 49.116 97.201 44.6409 94.1549C40.1658 91.1088 36.459 87.0654 33.8123 82.3431C33.6017 81.9599 33.3987 81.5691 33.1871 81.1859C33.1882 81.1725 33.1855 81.1589 33.1794 81.1469C32.9623 80.7333 32.7648 80.311 32.5781 79.8887H32.5694C31.9602 78.5567 31.4405 77.1856 31.0139 75.7844C30.6899 74.7645 30.4185 73.7286 30.2008 72.6809C30.1947 72.672 30.1921 72.6612 30.1932 72.6505C30.0445 71.9069 29.912 71.1644 29.81 70.4067C29.5743 68.7782 29.4568 67.1348 29.4583 65.4893C29.4583 64.5275 29.4898 63.5669 29.5755 62.6279C29.6222 62.0265 29.6928 61.4403 29.7709 60.8465C30.2093 57.4953 31.1449 54.2282 32.5466 51.1528C35.3039 45.0821 39.75 39.9331 45.3542 36.3207C50.9585 32.7083 57.484 30.7852 64.1515 30.7809C64.5184 30.7809 64.8854 30.7896 65.2458 30.7972C65.6365 30.8124 66.0197 30.8286 66.4105 30.8514C66.8013 30.8742 67.1921 30.9068 67.5753 30.9535C69.1446 31.105 70.7014 31.3662 72.2343 31.7351C73.3285 32.001 74.4053 32.306 75.4626 32.6729C76.1812 32.915 76.8858 33.181 77.5805 33.4784C78.0972 33.6955 78.6053 33.9235 79.1133 34.1655C79.199 34.2046 79.2848 34.2437 79.3792 34.2915C80.075 34.6269 80.7546 34.9949 81.4189 35.377C83.9815 36.8471 86.3457 38.6386 88.4542 40.708C88.8298 41.0749 89.1977 41.4505 89.5646 41.8413C89.8067 42.1072 90.0488 42.3732 90.2843 42.6467C90.6827 43.1005 91.0735 43.577 91.4567 44.0579C96.26 50.1695 98.8672 57.7194 98.8589 65.4926V65.4937Z" fill="url(#paint4_radial_1107_188)"/>
<path fill-rule="evenodd" clip-rule="evenodd" d="M95.2969 54.4641C91.8232 48.8194 81.273 47.5265 77.8786 50.7201C74.85 53.5696 77.6072 62.1767 80.7509 67.6434C80.7509 67.6434 71.2168 53.5881 77.5095 47.9445C83.8023 42.3008 96.6679 49.5174 99.3025 53.9582C101.937 58.3991 101.017 66.8423 99.3025 69.8383C97.5884 72.8344 94.092 72.4989 94.092 72.4989C94.092 72.4989 102.393 65.9999 95.2969 54.4641Z" fill="url(#paint5_radial_1107_188)"/>
<path style="mix-blend-mode:multiply" opacity="0.71" fill-rule="evenodd" clip-rule="evenodd" d="M31.1357 54.79C31.1357 54.79 36.3918 48.4126 40.2672 49.3016C44.1425 50.1907 42.2146 57.0902 42.2146 57.0902L46.1116 45.8725C46.1116 45.8725 38.9797 42.9709 36.6241 44.3093C36.6198 44.3093 32.8671 49.51 31.1357 54.79Z" fill="url(#paint6_linear_1107_188)"/>
<path fill-rule="evenodd" clip-rule="evenodd" d="M47.3389 92.7904C47.3389 92.7904 46.3619 94.1886 47.3389 96.2793C48.3158 98.37 52.6243 101.612 62.2887 102.298C72.7639 103.042 78.2219 96.6451 78.2958 95.4597C78.3696 94.2743 75.0587 93.2083 75.0587 93.2083C75.0587 93.2083 78.7712 93.3386 79.644 95.4749C80.5167 97.6112 73.438 105.029 61.6406 103.991C49.8432 102.953 44.015 95.9417 44.0834 94.0648C44.1517 92.1879 47.3389 92.7904 47.3389 92.7904Z" fill="url(#paint7_linear_1107_188)"/>
<path fill-rule="evenodd" clip-rule="evenodd" d="M40.2666 44.9346C40.2666 44.9346 38.6014 43.8154 36.6236 44.3104C33.9673 44.9758 30.6532 50.8333 30.3091 55.3827C30.0084 59.3156 31.4305 62.4722 32.263 62.9347C33.0956 63.3971 35.5923 62.9347 35.5923 62.9347C35.5923 62.9347 33.2921 64.5999 30.0019 63.4438C26.7117 62.2877 28.2955 52.5712 30.0019 48.4082C31.7083 44.2453 37.0285 41.5608 38.3702 41.8387C39.7119 42.1166 40.2666 44.9346 40.2666 44.9346Z" fill="url(#paint8_linear_1107_188)"/>
<path fill-rule="evenodd" clip-rule="evenodd" d="M74.3176 74.5907C73.485 73.4802 68.7196 72.3198 68.7196 72.3198L66.2891 75.0076C64.5099 75.5156 63.2605 81.1136 64.7867 82.3631C66.313 83.6125 72.3745 83.3346 73.2994 80.9747C74.2242 78.6148 75.1556 75.7012 74.3176 74.5907ZM67.0077 80.9302C65.666 79.5885 66.3444 76.0128 67.887 75.8413C69.969 75.61 71.1956 76.1669 71.6342 78.0611C72.0727 79.9554 68.3494 82.2708 67.0077 80.9302Z" fill="url(#paint9_linear_1107_188)"/>
<path fill-rule="evenodd" clip-rule="evenodd" d="M37.6533 89.6157C38.4631 90.0738 41.3332 89.4518 41.3332 89.4518L41.6882 87.0897C42.4415 86.2701 41.1954 82.4219 39.9785 82.0789C38.7616 81.7359 35.7037 83.6149 36.0217 85.3474C36.3398 87.0799 36.8445 89.1554 37.6533 89.6157ZM39.3098 83.5997C40.4615 84.0578 41.3191 86.4796 40.5755 87.0213C39.5703 87.754 38.7442 87.754 37.8747 86.6956C37.0052 85.6372 38.158 83.1384 39.3098 83.5965V83.5997Z" fill="url(#paint10_linear_1107_188)"/>
<path style="mix-blend-mode:multiply" opacity="0.71" fill-rule="evenodd" clip-rule="evenodd" d="M97.2772 58.5328C97.2772 58.5328 91.3426 53.026 84.5288 53.2387C77.715 53.4515 76.8216 60.9579 79.4388 65.1198C82.056 69.2816 71.6697 61.8806 71.6697 61.8806V45.8746C71.6697 45.8746 84.2694 44.6349 90.9659 47.6602C97.6625 50.6856 97.2772 58.5328 97.2772 58.5328Z" fill="url(#paint11_linear_1107_188)"/>
<path style="mix-blend-mode:multiply" opacity="0.71" fill-rule="evenodd" clip-rule="evenodd" d="M76.628 34.8094C75.6739 36.1457 77.0265 40.9144 77.0265 40.9144L66.2863 35.8125L67.5759 30.958C69.1453 31.1095 70.7021 31.3707 72.235 31.7396C73.3292 32.0055 74.406 32.3106 75.4633 32.6775C76.1819 32.9195 76.8864 33.1855 77.5812 33.4829C78.0979 33.7 78.6059 33.928 79.1139 34.1701C79.1997 34.2091 79.2854 34.2482 79.3798 34.296C80.0757 34.6314 80.7552 34.9994 81.4195 35.3815C79.7142 34.7237 77.2381 33.9573 76.628 34.8094Z" fill="url(#paint12_linear_1107_188)"/>
<path style="mix-blend-mode:multiply" opacity="0.71" fill-rule="evenodd" clip-rule="evenodd" d="M29.8893 70.9386C29.8893 70.9386 31.1409 69.4189 33.3629 70.055C35.585 70.6911 36.0767 72.911 36.0767 72.911L37.8831 66.4576L30.4766 64.8434L29.1251 66.1265L29.8893 70.9386Z" fill="url(#paint13_linear_1107_188)"/>
<path style="mix-blend-mode:multiply" opacity="0.71" fill-rule="evenodd" clip-rule="evenodd" d="M65.7249 79.3733C65.7249 79.3733 66.2264 77.7146 69.3299 77.7092C72.4334 77.7038 71.9764 79.7598 71.9764 79.7598L74.0867 75.7922L67.9307 72.109L62.286 74.5102L65.7249 79.3733Z" fill="url(#paint14_linear_1107_188)"/>
<path style="mix-blend-mode:multiply" opacity="0.71" fill-rule="evenodd" clip-rule="evenodd" d="M46.7598 96.1316C46.7598 96.1316 48.7593 94.7986 61.1972 94.0572C73.6351 93.3158 78.5883 97.507 78.5883 97.507L80.0082 91.6083L55.2029 86.3565L43.5673 89.7781L42.8845 92.8968L46.7598 96.1316Z" fill="url(#paint15_linear_1107_188)"/>
<path fill-rule="evenodd" clip-rule="evenodd" d="M32.8026 67.0361C32.8026 67.0361 30.8008 65.4849 28.6537 67.3271C26.6097 69.0813 26.6184 74.0356 28.0827 76.7646C29.3419 79.1136 33.0305 77.8208 33.0305 77.8208C33.0305 77.8208 30.0876 80.4662 27.7744 78.8466C25.4612 77.227 24.9987 68.2519 27.0341 65.7118C29.0694 63.1717 32.8026 67.0361 32.8026 67.0361Z" fill="url(#paint16_linear_1107_188)"/>
<path fill-rule="evenodd" clip-rule="evenodd" d="M102.696 55.9231C101.973 52.9816 100.908 50.1346 99.5245 47.4398C99.0848 46.5713 98.6094 45.7192 98.1035 44.8834C95.0782 46.3564 90.4191 47.0598 83.9917 43.8141C75.3618 39.4633 71.1359 31.0104 69.3372 26.1201C68.4797 26.0116 67.6156 25.9226 66.7439 25.8639C66.2967 25.8346 65.8505 25.8118 65.4109 25.7977C65.0006 25.7901 64.5826 25.7825 64.1582 25.7825C56.5318 25.7915 49.0687 27.9927 42.6583 32.1241C36.2478 36.2555 31.1602 42.1427 28.0017 49.0843C26.3989 52.6032 25.3274 56.3405 24.8222 60.174C24.7343 60.8557 24.6616 61.5298 24.6105 62.218C24.502 63.2873 24.464 64.3891 24.464 65.4844C24.4645 67.3695 24.5991 69.2522 24.8667 71.1182C24.9839 71.9866 25.1381 72.8322 25.314 73.6811C25.3135 73.6937 25.3157 73.7063 25.3205 73.718C25.5706 74.9172 25.881 76.1031 26.2508 77.2709C26.7405 78.8701 27.3326 80.4361 28.0234 81.9593H28.0386C28.2503 82.45 28.4728 82.9254 28.7192 83.402C28.7265 83.4068 28.7325 83.4134 28.7365 83.4212C28.7405 83.429 28.7424 83.4377 28.742 83.4465C28.9765 83.8807 29.2099 84.3323 29.452 84.7643C32.4668 90.1779 36.7043 94.8126 41.8268 98.2991C46.9493 101.786 52.8153 104.028 58.9575 104.846C59.9681 104.979 61.0015 105.074 62.0414 105.125H62.049C62.7448 105.169 63.4548 105.184 64.1582 105.184C73.7481 105.205 83.0177 101.734 90.2356 95.4198C88.4413 91.5596 89.9208 84.0945 92.6965 83.9773C94.0588 83.9187 96.0617 85.2159 97.5163 87.0167C100.457 82.4621 102.434 77.3536 103.326 72.0059C104.218 66.6583 104.006 61.1846 102.703 55.922L102.696 55.9231ZM29.3575 79.1066C24.4575 77.9201 25.8838 65.6461 29.453 65.4887C31.8119 65.3867 36.0671 69.3347 36.0671 72.9093C36.0671 76.4839 31.2626 79.5679 29.3575 79.1066ZM67.1673 81.7292C64.2092 81.0019 65.4717 76.1995 67.5124 75.495C69.398 74.8437 72.8738 76.3689 72.4668 78.5215C71.9121 81.4545 68.3169 82.0158 67.1673 81.7292ZM38.5671 88.2781C36.7456 87.87 36.0031 84.1629 37.2644 83.7678C38.4259 83.4031 40.7381 85.7499 40.4895 86.957C40.1432 88.6005 39.2759 88.4366 38.5671 88.2781ZM41.9789 57.7544C40.3452 62.002 32.1006 64.7495 30.8153 63.2992C28.7529 60.9773 28.4196 54.6411 30.6395 49.6086C33.1883 43.8141 36.6099 42.95 37.906 42.7883C39.2021 42.6266 45.1139 49.6086 41.9789 57.7544ZM59.7054 103.323C48.9957 102.612 42.0961 94.0498 46.0517 93.0826C60.4816 89.559 80.1642 93.1706 79.6442 95.4708C78.8312 99.0454 71.6971 104.121 59.7054 103.323ZM92.3166 73.223C80.9848 76.8194 71.7254 52.8152 77.445 49.0941C83.3632 45.234 93.7158 49.2276 96.7531 53.3135C99.303 56.7329 103.648 69.6137 92.3166 73.223Z" fill="url(#paint17_radial_1107_188)"/>
<path style="mix-blend-mode:screen" d="M60.8942 65.5038C69.9111 59.237 72.9416 48 67.6633 40.4054C62.3849 32.8109 50.7963 31.7345 41.7795 38.0013C32.7627 44.2682 29.7321 55.5051 35.0104 63.0997C40.2888 70.6943 51.8774 71.7707 60.8942 65.5038Z" fill="url(#paint18_radial_1107_188)"/>
<path fill-rule="evenodd" clip-rule="evenodd" d="M80.2562 30.9596C80.2562 30.9596 72.511 27.2992 71.3549 27.7942C70.1989 28.2892 74.1056 38.6006 82.5977 42.7853C91.6867 47.2652 96.7561 44.1715 96.7561 44.1715L94.8706 41.6987C94.8706 41.6987 97.7146 44.2258 98.1043 44.8825C98.1043 44.8825 93.2054 50.9028 81.5588 43.8154C69.3315 36.3731 69.3315 26.1215 69.3315 26.1215C69.3315 26.1215 73.9602 26.9551 80.2562 30.9596Z" fill="url(#paint19_radial_1107_188)"/>
<g style="mix-blend-mode:multiply">
<path fill-rule="evenodd" clip-rule="evenodd" d="M43.8863 35.7471C43.7278 35.8785 43.3826 36.126 43.6561 36.317C43.7299 36.3691 43.7951 36.3409 43.8732 36.3637C43.9514 36.3865 43.9493 36.4288 44.0209 36.4017C44.238 36.317 44.1544 35.6863 43.9037 35.8133L43.8863 35.7471Z" fill="#D1DEFF"/>
<path fill-rule="evenodd" clip-rule="evenodd" d="M35.5838 65.7947C35.4264 65.9261 35.0812 66.1736 35.3548 66.3646C35.4286 66.4167 35.4926 66.3896 35.5719 66.4113C35.6327 66.4287 35.6479 66.4764 35.7184 66.4504C35.941 66.3646 35.8519 65.734 35.6012 65.861L35.5838 65.7947Z" fill="#D1DEFF"/>
<path fill-rule="evenodd" clip-rule="evenodd" d="M45.0345 38.0415C45.1296 37.9872 45.2365 37.957 45.346 37.9536C45.3699 38.0904 45.4958 38.3585 45.3004 38.4649C45.1365 38.5539 45.1854 38.2619 45.1083 38.1935L45.0345 38.0415Z" fill="#D1DEFF"/>
<path fill-rule="evenodd" clip-rule="evenodd" d="M47.2759 38.1071C47.4843 38.1896 47.6917 38.2764 47.8979 38.3676C47.9641 38.309 48.0651 38.3199 48.1433 38.2678C48.251 38.1848 48.3312 38.0713 48.3733 37.9421C48.432 37.7652 48.3419 37.6164 48.2648 37.484C48.2187 37.3788 48.1544 37.2825 48.0748 37.1996C47.9782 37.128 47.7894 37.1562 47.6884 37.1996C47.566 37.275 47.4633 37.3784 47.3888 37.5014C47.2957 37.6244 47.2362 37.7696 47.2162 37.9226C47.2222 37.9969 47.2448 38.069 47.2824 38.1334C47.32 38.1979 47.3716 38.253 47.4333 38.2949L47.2759 38.1071Z" fill="#D1DEFF"/>
<path fill-rule="evenodd" clip-rule="evenodd" d="M49.1601 80.9462C49.3685 81.0287 49.5759 81.1152 49.7821 81.2057C49.8483 81.1471 49.9493 81.1579 50.0275 81.1069C50.1349 81.0237 50.215 80.9103 50.2576 80.7812C50.3162 80.6043 50.225 80.4556 50.1491 80.3242C50.1032 80.2189 50.0388 80.1226 49.9591 80.0398C49.8625 79.9671 49.6736 79.9953 49.5726 80.0398C49.45 80.1149 49.3472 80.2184 49.273 80.3416C49.1799 80.4642 49.1204 80.609 49.1004 80.7617C49.1064 80.8361 49.1291 80.9081 49.1666 80.9726C49.2042 81.037 49.2558 81.0922 49.3175 81.134L49.1601 80.9462Z" fill="#D1DEFF"/>
<path fill-rule="evenodd" clip-rule="evenodd" d="M92.6126 79.5001C92.8225 79.5826 93.0301 79.6694 93.2357 79.7606C93.3019 79.702 93.4018 79.7129 93.481 79.6608C93.5882 79.5773 93.6683 79.464 93.7112 79.3351C93.7698 79.1582 93.6786 79.0094 93.6026 78.877C93.556 78.772 93.4918 78.6758 93.4126 78.5926C93.316 78.521 93.1272 78.5492 93.0262 78.5926C92.9038 78.668 92.8011 78.7714 92.7266 78.8944C92.6337 79.0171 92.5742 79.1619 92.554 79.3145C92.56 79.389 92.5826 79.4612 92.6202 79.5258C92.6578 79.5904 92.7093 79.6458 92.7711 79.6879L92.6126 79.5001Z" fill="#D1DEFF"/>
<path fill-rule="evenodd" clip-rule="evenodd" d="M41.2967 40.1161C41.2085 40.1785 41.1346 40.2588 41.0796 40.3517C41.1653 40.4602 41.2066 40.5601 41.3531 40.6024C41.3809 40.614 41.4114 40.6176 41.4411 40.6128C41.4708 40.608 41.4987 40.595 41.5214 40.5753C41.5822 40.5156 41.5496 40.4494 41.5659 40.3908C41.606 40.2486 41.6451 40.2117 41.5659 40.0814C41.517 40.0032 41.4834 39.9728 41.3987 39.9728C41.339 39.9728 41.2087 39.9891 41.1816 40.0564L41.2967 40.1161Z" fill="#D1DEFF"/>
<path fill-rule="evenodd" clip-rule="evenodd" d="M41.7729 43.4344C41.7577 43.4713 41.5959 43.8805 41.8054 43.76C41.8259 43.7443 41.8425 43.7241 41.8539 43.701C41.8653 43.6778 41.8713 43.6523 41.8713 43.6265C41.8713 43.6007 41.8653 43.5752 41.8539 43.5521C41.8425 43.5289 41.8259 43.5087 41.8054 43.493C41.8054 43.48 41.813 43.467 41.8163 43.4528L41.7729 43.4344Z" fill="#D1DEFF"/>
<path fill-rule="evenodd" clip-rule="evenodd" d="M38.5566 63.6771C38.5414 63.7129 38.3796 64.1221 38.5891 64.0027C38.6098 63.9873 38.6266 63.9672 38.6382 63.9441C38.6497 63.921 38.6557 63.8956 38.6557 63.8697C38.6557 63.8439 38.6497 63.8185 38.6382 63.7954C38.6266 63.7723 38.6098 63.7522 38.5891 63.7368C38.5891 63.7227 38.5967 63.7096 38.6 63.6966L38.5566 63.6771Z" fill="#D1DEFF"/>
<path fill-rule="evenodd" clip-rule="evenodd" d="M49.1108 46.1597C49.007 46.2918 48.933 46.4447 48.8937 46.608C48.9663 46.664 49.056 46.6931 49.1477 46.6905C49.2703 46.6851 49.2758 46.646 49.2801 46.5288C49.2985 46.4436 49.3047 46.3563 49.2986 46.2694C49.2758 46.176 49.1824 46.0805 49.075 46.1402L49.1108 46.1597Z" fill="#D1DEFF"/>
<path fill-rule="evenodd" clip-rule="evenodd" d="M43.4154 40.5184C43.4945 40.5904 43.5476 40.6866 43.5663 40.7919C43.4577 40.819 43.4415 40.7105 43.4252 40.6237C43.3991 40.4847 43.4631 40.527 43.5283 40.4163L43.5652 40.4239L43.4154 40.5184Z" fill="#D1DEFF"/>
<path fill-rule="evenodd" clip-rule="evenodd" d="M42.319 36.14C42.2302 36.2011 42.156 36.2812 42.1019 36.3744C42.154 36.4396 42.1291 36.5579 42.2517 36.5492C42.3386 36.5427 42.4092 36.4493 42.4515 36.3777C42.4915 36.3042 42.5117 36.2215 42.5101 36.1378C42.5101 36.0922 42.5101 35.8957 42.4286 36.0292L42.319 36.14Z" fill="#D1DEFF"/>
<path fill-rule="evenodd" clip-rule="evenodd" d="M56.5011 33.875C56.5196 33.761 56.5513 33.6496 56.5955 33.5429C56.6107 33.5168 56.6487 33.494 56.6682 33.4669C56.729 33.3779 56.7106 33.3583 56.8115 33.3583C56.8614 33.352 56.912 33.3559 56.9603 33.3697C57.0086 33.3835 57.0536 33.407 57.0926 33.4387C57.4053 33.6872 56.6139 33.8794 56.5835 33.6395L56.5011 33.875Z" fill="#D1DEFF"/>
<path fill-rule="evenodd" clip-rule="evenodd" d="M59.1585 34.8563C59.1183 35.0364 59.0033 35.2796 59.1694 35.399C59.3127 35.501 59.6134 35.3393 59.7273 35.2362C59.9292 35.0516 60.1757 34.7021 59.9824 34.4448C59.8739 34.294 59.5482 34.1789 59.3658 34.1963C58.9881 34.2321 58.8785 34.6826 58.8231 35.0419L59.1585 34.8563Z" fill="#D1DEFF"/>
<path fill-rule="evenodd" clip-rule="evenodd" d="M43.1327 45.2001C43.0936 45.3803 42.9775 45.6234 43.1446 45.7428C43.2879 45.8514 43.5887 45.6842 43.7016 45.5811C43.9045 45.3966 44.1498 45.047 43.9566 44.7898C43.8481 44.6389 43.5224 44.5238 43.3411 44.5412C42.9634 44.577 42.8526 45.0264 42.7984 45.3868L43.1327 45.2001Z" fill="#D1DEFF"/>
<path fill-rule="evenodd" clip-rule="evenodd" d="M87.4416 77.1347C87.4026 77.3149 87.2864 77.5581 87.4536 77.6775C87.5969 77.786 87.8975 77.6188 88.0104 77.5146C88.2134 77.3301 88.4588 76.9816 88.2655 76.7244C88.1853 76.6431 88.0893 76.5791 87.9835 76.5361C87.8777 76.4932 87.7642 76.4723 87.6501 76.4747C87.2712 76.5105 87.1616 76.961 87.1073 77.3214L87.4416 77.1347Z" fill="#D1DEFF"/>
<path fill-rule="evenodd" clip-rule="evenodd" d="M102.011 70.7143C101.971 70.8955 101.855 71.1387 102.022 71.257C102.165 71.3591 102.466 71.1984 102.58 71.0942C102.782 70.9097 103.028 70.5601 102.835 70.3028C102.755 70.2219 102.658 70.1581 102.552 70.1154C102.446 70.0727 102.333 70.0519 102.219 70.0543C101.841 70.0901 101.731 70.5406 101.676 70.901L102.011 70.7143Z" fill="#D1DEFF"/>
<path fill-rule="evenodd" clip-rule="evenodd" d="M60.3208 31.2052C60.2795 30.8969 60.2242 30.5919 60.4988 30.4301C60.6475 30.3411 60.9222 30.3107 61.0633 30.4149C61.1668 30.5076 61.2531 30.6179 61.3184 30.7406C61.4128 30.8969 61.3879 30.898 61.339 31.0402C61.2305 31.3658 61.149 31.5829 60.8223 31.5829C60.3881 31.5829 60.3262 31.2486 60.3208 30.8328V31.2052Z" fill="#D1DEFF"/>
<path fill-rule="evenodd" clip-rule="evenodd" d="M64.3046 36.6344C64.5378 36.5707 64.7484 36.4428 64.9125 36.2653C64.7421 36.1568 64.3698 35.9397 64.3046 36.2599V36.6344Z" fill="#D1DEFF"/>
<path fill-rule="evenodd" clip-rule="evenodd" d="M50.6093 85.8861C50.8427 85.8231 51.0535 85.6951 51.2172 85.5171C51.0467 85.4085 50.6744 85.1914 50.6093 85.5116V85.8861Z" fill="#D1DEFF"/>
<path fill-rule="evenodd" clip-rule="evenodd" d="M76.0234 91.2153C76.2569 91.1523 76.4677 91.0243 76.6313 90.8462C76.4619 90.7376 76.0885 90.5205 76.0234 90.8408V91.2153Z" fill="#D1DEFF"/>
<path fill-rule="evenodd" clip-rule="evenodd" d="M67.3759 41.4069C67.6114 41.1182 67.9501 40.5917 68.3756 40.8804C68.6231 41.0476 68.6937 41.4916 68.457 41.6685C68.2561 41.8064 68.0288 41.901 67.7894 41.9464C67.6006 41.9985 67.3194 41.8737 67.3759 41.5936V41.4069Z" fill="#D1DEFF"/>
<path fill-rule="evenodd" clip-rule="evenodd" d="M44.8856 73.1231C45.1201 72.8343 45.4587 72.3079 45.8853 72.5966C46.1328 72.7649 46.2034 73.2088 45.9668 73.3847C45.7653 73.5224 45.5377 73.6173 45.2981 73.6637C45.1103 73.7158 44.8281 73.5899 44.8856 73.3098V73.1231Z" fill="#D1DEFF"/>
<path fill-rule="evenodd" clip-rule="evenodd" d="M82.4909 87.8672C82.7253 87.5784 83.0651 87.052 83.4906 87.3407C83.7381 87.5079 83.8087 87.9519 83.572 88.1288C83.3549 88.2927 83.152 88.3383 82.9045 88.4067C82.7156 88.4588 82.4344 88.334 82.4909 88.0539V87.8672Z" fill="#D1DEFF"/>
<path fill-rule="evenodd" clip-rule="evenodd" d="M50.9201 48.2724C51.1546 47.9837 51.4932 47.4572 51.9199 47.746C52.1663 47.9142 52.2379 48.3582 52.0013 48.5351C51.7842 48.699 51.5801 48.7446 51.3326 48.813C51.1437 48.8651 50.8626 48.7403 50.9201 48.4602V48.2724Z" fill="#D1DEFF"/>
<path fill-rule="evenodd" clip-rule="evenodd" d="M64.4995 35.7231C64.734 35.4343 65.0727 34.9079 65.4993 35.1966C65.7468 35.3638 65.8173 35.8078 65.5807 35.9847C65.3795 36.1222 65.1523 36.2172 64.9131 36.2637C64.7232 36.3147 64.442 36.1899 64.4995 35.9098V35.7231Z" fill="#D1DEFF"/>
<path fill-rule="evenodd" clip-rule="evenodd" d="M98.2515 51.22C98.486 50.9312 98.8247 50.4047 99.2513 50.6935C99.4977 50.8607 99.5693 51.3046 99.3327 51.4816C99.1156 51.6455 98.9115 51.6911 98.664 51.7595C98.4751 51.8116 98.194 51.6867 98.2515 51.4067V51.22Z" fill="#D1DEFF"/>
<path fill-rule="evenodd" clip-rule="evenodd" d="M62.9226 61.3476C63.1571 61.0588 63.4957 60.5324 63.9224 60.8211C64.1688 60.9894 64.2404 61.4334 64.0038 61.6103C63.802 61.7472 63.5745 61.8418 63.3351 61.8882C63.1462 61.9403 62.8651 61.8144 62.9226 61.5354V61.3476Z" fill="#D1DEFF"/>
<path fill-rule="evenodd" clip-rule="evenodd" d="M47.161 32.5122C46.3295 33.0398 44.9291 33.6943 44.788 34.8363C44.7022 35.5256 45.0203 35.9305 45.6423 36.229C46.172 36.483 46.9666 36.5047 47.4985 36.2366C48.2584 35.8523 49.1398 35.2173 49.4829 34.4075C49.7304 33.8224 49.6902 33.4208 49.4145 32.8411C49.2669 32.5296 48.9727 32.1561 48.6395 32.04C47.5756 31.6709 46.9373 32.7152 46.1503 33.1852L47.161 32.5122Z" fill="#D1DEFF"/>
<path fill-rule="evenodd" clip-rule="evenodd" d="M50.5131 36.8616C50.6722 36.9169 50.8151 37.0109 50.9289 37.1351C50.765 37.1915 50.5902 37.3207 50.4219 37.261C50.2048 37.1829 50.1647 36.9766 50.2135 36.7704C50.2407 36.6618 50.4447 36.4577 50.5609 36.5077C50.6195 36.5326 50.6303 36.6162 50.6499 36.664C50.69 36.7725 50.6933 36.7487 50.6358 36.8616H50.5131Z" fill="#D1DEFF"/>
<path fill-rule="evenodd" clip-rule="evenodd" d="M102.245 61.8717C102.404 61.927 102.547 62.0214 102.66 62.1463C102.497 62.2017 102.321 62.3308 102.154 62.2711C101.937 62.1941 101.897 61.9878 101.946 61.7805C101.973 61.6665 102.176 61.4679 102.292 61.5178C102.352 61.5428 102.363 61.6263 102.382 61.6741C102.422 61.7827 102.424 61.7599 102.367 61.8717H102.245Z" fill="#D1DEFF"/>
<path fill-rule="evenodd" clip-rule="evenodd" d="M40.9713 37.8891C40.5143 38.2897 40.0834 38.7695 39.8413 39.3437C39.7176 39.6357 39.9368 39.6498 40.2027 39.5988C40.7162 39.4978 41.234 39.3556 41.742 39.2254C42.0427 39.1483 42.4748 38.9898 42.6832 38.7336C42.8432 38.5074 42.9115 38.2288 42.8743 37.9542C42.8254 37.609 42.58 37.4755 42.2674 37.3887C41.5521 37.1911 40.6337 37.6611 40.3678 38.3201L40.9713 37.8891Z" fill="#D1DEFF"/>
<path fill-rule="evenodd" clip-rule="evenodd" d="M42.8345 40.9146C43.0857 40.9196 43.3322 40.9835 43.5542 41.1013C43.4901 41.1772 43.5108 41.2804 43.4771 41.3705C43.4148 41.5106 43.3124 41.6292 43.1829 41.7113C43.0714 41.7766 42.9476 41.8181 42.8193 41.8333C42.6909 41.8484 42.5608 41.8368 42.4372 41.7992C41.7707 41.5463 42.7922 40.7561 43.0169 41.0394L42.8345 40.9146Z" fill="#D1DEFF"/>
<path fill-rule="evenodd" clip-rule="evenodd" d="M55.4401 30.5375C55.6887 30.4181 55.9123 30.265 56.1804 30.2194C56.4804 30.1573 56.785 30.121 57.0911 30.1109C57.2496 30.1109 57.6035 30.0967 57.5004 30.3551C57.3918 30.6352 56.7872 30.8979 56.5473 31.014C56.137 31.2072 55.7505 31.4015 55.2903 31.4482C55.058 31.4721 54.6693 31.4884 54.538 31.2561C54.4294 31.0607 54.4794 30.9 54.5879 30.7187C54.685 30.5508 54.8421 30.4259 55.0276 30.3692C55.122 30.3312 55.6561 30.189 55.6789 30.3551L55.4401 30.5375Z" fill="#D1DEFF"/>
<path fill-rule="evenodd" clip-rule="evenodd" d="M51.3017 30.6584C51.1932 30.7376 50.3508 31.2011 50.7514 31.4063C50.9685 31.5149 51.3896 31.4834 51.6089 31.39C51.8032 31.3075 51.9997 31.1794 51.8781 30.9558C51.6306 30.5032 51.0097 30.7648 50.6938 30.9558L51.3017 30.6584Z" fill="#D1DEFF"/>
<path fill-rule="evenodd" clip-rule="evenodd" d="M66.8671 26.9232C66.6772 27.0611 65.2182 27.8709 65.9129 28.2258C66.2864 28.4136 67.0202 28.3594 67.399 28.1976C67.7366 28.0543 68.0786 27.8329 67.8669 27.4454C67.4327 26.6616 66.3656 27.1132 65.812 27.4551L66.8671 26.9232Z" fill="#D1DEFF"/>
<path fill-rule="evenodd" clip-rule="evenodd" d="M39.6778 62.82C39.7396 63.1663 39.8113 63.5451 40.112 63.7731C40.4127 64.001 40.7774 63.9153 41.0835 63.734C41.3104 63.6005 41.5242 63.4572 41.7468 63.3204C41.876 63.2412 41.9899 63.2206 41.9954 63.036C42.0008 62.8515 41.8184 62.5703 41.7044 62.4205C41.5374 62.2143 41.3234 62.0513 41.0802 61.9451C40.6146 61.7725 39.7277 61.9451 39.7386 62.5768L39.6778 62.82Z" fill="#D1DEFF"/>
<path fill-rule="evenodd" clip-rule="evenodd" d="M67.0839 63.7002C67.2044 64.3711 67.3423 65.1049 67.9252 65.5456C68.5298 66.0059 69.2138 65.8192 69.8075 65.4696C70.2483 65.2102 70.664 64.9334 71.0938 64.6685C71.3446 64.5133 71.5639 64.4753 71.5758 64.116C71.5877 63.7317 71.2328 63.215 71.0114 62.9219C70.6881 62.5218 70.2729 62.206 69.801 62.0014C68.9 61.6649 67.1806 62.0014 67.2023 63.2248L67.0839 63.7002Z" fill="#D1DEFF"/>
</g>
<path style="mix-blend-mode:screen" fill-rule="evenodd" clip-rule="evenodd" d="M78.3034 50.1185C78.3034 50.1185 113.564 38.219 119.185 44.3196C125.754 51.4471 90.4558 73.4897 90.4558 73.4897C90.4558 73.4897 83.1047 73.9912 78.2708 63.4454C76.838 60.33 75.4941 53.8472 78.3034 50.1185Z" fill="url(#paint20_linear_1107_188)"/>
<path style="mix-blend-mode:screen" fill-rule="evenodd" clip-rule="evenodd" d="M47.3396 92.7891C47.3396 92.7891 53.3186 118.197 62.8017 118.852C72.2849 119.508 78.2965 95.454 78.2965 95.454C78.2965 95.454 73.6971 91.6601 62.8017 91.6601C51.9064 91.6601 47.3396 92.7891 47.3396 92.7891Z" fill="url(#paint21_linear_1107_188)"/>
<path style="mix-blend-mode:screen" fill-rule="evenodd" clip-rule="evenodd" d="M37.8736 44.5381C37.8736 44.5381 28.0366 42.786 25.0395 49.1537C21.4823 56.7122 33.0376 63.1178 33.0376 63.1178C33.0376 63.1178 39.0547 63.1428 41.9845 57.7543C44.9143 52.3658 41.5047 44.5652 37.8736 44.5381Z" fill="url(#paint22_linear_1107_188)"/>
<path style="mix-blend-mode:screen" fill-rule="evenodd" clip-rule="evenodd" d="M28.7884 67.0525C28.7884 67.0525 11.508 73.0555 11.508 76.4705C11.508 80.7551 33.0318 77.8209 33.0318 77.8209C33.0318 77.8209 35.5947 75.9755 36.0712 72.9089C36.5478 69.8423 32.8374 66.6281 31.7183 66.5347C30.5991 66.4414 29.3464 66.7095 28.7884 67.0525Z" fill="url(#paint23_linear_1107_188)"/>
<path style="mix-blend-mode:screen" fill-rule="evenodd" clip-rule="evenodd" d="M72.2357 31.7368C72.2357 31.7368 79.4489 24.7482 88.3361 26.9203C97.2232 29.0924 91.7881 45.3459 91.7881 45.3459C91.7881 45.3459 85.5713 45.0659 79.5694 40.9137C73.5676 36.7616 72.2357 31.7368 72.2357 31.7368Z" fill="url(#paint24_linear_1107_188)"/>
<path style="mix-blend-mode:screen" opacity="0.5" fill-rule="evenodd" clip-rule="evenodd" d="M89.6103 89.0677C89.6103 89.0677 103.323 103.359 104.821 101.043C106.302 98.7538 93.7309 84.1513 93.7309 84.1513C93.7309 84.1513 91.4383 82.5198 89.6103 89.0677Z" fill="url(#paint25_linear_1107_188)"/>
<path fill-rule="evenodd" clip-rule="evenodd" d="M84.3311 31.4319C84.0858 31.776 84.0587 31.7966 84.0359 32.1386C84.0239 32.3199 83.9816 32.6206 84.05 32.7899C84.1661 33.083 84.5928 33.3479 84.9043 33.3109C85.1648 33.2795 85.4753 33.0938 85.7163 32.9853C86.0235 32.8453 86.1776 32.6173 86.309 32.3188C86.4403 32.0203 86.36 31.8227 86.2341 31.5285C86.113 31.2349 85.9381 30.9665 85.7184 30.7372C85.4666 30.4929 85.1355 30.3562 84.8251 30.5613C84.5483 30.7448 84.2421 31.1909 84.2324 31.5285L84.3311 31.4319Z" fill="#FFC445"/>
<path fill-rule="evenodd" clip-rule="evenodd" d="M24.7289 74.1073C24.5997 74.2897 24.5856 74.3005 24.5736 74.4807C24.5549 74.5949 24.5575 74.7116 24.5812 74.8248C24.6226 74.9085 24.687 74.9787 24.7667 75.0274C24.8464 75.076 24.9383 75.101 25.0317 75.0995C25.1811 75.0616 25.3246 75.0036 25.4583 74.9269C25.5309 74.8917 25.5958 74.8425 25.6492 74.7822C25.7027 74.7218 25.7437 74.6515 25.7699 74.5752C25.8393 74.4178 25.797 74.3147 25.7319 74.1594C25.6676 74.0048 25.5753 73.8635 25.4594 73.7426C25.327 73.6145 25.1522 73.5428 24.9894 73.6503C24.9058 73.7098 24.835 73.7855 24.7815 73.873C24.728 73.9605 24.6927 74.0579 24.6778 74.1594L24.7289 74.1073Z" fill="#FFC445"/>
<path fill-rule="evenodd" clip-rule="evenodd" d="M86.9969 35.5778C87.2356 35.6431 87.4495 35.778 87.6113 35.9653C87.4452 36.0109 87.4767 36.2171 87.2987 36.2736C87.0935 36.3387 86.973 36.1162 86.7993 36.165L86.9969 35.5778Z" fill="#FF8800"/>
<path fill-rule="evenodd" clip-rule="evenodd" d="M70.1152 106.623C70.3544 106.687 70.5685 106.822 70.7297 107.01C70.5636 107.056 70.5951 107.262 70.417 107.319C70.2119 107.384 70.0914 107.161 69.9177 107.21L70.1152 106.623Z" fill="#FFC445"/>
<path fill-rule="evenodd" clip-rule="evenodd" d="M91.9327 27.4829C91.8719 27.6664 91.5387 28.3177 91.6375 28.5294C91.7461 28.7736 92.05 28.6683 92.2291 28.5489C92.3325 28.4602 92.4314 28.3664 92.5254 28.2677C92.6177 28.1939 92.7426 28.1592 92.8272 28.08C92.9119 28.0007 92.9357 27.8704 93.0139 27.7771C93.0921 27.6837 93.2311 27.6164 93.3081 27.5198C93.5252 27.2387 93.4514 26.8186 93.091 26.7155C92.4538 26.5298 92.2031 27.0574 91.8296 27.4829H91.9327Z" fill="#FFC445"/>
<path fill-rule="evenodd" clip-rule="evenodd" d="M94.6796 90.484C94.6177 90.6685 94.2855 91.3187 94.3832 91.5304C94.4972 91.7746 94.7957 91.6693 94.9759 91.5499C95.0953 91.4707 95.1616 91.3567 95.2723 91.2688C95.3635 91.195 95.4894 91.1602 95.573 91.0821C95.6566 91.0039 95.6815 90.8715 95.7597 90.7781C95.8379 90.6848 95.9768 90.6175 96.0539 90.5209C96.271 90.2397 96.1972 89.8196 95.8368 89.7165C95.1985 89.5309 94.9477 90.0584 94.5754 90.484H94.6796Z" fill="#FFC445"/>
<path fill-rule="evenodd" clip-rule="evenodd" d="M59.4593 95.066C59.3974 95.2505 59.0653 95.9008 59.163 96.1124C59.2715 96.3567 59.5755 96.2514 59.7557 96.1331C59.8751 96.0538 59.9413 95.9387 60.052 95.8508C60.1443 95.777 60.2691 95.7423 60.3527 95.6641C60.4363 95.586 60.4612 95.4546 60.5394 95.3602C60.6175 95.2657 60.7565 95.2006 60.8335 95.104C61.0507 94.8217 60.978 94.4016 60.6219 94.2985C59.9836 94.114 59.7328 94.6415 59.3605 95.066H59.4593Z" fill="#FFC445"/>
<path fill-rule="evenodd" clip-rule="evenodd" d="M97.2663 25.8031C97.4324 25.4384 97.4889 25.2528 97.8373 25.0845C98.0121 25.0009 98.2574 24.976 98.2498 25.2571C98.2498 25.3852 98.0392 25.6598 97.9588 25.7543C97.8101 25.9301 97.6017 25.9453 97.3824 25.8845C97.377 25.8574 97.3716 25.8303 97.3651 25.8031H97.2663Z" fill="#FFC445"/>
<path fill-rule="evenodd" clip-rule="evenodd" d="M33.8194 54.172C33.9855 53.8073 34.0419 53.6217 34.3904 53.4534C34.5651 53.3698 34.8105 53.3449 34.8029 53.626C34.8029 53.7541 34.5922 54.0288 34.5119 54.1232C34.3632 54.299 34.1548 54.3142 33.9355 54.2535C33.9301 54.2263 33.9247 54.1992 33.9182 54.172H33.8194Z" fill="#FFC445"/>
<path fill-rule="evenodd" clip-rule="evenodd" d="M60.174 112.604C60.3053 112.316 60.3509 112.17 60.6266 112.036C60.7645 111.969 60.9588 111.951 60.9523 112.172C60.9523 112.274 60.7851 112.491 60.7211 112.566C60.6038 112.705 60.4388 112.718 60.2651 112.674C60.2651 112.653 60.2564 112.631 60.251 112.609L60.174 112.604Z" fill="#FFC445"/>
<path fill-rule="evenodd" clip-rule="evenodd" d="M93.8261 57.0778C93.7719 56.8727 93.3279 57.2711 93.482 57.1104C93.6522 56.9643 93.8465 56.8489 94.0563 56.7696C94.2491 56.6764 94.4705 56.6616 94.6739 56.7283C95.0146 56.8243 95.3097 57.0392 95.5055 57.334C96.0048 58.1851 95.3285 58.9276 94.5198 59.2435C93.7665 59.5365 92.7135 59.3911 92.5387 58.4662C92.4888 58.2068 92.6212 57.6716 92.834 57.4893C93.0467 57.3069 93.5407 57.1234 93.8261 57.0746V57.0778Z" fill="#FF8800"/>
<path fill-rule="evenodd" clip-rule="evenodd" d="M32.4147 73.3857C32.3821 73.2316 32.1227 73.529 32.2139 73.4096C32.3079 73.3041 32.4215 73.2179 32.5483 73.1556C32.6013 73.1214 32.6618 73.1008 32.7247 73.0955C32.7875 73.0902 32.8507 73.1004 32.9086 73.1252C33.1219 73.2085 33.2956 73.3694 33.395 73.5757C33.6859 74.2096 33.2919 74.7622 32.8197 74.9966C32.3789 75.2137 31.7645 75.1052 31.6625 74.418C31.6332 74.2248 31.7102 73.8264 31.8351 73.694C31.9996 73.5446 32.1988 73.4386 32.4147 73.3857Z" fill="#FFC445"/>
<path fill-rule="evenodd" clip-rule="evenodd" d="M36.1021 59.5352C36.1705 59.4495 35.8948 59.4419 36.0001 59.4375C36.0987 59.4415 36.1956 59.4644 36.2855 59.5048C36.3277 59.5183 36.366 59.5419 36.397 59.5735C36.428 59.6051 36.4509 59.6437 36.4636 59.6861C36.5134 59.8385 36.5037 60.0041 36.4364 60.1496C36.2193 60.5893 35.7493 60.6229 35.4117 60.4753C35.098 60.3353 34.882 59.9542 35.2087 59.5928C35.3352 59.4668 35.4996 59.386 35.6766 59.3626C35.8308 59.3853 35.9769 59.4457 36.1021 59.5385V59.5352Z" fill="#FFC445"/>
<path fill-rule="evenodd" clip-rule="evenodd" d="M70.2703 95.4287C70.2595 95.2518 69.8361 95.5058 69.9848 95.3994C70.1471 95.3077 70.3242 95.2452 70.508 95.2149C70.6801 95.1695 70.8631 95.1928 71.0183 95.28C71.281 95.4131 71.4871 95.6361 71.599 95.9085C71.8682 96.6836 71.1984 97.1796 70.4874 97.3066C69.8253 97.425 68.9894 97.1362 68.9959 96.3525C68.9959 96.1354 69.1924 95.7185 69.3943 95.6067C69.6703 95.4857 69.969 95.425 70.2703 95.4287Z" fill="#FF8800"/>
<path fill-rule="evenodd" clip-rule="evenodd" d="M29.9978 48.4071C29.9424 48.2009 29.8947 48.1054 30.0488 47.9447C30.2184 47.7987 30.4124 47.6837 30.6219 47.6049C30.8147 47.512 31.0359 47.4968 31.2396 47.5626C31.5807 47.6582 31.8762 47.8732 32.0722 48.1683C32.5704 49.0205 31.8952 49.763 31.0865 50.0778C30.3321 50.3719 29.2802 50.2265 29.1044 49.3005C29.0555 49.0411 29.188 48.5059 29.4007 48.3236C29.6135 48.1412 30.1074 47.9577 30.3929 47.9089L29.9978 48.4071Z" fill="#FFC445"/>
<path fill-rule="evenodd" clip-rule="evenodd" d="M101.809 53.1552C101.801 53.7565 101.869 53.712 102.4 53.826C102.793 53.9096 103.117 53.6751 103.466 53.5253C103.663 53.4395 103.834 53.3032 103.962 53.1302C104.115 52.9131 104.104 52.8252 103.907 52.6612C103.772 52.5298 103.609 52.4314 103.43 52.3736C103.322 52.3519 103.221 52.3649 103.115 52.3432C103.047 52.328 102.997 52.2759 102.898 52.2618C102.654 52.2238 102.088 52.4072 101.897 52.557C101.733 52.6862 101.564 53.0488 101.608 53.2539L101.809 53.1552Z" fill="#FFC445"/>
<path fill-rule="evenodd" clip-rule="evenodd" d="M108.012 55.8882C107.984 55.8257 107.971 55.757 107.976 55.6885C108.06 55.6342 108.07 55.5235 108.173 55.4714C108.21 55.4516 108.251 55.4403 108.293 55.4384C108.335 55.4365 108.377 55.4441 108.416 55.4606C108.561 55.5355 108.556 55.7189 108.485 55.8351C108.433 55.9208 108.385 56.0652 108.286 56.1184C108.16 56.1868 107.971 56.0381 107.932 55.9252L108.012 55.8882Z" fill="#FFC445"/>
<path fill-rule="evenodd" clip-rule="evenodd" d="M100.729 95.2917C100.701 95.2291 100.689 95.1604 100.694 95.092C100.777 95.0377 100.787 94.927 100.89 94.8748C100.927 94.855 100.968 94.8437 101.011 94.8418C101.053 94.84 101.095 94.8475 101.134 94.864C101.164 94.8833 101.19 94.9085 101.21 94.9382C101.229 94.9678 101.243 95.0012 101.25 95.0362C101.256 95.0713 101.255 95.1074 101.247 95.1421C101.24 95.1769 101.225 95.2097 101.204 95.2385C101.151 95.3253 101.103 95.4686 101.003 95.5229C100.877 95.5902 100.689 95.4415 100.649 95.3297L100.729 95.2917Z" fill="#FFC445"/>
<path fill-rule="evenodd" clip-rule="evenodd" d="M67.967 97.7071C67.9389 97.644 67.927 97.575 67.9323 97.5062C68.0148 97.452 68.0246 97.3423 68.1288 97.2891C68.1661 97.2697 68.2072 97.2587 68.2493 97.257C68.2913 97.2553 68.3332 97.263 68.3719 97.2794C68.4019 97.2987 68.4277 97.3239 68.4476 97.3535C68.4674 97.3832 68.4811 97.4165 68.4876 97.4516C68.4941 97.4867 68.4933 97.5227 68.4854 97.5575C68.4775 97.5923 68.4625 97.6251 68.4414 97.6539C68.3893 97.7396 68.3404 97.884 68.2406 97.9372C68.1147 98.0056 67.9269 97.8569 67.8867 97.744L67.967 97.7071Z" fill="#FFC445"/>
<path fill-rule="evenodd" clip-rule="evenodd" d="M23.4352 47.7581C23.4071 47.6951 23.3951 47.626 23.4004 47.5573C23.4829 47.503 23.4927 47.3933 23.5969 47.3402C23.6342 47.3207 23.6754 47.3097 23.7174 47.3081C23.7594 47.3064 23.8013 47.314 23.8401 47.3304C23.9844 47.4053 23.9801 47.5876 23.9095 47.7049C23.8574 47.7906 23.8086 47.9339 23.7087 47.9882C23.5828 48.0566 23.395 47.9079 23.3549 47.795L23.4352 47.7581Z" fill="#FFC445"/>
<path fill-rule="evenodd" clip-rule="evenodd" d="M90.7493 67.0769C90.911 66.7979 90.9468 66.6753 91.2431 66.6058C91.3897 66.5722 91.6133 66.5385 91.7414 66.6286C91.9433 66.7719 92.0074 67.3364 91.914 67.5491C91.7783 67.8574 91.355 67.8075 91.1227 67.6968C90.759 67.5231 90.657 67.3624 90.6505 66.9792L90.7493 67.0769Z" fill="#FFC445"/>
<path fill-rule="evenodd" clip-rule="evenodd" d="M79.7769 53.042C79.7505 53.0725 79.7305 53.1081 79.7182 53.1465C79.7059 53.1849 79.7015 53.2255 79.7052 53.2656C79.8833 53.384 80.4271 53.2591 80.3913 52.9867C80.374 52.8521 80.21 52.8075 80.0971 52.7934C79.8648 52.7641 79.7476 52.9693 79.6282 53.1408L79.7769 53.042Z" fill="#FFC445"/>
<path fill-rule="evenodd" clip-rule="evenodd" d="M19.4295 52.2499C19.4031 52.2804 19.3832 52.316 19.3709 52.3544C19.3586 52.3928 19.3542 52.4333 19.3579 52.4735C19.5359 52.5918 20.0798 52.467 20.0439 52.1945C20.0266 52.0599 19.8627 52.0165 19.7498 52.0013C19.5175 51.972 19.3991 52.1772 19.2808 52.3487L19.4295 52.2499Z" fill="#FFC445"/>
<path fill-rule="evenodd" clip-rule="evenodd" d="M17.8007 73.4854C17.7743 73.5157 17.7543 73.551 17.742 73.5893C17.7297 73.6275 17.7253 73.6679 17.729 73.7079C17.9071 73.8262 18.4509 73.7014 18.4151 73.43C18.3977 73.2943 18.2338 73.2509 18.1209 73.2368C17.8886 73.2075 17.7703 73.4115 17.652 73.5841L17.8007 73.4854Z" fill="#FFC445"/>
<path fill-rule="evenodd" clip-rule="evenodd" d="M59.349 107.76C59.223 108.257 59.1166 108.54 59.5031 108.888C59.8025 109.133 60.1801 109.262 60.5669 109.251C61.1313 109.215 62.0714 108.764 61.8695 108.047C61.7685 107.681 61.1943 107.241 60.8339 107.159C60.0947 106.992 59.3598 107.585 59.3446 108.354L59.349 107.76Z" fill="#FFC445"/>
<path style="mix-blend-mode:screen" fill-rule="evenodd" clip-rule="evenodd" d="M40.4759 95.9131C36.4226 92.5213 33.0991 88.3429 30.7062 83.6305C29.1794 80.6201 28.0543 77.4223 27.3596 74.1191C27.3537 74.109 27.3514 74.0971 27.353 74.0855C26.8009 71.4395 26.5222 68.7437 26.5215 66.0407C26.5215 55.7052 30.6273 45.793 37.9356 38.4846C45.244 31.1763 55.1562 27.0705 65.4917 27.0705C66.3438 27.0705 67.1819 27.0977 68.0199 27.1509C70.617 27.3177 73.1908 27.7458 75.7021 28.4285C72.5965 27.4106 69.3743 26.7905 66.1127 26.5831C65.2735 26.5288 64.4355 26.5017 63.5834 26.5017C58.4653 26.5001 53.397 27.5071 48.6683 29.4649C43.9395 31.4228 39.6428 34.2933 36.0238 37.9123C32.4048 41.5313 29.5343 45.828 27.5764 50.5568C25.6185 55.2856 24.6116 60.3538 24.6132 65.4719C24.6139 68.1749 24.8925 70.8707 25.4447 73.5167C25.443 73.5283 25.4453 73.5402 25.4512 73.5503C26.1472 76.8556 27.2742 80.0552 28.8033 83.0671C31.2782 87.9401 34.7467 92.2404 38.9852 95.6909C43.2238 99.1414 48.1383 101.665 53.4121 103.1C48.6794 101.555 44.2877 99.1154 40.4759 95.9131Z" fill="url(#paint26_radial_1107_188)"/>
<defs>
<radialGradient id="paint0_radial_1107_188" cx="0" cy="0" r="1" gradientUnits="userSpaceOnUse" gradientTransform="translate(60.2856 62.2857) scale(50.2856 50.2857)">
<stop offset="0.01" stop-color="#009BFF"/>
<stop offset="1"/>
</radialGradient>
<radialGradient id="paint1_radial_1107_188" cx="0" cy="0" r="1" gradientUnits="userSpaceOnUse" gradientTransform="translate(55.9981 61.5083) scale(42.0911)">
<stop offset="0.01" stop-color="#009BFF"/>
<stop offset="1"/>
</radialGradient>
<radialGradient id="paint2_radial_1107_188" cx="0" cy="0" r="1" gradientUnits="userSpaceOnUse" gradientTransform="translate(60.2853 62.2877) scale(42.8368 42.8368)">
<stop offset="0.01" stop-color="#0092FF"/>
<stop offset="0.13" stop-color="#0090FB"/>
<stop offset="0.26" stop-color="#0089EF"/>
<stop offset="0.38" stop-color="#007DDB"/>
<stop offset="0.51" stop-color="#006DBF"/>
<stop offset="0.63" stop-color="#00599B"/>
<stop offset="0.76" stop-color="#003F6E"/>
<stop offset="0.88" stop-color="#00223B"/>
<stop offset="1"/>
</radialGradient>
<radialGradient id="paint3_radial_1107_188" cx="0" cy="0" r="1" gradientUnits="userSpaceOnUse" gradientTransform="translate(40.4514 46.8839) scale(67.7853 67.7853)">
<stop stop-color="#4F8CFF"/>
<stop offset="0.15" stop-color="#4A85F8"/>
<stop offset="0.36" stop-color="#3E72E6"/>
<stop offset="0.61" stop-color="#2952C8"/>
<stop offset="0.9" stop-color="#0C279F"/>
<stop offset="1" stop-color="#00158E"/>
</radialGradient>
<radialGradient id="paint4_radial_1107_188" cx="0" cy="0" r="1" gradientUnits="userSpaceOnUse" gradientTransform="translate(42.6669 49.2575) scale(61.3352 61.3352)">
<stop offset="0.01" stop-color="#FF7263"/>
<stop offset="0.21" stop-color="#FC6F63"/>
<stop offset="0.37" stop-color="#F46562"/>
<stop offset="0.51" stop-color="#E55560"/>
<stop offset="0.64" stop-color="#D03D5D"/>
<stop offset="0.77" stop-color="#B6205A"/>
<stop offset="0.88" stop-color="#9A0057"/>
<stop offset="0.99" stop-color="#9A00AE"/>
</radialGradient>
<radialGradient id="paint5_radial_1107_188" cx="0" cy="0" r="1" gradientUnits="userSpaceOnUse" gradientTransform="translate(80.2309 52.9639) scale(23.0369 23.0369)">
<stop stop-color="#0088E8"/>
<stop offset="0.19" stop-color="#1696EE"/>
<stop offset="0.53" stop-color="#35AAF7"/>
<stop offset="0.81" stop-color="#48B7FD"/>
<stop offset="1" stop-color="#4FBBFF"/>
</radialGradient>
<linearGradient id="paint6_linear_1107_188" x1="31.1357" y1="50.5228" x2="46.1116" y2="50.5228" gradientUnits="userSpaceOnUse">
<stop offset="0.01" stop-color="#A131A4"/>
<stop offset="1" stop-color="#FFC0B3"/>
</linearGradient>
<linearGradient id="paint7_linear_1107_188" x1="61.9" y1="104.091" x2="61.9" y2="92.7003" gradientUnits="userSpaceOnUse">
<stop stop-color="#4FBBFF"/>
<stop offset="0.19" stop-color="#48B7FD"/>
<stop offset="0.47" stop-color="#35AAF7"/>
<stop offset="0.81" stop-color="#1696EE"/>
<stop offset="1" stop-color="#0088E8"/>
</linearGradient>
<linearGradient id="paint8_linear_1107_188" x1="34.1746" y1="63.8487" x2="34.1746" y2="41.8159" gradientUnits="userSpaceOnUse">
<stop stop-color="#4FBBFF"/>
<stop offset="0.19" stop-color="#48B7FD"/>
<stop offset="0.47" stop-color="#35AAF7"/>
<stop offset="0.81" stop-color="#1696EE"/>
<stop offset="1" stop-color="#0088E8"/>
</linearGradient>
<linearGradient id="paint9_linear_1107_188" x1="64.1007" y1="77.7073" x2="74.6421" y2="77.7073" gradientUnits="userSpaceOnUse">
<stop stop-color="#0088E8"/>
<stop offset="0.03" stop-color="#0B8EE9"/>
<stop offset="0.24" stop-color="#4FB0F0"/>
<stop offset="0.43" stop-color="#87CCF5"/>
<stop offset="0.61" stop-color="#B3E2F9"/>
<stop offset="0.77" stop-color="#D3F2FC"/>
<stop offset="0.91" stop-color="#E6FCFE"/>
<stop offset="1" stop-color="#EDFFFF"/>
</linearGradient>
<linearGradient id="paint10_linear_1107_188" x1="42.1979" y1="85.5419" x2="36.7248" y2="88.5272" gradientUnits="userSpaceOnUse">
<stop stop-color="#0088E8"/>
<stop offset="0.03" stop-color="#0B8EE9"/>
<stop offset="0.24" stop-color="#4FB0F0"/>
<stop offset="0.43" stop-color="#87CCF5"/>
<stop offset="0.61" stop-color="#B3E2F9"/>
<stop offset="0.77" stop-color="#D3F2FC"/>
<stop offset="0.91" stop-color="#E6FCFE"/>
<stop offset="1" stop-color="#EDFFFF"/>
</linearGradient>
<linearGradient id="paint11_linear_1107_188" x1="71.6697" y1="56.0068" x2="97.2804" y2="56.0068" gradientUnits="userSpaceOnUse">
<stop offset="0.01" stop-color="#A131A4"/>
<stop offset="1" stop-color="#FFC0B3"/>
</linearGradient>
<linearGradient id="paint12_linear_1107_188" x1="66.2863" y1="35.9351" x2="81.4195" y2="35.9351" gradientUnits="userSpaceOnUse">
<stop offset="0.01" stop-color="#A131A4"/>
<stop offset="1" stop-color="#FFC0B3"/>
</linearGradient>
<linearGradient id="paint13_linear_1107_188" x1="29.1153" y1="68.8772" x2="37.8733" y2="68.8772" gradientUnits="userSpaceOnUse">
<stop offset="0.01" stop-color="#A131A4"/>
<stop offset="1" stop-color="#FFC0B3"/>
</linearGradient>
<linearGradient id="paint14_linear_1107_188" x1="62.2882" y1="75.9344" x2="74.0867" y2="75.9344" gradientUnits="userSpaceOnUse">
<stop offset="0.01" stop-color="#A131A4"/>
<stop offset="1" stop-color="white"/>
</linearGradient>
<linearGradient id="paint15_linear_1107_188" x1="42.8845" y1="91.9318" x2="80.0125" y2="91.9318" gradientUnits="userSpaceOnUse">
<stop offset="0.01" stop-color="#A131A4"/>
<stop offset="1" stop-color="#FFC0B3"/>
</linearGradient>
<linearGradient id="paint16_linear_1107_188" x1="29.3864" y1="79.372" x2="29.3864" y2="64.8423" gradientUnits="userSpaceOnUse">
<stop stop-color="#4FBBFF"/>
<stop offset="0.19" stop-color="#48B7FD"/>
<stop offset="0.47" stop-color="#35AAF7"/>
<stop offset="0.81" stop-color="#1696EE"/>
<stop offset="1" stop-color="#0088E8"/>
</linearGradient>
<radialGradient id="paint17_radial_1107_188" cx="0" cy="0" r="1" gradientUnits="userSpaceOnUse" gradientTransform="translate(38.1586 47.4195) scale(72.4736 66.5974)">
<stop offset="0.01" stop-color="#B1FFFF"/>
<stop offset="0.29" stop-color="#B1FDFF"/>
<stop offset="0.44" stop-color="#AFF5FF"/>
<stop offset="0.55" stop-color="#ACE8FF"/>
<stop offset="0.62" stop-color="#A9DBFF"/>
<stop offset="0.65" stop-color="#A2D7FE"/>
<stop offset="0.7" stop-color="#8FCAFC"/>
<stop offset="0.76" stop-color="#6FB5F9"/>
<stop offset="0.82" stop-color="#4399F4"/>
<stop offset="0.89" stop-color="#0C75EE"/>
<stop offset="0.91" stop-color="#006DED"/>
</radialGradient>
<radialGradient id="paint18_radial_1107_188" cx="0" cy="0" r="1" gradientUnits="userSpaceOnUse" gradientTransform="translate(52.3283 50.4514) rotate(-34.8) scale(19.9192 16.6988)">
<stop stop-color="#FF7700"/>
<stop offset="0.17" stop-color="#C55C00"/>
<stop offset="0.4" stop-color="#803C00"/>
<stop offset="0.6" stop-color="#492200"/>
<stop offset="0.78" stop-color="#210F00"/>
<stop offset="0.92" stop-color="#090400"/>
<stop offset="1"/>
</radialGradient>
<radialGradient id="paint19_radial_1107_188" cx="0" cy="0" r="1" gradientUnits="userSpaceOnUse" gradientTransform="translate(74.8058 31.751) scale(22.6385 22.6385)">
<stop stop-color="#0088E8"/>
<stop offset="0.14" stop-color="#1C93ED"/>
<stop offset="0.4" stop-color="#4BA6F4"/>
<stop offset="0.64" stop-color="#6EB4FA"/>
<stop offset="0.83" stop-color="#83BCFE"/>
<stop offset="0.96" stop-color="#8BBFFF"/>
</radialGradient>
<linearGradient id="paint20_linear_1107_188" x1="79.86" y1="66.7182" x2="113.967" y2="38.0996" gradientUnits="userSpaceOnUse">
<stop stop-color="#FF3D00"/>
<stop offset="1"/>
</linearGradient>
<linearGradient id="paint21_linear_1107_188" x1="62.818" y1="118.865" x2="62.818" y2="91.6601" gradientUnits="userSpaceOnUse">
<stop/>
<stop offset="1" stop-color="#FF3D00"/>
</linearGradient>
<linearGradient id="paint22_linear_1107_188" x1="24.5445" y1="54.5129" x2="43.108" y2="52.889" gradientUnits="userSpaceOnUse">
<stop/>
<stop offset="1" stop-color="#FF3D00"/>
</linearGradient>
<linearGradient id="paint23_linear_1107_188" x1="11.2909" y1="74.0368" x2="36.0799" y2="71.869" gradientUnits="userSpaceOnUse">
<stop/>
<stop offset="1" stop-color="#FF3D00"/>
</linearGradient>
<linearGradient id="paint24_linear_1107_188" x1="79.3447" y1="41.2079" x2="91.6296" y2="28.9242" gradientUnits="userSpaceOnUse">
<stop stop-color="#FF3D00"/>
<stop offset="1"/>
</linearGradient>
<linearGradient id="paint25_linear_1107_188" x1="103.088" y1="102.306" x2="91.017" y2="85.0665" gradientUnits="userSpaceOnUse">
<stop/>
<stop offset="1" stop-color="#FF3D00"/>
</linearGradient>
<radialGradient id="paint26_radial_1107_188" cx="0" cy="0" r="1" gradientUnits="userSpaceOnUse" gradientTransform="translate(35.1069 38.9515) scale(51.2963 51.2963)">
<stop stop-color="#FFFFD9"/>
<stop offset="1"/>
</radialGradient>
</defs>
</svg>
