<svg width="104" height="104" viewBox="0 0 104 104" fill="none" xmlns="http://www.w3.org/2000/svg">
<path style="mix-blend-mode:screen" d="M52.8364 102.239C80.1208 102.239 102.239 80.1208 102.239 52.8364C102.239 25.5521 80.1208 3.43373 52.8364 3.43373C25.552 3.43373 3.43372 25.5521 3.43372 52.8364C3.43372 80.1208 25.552 102.239 52.8364 102.239Z" fill="url(#paint0_radial_1_3732)"/>
<path style="mix-blend-mode:screen" d="M55.4357 93.8006C76.7158 93.8006 93.9668 76.5496 93.9668 55.2695C93.9668 33.9894 76.7158 16.7384 55.4357 16.7384C34.1556 16.7384 16.9046 33.9894 16.9046 55.2695C16.9046 76.5496 34.1556 93.8006 55.4357 93.8006Z" fill="url(#paint1_radial_1_3732)"/>
<path style="mix-blend-mode:screen" d="M78 78C92.3594 63.6406 92.3594 40.3594 78 26C63.6406 11.6406 40.3594 11.6406 26 26C11.6406 40.3594 11.6406 63.6406 26 78C40.3594 92.3594 63.6406 92.3594 78 78Z" fill="url(#paint2_radial_1_3732)"/>
<path fill-rule="evenodd" clip-rule="evenodd" d="M69.8427 20.98C69.8427 20.98 74.3877 22.2387 77.4129 22.0546C77.4129 22.0546 82.831 25.7355 85.8563 35.4922C85.8563 35.4922 83.254 38.5761 83.8074 42.1609C83.8074 42.1609 79.1734 29.5691 69.8427 20.98Z" fill="url(#paint3_linear_1_3732)"/>
<path fill-rule="evenodd" clip-rule="evenodd" d="M74.8274 93.7821C74.8274 93.7821 72.9738 93.2226 71.5978 93.3905C71.5978 93.3905 69.7482 92.0033 69.7199 89.5993C69.7199 89.5993 71.1364 87.8469 71.6534 86.4962C71.6534 86.4962 72.2221 90.3794 74.8274 93.7821Z" fill="url(#paint4_linear_1_3732)"/>
<path fill-rule="evenodd" clip-rule="evenodd" d="M84.5389 49.2402C84.5428 53.7744 83.6525 58.2649 81.9188 62.4546C80.1852 66.6444 77.6423 70.4511 74.4357 73.6569C71.2291 76.8627 67.4218 79.4047 63.2317 81.1374C59.0415 82.87 54.5509 83.7593 50.0166 83.7544C49.4045 83.7544 48.7852 83.7402 48.1802 83.7038H48.1731C47.2696 83.6603 46.3731 83.5723 45.4919 83.463C38.993 82.612 32.8741 79.9169 27.8594 75.6965C24.6249 72.9742 21.9073 69.6915 19.8368 66.0056C19.6254 65.6261 19.422 65.2406 19.2176 64.8541C19.2161 64.841 19.2112 64.8284 19.2035 64.8177C18.992 64.4029 18.7988 63.987 18.6055 63.5641H18.5984C17.9942 62.2397 17.4781 60.8769 17.0534 59.4845C16.7306 58.4692 16.4604 57.4378 16.244 56.3945C16.2382 56.3859 16.2357 56.3755 16.2369 56.3652C16.0841 55.6296 15.9526 54.887 15.8504 54.1393C15.616 52.5178 15.499 50.8815 15.5003 49.2432C15.5003 48.2881 15.5367 47.3339 15.6248 46.4011C15.6683 45.8041 15.734 45.2132 15.814 44.6233C16.2514 41.2898 17.183 38.04 18.5782 34.981C21.3208 28.9422 25.7436 23.8205 31.3183 20.2274C36.8931 16.6342 43.3842 14.7216 50.0166 14.7178C50.3809 14.7178 50.7451 14.7249 51.1023 14.732C51.4888 14.7471 51.8742 14.7613 52.2607 14.7906C54.213 14.9161 56.1509 15.2086 58.0532 15.6648C59.146 15.9269 60.2175 16.2335 61.2667 16.5977C61.9811 16.8375 62.6832 17.1036 63.3723 17.399C63.8893 17.6176 64.3921 17.8432 64.895 18.084C64.983 18.1275 65.07 18.164 65.157 18.2075C68.4895 19.8371 71.5378 21.9924 74.1853 24.5909C74.5637 24.9551 74.9279 25.3335 75.2922 25.72C75.533 25.9821 75.7738 26.2512 76.0065 26.5214C76.4112 26.9726 76.7937 27.4461 77.1721 27.9207C80.1876 31.7541 82.3536 36.1849 83.5262 40.9192C84.2014 43.6412 84.5415 46.4356 84.5389 49.2402Z" fill="url(#paint5_radial_1_3732)"/>
<path style="mix-blend-mode:multiply" opacity="0.5" fill-rule="evenodd" clip-rule="evenodd" d="M16.8178 44.1421C16.8178 44.1421 22.9756 47.3546 28.4909 42.9866C34.0062 38.6187 29.5937 22.3299 29.5937 22.3299L16.8178 44.1421Z" fill="url(#paint6_linear_1_3732)"/>
<path style="mix-blend-mode:multiply" opacity="0.89" fill-rule="evenodd" clip-rule="evenodd" d="M56.8399 68.9617C56.8399 68.9617 59.6254 72.3107 66.4418 72.679C73.2582 73.0473 80.0696 65.218 81.6339 58.1355C83.1981 51.0529 78.1361 43.8844 73.1662 42.7724C68.1962 41.6605 56.8399 68.9617 56.8399 68.9617Z" fill="url(#paint7_linear_1_3732)"/>
<path style="mix-blend-mode:screen" fill-rule="evenodd" clip-rule="evenodd" d="M29.5491 76.1983C25.9594 73.1934 23.0161 69.4919 20.8972 65.3175C19.5447 62.6509 18.548 59.8183 17.9327 56.8923C17.9271 56.8836 17.925 56.8732 17.9266 56.863C17.4376 54.5195 17.1908 52.1319 17.19 49.738C17.1905 40.583 20.8275 31.8032 27.3011 25.3297C33.7746 18.8562 42.5544 15.2192 51.7093 15.2186C52.4641 15.2186 53.2058 15.2429 53.9484 15.2905C56.2488 15.4381 58.5284 15.8171 60.7527 16.4217C58.0016 15.5214 55.1476 14.973 52.2587 14.7896C51.5161 14.7421 50.7734 14.7178 50.0186 14.7178C45.4849 14.7157 40.9953 15.6071 36.8063 17.3411C32.6173 19.0751 28.8111 21.6177 25.6054 24.8236C22.3996 28.0294 19.8571 31.8357 18.1232 36.0247C16.3893 40.2137 15.498 44.7034 15.5003 49.2371C15.5006 51.6311 15.7474 54.0187 16.2369 56.3622C16.2369 56.3743 16.2369 56.3864 16.2429 56.3915C16.8575 59.3176 17.8539 62.1502 19.2065 64.8167C21.3982 69.1333 24.4703 72.9425 28.2246 75.9989C31.979 79.0553 36.3322 81.2909 41.0036 82.5615C36.8134 81.193 32.9249 79.0328 29.5491 76.1983Z" fill="url(#paint8_radial_1_3732)"/>
<path fill-rule="evenodd" clip-rule="evenodd" d="M21.8239 69.151C21.8239 69.151 24.0114 72.7146 23.459 78.5132C23.459 78.5132 28.2528 86.8918 41.7825 87.5819C41.7825 87.5819 48.5929 82.5613 55.1109 83.3789C55.1109 83.3789 43.8557 67.3339 21.8239 69.151Z" fill="url(#paint9_linear_1_3732)"/>
<path fill-rule="evenodd" clip-rule="evenodd" d="M78.8383 49.0156C78.8383 49.0156 76.4262 40.5297 68.2316 40.0238C59.5414 39.4835 51.8457 56.8256 54.5269 65.1102C57.2082 73.3948 66.8809 72.2008 71.3106 69.1908C76.6892 65.5311 79.33 57.4499 78.8383 49.0156Z" fill="url(#paint10_linear_1_3732)"/>
<path style="mix-blend-mode:multiply" opacity="0.5" fill-rule="evenodd" clip-rule="evenodd" d="M41.9795 24.0975C41.9795 24.0975 44.9208 29.0745 50.6182 28.5302C56.8407 27.9353 58.5031 22.6618 58.2714 20.5805C58.0397 18.4993 41.9795 24.0975 41.9795 24.0975Z" fill="url(#paint11_linear_1_3732)"/>
<path fill-rule="evenodd" clip-rule="evenodd" d="M69.5726 42.9868C62.059 42.9464 50.9293 62.9374 60.6192 69.6587C69.8265 76.0441 78.3327 62.1846 79.3314 57.4494C80.33 52.7142 79.6905 43.0425 69.5726 42.9868Z" fill="url(#paint12_linear_1_3732)"/>
<path fill-rule="evenodd" clip-rule="evenodd" d="M66.0745 69.4536C65.7173 69.4253 65.3663 69.3737 65.0394 69.3231C60.3771 68.5217 58.6277 65.2759 58.2342 62.0078C58.0269 60.1112 58.1953 58.1924 58.7299 56.361C59.6112 53.4167 64.3403 46.5173 69.7585 45.548C71.6809 45.1979 73.6923 45.6056 75.6521 47.2164C77.3064 48.5864 78.13 50.3864 78.3192 52.3826C79.0437 59.8284 71.1527 69.9059 66.0745 69.4536Z" fill="url(#paint13_linear_1_3732)"/>
<path fill-rule="evenodd" clip-rule="evenodd" d="M43.3025 14.9572C43.3025 14.9572 39.8513 19.3879 41.5541 23.3713C43.3602 27.5965 53.4801 27.4185 56.7502 24.1888C60.0204 20.9592 57.41 14.8034 54.5972 13.7239C51.3928 12.4935 47.1615 12.7252 43.3025 14.9572Z" fill="url(#paint14_radial_1_3732)"/>
<path fill-rule="evenodd" clip-rule="evenodd" d="M42.6591 20.7536C44.4217 24.306 56.4842 24.8129 57.3564 18.6511C58.1841 12.7979 49.6324 12.0744 47.1636 12.724C44.6949 13.3736 40.2865 15.9709 42.6591 20.7536Z" fill="url(#paint15_linear_1_3732)"/>
<path fill-rule="evenodd" clip-rule="evenodd" d="M55.6386 17.1345C55.6609 17.3234 55.6609 17.5143 55.6386 17.7032C55.6309 17.8969 55.6041 18.0894 55.5587 18.2779C54.5752 22.235 46.6256 23.524 44.8114 21.3234C44.3645 20.804 44.0383 20.192 43.8563 19.5315C43.2371 17.1032 45.4013 15.1595 46.837 14.4088C48.6077 13.4769 55.2451 12.5218 55.6386 17.1345Z" fill="url(#paint16_linear_1_3732)"/>
<path fill-rule="evenodd" clip-rule="evenodd" d="M23.4586 78.5134C22.7503 74.4804 43.2553 77.2668 41.7821 87.5821C41.4593 89.8373 24.6292 85.2114 23.4586 78.5134Z" fill="url(#paint17_linear_1_3732)"/>
<path fill-rule="evenodd" clip-rule="evenodd" d="M39.9404 87.2858C39.5974 87.563 28.3483 85.9016 24.4792 79.067C24.2243 78.6076 25.4262 78.4599 27.2697 78.6805C28.0528 78.7739 28.8299 78.9128 29.5969 79.0963C32.2639 79.7155 35.4035 80.9246 37.5313 82.8481C38.0932 83.3432 38.6124 83.8847 39.0834 84.4669C39.6298 85.1661 39.9212 85.7347 40.0527 86.1718C40.2308 86.79 40.1003 87.1623 39.9404 87.2858Z" fill="url(#paint18_linear_1_3732)"/>
<path fill-rule="evenodd" clip-rule="evenodd" d="M39.08 84.4655C34.621 83.6784 31.4147 81.0406 29.5934 79.0959C32.2605 79.7152 35.4001 80.9243 37.5279 82.8477C38.0897 83.3425 38.6089 83.8837 39.08 84.4655Z" fill="url(#paint19_linear_1_3732)"/>
<path fill-rule="evenodd" clip-rule="evenodd" d="M23.4581 64.2989C23.102 64.0803 22.7499 63.6918 22.4382 63.1859C22.4382 63.1859 22.4382 63.1788 22.4241 63.1636C21.2797 61.3201 20.617 58.1148 21.8261 57.4591C23.3205 56.6426 25.5283 57.0655 26.5259 59.7175C26.5266 59.7233 26.5295 59.7287 26.534 59.7326C26.5723 59.8222 26.6037 59.9145 26.6281 60.0089C26.6361 60.0222 26.6413 60.037 26.6433 60.0524C26.6549 60.1152 26.6743 60.1764 26.7009 60.2345C26.7303 60.3296 26.7596 60.4247 26.7809 60.5269C27.4001 63.0523 25.1276 65.3117 23.4581 64.2989Z" fill="url(#paint20_linear_1_3732)"/>
<path style="mix-blend-mode:multiply" opacity="0.4" fill-rule="evenodd" clip-rule="evenodd" d="M26.5259 59.7144C25.9654 58.5853 23.7789 57.274 22.4382 58.5003C21.0329 59.7822 22.3077 62.8712 22.4241 63.1626C21.2797 61.3191 20.617 58.1138 21.8261 57.4581C23.3205 56.6396 25.5283 57.0625 26.5259 59.7144Z" fill="url(#paint21_radial_1_3732)"/>
<path fill-rule="evenodd" clip-rule="evenodd" d="M33.9159 30.7047C33.7343 30.5551 33.589 30.3662 33.491 30.1523C33.491 30.1523 33.491 30.1523 33.4849 30.1421C33.0306 29.2508 32.8505 27.7523 33.4313 27.4983C34.1486 27.1816 35.1513 27.4609 35.5024 28.7175C35.5016 28.7198 35.5016 28.7223 35.5024 28.7246C35.5169 28.7675 35.5277 28.8115 35.5348 28.8562C35.5383 28.8623 35.5401 28.8693 35.5399 28.8764C35.5432 28.9058 35.5499 28.9346 35.5601 28.9624C35.5692 29.0069 35.5793 29.0514 35.5854 29.099C35.7786 30.2848 34.6434 31.2339 33.9159 30.7047Z" fill="url(#paint22_linear_1_3732)"/>
<path style="mix-blend-mode:multiply" opacity="0.4" fill-rule="evenodd" clip-rule="evenodd" d="M35.5024 28.7175C35.2889 28.1772 34.3358 27.4902 33.6721 28.0002C32.976 28.5354 33.4424 30.0035 33.4849 30.1421C33.0306 29.2508 32.8505 27.7523 33.4313 27.4983C34.1486 27.1816 35.1473 27.4609 35.5024 28.7175Z" fill="url(#paint23_radial_1_3732)"/>
<path fill-rule="evenodd" clip-rule="evenodd" d="M59.7668 78.894H59.7577C59.6862 78.9326 59.6091 78.9596 59.5291 78.974C59.5169 78.9851 59.5058 78.9962 59.4947 78.9962C59.4428 79.0032 59.3925 79.0189 59.3459 79.0428C59.2771 79.065 59.1972 79.0883 59.1061 79.1105C57.9507 79.4202 56.865 78.9962 56.2589 78.3102C55.7672 77.7618 55.5952 77.0647 55.9554 76.4475C56.1264 76.15 56.4471 75.8526 56.8579 75.5895L56.8701 75.5784C58.3675 74.606 60.9972 74 61.5577 74.9834C61.7188 75.2481 61.8203 75.5447 61.8552 75.8526C62.0191 76.9544 61.4585 78.2192 59.7668 78.894Z" fill="url(#paint24_linear_1_3732)"/>
<path style="mix-blend-mode:screen" opacity="0.5" fill-rule="evenodd" clip-rule="evenodd" d="M31.3099 59.8836C31.3099 59.8836 33.3861 63.1951 39.0794 62.8501C44.7728 62.5051 45.8079 59.7196 46.1529 57.4532C46.4979 55.1868 45.5458 52.3993 45.5458 52.3993C45.5458 52.3993 32.9652 54.777 31.3099 59.8836Z" fill="url(#paint25_radial_1_3732)"/>
<path style="mix-blend-mode:multiply" opacity="0.4" fill-rule="evenodd" clip-rule="evenodd" d="M61.8482 75.8526C61.3788 75.4479 60.4074 74.9612 58.8179 75.464C56.3825 76.23 56.2571 78.3102 56.2571 78.3102C55.7653 77.7618 55.5933 77.0647 55.9535 76.4475C56.1245 76.15 56.4452 75.8526 56.856 75.5895L56.8682 75.5784C58.3656 74.606 60.9953 74 61.5558 74.9834C61.7152 75.2485 61.8149 75.5451 61.8482 75.8526Z" fill="url(#paint26_radial_1_3732)"/>
<path fill-rule="evenodd" clip-rule="evenodd" d="M45.8258 55.604L45.8187 55.7274C45.8339 64.5442 32.6239 63.4656 30.5548 58.7729C30.257 58.0867 30.02 57.3757 29.8465 56.6481V56.64C28.681 51.919 29.4095 45.5943 31.515 44.1444C33.7298 42.6216 37.9854 42.5852 41.0815 44.1444C44.5732 45.8999 45.9502 51.1521 45.8258 55.604Z" fill="url(#paint27_linear_1_3732)"/>
<path style="mix-blend-mode:multiply" opacity="0.4" fill-rule="evenodd" clip-rule="evenodd" d="M45.8266 55.6041L45.8195 55.7276C45.8195 55.7276 46.0168 50.2123 43.3497 47.268C40.6826 44.3237 35.3424 43.494 32.2898 46.8096C29.3162 50.0474 29.819 56.3397 29.8484 56.6382C28.6828 51.9172 29.4113 45.5924 31.5168 44.1425C33.7316 42.6198 37.9872 42.5834 41.0833 44.1425C44.574 45.9 45.951 51.1522 45.8266 55.6041Z" fill="url(#paint28_linear_1_3732)"/>
<path fill-rule="evenodd" clip-rule="evenodd" d="M70.5932 27.8531C69.8425 28.2578 68.0638 27.1448 66.4398 25.7617C64.4658 24.0639 62.7316 21.9442 63.4045 21.6376C64.3302 21.2228 67.7329 21.499 69.2991 22.789C70.0248 23.4134 70.6044 24.1895 70.9969 25.0625C71.4948 26.1917 71.5332 27.3431 70.5932 27.8531Z" fill="url(#paint29_linear_1_3732)"/>
<path style="mix-blend-mode:multiply" opacity="0.4" fill-rule="evenodd" clip-rule="evenodd" d="M71.0022 25.061C70.9952 25.054 70.9881 25.0388 70.98 25.0317C68.5203 21.3164 64.724 21.4773 64.4478 22.4901C64.1716 23.5029 66.437 25.7561 66.437 25.7561C64.463 24.0584 62.7288 21.9387 63.4016 21.6321C64.3274 21.2172 67.7301 21.4935 69.2963 22.7835C70.0254 23.4081 70.6078 24.1858 71.0022 25.061Z" fill="url(#paint30_linear_1_3732)"/>
<path fill-rule="evenodd" clip-rule="evenodd" d="M56.8394 62.3447C56.8394 62.3447 57.3928 51.1826 65.4649 44.6039C65.4649 44.6039 55.782 49.2359 56.8394 62.3447Z" fill="#E5BDFA"/>
<path fill-rule="evenodd" clip-rule="evenodd" d="M42.9886 21.2447C42.9886 21.2447 44.5063 23.5435 49.6766 23.3694C54.8469 23.1954 56.5497 20.8319 56.8401 20.1985C56.8401 20.1985 55.5551 24.1606 49.706 24.022C43.533 23.8743 42.9886 21.2447 42.9886 21.2447Z" fill="#FFA5F7"/>
<path fill-rule="evenodd" clip-rule="evenodd" d="M32.2913 77.4908C32.2913 77.4908 40.1378 80.6577 41.7273 85.2158C41.7273 85.2158 41.5523 79.9889 32.2913 77.4908Z" fill="#FFA5F7"/>
<path style="mix-blend-mode:multiply" opacity="0.71" fill-rule="evenodd" clip-rule="evenodd" d="M78.3168 52.3826V52.3968C78.3168 52.3968 75.6507 47.7931 68.2555 49.8117C61.6253 51.6187 58.7609 60.1491 58.2388 62.0078C58.0315 60.1112 58.2 58.1924 58.7346 56.361C59.6158 53.4167 64.3449 46.5173 69.7631 45.548C71.6855 45.1979 73.6969 45.6056 75.6568 47.2164C77.304 48.5864 78.1276 50.3864 78.3168 52.3826Z" fill="url(#paint31_linear_1_3732)"/>
<path fill-rule="evenodd" clip-rule="evenodd" d="M87.2964 89.3425C87.1046 90.4062 86.705 91.4216 86.1205 92.3307C85.536 93.2398 84.778 94.0248 83.8899 94.6408C83.0018 95.2568 82.001 95.6916 80.9447 95.9205C79.8884 96.1494 78.7973 96.1679 77.7339 95.9748C77.5902 95.9485 77.4456 95.9191 77.3049 95.8847C77.0955 95.8362 76.8881 95.7775 76.6857 95.7148C75.1971 95.2395 73.8758 94.3477 72.8783 93.1448C72.2345 92.3692 71.7358 91.4839 71.4061 90.5314C71.3728 90.4302 71.3414 90.329 71.3101 90.2349C71.3106 90.2319 71.3106 90.2288 71.3101 90.2258C71.2777 90.1196 71.2493 90.0133 71.223 89.9061C71.1375 89.5696 71.0743 89.2279 71.0338 88.8831C71.0007 88.6314 70.9807 88.3781 70.9741 88.1243C70.9741 88.1243 70.9741 88.1182 70.9741 88.1162C70.9691 87.9371 70.9741 87.758 70.9741 87.5769C70.9876 87.1865 71.0295 86.7976 71.0996 86.4134C71.1401 86.1898 71.1886 85.9672 71.2483 85.7516C71.2847 85.614 71.3252 85.4775 71.3687 85.3469C71.6121 84.5834 71.9682 83.8604 72.4251 83.2019C73.3245 81.9011 74.5794 80.8867 76.0398 80.2799C77.5003 79.6731 79.1046 79.4996 80.661 79.78C80.746 79.7952 80.831 79.8124 80.915 79.8286C80.999 79.8448 81.0951 79.8681 81.1841 79.8913C81.6369 80.0042 82.0792 80.1552 82.5065 80.3426C82.7505 80.4488 82.9889 80.5673 83.2209 80.6977C83.3787 80.7837 83.5305 80.8768 83.6812 80.975C83.7936 81.0478 83.9018 81.1217 84.009 81.1996L84.0657 81.2401C84.7781 81.7653 85.4012 82.4017 85.9112 83.125C85.9851 83.2262 86.0539 83.3274 86.1237 83.4377C86.1692 83.5085 86.2138 83.5824 86.2573 83.6552C86.3321 83.7787 86.4029 83.9061 86.4717 84.0336C87.0165 85.0608 87.3369 86.192 87.4117 87.3523C87.4541 88.0179 87.4154 88.6862 87.2964 89.3425Z" fill="url(#paint32_radial_1_3732)"/>
<path fill-rule="evenodd" clip-rule="evenodd" d="M81.4219 79.0126C81.4219 79.0126 78.1559 78.9256 76.9357 82.1785C75.6416 85.6287 80.7096 90.9184 83.9403 90.8718C87.1709 90.8253 87.9875 86.7599 87.4998 84.5896C86.9089 81.9529 84.4259 79.8706 81.4219 79.0126Z" fill="url(#paint33_linear_1_3732)"/>
<path fill-rule="evenodd" clip-rule="evenodd" d="M78.1397 82.0134C77.1694 85.0487 82.7241 92.0615 86.3018 88.9816C89.7004 86.0555 85.9497 80.8741 84.4249 79.8755C82.9002 78.8768 79.4469 77.9217 78.1397 82.0134Z" fill="url(#paint34_linear_1_3732)"/>
<path fill-rule="evenodd" clip-rule="evenodd" d="M86.9272 86.7445C86.8715 86.8851 86.8088 87.0207 86.7491 87.1492C85.8759 88.937 84.5232 89.2386 83.3323 88.9876C82.6372 88.8293 81.986 88.5183 81.4261 88.077C80.5154 87.3506 78.7064 84.5712 79.0575 82.2582C79.118 81.8233 79.2676 81.4056 79.4969 81.0311C79.7262 80.6567 80.0302 80.3335 80.39 80.0818C80.6914 79.8534 81.0404 79.6959 81.4111 79.6211C81.7818 79.5463 82.1645 79.5561 82.5309 79.6498C85.2203 80.2872 87.7305 84.7452 86.9272 86.7445Z" fill="url(#paint35_linear_1_3732)"/>
<path fill-rule="evenodd" clip-rule="evenodd" d="M86.7491 87.1444C85.3194 90.0645 82.6119 89.0152 81.4261 88.0743C80.5154 87.3478 78.7064 84.5684 79.0575 82.2554C79.2969 81.7909 79.6438 81.3903 80.0693 81.0868C83.0854 78.8912 87.0162 84.3256 86.7491 87.1444Z" fill="url(#paint36_linear_1_3732)"/>
<path style="mix-blend-mode:multiply" opacity="0.71" fill-rule="evenodd" clip-rule="evenodd" d="M82.5309 79.6467H82.536C82.536 79.6467 80.5913 80.1526 80.3535 83.3954C80.1401 86.3053 82.7505 88.5343 83.3323 88.9805C82.6372 88.8222 81.986 88.5111 81.4261 88.0699C80.5154 87.3434 78.7064 84.564 79.0575 82.251C79.118 81.8161 79.2676 81.3984 79.4969 81.024C79.7262 80.6495 80.0302 80.3263 80.39 80.0747C80.6917 79.8469 81.0409 79.6902 81.4116 79.6161C81.7823 79.542 82.1648 79.5524 82.5309 79.6467Z" fill="url(#paint37_linear_1_3732)"/>
<path style="mix-blend-mode:multiply" opacity="0.71" fill-rule="evenodd" clip-rule="evenodd" d="M55.6386 17.1345C55.6609 17.3234 55.6609 17.5143 55.6386 17.7032C54.2545 15.6695 51.7038 15.2182 48.4903 15.9103C45.2769 16.6023 43.8563 19.5315 43.8563 19.5315C43.2371 17.1032 45.4013 15.1595 46.837 14.4088C48.6077 13.4769 55.2451 12.5218 55.6386 17.1345Z" fill="url(#paint38_linear_1_3732)"/>
<path fill-rule="evenodd" clip-rule="evenodd" d="M19.6774 53.5268C19.6774 53.5268 16.8573 45.765 14.3253 43.0242C14.3253 43.0242 12.3798 30.6956 24.9715 26.4727C24.9715 26.4727 31.7519 27.7628 35.5675 26.4727C35.5675 26.4727 37.0197 34.8056 31.2674 43.7094C26.3621 51.3043 19.6774 53.5268 19.6774 53.5268Z" fill="url(#paint39_linear_1_3732)"/>
<path fill-rule="evenodd" clip-rule="evenodd" d="M14.3243 43.0242C14.5319 45.8252 28.6514 32.5517 24.9705 26.4727C24.9705 26.4752 13.1829 27.5595 14.3243 43.0242Z" fill="url(#paint40_linear_1_3732)"/>
<defs>
<radialGradient id="paint0_radial_1_3732" cx="0" cy="0" r="1" gradientUnits="userSpaceOnUse" gradientTransform="translate(52.8364 52.8364) scale(49.4027)">
<stop stop-color="#9813FF"/>
<stop offset="1" stop-opacity="0"/>
<stop offset="1" stop-color="#9813FF" stop-opacity="0"/>
</radialGradient>
<radialGradient id="paint1_radial_1_3732" cx="0" cy="0" r="1" gradientUnits="userSpaceOnUse" gradientTransform="translate(55.4357 55.2695) scale(38.5311 38.5311)">
<stop stop-color="#9813FF"/>
<stop offset="1"/>
</radialGradient>
<radialGradient id="paint2_radial_1_3732" cx="0" cy="0" r="1" gradientUnits="userSpaceOnUse" gradientTransform="translate(51.9998 51.9995) scale(36.7696)">
<stop stop-color="#9813FF"/>
<stop offset="1"/>
</radialGradient>
<linearGradient id="paint3_linear_1_3732" x1="75.8436" y1="40.9002" x2="78.794" y2="22.2731" gradientUnits="userSpaceOnUse">
<stop stop-color="#8931B3"/>
<stop offset="1" stop-color="#8E8CFF"/>
</linearGradient>
<linearGradient id="paint4_linear_1_3732" x1="74.8891" y1="88.8025" x2="72.7888" y2="94.9577" gradientUnits="userSpaceOnUse">
<stop stop-color="#8E8CFF"/>
<stop offset="1" stop-color="#8931B3"/>
</linearGradient>
<radialGradient id="paint5_radial_1_3732" cx="0" cy="0" r="1" gradientUnits="userSpaceOnUse" gradientTransform="translate(38.3051 37.2342) scale(52.0527 52.0527)">
<stop offset="0.01" stop-color="#FFB8E2"/>
<stop offset="0.22" stop-color="#FDB7E3"/>
<stop offset="0.33" stop-color="#F5B5E5"/>
<stop offset="0.42" stop-color="#E8B0E9"/>
<stop offset="0.49" stop-color="#D5AAEF"/>
<stop offset="0.55" stop-color="#BDA2F7"/>
<stop offset="0.58" stop-color="#AE9DFC"/>
<stop offset="0.64" stop-color="#A996FC"/>
<stop offset="0.72" stop-color="#9A83FD"/>
<stop offset="0.81" stop-color="#8163FE"/>
<stop offset="0.91" stop-color="#5F38FF"/>
<stop offset="0.92" stop-color="#5E37FF"/>
<stop offset="0.99" stop-color="#5E9AFF"/>
</radialGradient>
<linearGradient id="paint6_linear_1_3732" x1="16.8178" y1="33.8046" x2="31.2642" y2="33.8046" gradientUnits="userSpaceOnUse">
<stop stop-color="white"/>
<stop offset="0.17" stop-color="#DBD0EA"/>
<stop offset="0.36" stop-color="#B9A3D7"/>
<stop offset="0.55" stop-color="#9F80C7"/>
<stop offset="0.72" stop-color="#8C67BC"/>
<stop offset="0.87" stop-color="#8057B5"/>
<stop offset="1" stop-color="#7C52B3"/>
</linearGradient>
<linearGradient id="paint7_linear_1_3732" x1="56.8399" y1="57.7125" x2="81.9232" y2="57.7125" gradientUnits="userSpaceOnUse">
<stop stop-color="#7C52B3"/>
<stop offset="0.13" stop-color="#8057B5"/>
<stop offset="0.28" stop-color="#8C67BC"/>
<stop offset="0.45" stop-color="#9F80C7"/>
<stop offset="0.64" stop-color="#B9A3D7"/>
<stop offset="0.83" stop-color="#DBD0EA"/>
<stop offset="1" stop-color="white"/>
</linearGradient>
<radialGradient id="paint8_radial_1_3732" cx="0" cy="0" r="1" gradientUnits="userSpaceOnUse" gradientTransform="translate(24.7936 25.7423) scale(45.4345 45.4345)">
<stop stop-color="#FFFFD9"/>
<stop offset="1"/>
</radialGradient>
<linearGradient id="paint9_linear_1_3732" x1="36.7721" y1="86.9728" x2="39.3421" y2="70.7426" gradientUnits="userSpaceOnUse">
<stop stop-color="#6D109D"/>
<stop offset="1" stop-color="#8E8CFF"/>
</linearGradient>
<linearGradient id="paint10_linear_1_3732" x1="76.2689" y1="63.8296" x2="56.7835" y2="48.9272" gradientUnits="userSpaceOnUse">
<stop stop-color="#5400B3"/>
<stop offset="1" stop-color="#F2C0FF"/>
</linearGradient>
<linearGradient id="paint11_linear_1_3732" x1="41.9795" y1="24.3434" x2="58.2926" y2="24.3434" gradientUnits="userSpaceOnUse">
<stop stop-color="white"/>
<stop offset="0.17" stop-color="#DBD0EA"/>
<stop offset="0.36" stop-color="#B9A3D7"/>
<stop offset="0.55" stop-color="#9F80C7"/>
<stop offset="0.72" stop-color="#8C67BC"/>
<stop offset="0.87" stop-color="#8057B5"/>
<stop offset="1" stop-color="#7C52B3"/>
</linearGradient>
<linearGradient id="paint12_linear_1_3732" x1="66.5156" y1="71.4892" x2="70.228" y2="42.9441" gradientUnits="userSpaceOnUse">
<stop stop-color="#644FF7"/>
<stop offset="1" stop-color="#9F6DFF"/>
</linearGradient>
<linearGradient id="paint13_linear_1_3732" x1="59.854" y1="67.5969" x2="75.0471" y2="48.9709" gradientUnits="userSpaceOnUse">
<stop stop-color="#935CE1"/>
<stop offset="0.22" stop-color="#8F5AE0"/>
<stop offset="0.43" stop-color="#8454DC"/>
<stop offset="0.63" stop-color="#714AD5"/>
<stop offset="0.82" stop-color="#573CCC"/>
<stop offset="0.99" stop-color="#392CC2"/>
</linearGradient>
<radialGradient id="paint14_radial_1_3732" cx="0" cy="0" r="1" gradientUnits="userSpaceOnUse" gradientTransform="translate(42.7197 21.6061) rotate(-109.29) scale(12.9449 12.9449)">
<stop stop-color="#DEA5FF"/>
<stop offset="1" stop-color="#8931B3"/>
</radialGradient>
<linearGradient id="paint15_linear_1_3732" x1="56.8008" y1="15.4538" x2="42.4646" y2="20.4715" gradientUnits="userSpaceOnUse">
<stop stop-color="#C287F8"/>
<stop offset="1" stop-color="#CCB3FF"/>
</linearGradient>
<linearGradient id="paint16_linear_1_3732" x1="49.7014" y1="22.3918" x2="49.7014" y2="13.6358" gradientUnits="userSpaceOnUse">
<stop stop-color="#9F6DFF"/>
<stop offset="0.27" stop-color="#9B69FF"/>
<stop offset="0.52" stop-color="#905EFD"/>
<stop offset="0.76" stop-color="#7E4BFB"/>
<stop offset="1" stop-color="#6431F7"/>
</linearGradient>
<linearGradient id="paint17_linear_1_3732" x1="32.6487" y1="88.1598" x2="32.6487" y2="76.7427" gradientUnits="userSpaceOnUse">
<stop stop-color="#C282F7"/>
<stop offset="1" stop-color="#DC6DFF"/>
</linearGradient>
<linearGradient id="paint18_linear_1_3732" x1="32.2913" y1="87.3141" x2="32.2913" y2="78.5813" gradientUnits="userSpaceOnUse">
<stop stop-color="#4848F7"/>
<stop offset="1" stop-color="#6D20FF"/>
</linearGradient>
<linearGradient id="paint19_linear_1_3732" x1="34.3367" y1="84.4655" x2="34.3367" y2="79.0959" gradientUnits="userSpaceOnUse">
<stop stop-color="#644FF7"/>
<stop offset="1" stop-color="#9F6DFF"/>
</linearGradient>
<linearGradient id="paint20_linear_1_3732" x1="20.8285" y1="58.8099" x2="26.7799" y2="62.5727" gradientUnits="userSpaceOnUse">
<stop stop-color="#9084FF"/>
<stop offset="0.49" stop-color="#D08BFC"/>
<stop offset="1" stop-color="#FFC9F8"/>
</linearGradient>
<radialGradient id="paint21_radial_1_3732" cx="0" cy="0" r="1" gradientUnits="userSpaceOnUse" gradientTransform="translate(23.8548 60.1222) scale(2.86135 2.86135)">
<stop stop-color="#1372B3"/>
<stop offset="1" stop-color="white"/>
</radialGradient>
<linearGradient id="paint22_linear_1_3732" x1="32.9068" y1="28.0496" x2="35.4953" y2="30.0082" gradientUnits="userSpaceOnUse">
<stop stop-color="#9084FF"/>
<stop offset="0.49" stop-color="#D08BFC"/>
<stop offset="1" stop-color="#FFC9F8"/>
</linearGradient>
<radialGradient id="paint23_radial_1_3732" cx="0" cy="0" r="1" gradientUnits="userSpaceOnUse" gradientTransform="translate(34.2463 28.7697) rotate(4.81998) scale(1.31938 1.31938)">
<stop stop-color="#1372B3"/>
<stop offset="1" stop-color="white"/>
</radialGradient>
<linearGradient id="paint24_linear_1_3732" x1="61.8633" y1="76.9018" x2="55.7672" y2="76.7733" gradientUnits="userSpaceOnUse">
<stop stop-color="#9566FC"/>
<stop offset="1" stop-color="#5445B1"/>
</linearGradient>
<radialGradient id="paint25_radial_1_3732" cx="0" cy="0" r="1" gradientUnits="userSpaceOnUse" gradientTransform="translate(40.84 61.641) scale(6.44513 6.44512)">
<stop stop-color="#FFFFE8"/>
<stop offset="0.2" stop-color="#BBBBAA"/>
<stop offset="0.42" stop-color="#79796E"/>
<stop offset="0.61" stop-color="#45453F"/>
<stop offset="0.78" stop-color="#1F1F1D"/>
<stop offset="0.91" stop-color="#080808"/>
<stop offset="1"/>
</radialGradient>
<radialGradient id="paint26_radial_1_3732" cx="0" cy="0" r="1" gradientUnits="userSpaceOnUse" gradientTransform="translate(58.8037 76.3969) scale(2.54265 2.54263)">
<stop stop-color="#1372B3"/>
<stop offset="1" stop-color="white"/>
</radialGradient>
<linearGradient id="paint27_linear_1_3732" x1="29.0796" y1="47.6057" x2="45.6386" y2="58.0748" gradientUnits="userSpaceOnUse">
<stop stop-color="#9084FF"/>
<stop offset="0.12" stop-color="#9785FF"/>
<stop offset="0.29" stop-color="#AA87FE"/>
<stop offset="0.49" stop-color="#CA8AFC"/>
<stop offset="0.53" stop-color="#D08BFC"/>
<stop offset="1" stop-color="#FFC9F8"/>
</linearGradient>
<linearGradient id="paint28_linear_1_3732" x1="29.2939" y1="49.8136" x2="45.8347" y2="49.8136" gradientUnits="userSpaceOnUse">
<stop stop-color="#1372B3"/>
<stop offset="1" stop-color="white"/>
</linearGradient>
<linearGradient id="paint29_linear_1_3732" x1="63.4136" y1="21.5506" x2="71.5453" y2="26.6915" gradientUnits="userSpaceOnUse">
<stop stop-color="#845FFF"/>
<stop offset="0.49" stop-color="#A972FC"/>
<stop offset="1" stop-color="#D4B0F8"/>
</linearGradient>
<linearGradient id="paint30_linear_1_3732" x1="63.261" y1="23.6091" x2="71.0022" y2="23.6091" gradientUnits="userSpaceOnUse">
<stop stop-color="#1372B3"/>
<stop offset="1" stop-color="white"/>
</linearGradient>
<linearGradient id="paint31_linear_1_3732" x1="58.1467" y1="53.7192" x2="78.3168" y2="53.7192" gradientUnits="userSpaceOnUse">
<stop stop-color="#7C52B3"/>
<stop offset="1" stop-color="white"/>
</linearGradient>
<radialGradient id="paint32_radial_1_3732" cx="0" cy="0" r="1" gradientUnits="userSpaceOnUse" gradientTransform="translate(76.9387 84.5971) rotate(10.24) scale(12.4117)">
<stop offset="0.01" stop-color="#FFB8E2"/>
<stop offset="0.22" stop-color="#FDB7E3"/>
<stop offset="0.33" stop-color="#F5B5E5"/>
<stop offset="0.42" stop-color="#E8B0E9"/>
<stop offset="0.49" stop-color="#D5AAEF"/>
<stop offset="0.55" stop-color="#BDA2F7"/>
<stop offset="0.58" stop-color="#AE9DFC"/>
<stop offset="0.64" stop-color="#A996FC"/>
<stop offset="0.72" stop-color="#9A83FD"/>
<stop offset="0.81" stop-color="#8163FE"/>
<stop offset="0.91" stop-color="#5F38FF"/>
<stop offset="0.92" stop-color="#5E37FF"/>
<stop offset="0.99" stop-color="#5E9AFF"/>
</radialGradient>
<linearGradient id="paint33_linear_1_3732" x1="86.3908" y1="82.2231" x2="78.4754" y2="87.5731" gradientUnits="userSpaceOnUse">
<stop stop-color="#5400B3"/>
<stop offset="1" stop-color="#F2C0FF"/>
</linearGradient>
<linearGradient id="paint34_linear_1_3732" x1="87.7849" y1="86.6289" x2="78.0722" y2="81.9043" gradientUnits="userSpaceOnUse">
<stop stop-color="#644FF7"/>
<stop offset="1" stop-color="#9F6DFF"/>
</linearGradient>
<linearGradient id="paint35_linear_1_3732" x1="87.2845" y1="85.786" x2="78.8045" y2="82.9421" gradientUnits="userSpaceOnUse">
<stop offset="0.01" stop-color="#392CC2"/>
<stop offset="1" stop-color="#5F33C5"/>
</linearGradient>
<linearGradient id="paint36_linear_1_3732" x1="87.0757" y1="86.2702" x2="78.6877" y2="83.4572" gradientUnits="userSpaceOnUse">
<stop stop-color="#5E48F7"/>
<stop offset="1" stop-color="#8C50FF"/>
</linearGradient>
<linearGradient id="paint37_linear_1_3732" x1="80.3918" y1="88.027" x2="83.1338" y2="79.851" gradientUnits="userSpaceOnUse">
<stop stop-color="#7C52B3"/>
<stop offset="1" stop-color="white"/>
</linearGradient>
<linearGradient id="paint38_linear_1_3732" x1="43.748" y1="16.5841" x2="55.6548" y2="16.5841" gradientUnits="userSpaceOnUse">
<stop stop-color="#7C52B3"/>
<stop offset="1" stop-color="white"/>
</linearGradient>
<linearGradient id="paint39_linear_1_3732" x1="31.7532" y1="43.5801" x2="17.6234" y2="31.2631" gradientUnits="userSpaceOnUse">
<stop stop-color="#C98EFF"/>
<stop offset="1" stop-color="#8931B3"/>
</linearGradient>
<linearGradient id="paint40_linear_1_3732" x1="19.9142" y1="43.4107" x2="19.9142" y2="26.4752" gradientUnits="userSpaceOnUse">
<stop stop-color="#FC9FF7"/>
<stop offset="1" stop-color="#F66DFF"/>
</linearGradient>
</defs>
</svg>
