<svg width="128" height="120" viewBox="0 0 128 120" fill="none" xmlns="http://www.w3.org/2000/svg">
<path fill-rule="evenodd" clip-rule="evenodd" d="M0.998669 34.4233C0.942478 34.4895 0.91464 34.5752 0.921159 34.6618C1.11556 34.7918 1.71305 34.6547 1.67489 34.3565C1.65461 34.2086 1.47572 34.1597 1.35169 34.1442C1.09646 34.112 0.966484 34.3362 0.836487 34.5259L0.998669 34.4233Z" fill="#FFC445"/>
<path style="mix-blend-mode:screen" d="M67.2646 119.798C100.346 119.798 127.164 92.9804 127.164 59.899C127.164 26.8177 100.346 0 67.2646 0C34.1833 0 7.36563 26.8177 7.36563 59.899C7.36563 92.9804 34.1833 119.798 67.2646 119.798Z" fill="url(#paint0_radial_1107_282)"/>
<path style="mix-blend-mode:screen" d="M67.2631 106.942C93.2453 106.942 114.308 85.8791 114.308 59.897C114.308 33.9148 93.2453 12.8522 67.2631 12.8522C41.281 12.8522 20.2184 33.9148 20.2184 59.897C20.2184 85.8791 41.281 106.942 67.2631 106.942Z" fill="url(#paint1_radial_1107_282)"/>
<path style="mix-blend-mode:screen" d="M67.2644 104.791C92.0582 104.791 112.158 84.6921 112.158 59.8982C112.158 35.1043 92.0582 15.0049 67.2644 15.0049C42.4705 15.0049 22.3711 35.1043 22.3711 59.8982C22.3711 84.6921 42.4705 104.791 67.2644 104.791Z" fill="url(#paint2_radial_1107_282)"/>
<path fill-rule="evenodd" clip-rule="evenodd" d="M77.9567 86.1199L90.4973 86.8355C90.4973 86.8355 100.88 83.706 106.059 77.1131L108.494 63.3835L104.47 50.8238L82.6044 64.8099C82.6044 64.8099 77.643 81.5855 77.9567 86.1199Z" fill="url(#paint3_linear_1107_282)"/>
<path fill-rule="evenodd" clip-rule="evenodd" d="M105.447 60.0771C105.452 65.4219 104.402 70.7151 102.359 75.6538C100.315 80.5926 97.318 85.0798 93.5382 88.8588C89.7585 92.6377 85.2706 95.6342 80.3315 97.6766C75.3923 99.719 70.0989 100.767 64.7541 100.762C64.0325 100.762 63.3026 100.745 62.5894 100.702H62.5811C61.516 100.649 60.4594 100.547 59.4206 100.418C51.76 99.4146 44.5474 96.2373 38.6365 91.2622C34.8236 88.0541 31.6202 84.1849 29.18 79.8403C28.9308 79.393 28.691 78.9386 28.4501 78.4831C28.4501 78.4652 28.4418 78.4568 28.4335 78.4401C28.1842 77.9499 27.9564 77.461 27.7286 76.9624H27.7203C27.0079 75.401 26.3995 73.7942 25.8991 72.1525C25.519 70.9559 25.2006 69.7406 24.945 68.5114C24.9382 68.5012 24.9352 68.489 24.9366 68.4768C24.7565 67.6098 24.6015 66.7332 24.4811 65.853C24.2048 63.9413 24.0669 62.0122 24.0684 60.0807C24.0684 58.956 24.1113 57.8313 24.2151 56.7317C24.2664 56.0269 24.3439 55.3316 24.4381 54.6363C24.9531 50.7079 26.0501 46.8781 27.6928 43.2728C30.9263 36.1548 36.1401 30.1177 42.7116 25.8826C49.2832 21.6475 56.9348 19.3932 64.7529 19.389C65.1822 19.389 65.6115 19.3974 66.0325 19.4057C66.4881 19.4224 66.9426 19.4403 67.3981 19.4749C69.6993 19.6228 71.9836 19.9676 74.226 20.5053C75.514 20.8142 76.777 21.1744 78.0138 21.605C78.8558 21.8876 79.6835 22.2013 80.4957 22.5495C81.1051 22.8071 81.6979 23.0731 82.2846 23.3569C82.3884 23.4082 82.4909 23.4512 82.5935 23.5024C86.5213 25.4233 90.1145 27.9635 93.2355 31.0256C93.6815 31.4561 94.1109 31.9022 94.5402 32.3578C94.8241 32.6667 95.1079 32.9839 95.3822 33.3024C95.8593 33.8343 96.31 34.3924 96.7561 34.9506C100.31 39.4697 102.863 44.6928 104.246 50.2736C105.044 53.4803 105.447 56.7725 105.447 60.0771Z" fill="url(#paint4_radial_1107_282)"/>
<path style="mix-blend-mode:multiply" opacity="0.71" fill-rule="evenodd" clip-rule="evenodd" d="M41.1999 56.9212C41.1999 56.9212 48.395 63.3543 50.1852 66.0043C51.9753 68.6543 57.9957 86.7491 58.1591 90.5536C58.3225 94.3581 54.716 99.5079 54.716 99.5079C54.716 99.5079 48.6073 97.7881 45.1928 95.7499L47.2561 81.5336L41.1999 56.9212Z" fill="url(#paint5_linear_1107_282)"/>
<path style="mix-blend-mode:multiply" opacity="0.71" fill-rule="evenodd" clip-rule="evenodd" d="M83.679 68.8864L94.9363 74.4643C94.9363 74.4643 97.1689 75.9682 99.8261 73.1524C99.8261 73.1524 100.092 69.2286 98.4653 65.4432L83.679 68.8864Z" fill="url(#paint6_linear_1107_282)"/>
<g style="mix-blend-mode:multiply" opacity="0.3">
<path fill-rule="evenodd" clip-rule="evenodd" d="M42.3726 59.0576C41.4531 62.9707 42.0375 67.0769 43.452 70.8051C43.7573 71.6102 44.0853 72.6442 44.585 73.3693C44.9785 73.9406 45.6452 74.284 46.1866 74.6955C46.9022 75.2417 47.5546 75.8619 48.2583 76.4201C49.0561 77.0545 49.8672 77.4421 50.8308 77.7844C52.6615 78.4356 54.4994 78.9234 56.4362 78.3498C58.2123 77.7916 59.7525 76.6588 60.8144 75.1296C61.2771 74.4439 61.8126 73.8356 62.3004 73.1725C62.7882 72.5094 63.0852 71.6924 63.3833 70.9423C63.9797 69.4562 64.1645 67.5743 64.0596 65.9845C64.0187 65.2209 63.9093 64.4625 63.7327 63.7185C63.5383 62.9468 63.1853 62.2312 63.0374 61.4453C62.7989 60.1584 62.2205 59.0159 61.7041 57.8101C60.4244 54.8202 57.0993 53.0324 54.0342 52.5876C52.5947 52.3789 51.1719 52.7068 49.7551 52.9299C48.2607 53.1612 47.173 53.8542 45.8444 54.5065C45.0608 54.8906 44.2939 55.3187 43.7334 56.0009C42.406 57.6086 42.214 59.8746 42.3726 59.0576Z" fill="#7D72B3"/>
<path fill-rule="evenodd" clip-rule="evenodd" d="M54.6494 80.7154C55.3412 80.0929 56.281 79.3856 57.1695 79.0731C57.7777 78.8585 58.3478 79.091 58.8452 79.4464C59.8482 80.162 59.6561 81.8317 58.863 82.6785C57.4152 84.2289 54.6888 82.9898 54.6984 81.0183L54.6494 80.7154Z" fill="#7D72B3"/>
<path fill-rule="evenodd" clip-rule="evenodd" d="M68.6865 67.7325C68.2882 67.191 68.0103 67.0169 68.0306 66.4719C68.0473 66.0664 68.5076 65.2936 68.7163 64.9048C69.3385 63.7514 70.3879 62.8878 71.6395 62.4992C72.4946 62.2234 73.3874 62.0826 74.2859 62.0818C75.1208 62.0818 75.8102 62.3203 76.5949 62.5732C78.0177 63.0335 79.5896 63.7908 80.6356 64.9036C81.6207 65.9495 81.4776 67.8398 80.6153 68.9073C79.9546 69.723 78.9957 70.2192 78.1239 70.7749C77.1698 71.3867 76.1238 72.1679 75.023 72.472C74.3074 72.6688 73.7946 72.7702 73.0909 72.5627C72.4508 72.3853 71.8297 72.1456 71.2364 71.8471C70.6675 71.5573 70.2369 71.438 69.7718 70.9836C69.3655 70.598 69.0165 70.1562 68.7354 69.6717C68.3275 68.9693 68.4695 68.0951 68.6865 67.7325Z" fill="#7D72B3"/>
<path fill-rule="evenodd" clip-rule="evenodd" d="M65.5906 60.3579C65.4261 60.8862 65.0659 61.9525 66.02 61.894C66.4529 61.8666 67.1005 61.4993 67.3319 61.2309C68.286 60.1218 66.008 59.374 65.8077 60.3579H65.5906Z" fill="#7D72B3"/>
<path fill-rule="evenodd" clip-rule="evenodd" d="M79.782 86.9619C79.3264 86.0078 79.225 85.6404 79.5351 84.6219C80.0389 83.0268 80.7189 81.4927 81.5626 80.0482C82.073 79.1728 82.7039 77.9825 83.6676 77.5639C84.4674 77.2253 85.3185 77.0237 86.1853 76.9676C88.0183 76.8483 89.434 77.7201 90.7375 78.9295C91.5426 79.6749 92.2128 80.2962 92.6791 81.3147C93.0846 82.1985 93.3244 83.3661 93.2301 84.3345C92.9606 87.0919 90.5598 89.0454 88.7828 90.9286C87.3802 92.4146 85.0391 94.2811 82.853 93.4868C81.3431 92.937 80.4403 91.3341 79.8225 89.9423C79.4158 89.0228 79.5649 87.9482 79.782 86.9619Z" fill="#7D72B3"/>
<path fill-rule="evenodd" clip-rule="evenodd" d="M77.3975 79.7402C76.8644 80.1755 76.6819 80.7086 76.5555 81.3944C76.4601 81.8917 76.2561 82.9973 76.7427 83.4016C77.1709 83.7594 77.958 83.1631 78.3003 82.9365C78.5796 82.7569 78.8281 82.5334 79.0361 82.2746C79.1554 82.1338 79.3117 82.011 79.3808 81.8381C79.4905 81.5614 79.45 81.175 79.4381 80.8839C79.4226 80.519 79.215 80.2232 78.961 79.9811C78.7463 79.7748 78.5662 79.7223 78.274 79.6615C77.9592 79.5923 77.5692 79.4635 77.3975 79.7402Z" fill="#7D72B3"/>
<path fill-rule="evenodd" clip-rule="evenodd" d="M61.9016 97.6242C61.8431 97.784 61.7824 97.8842 61.8694 98.038C61.9565 98.1919 62.2272 98.4161 62.3405 98.5151C62.7543 98.8979 63.198 99.0124 63.7394 99.1269C64.2809 99.2414 64.8224 99.3094 65.3614 99.2009C65.7037 99.1317 66.1414 99.0554 66.368 98.7632C66.7866 98.2205 66.4396 97.4036 66.1605 96.8848C65.9482 96.4876 65.6465 96.1322 65.402 95.753C65.1204 95.3515 64.7803 94.9946 64.393 94.6939C63.9338 94.3099 63.2231 93.7863 62.6303 94.2168C62.071 94.6176 61.7609 95.3427 61.613 95.9915C61.5293 96.3718 61.5512 96.7677 61.6762 97.1364C61.7668 97.3904 61.9481 97.561 61.9016 97.6242Z" fill="#7D72B3"/>
<path fill-rule="evenodd" clip-rule="evenodd" d="M94.9105 81.8395C94.5885 81.57 94.4668 81.5557 94.5014 81.1871C94.5184 80.7996 94.5907 80.4165 94.7161 80.0494C95.0334 79.2503 95.6953 78.5884 96.3286 78.029C96.6985 77.7228 97.1264 77.4944 97.5868 77.3576C97.8253 77.2777 98.0185 77.1823 98.2666 77.2169C98.461 77.2399 98.6442 77.3203 98.7928 77.4477C98.9415 77.5751 99.0489 77.7438 99.1015 77.9324C99.3066 78.5574 98.9977 79.2527 98.659 79.7655C98.2249 80.4203 97.885 81.1609 97.1956 81.5914C96.8772 81.7906 96.5432 81.9862 96.2069 82.1532C96.003 82.2545 95.7764 82.3607 95.5414 82.3321C95.3744 82.313 94.864 82.1818 94.9105 81.8395Z" fill="#7D72B3"/>
<path fill-rule="evenodd" clip-rule="evenodd" d="M28.4868 53.6317C28.5726 53.9895 28.5894 54.3652 28.705 54.7158C28.9436 55.4314 29.4612 56.0516 29.9943 56.5739C31.008 57.565 32.4523 57.9705 33.8107 58.2436C34.5268 58.4008 35.2558 58.4918 35.9885 58.5155C36.5729 58.5227 37.1931 58.6467 37.7775 58.6014C38.745 58.5332 39.6837 58.2426 40.5205 57.7523C41.7609 57.0176 42.7758 55.875 42.3679 54.3652C42.1437 53.5387 41.5974 52.8314 40.9999 52.2435C40.3475 51.6018 39.8228 50.9316 38.9724 50.5439C38.5991 50.3734 38.2176 50.1993 37.8347 50.0478C37.3755 49.8641 36.9414 49.6125 36.45 49.5278C36.0421 49.4563 35.6224 49.3 35.2109 49.2798C34.7976 49.2579 34.3833 49.2623 33.9705 49.2929C32.5048 49.4121 30.9889 50.2696 29.9752 51.3132C29.5733 51.7259 29.2298 52.1898 28.8279 52.5989C28.4463 52.9781 28.4868 53.4325 28.4868 53.6317Z" fill="#7D72B3"/>
<path fill-rule="evenodd" clip-rule="evenodd" d="M58.6292 43.4012C58.2237 44.0357 58.0734 44.1788 58.015 44.9207C57.9339 45.8454 58.0093 46.7772 58.238 47.6768C58.7711 49.7807 60.4205 51.4778 61.8278 53.0628C64.138 55.6639 66.7403 58.0325 69.9163 59.5233C71.1662 60.1101 72.49 60.778 73.9188 60.5895C75.3058 60.4071 76.5629 59.8883 77.8843 59.4673C79.0435 59.0987 80.2899 58.7517 81.4944 58.5907C82.0597 58.5132 82.625 58.438 83.1915 58.3748C84.0168 58.2842 84.7134 57.9538 85.4993 57.7224C86.6371 57.3885 87.8214 57.1857 88.9484 56.8244C89.4637 56.6577 89.964 56.4479 90.444 56.197C91.2323 55.7892 92.0767 55.5459 92.8603 55.1141C95.7608 53.5148 97.7405 50.3138 97.8956 46.9791C97.9743 45.2796 97.3529 43.5026 96.499 42.0583C96.0148 41.239 95.4018 40.5079 94.8663 39.716C94.1648 38.707 93.3593 37.7744 92.4631 36.9336C90.8149 35.3557 88.958 34.3372 86.7862 33.6669C85.6356 33.3066 84.4354 33.1299 83.2297 33.1434C81.3108 33.1493 79.3549 33.4141 77.4729 33.7933C75.5909 34.1726 73.6827 34.5757 71.8329 35.0981C69.8829 35.6479 67.9198 36.4792 66.0867 37.3355C64.1976 38.2192 62.5494 39.3916 61.3401 41.1066C61.0669 41.4918 60.7533 41.8615 60.4945 42.2515C60.2906 42.558 60.1784 42.7978 59.8802 43.0196C59.3352 43.4239 58.8319 43.5133 58.6292 43.4012Z" fill="#7D72B3"/>
</g>
<path style="mix-blend-mode:multiply" opacity="0.71" fill-rule="evenodd" clip-rule="evenodd" d="M99.5058 50.775L105.446 60.0775C105.446 60.0775 105.635 53.8591 104.761 52.6069C103.886 51.3546 99.5058 50.775 99.5058 50.775Z" fill="url(#paint7_linear_1107_282)"/>
<path style="mix-blend-mode:multiply" opacity="0.71" fill-rule="evenodd" clip-rule="evenodd" d="M28.7039 43.7539C28.7039 43.7539 40.3237 51.2556 72.1051 49.8364L84.901 50.8215C84.901 50.8215 97.0659 46.6854 99.8221 39.4163C99.8221 39.4163 96.231 34.2379 95.389 33.2933C94.547 32.3487 79.5842 35.5784 79.5842 35.5784L28.7039 43.7539Z" fill="url(#paint8_linear_1107_282)"/>
<path fill-rule="evenodd" clip-rule="evenodd" d="M30.4165 35.8937V33.5323C30.4165 33.5323 36.84 25.2267 47.4175 16.1042C47.4175 16.1042 74.9198 13.6724 82.7304 16.1042L85.8229 23.1754L94.9358 26.634L95.389 33.2973C95.389 33.2973 89.4032 42.811 78.5001 46.1325L72.9841 44.8206C72.9841 44.8206 66.9458 47.3251 50.9978 47.3251C34.704 47.3251 28.7039 43.7555 28.7039 43.7555V38.2873L30.4165 35.8937Z" fill="url(#paint9_linear_1107_282)"/>
<path fill-rule="evenodd" clip-rule="evenodd" d="M53.4369 87.4547L50.7666 94.4292L42.5302 96.3863L34.1997 96.0095C34.1997 96.0095 25.361 90.4041 21.1271 81.5368L22.0466 73.4722L18.9196 70.5872C18.9196 70.5872 18.1646 63.0545 24.4343 56.1754C24.4343 56.1754 31.3517 54.2516 41.1993 56.922L47.2709 63.6556C47.2709 63.6556 52.2431 73.143 53.4369 87.4547Z" fill="url(#paint10_linear_1107_282)"/>
<path style="mix-blend-mode:multiply" opacity="0.71" fill-rule="evenodd" clip-rule="evenodd" d="M64.2621 92.2231C64.2621 92.2231 66.1322 94.6943 67.2712 95.1821C68.4101 95.6699 74.7562 97.1344 75.4884 97.0533C76.2207 96.9722 76.2207 90.2708 75.814 89.1819C75.5359 88.4795 75.1518 87.8239 74.6751 87.2379L64.2621 92.2231Z" fill="url(#paint11_linear_1107_282)"/>
<path fill-rule="evenodd" clip-rule="evenodd" d="M110.142 41.7584L109.824 44.4121L105.195 53.0348C102.601 53.104 99.8355 51.0336 99.5087 50.776C99.5004 50.7676 99.4837 50.7593 99.4741 50.7509C97.6196 47.7276 96.9696 41.0798 96.9696 41.0798L99.1331 38.4083L102.681 37.7643L103.574 38.2891L106.717 37.4041L109.182 38.976L109.912 39.4531L110.142 41.7584Z" fill="url(#paint12_linear_1107_282)"/>
<path fill-rule="evenodd" clip-rule="evenodd" d="M100.453 54.7015C100.453 54.7015 95.2816 51.8714 92.758 51.9668L86.3058 56.3867C86.3058 56.3867 83.682 63.4996 83.682 68.8867C83.682 68.8867 89.9028 71.1289 94.2774 70.5135C94.2774 70.5135 99.2746 68.2904 101.002 64.6386C100.997 64.6386 101.673 58.3724 100.453 54.7015Z" fill="url(#paint13_linear_1107_282)"/>
<path fill-rule="evenodd" clip-rule="evenodd" d="M30.4166 33.5335C30.4166 33.5335 42.374 33.9247 55.555 30.5424C55.555 30.5424 68.8983 25.8613 71.5018 24.0699C74.1053 22.2786 82.7305 16.1055 82.7305 16.1055C82.7305 16.1055 69.0616 12.6981 47.4177 16.1055C47.4177 16.1055 36.0351 24.609 30.4166 33.5335Z" fill="url(#paint14_linear_1107_282)"/>
<path fill-rule="evenodd" clip-rule="evenodd" d="M85.8227 23.1764C85.8227 23.1764 77.5231 32.7449 76.5464 33.5333C75.5696 34.3216 62.0463 39.7684 62.0463 39.7684L54.4134 41.7267C54.4134 41.7267 63.9604 41.648 65.5872 41.7267L68.6249 38.7689L79.1475 39.2019C79.1475 39.2019 88.8079 33.377 94.9333 26.6338L85.8227 23.1764Z" fill="url(#paint15_linear_1107_282)"/>
<path fill-rule="evenodd" clip-rule="evenodd" d="M28.7039 38.287L37.1656 39.092C37.1656 39.092 42.808 39.3365 46.0615 38.2381C46.0615 38.2381 34.7315 37.6847 30.4165 35.8934L28.7039 38.287Z" fill="url(#paint16_linear_1107_282)"/>
<path fill-rule="evenodd" clip-rule="evenodd" d="M86.3077 56.3864C86.3077 56.3864 90.0048 57.7722 92.433 57.6088C94.8613 57.4454 100.455 54.7012 100.455 54.7012C100.455 54.7012 97.8918 52.4602 92.7599 51.9665L86.3077 56.3864Z" fill="url(#paint17_linear_1107_282)"/>
<path fill-rule="evenodd" clip-rule="evenodd" d="M18.9177 70.5916C18.9177 70.5916 30.0892 68.1503 33.1566 66.9171C36.2241 65.6839 41.195 56.9228 41.195 56.9228C41.195 56.9228 35.0577 54.0748 24.4337 56.1715C24.4337 56.1762 17.8133 62.3362 18.9177 70.5916Z" fill="url(#paint18_linear_1107_282)"/>
<path fill-rule="evenodd" clip-rule="evenodd" d="M22.0481 73.4751C22.0481 73.4751 29.873 72.447 32.6352 71.6861C35.3973 70.9252 39.723 68.2513 39.723 68.2513C39.723 68.2513 36.4086 75.7972 35.2124 77.505C35.2124 77.505 25.9098 81.0078 21.1274 81.5361C21.1274 81.5385 20.8805 77.3381 22.0481 73.4751Z" fill="url(#paint19_linear_1107_282)"/>
<path fill-rule="evenodd" clip-rule="evenodd" d="M63.853 90.3628C63.853 90.3628 65.6419 86.4426 67.7589 85.6053C67.7589 85.6053 72.8037 85.6519 74.6762 87.244L73.4561 94.6718L66.4589 94.1947C66.4589 94.1947 63.853 92.8661 63.853 90.3628Z" fill="url(#paint20_linear_1107_282)"/>
<path fill-rule="evenodd" clip-rule="evenodd" d="M63.853 90.3621C63.853 90.3621 66.051 90.993 68.0844 90.3621C70.1179 89.7312 72.6415 86.4478 72.6415 86.4478C72.6415 86.4478 71.0136 85.384 67.7589 85.6046C67.7589 85.6046 64.423 87.006 63.853 90.3621Z" fill="url(#paint21_linear_1107_282)"/>
<path style="mix-blend-mode:multiply" opacity="0.5" fill-rule="evenodd" clip-rule="evenodd" d="M53.4365 87.4524L50.7662 94.4269L42.5298 96.384L34.1993 96.0072C34.1993 96.0072 42.4523 95.5003 42.7015 94.2802C42.9508 93.0601 43.5089 89.5657 43.5089 89.5657C41.4815 83.4678 35.2118 77.507 35.2118 77.507C37.8356 73.8098 39.7212 68.2485 39.7212 68.2485L36.1659 70.2319L33.8462 66.5347C37.6936 63.107 41.1989 56.9232 41.1989 56.9232L47.2705 63.6569C47.2705 63.6569 52.2427 73.1407 53.4365 87.4524Z" fill="url(#paint22_linear_1107_282)"/>
<path style="mix-blend-mode:multiply" opacity="0.5" fill-rule="evenodd" clip-rule="evenodd" d="M69.534 89.5693L73.4554 94.669L74.6755 87.2413L72.642 86.4458L69.534 89.5693Z" fill="url(#paint23_linear_1107_282)"/>
<path style="mix-blend-mode:multiply" opacity="0.71" fill-rule="evenodd" clip-rule="evenodd" d="M92.4328 57.6081C92.4328 57.6081 93.7972 62.3118 93.9594 64.263C94.1216 66.2142 94.2802 70.5172 94.2802 70.5172C94.2802 70.5172 98.0346 69.2482 101.004 64.6423C101.004 64.6423 101.787 59.2754 100.46 54.7052C100.454 54.7004 95.5444 57.2205 92.4328 57.6081Z" fill="url(#paint24_linear_1107_282)"/>
<path style="mix-blend-mode:multiply" opacity="0.5" fill-rule="evenodd" clip-rule="evenodd" d="M100.195 41.8411L101.186 42.6175C101.186 42.6175 103.347 41.7385 103.417 40.6234C103.487 39.5083 103.565 38.2882 103.565 38.2882L102.679 37.7634L100.195 41.8411Z" fill="url(#paint25_linear_1107_282)"/>
<path style="mix-blend-mode:multiply" opacity="0.71" fill-rule="evenodd" clip-rule="evenodd" d="M110.142 41.7591L109.824 44.4128L105.195 53.0355C102.601 53.1047 99.8357 51.0343 99.5089 50.7767C100.936 51.6925 102.597 52.1786 104.293 52.1768C104.293 52.1768 104.456 49.454 104.293 47.745C104.129 46.0359 102.902 42.6166 102.902 42.6166L109.18 38.9755L109.91 39.4526L110.142 41.7591Z" fill="url(#paint26_linear_1107_282)"/>
<path fill-rule="evenodd" clip-rule="evenodd" d="M102.681 37.7634L100.196 41.8411C100.196 41.8411 98.7044 42.2334 96.9655 41.0813L99.129 38.4086L102.681 37.7634Z" fill="url(#paint27_linear_1107_282)"/>
<path fill-rule="evenodd" clip-rule="evenodd" d="M103.565 38.2868L103.417 40.622C103.417 40.622 102.147 42.2738 100.469 42.9882C100.469 42.9882 103.689 42.6375 105.181 41.9864C105.181 41.9864 109.053 40.4359 109.911 39.4425L106.714 37.3995L103.565 38.2868Z" fill="url(#paint28_linear_1107_282)"/>
<path style="mix-blend-mode:multiply" opacity="0.5" fill-rule="evenodd" clip-rule="evenodd" d="M56.5744 30.0583L64.7595 38.668L76.5475 33.5397C76.5475 33.5397 85.1726 24.0808 85.8238 23.1828L82.7313 16.1116C82.7313 16.1116 74.2695 21.9615 71.5026 24.0761C68.7357 26.1906 56.5744 30.0583 56.5744 30.0583Z" fill="url(#paint29_linear_1107_282)"/>
<path style="mix-blend-mode:multiply" opacity="0.5" fill-rule="evenodd" clip-rule="evenodd" d="M68.627 38.7693L72.9837 44.8256C72.9837 44.8256 69.6622 45.9419 66.1332 46.376L65.5894 41.7247L68.627 38.7693Z" fill="url(#paint30_linear_1107_282)"/>
<path style="mix-blend-mode:multiply" opacity="0.5" fill-rule="evenodd" clip-rule="evenodd" d="M79.1496 39.1999L78.4996 46.1303C78.4996 46.1303 89.9299 42.0348 95.3886 33.2951L94.9354 26.6271C94.9354 26.6271 86.2196 34.8348 79.1496 39.1999Z" fill="url(#paint31_linear_1107_282)"/>
<path style="mix-blend-mode:multiply" opacity="0.2" fill-rule="evenodd" clip-rule="evenodd" d="M31.8364 38.5859L39.722 46.8807H43.6411L44.3567 38.6658C44.3567 38.6658 35.5109 39.4887 31.8364 38.5859Z" fill="url(#paint32_linear_1107_282)"/>
<g style="mix-blend-mode:soft-light">
<path fill-rule="evenodd" clip-rule="evenodd" d="M33.5863 30.8487C33.4217 30.3955 33.5315 30.2309 33.7807 29.8123C34.1719 29.1527 34.7098 28.6005 35.1845 28.0042C36.1064 26.8438 37.0927 25.7621 38.333 24.9284C39.6163 24.0649 40.8745 23.1311 42.2306 22.3845C43.1561 21.8753 44.0923 21.3529 45.0929 20.9903C45.7942 20.7351 46.5241 20.5335 47.2396 20.3165C48.6374 19.8919 50.5433 19.7058 51.8909 20.4214C52.7127 20.8579 53.0335 21.6654 53.3424 22.4978C53.4938 22.9081 53.6262 23.2611 53.5451 23.7083C53.476 24.0983 53.278 24.5026 53.1062 24.8533C52.5397 26.0054 51.4926 27.062 50.5099 27.8671C48.5062 29.5117 46.2343 30.6984 43.7882 31.5297C43.1334 31.7515 42.4763 31.9984 41.8024 32.1594C41.3659 32.2631 40.9187 32.3108 40.4834 32.4182C39.4709 32.6853 38.4418 32.8845 37.4028 33.0145C37.1189 33.0455 36.7981 33.1445 36.5178 33.1433C36.2614 33.1433 36.0134 32.9823 35.7629 32.9394C35.3431 32.8666 34.7468 32.8821 34.3711 32.6758C33.3657 32.1212 33.2464 31.0347 33.5863 30.8487Z" fill="#FFA989"/>
<path fill-rule="evenodd" clip-rule="evenodd" d="M50.2924 29.6563C50.3831 29.2341 50.358 29.2151 50.6239 28.9765C50.7742 28.7598 50.9473 28.5599 51.1404 28.3802C51.3846 28.1694 51.6514 27.9862 51.9359 27.834C52.7588 27.3784 53.7606 26.8679 54.7231 27.1506C55.3707 27.3402 55.7368 27.6539 55.5865 28.3623C55.5006 28.7607 55.1679 29.165 54.8566 29.4118C54.2961 29.8555 53.6568 30.1203 53.0021 30.397C52.5059 30.6057 51.7796 30.7297 51.2394 30.6104C50.748 30.5019 50.2244 29.9688 50.2924 29.6563Z" fill="#FFA989"/>
<path fill-rule="evenodd" clip-rule="evenodd" d="M64.5051 17.9384C63.7561 18.177 63.359 18.3201 62.7364 18.7435C61.8097 19.3744 60.8151 20.0077 59.9683 20.7423C59.4116 21.2121 58.9316 21.7658 58.5455 22.3834C58.2581 22.8664 58.165 23.4413 58.1221 23.997C58.0792 24.5528 58.2593 25.5904 58.8794 25.8468C59.118 25.9446 59.5462 25.8575 59.7823 25.8587C60.3067 25.8548 60.8283 25.7802 61.3327 25.6369C61.8575 25.5069 62.387 25.4723 62.9082 25.3173C63.4294 25.1622 63.9672 25.0144 64.5027 24.8808C65.6596 24.5934 66.7795 24.3167 67.86 23.8074C68.8821 23.3208 69.9424 22.9177 70.9442 22.3894C71.6681 22.0077 72.3753 21.6189 73.1195 21.2826C74.15 20.8163 75.1816 20.3595 76.1727 19.8168C76.561 19.593 76.9116 19.3092 77.2115 18.976C77.5371 18.6457 77.9271 18.3642 78.1656 17.9599C78.2741 17.7798 78.5234 17.4399 78.5234 17.2145C78.5138 16.9271 78.1012 16.5741 77.8877 16.4405C77.4784 16.2089 77.0265 16.0625 76.5591 16.0099C75.9044 15.912 75.2423 15.8721 74.5805 15.8907C73.7828 15.9465 72.9891 16.0497 72.2036 16.1996C71.6968 16.2962 71.2495 16.4202 70.7271 16.4274C69.8083 16.4375 68.8915 16.5148 67.984 16.6587C67.4581 16.7434 66.95 16.9259 66.4336 17.0714C65.9697 17.2038 65.4735 17.3004 65.0346 17.5079C64.814 17.6093 64.0125 17.7882 64.5051 17.9384Z" fill="#FFA989"/>
<path fill-rule="evenodd" clip-rule="evenodd" d="M62.336 16.4196C61.8386 16.6581 61.0992 16.911 60.7963 17.4309C60.5983 17.7708 60.8738 17.8376 61.1755 17.84C61.7074 17.84 62.2489 17.5896 62.7642 17.45C63.1733 17.3362 63.5592 17.1513 63.9043 16.9038C64.0605 16.7845 64.3742 16.676 64.2692 16.4411C64.2072 16.3027 63.884 16.156 63.7493 16.1155C63.4899 16.0392 63.2159 16.027 62.9509 16.08C62.6858 16.133 62.4376 16.2495 62.2275 16.4196H62.336Z" fill="#FFA989"/>
<path fill-rule="evenodd" clip-rule="evenodd" d="M80.1257 32.15C79.6737 32.2967 79.224 32.3754 78.7827 32.5078C78.3415 32.6401 77.9217 32.93 77.5413 33.1995C76.8829 33.6658 76.1709 34.2621 75.7737 34.9741C75.4422 35.5705 75.082 36.6522 75.7809 37.1412C76.7433 37.8126 78.2437 37.1304 79.2038 36.812C80.7101 36.3123 82.3678 35.7315 83.644 34.7535C84.1883 34.3184 84.7098 33.8554 85.2063 33.3665C85.6366 32.9562 86.0352 32.5141 86.399 32.0438C86.6542 31.7111 86.6911 31.2519 86.647 30.8452C86.6029 30.4564 86.2201 30.1404 85.8623 29.9996C85.1467 29.7182 84.5444 30.0533 83.8443 30.1666C83.1156 30.2859 82.2653 30.4982 81.6117 30.8679C80.617 31.4344 79.5675 31.9162 80.1257 32.15Z" fill="#FFA989"/>
<path fill-rule="evenodd" clip-rule="evenodd" d="M82.6217 28.1361C82.5027 27.9803 82.4262 27.7962 82.3999 27.6018C82.6194 27.5446 82.7446 27.2906 82.8936 27.151C83.0277 27.0361 83.178 26.9417 83.3397 26.8708C83.5997 26.7431 84.0696 26.5213 84.363 26.6322C84.9235 26.8481 85.0583 27.3943 84.7696 27.9215C84.6237 28.1798 84.4196 28.4005 84.1734 28.5662C83.9273 28.7318 83.6459 28.8377 83.3516 28.8756C82.9211 28.9316 81.9873 28.321 82.5168 27.8129L82.6217 28.1361Z" fill="#FFA989"/>
<path fill-rule="evenodd" clip-rule="evenodd" d="M89.0208 26.6176C88.6487 26.6868 88.1394 26.6904 87.7924 26.8645C87.7184 26.9015 87.6218 27.0183 87.5454 27.0696C87.1722 27.3225 86.7476 27.524 86.4089 27.8198C86.0392 28.1418 85.6301 28.7262 85.8233 29.2331C86.4924 30.991 88.9396 30.0107 90.0548 29.3881C90.4304 29.1794 90.6762 28.8777 91.0196 28.6296C91.2761 28.4435 91.4871 28.3028 91.6744 28.0333C91.9487 27.6433 92.0047 27.3809 91.8139 26.9337C91.672 26.6009 91.3249 26.3922 90.9791 26.3123C90.677 26.2267 90.3651 26.1802 90.0512 26.174C89.307 26.2062 88.6701 26.6904 88.0488 27.0482L89.0208 26.6176Z" fill="#FFA989"/>
<path fill-rule="evenodd" clip-rule="evenodd" d="M25.0133 58.1849C23.3281 58.9756 21.835 60.2589 20.8856 61.8749C20.4656 62.5911 20.1116 63.344 19.8277 64.1242C19.6787 64.5345 19.6178 64.9662 19.458 65.3729C19.304 65.7135 19.1861 66.0692 19.1062 66.4344C18.9547 67.2966 18.548 69.0462 19.9327 69.1607C20.5528 69.2108 21.2768 69.0606 21.8815 68.9353C23.0741 68.6885 24.3168 68.2066 25.4176 67.689C26.6413 67.113 27.8792 66.4666 28.9335 65.6198C29.9282 64.8207 31.0421 64.1695 31.9426 63.2572C33.0159 62.1659 34.5759 60.3782 33.3606 58.8253C32.2133 57.3596 29.7362 57.6947 28.1309 57.8867C27.3712 57.9774 26.5268 57.9857 25.7874 58.2087C25.6027 58.2648 25.4238 58.3383 25.2531 58.4282C25.1398 58.4926 25.0419 58.619 25.0133 58.1849Z" fill="#FFA989"/>
<path fill-rule="evenodd" clip-rule="evenodd" d="M30.9822 65.4567C31.0931 65.0834 31.1313 64.9164 31.3984 64.66C31.6656 64.4036 31.9291 64.0983 32.1987 63.8251C32.6197 63.391 33.5106 62.8865 34.1332 62.8496C34.4158 62.8341 34.7962 62.8412 35.0038 63.069C35.2113 63.2968 35.123 63.7774 35.0038 64.0422C34.9067 64.2962 34.7491 64.5226 34.5446 64.7017C34.2929 64.9212 33.9948 65.236 33.7002 65.3935C33.2879 65.5933 32.8574 65.753 32.4146 65.8705C32.0711 65.9719 31.5415 66.1484 31.2219 65.8705C31.0275 65.7059 30.845 65.3231 30.9822 65.4567Z" fill="#FFA989"/>
<path fill-rule="evenodd" clip-rule="evenodd" d="M26.3174 74.3519C25.9597 74.4342 25.4314 74.4795 25.1058 74.7097C24.8276 74.9275 24.5842 75.1865 24.3842 75.4777C23.9572 76.0383 23.5911 76.6418 23.1653 77.2047C22.8153 77.6769 22.4923 78.1687 22.1981 78.6776C21.9989 79.0175 21.888 79.3359 22.0788 79.7033C22.5559 80.6204 24.0407 80.3986 24.8386 80.2065C25.6985 80.0002 26.4689 79.584 27.2739 79.231C27.9979 78.9137 28.7528 78.6406 29.4493 78.2649C30.6479 77.6161 32.1089 76.953 32.7565 75.6817C33.0094 75.1843 33.106 74.78 32.8877 74.2565C32.6813 73.7797 32.3158 73.3894 31.8537 73.1521C31.3695 72.8873 30.8423 72.947 30.3116 72.9434C29.5424 72.9398 28.7767 73.0479 28.0384 73.2642C27.5829 73.4014 27.1082 73.622 26.6681 73.8057C25.9907 74.0812 25.6424 74.6345 26.3174 74.3519Z" fill="#FFA989"/>
<path fill-rule="evenodd" clip-rule="evenodd" d="M22.0858 75.111C22.0597 74.9305 22.0653 74.7469 22.1025 74.5684C22.4222 74.4706 22.5605 74.1152 22.96 74.2368C23.251 74.3262 23.2987 74.6638 23.226 74.8939C23.0805 75.3531 21.9558 76.3084 21.9773 75.3269L22.0858 75.111Z" fill="#FFA989"/>
<path fill-rule="evenodd" clip-rule="evenodd" d="M93.1453 53.4138C92.6039 53.4369 92.0636 53.4786 91.5245 53.5391C91.3811 53.6555 91.2246 53.7547 91.0582 53.8348C90.5 54.1294 89.9932 54.3405 89.5078 54.7591C89.1166 55.0967 88.1958 55.6906 88.2495 56.3179C88.2996 56.894 89.1356 57.0049 89.5781 57.0073C90.0206 57.0096 90.4905 56.9083 90.9449 56.888C91.5746 56.8558 92.1959 56.7771 92.8221 56.7019C93.6235 56.6053 94.4763 56.4551 95.1835 56.052C95.5771 55.8321 95.921 55.5332 96.1936 55.1742C96.332 54.9989 96.5443 54.8235 96.5002 54.5779C96.4716 54.4157 96.1734 54.0901 96.0565 53.9815C95.8665 53.8303 95.6541 53.7095 95.4268 53.6238C94.3988 53.1646 93.2061 53.5271 93.1453 53.4138Z" fill="#FFA989"/>
<path fill-rule="evenodd" clip-rule="evenodd" d="M66.5656 88.1298C66.1279 88.323 65.856 88.3683 65.6604 88.7738C65.5888 88.9241 65.3539 89.2449 65.3599 89.444C65.367 89.7148 65.6425 89.7017 65.8715 89.6408C66.1673 89.5609 66.4678 89.2914 66.7147 89.1304C66.9076 89.0051 67.0792 88.8497 67.2228 88.67C67.3158 88.5579 67.3969 88.4995 67.4279 88.3456C67.4589 88.1918 67.3826 88.082 67.5221 87.9878C67.4315 87.3593 66.246 88.2264 66.023 88.2335L66.5656 88.1298Z" fill="#FFA989"/>
<path fill-rule="evenodd" clip-rule="evenodd" d="M69.603 86.9358C68.928 87.2352 68.4724 87.4677 68.1277 88.1368C68.018 88.3479 67.9154 88.5674 68.0252 88.7808C68.3758 89.4642 69.1295 88.856 69.5183 88.5626C69.7855 88.361 70.0777 88.2191 70.309 87.9663C70.4128 87.8542 70.4831 87.7277 70.5786 87.6085C70.674 87.4892 70.8326 87.3878 70.8875 87.259C70.996 87.005 70.8219 86.8118 70.5857 86.7378C70.1397 86.5983 69.8021 86.8917 69.3859 86.9334L69.603 86.9358Z" fill="#FFA989"/>
<path fill-rule="evenodd" clip-rule="evenodd" d="M34.1288 72.0675C33.9296 72.5005 33.2057 74.126 34.1645 74.1165C34.9994 74.1093 36.3685 73.2065 36.4138 72.2858C36.4437 71.6704 35.9499 71.371 35.3775 71.3055C34.6476 71.2208 34.2242 71.8004 33.9117 72.3931L34.1288 72.0675Z" fill="#FFA989"/>
<path fill-rule="evenodd" clip-rule="evenodd" d="M36.6248 58.0783C36.4376 58.3347 36.1729 58.5554 36.4364 58.8154C36.5558 58.9449 36.7163 59.0292 36.8908 59.0539C37.2569 59.1052 37.802 58.7748 37.8198 58.4063C37.8256 58.2786 37.7985 58.1515 37.7411 58.0373C37.6836 57.923 37.5978 57.8255 37.4919 57.7539C37.1949 57.5369 36.991 57.674 36.7334 57.8636L36.6248 58.0783Z" fill="#FFA989"/>
</g>
<path fill-rule="evenodd" clip-rule="evenodd" d="M46.6578 32.4526C46.6578 32.4526 51.5047 30.9618 52.5733 30.5444C53.6419 30.1269 59.0493 29.2456 59.0493 29.2456C59.0493 29.2456 63.6898 27.2527 64.9922 26.6397C66.2946 26.0267 69.6029 24.3999 69.6029 24.3999L73.4564 22.6336C73.4564 22.6336 70.8505 25.3075 68.5666 26.1829C66.2827 27.0583 60.4852 29.3899 60.4852 29.3899C60.4852 29.3899 58.7487 29.8741 56.311 30.6624C53.8732 31.4508 46.6578 32.4526 46.6578 32.4526Z" fill="#FFBD4A"/>
<path fill-rule="evenodd" clip-rule="evenodd" d="M76.8311 39.1165L79.0578 40.1898C79.0578 40.1898 81.3584 38.8207 81.7185 37.5064C81.7185 37.5052 77.3606 38.705 76.8311 39.1165Z" fill="#FFAB4A"/>
<path fill-rule="evenodd" clip-rule="evenodd" d="M64.5438 41.7277L65.6637 42.3729L66.4723 40.8666L64.5438 41.7277Z" fill="#FFAB4A"/>
<path style="mix-blend-mode:multiply" opacity="0.71" fill-rule="evenodd" clip-rule="evenodd" d="M46.6578 56.2199C46.6578 56.2199 49.2888 58.8438 55.0647 60.6196C55.0647 60.6196 55.4726 60.1974 55.9604 57.7131C56.4481 55.2289 55.9604 54.3618 55.9604 54.3618C55.9604 54.3618 48.8677 55.2575 46.6578 56.2199Z" fill="url(#paint33_linear_1107_282)"/>
<path style="mix-blend-mode:multiply" opacity="0.71" fill-rule="evenodd" clip-rule="evenodd" d="M50.5417 64.0786C50.5417 64.0786 50.6193 64.9564 50.9449 65.5598C51.2705 66.1633 54.9176 67.0733 55.4006 66.8717C56.2951 66.4972 55.2813 64.3207 54.9044 63.6695C54.616 63.2054 54.2812 62.7718 53.905 62.3755L50.5417 64.0786Z" fill="url(#paint34_linear_1107_282)"/>
<path fill-rule="evenodd" clip-rule="evenodd" d="M27.8917 79.971C27.8917 79.971 32.8268 77.767 34.3725 76.6567C35.9182 75.5463 38.2402 71.5426 38.2402 71.5426L35.756 77.7169L34.1018 78.3407L32.3379 78.7199L27.8917 79.971Z" fill="#FFAB4A"/>
<path fill-rule="evenodd" clip-rule="evenodd" d="M30.9337 67.6447L35.1306 65.2797C35.1306 65.2797 34.7347 66.6274 34.1336 66.99C33.5325 67.3525 30.9337 67.6447 30.9337 67.6447Z" fill="#FFAB4A"/>
<path fill-rule="evenodd" clip-rule="evenodd" d="M90.973 57.5587L92.8335 59.0578C92.8335 59.0578 93.2891 57.8318 93.3797 57.4406C93.4704 57.0494 90.973 57.5587 90.973 57.5587Z" fill="#FF864A"/>
<path fill-rule="evenodd" clip-rule="evenodd" d="M101.624 42.8349L104.292 41.975L106.631 41.3632C106.631 41.3632 104.018 42.7442 103.565 42.9887C103.112 43.2332 101.624 42.8349 101.624 42.8349Z" fill="#FFAB4A"/>
<path fill-rule="evenodd" clip-rule="evenodd" d="M99.5058 41.9039L100.469 41.155V42.0554L99.5058 41.9039Z" fill="#FFAB4A"/>
<path fill-rule="evenodd" clip-rule="evenodd" d="M67.3627 90.5327L70.5543 88.7198L70.1738 90.4039L67.3627 90.5327Z" fill="#FF864A"/>
<path fill-rule="evenodd" clip-rule="evenodd" d="M31.6061 38.5901C31.6061 38.5901 34.0391 38.3921 35.4667 38.3921C36.8942 38.3921 39.7149 38.67 39.7149 38.67L42.4484 38.9383C42.4484 38.9383 40.8812 39.0659 37.5717 39.1208C35.5701 39.1522 33.5707 38.9743 31.6061 38.5901Z" fill="#FFB14A"/>
<path fill-rule="evenodd" clip-rule="evenodd" d="M45.3028 53.9453C45.3028 53.9453 47.7978 51.1712 48.8807 50.7729C49.9636 50.3746 55.055 52.7002 55.9507 53.0306C56.8464 53.3609 54.2261 58.5167 53.5654 59.0558C52.9047 59.5948 45.4113 56.8637 45.3028 53.9453Z" fill="url(#paint35_linear_1107_282)"/>
<path fill-rule="evenodd" clip-rule="evenodd" d="M54.6479 65.5566C54.4153 66.2173 52.1433 65.8738 51.324 65.5566L51.2643 65.522L51.0914 65.4027C51.0736 65.3924 51.0588 65.3776 51.0485 65.3598C50.4653 64.7635 50.3329 63.1188 50.7229 62.2506C50.7229 62.2506 52.7062 61.6412 53.4361 61.8988C53.9132 62.0622 54.3819 63.281 54.587 64.2948V64.3031C54.6908 64.8434 54.7254 65.3324 54.6479 65.5566Z" fill="url(#paint36_linear_1107_282)"/>
<path style="mix-blend-mode:multiply" opacity="0.5" fill-rule="evenodd" clip-rule="evenodd" d="M51.6716 55.5059L53.5631 59.0563C53.5631 59.0563 55.9853 56.4194 56.1356 53.3842L51.6716 55.5059Z" fill="url(#paint37_linear_1107_282)"/>
<path fill-rule="evenodd" clip-rule="evenodd" d="M27.2016 44.3995L22.6171 45.5122C22.6171 45.5122 21.8693 48.1635 21.9778 49.2702L24.8199 52.2793C24.8199 52.2793 25.7037 46.885 27.2016 44.3995Z" fill="url(#paint38_linear_1107_282)"/>
<path fill-rule="evenodd" clip-rule="evenodd" d="M45.3028 53.9467C46.8893 54.6811 48.5648 55.2055 50.2868 55.5067C53.0299 55.9635 56.1308 53.385 56.1308 53.385C56.1308 53.385 53.1897 50.7612 48.9594 50.2686C48.9594 50.2686 46.1973 51.8477 45.3028 53.9467Z" fill="url(#paint39_linear_1107_282)"/>
<path style="mix-blend-mode:multiply" opacity="0.5" fill-rule="evenodd" clip-rule="evenodd" d="M54.6481 65.5566C54.4155 66.2173 52.1436 65.8738 51.3242 65.5566L51.2646 65.522L51.0916 65.4027L51.0404 65.3681L51.0487 65.3598L51.6677 64.5011L54.2104 63.8821L54.5872 64.2948V64.3031C54.691 64.8434 54.7256 65.3324 54.6481 65.5566Z" fill="url(#paint40_linear_1107_282)"/>
<path fill-rule="evenodd" clip-rule="evenodd" d="M50.7202 62.2439C50.7202 62.2439 50.6713 64.0626 51.4454 64.4264C52.2194 64.7901 53.9785 64.0579 54.2111 63.8826C54.4436 63.7072 53.6732 62.0459 53.0065 61.8324C52.3398 61.6189 50.7202 62.2439 50.7202 62.2439Z" fill="url(#paint41_linear_1107_282)"/>
<path style="mix-blend-mode:multiply" opacity="0.71" fill-rule="evenodd" clip-rule="evenodd" d="M90.2321 86.4788C90.2321 86.4788 89.3651 86.3178 88.696 86.4704C88.0269 86.6231 86.944 90.1175 86.944 90.6446C86.944 92.7079 89.3412 92.1223 90.0699 91.9303C90.7986 91.7383 90.9739 90.1771 90.9739 90.1771L90.2321 86.4788Z" fill="url(#paint42_linear_1107_282)"/>
<path fill-rule="evenodd" clip-rule="evenodd" d="M87.708 90.0398C87.1331 89.6403 88.073 87.5353 88.5965 86.8376L88.6466 86.7887L88.8076 86.6551C88.8219 86.6403 88.8401 86.6299 88.8601 86.6253C89.596 86.2234 91.2132 86.5299 91.9442 87.1417C91.9442 87.1417 92.0015 89.2169 91.5579 89.8514C91.274 90.2628 89.9728 90.3916 88.9412 90.3201H88.9328C88.3842 90.2724 87.9024 90.1746 87.708 90.0398Z" fill="url(#paint43_linear_1107_282)"/>
<path style="mix-blend-mode:multiply" opacity="0.5" fill-rule="evenodd" clip-rule="evenodd" d="M87.708 90.0386C87.1331 89.6391 88.073 87.5341 88.5965 86.8364L88.6466 86.7875L88.8076 86.6539L88.8541 86.6133L88.8601 86.6241L89.5232 87.4494L89.4397 90.0648L88.9412 90.3189H88.9328C88.3842 90.2712 87.9024 90.1734 87.708 90.0386Z" fill="url(#paint44_linear_1107_282)"/>
<path fill-rule="evenodd" clip-rule="evenodd" d="M91.9482 87.1398C91.9482 87.1398 90.2093 86.6079 89.6511 87.2591C89.093 87.9102 89.3292 89.7994 89.4365 90.0701C89.5438 90.3408 91.3447 90.0415 91.7347 89.4571C92.1247 88.8727 91.9482 87.1398 91.9482 87.1398Z" fill="url(#paint45_linear_1107_282)"/>
<path fill-rule="evenodd" clip-rule="evenodd" d="M36.1645 83.3745L40.415 83.6738L46.9888 83.3745L49.1129 84.1175L46.835 83.7919L42.4485 85.8528L42.1288 86.4479L39.722 85.7991L36.1645 83.3745Z" fill="url(#paint46_linear_1107_282)"/>
<path fill-rule="evenodd" clip-rule="evenodd" d="M36.1645 83.3745L39.722 85.5749L40.9899 85.3781L42.9016 85.2159L46.835 83.7919L42.4485 85.8528L42.1288 86.4479L39.4036 85.9482L36.1645 83.3745Z" fill="url(#paint47_linear_1107_282)"/>
<path fill-rule="evenodd" clip-rule="evenodd" d="M44.3539 32.6737L47.8102 34.7251L51.6708 34.4221L56.3125 30.657L50.3338 30.2288L46.6581 31.1758L44.3539 32.6737Z" fill="url(#paint48_linear_1107_282)"/>
<path fill-rule="evenodd" clip-rule="evenodd" d="M44.3539 32.6738H45.5L47.6158 33.1425H49.8937L52.3756 32.1645L55.0984 30.657H56.3089C56.3089 30.657 53.8449 33.1807 51.666 34.4222L47.8054 34.7251L44.3539 32.6738Z" fill="url(#paint49_linear_1107_282)"/>
<path fill-rule="evenodd" clip-rule="evenodd" d="M22.9478 81.2526L24.5841 79.7177L26.3731 79.9765C26.3731 79.9765 26.6021 81.1119 26.3731 82.004C26.1441 82.8961 24.5841 82.3391 24.5841 82.3391L22.9478 81.2526Z" fill="url(#paint50_linear_1107_282)"/>
<path fill-rule="evenodd" clip-rule="evenodd" d="M22.9478 81.2509C22.9478 81.2509 24.5949 81.7887 24.8656 81.7887C25.1363 81.7887 25.7887 81.7625 26.0582 81.5442C26.3278 81.326 26.3671 79.9747 26.3671 79.9747C26.3671 79.9747 26.5961 81.2461 26.3671 82.0022C26.3671 82.0022 26.3301 82.6522 25.1745 82.6117L24.4148 82.3815L22.9478 81.2509Z" fill="url(#paint51_linear_1107_282)"/>
<path fill-rule="evenodd" clip-rule="evenodd" d="M95.2024 56.9209C95.2024 56.9209 95.6281 55.9668 96.197 55.5578C96.7659 55.1487 98.4345 55.194 98.4345 55.194L98.6443 55.5578C98.6443 55.5578 98.0683 57.0307 97.621 57.2895C97.1738 57.5483 96.2376 57.2895 96.2376 57.2895L95.2024 56.9209Z" fill="url(#paint52_linear_1107_282)"/>
<path fill-rule="evenodd" clip-rule="evenodd" d="M98.4332 55.1966C98.4332 55.1966 97.844 56.1877 97.4373 56.4524C97.1413 56.6348 96.8301 56.7913 96.5071 56.92C96.0721 56.9832 95.6302 56.9832 95.1952 56.92C95.1952 56.92 96.1564 57.3815 96.9161 57.403C96.9161 57.403 97.7712 57.4161 97.8953 57.2837C98.0193 57.1513 98.6371 55.552 98.6371 55.552L98.4332 55.1966Z" fill="url(#paint53_linear_1107_282)"/>
<defs>
<radialGradient id="paint0_radial_1107_282" cx="0" cy="0" r="1" gradientUnits="userSpaceOnUse" gradientTransform="translate(67.2647 59.899) scale(59.899)">
<stop stop-color="#FF4000"/>
<stop offset="1"/>
</radialGradient>
<radialGradient id="paint1_radial_1107_282" cx="0" cy="0" r="1" gradientUnits="userSpaceOnUse" gradientTransform="translate(67.2631 59.897) scale(47.0448)">
<stop stop-color="#FF7300"/>
<stop offset="1"/>
</radialGradient>
<radialGradient id="paint2_radial_1107_282" cx="0" cy="0" r="1" gradientUnits="userSpaceOnUse" gradientTransform="translate(67.2644 59.8982) scale(44.8933 44.8933)">
<stop stop-color="#FF7900"/>
<stop offset="0.18" stop-color="#FC7800"/>
<stop offset="0.32" stop-color="#F37300"/>
<stop offset="0.43" stop-color="#E36C00"/>
<stop offset="0.54" stop-color="#CC6100"/>
<stop offset="0.64" stop-color="#AF5300"/>
<stop offset="0.74" stop-color="#8C4200"/>
<stop offset="0.83" stop-color="#622E00"/>
<stop offset="0.92" stop-color="#321800"/>
<stop offset="1"/>
</radialGradient>
<linearGradient id="paint3_linear_1107_282" x1="95.5778" y1="80.6866" x2="86.2675" y2="52.1553" gradientUnits="userSpaceOnUse">
<stop stop-color="#5B006F"/>
<stop offset="0.02" stop-color="#5C0270"/>
<stop offset="0.23" stop-color="#6A1A7C"/>
<stop offset="0.46" stop-color="#732C84"/>
<stop offset="0.7" stop-color="#793689"/>
<stop offset="0.99" stop-color="#7B398B"/>
</linearGradient>
<radialGradient id="paint4_radial_1107_282" cx="0" cy="0" r="1" gradientUnits="userSpaceOnUse" gradientTransform="translate(43.8972 43.6485) scale(65.3601 65.3601)">
<stop offset="0.01" stop-color="#9D4863"/>
<stop offset="0.24" stop-color="#9A4563"/>
<stop offset="0.42" stop-color="#903D61"/>
<stop offset="0.58" stop-color="#802E5F"/>
<stop offset="0.73" stop-color="#68195B"/>
<stop offset="0.87" stop-color="#4C0057"/>
<stop offset="0.98" stop-color="#4C0086"/>
</radialGradient>
<linearGradient id="paint5_linear_1107_282" x1="41.1999" y1="78.2181" x2="58.1639" y2="78.2181" gradientUnits="userSpaceOnUse">
<stop stop-color="#CA528D"/>
<stop offset="1" stop-color="#8E7090"/>
</linearGradient>
<linearGradient id="paint6_linear_1107_282" x1="83.679" y1="70.1553" x2="99.838" y2="70.1553" gradientUnits="userSpaceOnUse">
<stop stop-color="#CA528D"/>
<stop offset="1" stop-color="#8E7090"/>
</linearGradient>
<linearGradient id="paint7_linear_1107_282" x1="99.5058" y1="55.4263" x2="105.463" y2="55.4263" gradientUnits="userSpaceOnUse">
<stop stop-color="#CA528D"/>
<stop offset="1" stop-color="#8E7090"/>
</linearGradient>
<linearGradient id="paint8_linear_1107_282" x1="28.7039" y1="41.9733" x2="99.8221" y2="41.9733" gradientUnits="userSpaceOnUse">
<stop stop-color="#CA528D"/>
<stop offset="1" stop-color="#8E7090"/>
</linearGradient>
<linearGradient id="paint9_linear_1107_282" x1="28.7039" y1="31.1744" x2="95.389" y2="31.1744" gradientUnits="userSpaceOnUse">
<stop offset="0.01" stop-color="#DE6863"/>
<stop offset="0.25" stop-color="#DB6563"/>
<stop offset="0.43" stop-color="#D35B62"/>
<stop offset="0.6" stop-color="#C54B60"/>
<stop offset="0.76" stop-color="#B1335D"/>
<stop offset="0.91" stop-color="#981659"/>
<stop offset="1" stop-color="#860057"/>
</linearGradient>
<linearGradient id="paint10_linear_1107_282" x1="36.1639" y1="96.3887" x2="36.1639" y2="55.5075" gradientUnits="userSpaceOnUse">
<stop stop-color="#860057"/>
<stop offset="0.03" stop-color="#8C0757"/>
<stop offset="0.19" stop-color="#AA2456"/>
<stop offset="0.36" stop-color="#C13C55"/>
<stop offset="0.54" stop-color="#D14C54"/>
<stop offset="0.74" stop-color="#DB5654"/>
<stop offset="0.99" stop-color="#DE5954"/>
</linearGradient>
<linearGradient id="paint11_linear_1107_282" x1="64.2621" y1="92.1492" x2="76.0871" y2="92.1492" gradientUnits="userSpaceOnUse">
<stop stop-color="#CA528D"/>
<stop offset="1" stop-color="#8E7090"/>
</linearGradient>
<linearGradient id="paint12_linear_1107_282" x1="103.552" y1="53.0372" x2="103.552" y2="37.4041" gradientUnits="userSpaceOnUse">
<stop stop-color="#860057"/>
<stop offset="0.03" stop-color="#880557"/>
<stop offset="0.23" stop-color="#951C56"/>
<stop offset="0.45" stop-color="#9E2C55"/>
<stop offset="0.69" stop-color="#A33654"/>
<stop offset="0.99" stop-color="#A53954"/>
</linearGradient>
<linearGradient id="paint13_linear_1107_282" x1="92.4312" y1="70.6208" x2="92.4312" y2="51.9644" gradientUnits="userSpaceOnUse">
<stop stop-color="#860057"/>
<stop offset="0.03" stop-color="#880557"/>
<stop offset="0.23" stop-color="#951C56"/>
<stop offset="0.45" stop-color="#9E2C55"/>
<stop offset="0.69" stop-color="#A33654"/>
<stop offset="0.99" stop-color="#A53954"/>
</linearGradient>
<linearGradient id="paint14_linear_1107_282" x1="56.5736" y1="33.5466" x2="56.5736" y2="14.5909" gradientUnits="userSpaceOnUse">
<stop stop-color="#F49F57"/>
<stop offset="0.1" stop-color="#F79656"/>
<stop offset="0.35" stop-color="#FB8655"/>
<stop offset="0.63" stop-color="#FE7C54"/>
<stop offset="0.99" stop-color="#FF7954"/>
</linearGradient>
<linearGradient id="paint15_linear_1107_282" x1="74.6751" y1="41.7267" x2="74.6751" y2="23.1764" gradientUnits="userSpaceOnUse">
<stop stop-color="#F47D57"/>
<stop offset="0.4" stop-color="#FC7A55"/>
<stop offset="0.99" stop-color="#FF7954"/>
</linearGradient>
<linearGradient id="paint16_linear_1107_282" x1="28.7039" y1="37.5046" x2="46.0615" y2="37.5046" gradientUnits="userSpaceOnUse">
<stop stop-color="#F49F57"/>
<stop offset="0.1" stop-color="#F79656"/>
<stop offset="0.35" stop-color="#FB8655"/>
<stop offset="0.63" stop-color="#FE7C54"/>
<stop offset="0.99" stop-color="#FF7954"/>
</linearGradient>
<linearGradient id="paint17_linear_1107_282" x1="86.3077" y1="54.7942" x2="100.455" y2="54.7942" gradientUnits="userSpaceOnUse">
<stop offset="0.01" stop-color="#C75357"/>
<stop offset="0.13" stop-color="#D35856"/>
<stop offset="0.37" stop-color="#E35F55"/>
<stop offset="0.65" stop-color="#ED6454"/>
<stop offset="0.99" stop-color="#F06554"/>
</linearGradient>
<linearGradient id="paint18_linear_1107_282" x1="18.7937" y1="62.9993" x2="41.195" y2="62.9993" gradientUnits="userSpaceOnUse">
<stop stop-color="#F49F57"/>
<stop offset="0.1" stop-color="#F79656"/>
<stop offset="0.35" stop-color="#FB8655"/>
<stop offset="0.63" stop-color="#FE7C54"/>
<stop offset="0.99" stop-color="#FF7954"/>
</linearGradient>
<linearGradient id="paint19_linear_1107_282" x1="21.1059" y1="74.8967" x2="39.723" y2="74.8967" gradientUnits="userSpaceOnUse">
<stop stop-color="#F49F57"/>
<stop offset="0.1" stop-color="#F79656"/>
<stop offset="0.35" stop-color="#FB8655"/>
<stop offset="0.63" stop-color="#FE7C54"/>
<stop offset="0.99" stop-color="#FF7954"/>
</linearGradient>
<linearGradient id="paint20_linear_1107_282" x1="69.264" y1="94.6718" x2="69.264" y2="85.6053" gradientUnits="userSpaceOnUse">
<stop stop-color="#860057"/>
<stop offset="0.03" stop-color="#880557"/>
<stop offset="0.23" stop-color="#951C56"/>
<stop offset="0.45" stop-color="#9E2C55"/>
<stop offset="0.69" stop-color="#A33654"/>
<stop offset="0.99" stop-color="#A53954"/>
</linearGradient>
<linearGradient id="paint21_linear_1107_282" x1="63.853" y1="88.1092" x2="72.6415" y2="88.1092" gradientUnits="userSpaceOnUse">
<stop offset="0.01" stop-color="#C75357"/>
<stop offset="0.26" stop-color="#D15149"/>
<stop offset="0.58" stop-color="#D94F3F"/>
<stop offset="0.99" stop-color="#DB4F3C"/>
</linearGradient>
<linearGradient id="paint22_linear_1107_282" x1="33.8462" y1="76.6542" x2="53.4365" y2="76.6542" gradientUnits="userSpaceOnUse">
<stop stop-color="#CA528D"/>
<stop offset="1" stop-color="#8E7090"/>
</linearGradient>
<linearGradient id="paint23_linear_1107_282" x1="69.534" y1="90.558" x2="74.6755" y2="90.558" gradientUnits="userSpaceOnUse">
<stop stop-color="#CA528D"/>
<stop offset="1" stop-color="#8E7090"/>
</linearGradient>
<linearGradient id="paint24_linear_1107_282" x1="92.4328" y1="62.6064" x2="101.227" y2="62.6064" gradientUnits="userSpaceOnUse">
<stop stop-color="#CA528D"/>
<stop offset="1" stop-color="#8E7090"/>
</linearGradient>
<linearGradient id="paint25_linear_1107_282" x1="100.195" y1="40.1904" x2="103.565" y2="40.1904" gradientUnits="userSpaceOnUse">
<stop stop-color="#CA528D"/>
<stop offset="1" stop-color="#8E7090"/>
</linearGradient>
<linearGradient id="paint26_linear_1107_282" x1="99.5065" y1="46.0073" x2="110.14" y2="46.0073" gradientUnits="userSpaceOnUse">
<stop stop-color="#CA528D"/>
<stop offset="1" stop-color="#8E7090"/>
</linearGradient>
<linearGradient id="paint27_linear_1107_282" x1="96.8718" y1="40.6286" x2="102.988" y2="39.5172" gradientUnits="userSpaceOnUse">
<stop stop-color="#F47D57"/>
<stop offset="0.4" stop-color="#FC7A55"/>
<stop offset="0.99" stop-color="#FF7954"/>
</linearGradient>
<linearGradient id="paint28_linear_1107_282" x1="100.072" y1="40.8636" x2="109.835" y2="39.0894" gradientUnits="userSpaceOnUse">
<stop stop-color="#F47D57"/>
<stop offset="0.4" stop-color="#FC7A55"/>
<stop offset="0.99" stop-color="#FF7954"/>
</linearGradient>
<linearGradient id="paint29_linear_1107_282" x1="56.5744" y1="27.3868" x2="85.8238" y2="27.3868" gradientUnits="userSpaceOnUse">
<stop stop-color="#CA528D"/>
<stop offset="1" stop-color="#8E7090"/>
</linearGradient>
<linearGradient id="paint30_linear_1107_282" x1="65.5894" y1="42.5703" x2="72.9837" y2="42.5703" gradientUnits="userSpaceOnUse">
<stop stop-color="#CA528D"/>
<stop offset="1" stop-color="#8E7090"/>
</linearGradient>
<linearGradient id="paint31_linear_1107_282" x1="78.4996" y1="36.3817" x2="95.3886" y2="36.3817" gradientUnits="userSpaceOnUse">
<stop stop-color="#CA528D"/>
<stop offset="1" stop-color="#8E7090"/>
</linearGradient>
<linearGradient id="paint32_linear_1107_282" x1="31.8364" y1="42.7339" x2="44.3543" y2="42.7339" gradientUnits="userSpaceOnUse">
<stop stop-color="#CA528D"/>
<stop offset="1" stop-color="#8E7090"/>
</linearGradient>
<linearGradient id="paint33_linear_1107_282" x1="46.6578" y1="57.4901" x2="56.1774" y2="57.4901" gradientUnits="userSpaceOnUse">
<stop stop-color="#CA528D"/>
<stop offset="1" stop-color="#8E7090"/>
</linearGradient>
<linearGradient id="paint34_linear_1107_282" x1="50.5417" y1="64.6367" x2="55.7596" y2="64.6367" gradientUnits="userSpaceOnUse">
<stop stop-color="#CA528D"/>
<stop offset="1" stop-color="#8E7090"/>
</linearGradient>
<linearGradient id="paint35_linear_1107_282" x1="50.7198" y1="59.1249" x2="50.7198" y2="50.7276" gradientUnits="userSpaceOnUse">
<stop stop-color="#A20057"/>
<stop offset="0.28" stop-color="#BA2456"/>
<stop offset="0.57" stop-color="#CE4155"/>
<stop offset="0.82" stop-color="#DA5354"/>
<stop offset="0.99" stop-color="#DE5954"/>
</linearGradient>
<linearGradient id="paint36_linear_1107_282" x1="52.5941" y1="65.9347" x2="52.5941" y2="61.8344" gradientUnits="userSpaceOnUse">
<stop stop-color="#A20057"/>
<stop offset="0.28" stop-color="#BA2456"/>
<stop offset="0.57" stop-color="#CE4155"/>
<stop offset="0.82" stop-color="#DA5354"/>
<stop offset="0.99" stop-color="#DE5954"/>
</linearGradient>
<linearGradient id="paint37_linear_1107_282" x1="51.6716" y1="56.2202" x2="56.1356" y2="56.2202" gradientUnits="userSpaceOnUse">
<stop stop-color="#CA528D"/>
<stop offset="1" stop-color="#8E7090"/>
</linearGradient>
<linearGradient id="paint38_linear_1107_282" x1="24.585" y1="52.2793" x2="24.585" y2="44.3995" gradientUnits="userSpaceOnUse">
<stop stop-color="#A20057"/>
<stop offset="0.28" stop-color="#BA2456"/>
<stop offset="0.57" stop-color="#CE4155"/>
<stop offset="0.82" stop-color="#DA5354"/>
<stop offset="0.99" stop-color="#DE5954"/>
</linearGradient>
<linearGradient id="paint39_linear_1107_282" x1="50.7186" y1="55.5604" x2="50.7186" y2="50.2686" gradientUnits="userSpaceOnUse">
<stop stop-color="#F49F57"/>
<stop offset="0.1" stop-color="#F79656"/>
<stop offset="0.35" stop-color="#FB8655"/>
<stop offset="0.63" stop-color="#FE7C54"/>
<stop offset="0.99" stop-color="#FF7954"/>
</linearGradient>
<linearGradient id="paint40_linear_1107_282" x1="51.0404" y1="64.9078" x2="54.6898" y2="64.9078" gradientUnits="userSpaceOnUse">
<stop stop-color="#CA528D"/>
<stop offset="1" stop-color="#8E7090"/>
</linearGradient>
<linearGradient id="paint41_linear_1107_282" x1="52.4865" y1="64.5266" x2="52.4865" y2="61.7871" gradientUnits="userSpaceOnUse">
<stop stop-color="#F47D57"/>
<stop offset="0.4" stop-color="#FC7A55"/>
<stop offset="0.99" stop-color="#FF7954"/>
</linearGradient>
<linearGradient id="paint42_linear_1107_282" x1="90.0838" y1="86.433" x2="88.4797" y2="92.2172" gradientUnits="userSpaceOnUse">
<stop stop-color="#CA528D"/>
<stop offset="1" stop-color="#8E7090"/>
</linearGradient>
<linearGradient id="paint43_linear_1107_282" x1="87.919" y1="87.9626" x2="91.8701" y2="89.0583" gradientUnits="userSpaceOnUse">
<stop stop-color="#A20057"/>
<stop offset="0.28" stop-color="#BA2456"/>
<stop offset="0.57" stop-color="#CE4155"/>
<stop offset="0.82" stop-color="#DA5354"/>
<stop offset="0.99" stop-color="#DE5954"/>
</linearGradient>
<linearGradient id="paint44_linear_1107_282" x1="89.3235" y1="86.7394" x2="88.3482" y2="90.2562" gradientUnits="userSpaceOnUse">
<stop stop-color="#CA528D"/>
<stop offset="1" stop-color="#8E7090"/>
</linearGradient>
<linearGradient id="paint45_linear_1107_282" x1="89.303" y1="88.2342" x2="91.9428" y2="88.9663" gradientUnits="userSpaceOnUse">
<stop stop-color="#F47D57"/>
<stop offset="0.4" stop-color="#FC7A55"/>
<stop offset="0.99" stop-color="#FF7954"/>
</linearGradient>
<linearGradient id="paint46_linear_1107_282" x1="36.1633" y1="84.9118" x2="49.1129" y2="84.9118" gradientUnits="userSpaceOnUse">
<stop stop-color="#860057"/>
<stop offset="0.21" stop-color="#8A0A4D"/>
<stop offset="0.55" stop-color="#8E1343"/>
<stop offset="0.99" stop-color="#8F1640"/>
</linearGradient>
<linearGradient id="paint47_linear_1107_282" x1="36.1633" y1="84.9118" x2="46.835" y2="84.9118" gradientUnits="userSpaceOnUse">
<stop stop-color="#F49F57"/>
<stop offset="0.1" stop-color="#F79656"/>
<stop offset="0.35" stop-color="#FB8655"/>
<stop offset="0.63" stop-color="#FE7C54"/>
<stop offset="0.99" stop-color="#FF7954"/>
</linearGradient>
<linearGradient id="paint48_linear_1107_282" x1="50.3338" y1="34.7251" x2="50.3338" y2="30.2288" gradientUnits="userSpaceOnUse">
<stop stop-color="#860057"/>
<stop offset="0.03" stop-color="#880557"/>
<stop offset="0.23" stop-color="#951C56"/>
<stop offset="0.45" stop-color="#9E2C55"/>
<stop offset="0.69" stop-color="#A33654"/>
<stop offset="0.99" stop-color="#A53954"/>
</linearGradient>
<linearGradient id="paint49_linear_1107_282" x1="44.3539" y1="32.6905" x2="56.3137" y2="32.6905" gradientUnits="userSpaceOnUse">
<stop stop-color="#F49F57"/>
<stop offset="0.1" stop-color="#F79656"/>
<stop offset="0.35" stop-color="#FB8655"/>
<stop offset="0.63" stop-color="#FE7C54"/>
<stop offset="0.99" stop-color="#FF7954"/>
</linearGradient>
<linearGradient id="paint50_linear_1107_282" x1="24.7082" y1="82.5097" x2="24.7082" y2="79.7117" gradientUnits="userSpaceOnUse">
<stop stop-color="#860057"/>
<stop offset="0.03" stop-color="#880557"/>
<stop offset="0.23" stop-color="#951C56"/>
<stop offset="0.45" stop-color="#9E2C55"/>
<stop offset="0.69" stop-color="#A33654"/>
<stop offset="0.99" stop-color="#A53954"/>
</linearGradient>
<linearGradient id="paint51_linear_1107_282" x1="22.9478" y1="81.2902" x2="26.4697" y2="81.2902" gradientUnits="userSpaceOnUse">
<stop stop-color="#F49F57"/>
<stop offset="0.1" stop-color="#F79656"/>
<stop offset="0.35" stop-color="#FB8655"/>
<stop offset="0.63" stop-color="#FE7C54"/>
<stop offset="0.99" stop-color="#FF7954"/>
</linearGradient>
<linearGradient id="paint52_linear_1107_282" x1="95.2024" y1="56.2996" x2="98.6443" y2="56.2996" gradientUnits="userSpaceOnUse">
<stop stop-color="#860057"/>
<stop offset="0.21" stop-color="#8A0A4D"/>
<stop offset="0.55" stop-color="#8E1343"/>
<stop offset="0.99" stop-color="#8F1640"/>
</linearGradient>
<linearGradient id="paint53_linear_1107_282" x1="95.2012" y1="56.3022" x2="98.6431" y2="56.3022" gradientUnits="userSpaceOnUse">
<stop offset="0.01" stop-color="#C75357"/>
<stop offset="0.13" stop-color="#D35856"/>
<stop offset="0.37" stop-color="#E35F55"/>
<stop offset="0.65" stop-color="#ED6454"/>
<stop offset="0.99" stop-color="#F06554"/>
</linearGradient>
</defs>
</svg>
