<svg width="108" height="108" viewBox="0 0 108 108" fill="none" xmlns="http://www.w3.org/2000/svg">
<path style="mix-blend-mode:screen" d="M81 81C95.9117 66.0883 95.9117 41.9117 81 27C66.0883 12.0883 41.9117 12.0883 27 27C12.0883 41.9117 12.0883 66.0883 27 81C41.9117 95.9117 66.0883 95.9117 81 81Z" fill="url(#paint0_radial_1107_114)"/>
<path style="mix-blend-mode:screen" d="M76.5992 76.5995C89.0806 64.1181 89.0806 43.8819 76.5992 31.4005C64.1179 18.9192 43.8816 18.9192 31.4003 31.4005C18.9189 43.8819 18.9189 64.1181 31.4003 76.5995C43.8816 89.0808 64.1179 89.0808 76.5992 76.5995Z" fill="url(#paint1_radial_1107_114)"/>
<path style="mix-blend-mode:screen" d="M77 77.0003C89.7027 64.2976 89.7027 43.7024 77 30.9997C64.2973 18.2971 43.7022 18.2971 30.9995 30.9997C18.2968 43.7024 18.2968 64.2976 30.9995 77.0003C43.7022 89.7029 64.2973 89.703 77 77.0003Z" fill="url(#paint2_radial_1107_114)"/>
<path fill-rule="evenodd" clip-rule="evenodd" d="M30.7394 39.2144C30.7394 39.2144 31.0758 36.3093 31.2965 34.7133C32.7584 32.7884 34.4925 31.0864 36.4445 29.6607L40.6577 29.8807C40.6577 29.8807 32.1592 36.6942 30.7394 39.2144Z" fill="url(#paint3_linear_1107_114)"/>
<path fill-rule="evenodd" clip-rule="evenodd" d="M36.4404 29.6607C36.4404 29.6607 36.4404 31.9982 34.3075 33.8449C32.1746 35.6916 31.2472 35.0431 31.2472 35.0431L30.7394 38.7664L40.6537 29.8815L36.4404 29.6607Z" fill="url(#paint4_linear_1107_114)"/>
<path fill-rule="evenodd" clip-rule="evenodd" d="M81.6042 54.0137C81.6074 57.6372 80.8959 61.2256 79.5106 64.5738C78.1253 67.9219 76.0933 70.964 73.5309 73.5259C70.9684 76.0878 67.9259 78.1192 64.5775 79.5038C61.2291 80.8885 57.6404 81.5992 54.017 81.5952C53.5319 81.5952 53.033 81.5839 52.5503 81.554H52.5439C51.8219 81.5192 51.1063 81.4497 50.4013 81.3624C45.2082 80.683 40.3186 78.5301 36.311 75.1585C33.726 72.9839 31.5545 70.3608 29.9009 67.4152C29.7319 67.112 29.5686 66.8031 29.4053 66.4951C29.4053 66.4829 29.3996 66.4773 29.394 66.466C29.225 66.1336 29.0705 65.8021 28.9169 65.4642H28.9105C28.4278 64.4056 28.0156 63.3163 27.6767 62.2034C27.4186 61.3923 27.2027 60.5683 27.0298 59.7349C27.0253 59.728 27.0233 59.7197 27.0242 59.7115C26.9021 59.1237 26.797 58.5294 26.7153 57.9327C26.5283 56.6367 26.4351 55.3288 26.4364 54.0194C26.4364 53.2569 26.4655 52.4945 26.535 51.749C26.5698 51.2712 26.6223 50.7998 26.6862 50.3284C27.0355 47.6652 27.7794 45.0688 28.8935 42.6247C31.0856 37.7993 34.6201 33.7067 39.075 30.8354C43.5299 27.9642 48.717 26.4356 54.017 26.4323C54.3081 26.4323 54.5992 26.4387 54.8846 26.4444C55.1935 26.4557 55.5023 26.4678 55.8104 26.4913C57.3704 26.5915 58.919 26.8252 60.4392 27.1898C61.3132 27.3993 62.1687 27.6434 63.0071 27.9353C63.5779 28.1269 64.139 28.3396 64.6897 28.5757C65.1036 28.7503 65.5055 28.9306 65.9065 29.123C65.9768 29.1578 66.0464 29.1869 66.1167 29.2217C68.7791 30.5242 71.2148 32.2462 73.3305 34.3219C73.6337 34.613 73.9247 34.9162 74.2158 35.225C74.4074 35.4345 74.5999 35.6495 74.7858 35.8654C75.1092 36.226 75.4149 36.6044 75.7181 36.9828C78.1268 40.0466 79.8572 43.5872 80.7948 47.37C81.3343 49.5434 81.6061 51.7745 81.6042 54.0137Z" fill="url(#paint5_radial_1107_114)"/>
<path fill-rule="evenodd" clip-rule="evenodd" d="M66.1146 29.2199C66.024 29.2296 65.9327 29.2393 65.8421 29.2579C65.5545 29.3109 65.2583 29.2911 64.9802 29.2005C64.7603 29.1383 64.6026 29.0477 64.3682 29.0097C64.0334 28.9571 63.7213 28.8132 63.3874 28.7671C63.0333 28.7194 62.7268 28.5804 62.3921 28.4607C62.1285 28.3653 61.9879 28.3984 61.7364 28.4607C61.4849 28.523 61.3063 28.4227 61.0807 28.3265C60.8276 28.2165 60.5737 28.1979 60.3061 28.1446C59.6075 28.0015 58.9138 27.7767 58.2201 27.5996C57.7891 27.4897 57.3921 27.4897 56.9515 27.4848C56.6071 27.48 56.2966 27.5802 55.9513 27.5802C55.7315 27.573 55.5126 27.549 55.2964 27.5083C55.062 27.4654 54.8226 27.5131 54.5882 27.48C54.2389 27.4274 54.0521 27.3748 53.6988 27.4848C53.436 27.5705 53.2298 27.5608 52.9711 27.5754C52.6638 27.6032 52.3595 27.6573 52.0615 27.7371C51.5342 27.8698 50.993 27.9388 50.4493 27.9424C50.1259 27.9424 49.6456 27.8519 49.3343 27.9618C49.1338 28.033 49.0327 28.2489 48.8945 28.392C48.626 28.6693 48.2962 28.9183 48.0714 29.2296C47.8466 29.5409 47.5927 29.8611 47.6121 30.2532C47.6307 30.5936 47.7892 30.9906 47.9355 31.3043C48.0892 31.635 48.1417 31.9358 47.8013 32.1565C47.3692 32.4518 46.8952 32.6808 46.3953 32.8357C46.0719 32.9311 45.7776 32.9885 45.5059 32.7548C45.4056 32.6691 45.3442 32.5018 45.2189 32.4314C45.0936 32.3611 44.9553 32.4314 44.8146 32.4743C44.4773 32.5859 44.1336 32.6772 43.7854 32.7475C43.5703 32.7807 43.3811 32.8955 43.1733 32.9335C42.9194 32.9812 42.7375 32.7953 42.4747 32.8575C42.106 32.9432 41.7373 33.096 41.3549 33.1154C41.0824 33.13 40.738 33.0103 40.5084 32.8729C40.3742 32.7969 40.3402 32.7201 40.185 32.7629C40.0356 32.8181 39.9047 32.9142 39.8074 33.0402C39.716 33.1696 39.6828 33.337 39.5915 33.4712C39.4961 33.62 39.4055 33.7631 39.319 33.9207C39.1605 34.2237 38.978 34.5136 38.7733 34.7875C38.6301 34.9783 38.5307 35.237 38.369 35.4141C38.2881 35.5095 38.1111 35.5758 38.0052 35.6486C37.7181 35.8491 37.4173 36.031 37.1392 36.2461C36.6039 36.6673 36.0962 37.1314 35.5512 37.5397C35.1349 37.851 34.5511 38.0329 34.0773 38.2286C33.7806 38.3483 33.4741 38.4348 33.1774 38.5593C33.082 38.5973 32.9049 38.6401 32.8233 38.7121C32.7181 38.8035 32.6616 38.9708 32.5653 39.0953C32.3066 39.4107 32.0341 39.7268 31.8377 40.0906C31.7269 40.2995 31.6373 40.5189 31.57 40.7456C31.4649 41.0568 31.2976 41.3439 31.1916 41.6552C30.9766 42.302 30.9337 42.9852 30.6944 43.6312C30.5553 44.0088 30.3548 44.3532 30.1826 44.6977C29.8859 45.2814 29.843 45.9751 29.7565 46.6212C29.712 47.015 29.7248 47.4131 29.7945 47.8032C29.8665 48.2002 29.8478 48.6118 29.843 49.016C29.8381 49.447 29.5649 49.8682 29.2924 50.1933C29.0434 50.4948 28.6658 50.6097 28.3884 50.8773C28.154 51.1069 27.871 51.3705 27.7707 51.6955C27.7279 51.8394 27.7659 52.0019 27.7424 52.1548C27.6802 52.4952 27.5937 52.8153 27.546 53.1598C27.4989 53.5777 27.4781 53.9981 27.4837 54.4187C27.4837 54.6337 27.4691 54.8536 27.4788 55.0655C27.4886 55.2773 27.5654 55.4625 27.5791 55.6686C27.5888 55.8126 27.5605 55.9557 27.5791 56.0996C27.6082 56.2613 27.6705 56.4295 27.7085 56.5847C27.8047 56.968 27.8758 57.3407 27.951 57.7239C28.0181 58.0781 28.1572 58.4274 28.2672 58.775C28.4131 59.247 28.5282 59.7281 28.6116 60.215C28.6836 60.5789 28.6787 60.9565 28.7313 61.3251C28.7741 61.6219 28.8412 61.9235 28.8558 62.2202C28.8695 62.6697 28.7596 63.1193 28.7547 63.5737C28.7499 64.3394 29.0563 65.105 29.2334 65.8376C29.2859 66.0437 29.3385 66.254 29.3951 66.4601C27.271 62.254 26.2596 57.5739 26.457 52.866C26.6545 48.1581 28.0544 43.5792 30.5233 39.5657C32.9921 35.5522 36.4477 32.2379 40.5607 29.9385C44.6736 27.6392 49.3069 26.4315 54.0189 26.4305C54.6213 26.4305 55.2148 26.4499 55.8082 26.4879C59.3897 26.7132 62.8918 27.6416 66.1146 29.2199Z" fill="url(#paint6_linear_1107_114)"/>
<path style="mix-blend-mode:multiply" fill-rule="evenodd" clip-rule="evenodd" d="M55.7777 66.9774C55.7777 66.9774 58.3529 70.7775 61.7609 73.8637C65.1689 76.9498 65.6685 79.0197 65.6685 79.0197C65.6685 79.0197 72.1101 76.3256 76.7066 69.9463C81.3031 63.567 55.7777 66.9774 55.7777 66.9774Z" fill="url(#paint7_linear_1107_114)"/>
<path style="mix-blend-mode:screen" fill-rule="evenodd" clip-rule="evenodd" d="M37.6605 75.5576C34.7922 73.1567 32.4403 70.1994 30.7467 66.8643C29.666 64.7334 28.8697 62.4698 28.3785 60.1316C28.3742 60.1246 28.3725 60.1163 28.3737 60.1082C27.9825 58.2352 27.7852 56.327 27.785 54.4137C27.7853 47.098 30.6915 40.0821 35.8644 34.9091C41.0374 29.7362 48.0533 26.83 55.369 26.8297C55.9721 26.8297 56.5656 26.8492 57.1582 26.8872C58.9965 27.0051 60.8181 27.308 62.5956 27.7911C60.3972 27.0713 58.1166 26.6328 55.808 26.4861C55.2145 26.4481 54.6211 26.4287 54.0187 26.4287C50.3958 26.4269 46.808 27.1391 43.4605 28.5247C40.113 29.9103 37.0715 31.942 34.5096 34.5038C31.9478 37.0655 29.916 40.1071 28.5303 43.4545C27.1446 46.802 26.4323 50.3897 26.434 54.0126C26.4346 55.9259 26.6318 57.8341 27.0226 59.7071C27.0214 59.7153 27.0231 59.7236 27.0275 59.7306C27.5189 62.0687 28.3151 64.3323 29.3956 66.4632C31.1476 69.9122 33.6027 72.9558 36.6027 75.398C39.6028 77.8402 43.0812 79.6267 46.8139 80.6425C43.4653 79.5493 40.3578 77.8231 37.6605 75.5576Z" fill="url(#paint8_radial_1107_114)"/>
<path style="mix-blend-mode:multiply" opacity="0.4" fill-rule="evenodd" clip-rule="evenodd" d="M60.4386 27.1865C58.9184 26.8219 57.3698 26.5882 55.8097 26.4879C55.5017 26.4645 55.1928 26.4524 54.884 26.441C55.5421 26.8081 56.1533 27.4541 56.3045 28.1179C56.5552 29.2499 56.9223 30.3074 57.1317 31.4426C57.3411 32.5608 57.3007 33.9491 56.7937 34.9589C56.4842 35.5893 56.0777 36.1671 55.589 36.6714C55.2276 37.0377 54.9195 37.2414 54.6632 37.6958C54.4069 38.1502 54.1619 38.569 53.8709 38.9895C53.4399 39.6185 52.9863 40.288 52.4915 40.8645C52.3169 41.0739 52.1244 41.2194 51.9668 41.4636C51.7695 41.7668 51.6757 42.0522 51.4606 42.2907C50.9658 42.8437 50.1969 43.1526 49.5161 43.4024C48.6683 43.7292 47.8433 44.1125 47.0468 44.5497C45.8769 45.1667 44.9164 45.959 43.5475 45.9938C43.0939 46.0051 42.6217 45.9412 42.1682 45.9825C41.6022 46.0286 41.0791 46.3059 40.5204 46.4069C40.0352 46.4999 39.542 46.5994 39.0529 46.681C38.2492 46.8031 37.5854 47.0764 36.8108 47.2632C35.8042 47.5138 34.7499 47.4491 33.7384 47.5866C32.8248 47.7087 32.0324 47.8195 31.1244 47.5987C29.7208 47.2486 28.9697 46.5848 29.2648 45.0923C29.4621 44.1139 29.3925 43.3685 28.892 42.6174C27.778 45.0615 27.0341 47.6578 26.6848 50.3211C27.3279 50.5779 28.0045 50.7412 28.6939 50.8062C30.7379 51.0164 32.9388 50.1019 34.8073 49.4034C35.7622 49.042 36.7348 48.518 37.7657 48.4016C38.8483 48.2852 39.8032 48.4194 40.8858 48.1518C44.618 47.2317 48.2985 45.9275 51.6288 43.9539C53.009 43.1381 53.6202 41.9738 54.5808 40.7917C55.4249 39.7616 56.3741 38.9054 57.3815 38.0427C58.3712 37.1986 59.2411 36.3601 59.8322 35.178C60.4556 33.9321 60.9852 32.5641 61.2706 31.1952C61.5746 29.7544 61.2018 28.3621 60.4386 27.1865ZM60.251 30.9341C60.1928 31.2429 60.1524 31.5752 60.0586 31.8663C59.8201 32.6053 59.3778 33.3685 58.6841 33.7583C58.5265 33.8451 58.3415 33.8674 58.1678 33.8207C57.9941 33.774 57.8453 33.6617 57.7526 33.5076C57.6532 33.333 57.6532 33.1122 57.6184 32.9198C57.5438 32.5441 57.5067 32.162 57.5076 31.779C57.5204 30.8519 57.4834 29.9248 57.3969 29.0017C57.4963 29.5313 57.3742 28.215 58.2005 27.8544C58.5911 27.6797 59.1789 27.8366 59.4756 28.1398C59.8483 28.5182 59.9357 29.1585 60.0756 29.6533C60.2001 30.0972 60.3318 30.47 60.251 30.9341Z" fill="url(#paint9_linear_1107_114)"/>
<path style="mix-blend-mode:multiply" opacity="0.4" fill-rule="evenodd" clip-rule="evenodd" d="M56.2596 74.971C56.1788 74.9823 56.1019 75.0001 56.0268 75.0057L56.5741 75.0583C56.5038 75.0405 56.3874 74.9984 56.2596 74.971ZM56.2596 74.971C56.1788 74.9823 56.1019 75.0001 56.0268 75.0057L56.5741 75.0583C56.5038 75.0405 56.3874 74.9984 56.2596 74.971ZM80.7954 47.366C80.784 48.088 80.5803 48.8044 80.5625 49.5321C80.5455 50.5023 80.3822 51.2502 80.1316 52.1816C79.9569 52.822 79.6311 53.2934 79.4152 53.9111C79.1726 54.621 78.8217 55.2266 78.4603 55.8791C77.7448 57.1832 77.0284 58.4874 76.7195 59.9662C76.4406 61.2995 76.3824 62.4233 75.7186 63.6458C75.0839 64.8223 74.1233 65.8006 73.4417 66.9414C73.1183 67.4888 72.9 67.4597 72.4165 67.8033C71.8756 68.1874 71.3808 68.793 70.8569 69.2182C69.7249 70.1206 68.6965 70.7439 67.3284 71.2557C66.4914 71.5895 65.6206 71.8315 64.7314 71.9778C64.1371 72.0716 63.555 71.9778 62.9672 72.0772C62.0358 72.2284 61.1504 72.5082 60.2538 72.7992C58.7806 73.2763 57.2784 73.5504 55.8109 74.0039C54.7865 74.3185 53.7847 74.5052 52.7385 74.726C52.1038 74.8602 51.592 75.2038 50.9338 75.0696C50.2757 74.9354 49.6644 74.709 49.0119 74.5036C48.1799 74.2473 47.4927 74.2295 46.596 74.2295C45.4026 74.2295 44.0168 74.4106 42.8404 74.1834C41.5128 73.9271 40.1908 73.5722 38.864 73.2941C38.0603 73.1251 37.4491 72.7936 36.7149 72.4499C36.0285 72.1265 35.2887 72.0368 34.5723 71.8096C33.8155 71.567 33.0879 71.2153 32.3133 71.0237C33.4952 72.5407 34.8355 73.9274 36.3115 75.1602C40.3187 78.533 45.2084 80.687 50.4018 81.3673C51.1068 81.4546 51.8224 81.5241 52.5444 81.5589H52.5509C54.1113 81.2039 55.6362 80.7439 57.2088 80.2612C59.8228 79.4454 62.0819 77.8679 64.6967 77.099C65.643 76.8282 66.5644 76.4765 67.4505 76.0479C68.12 75.7156 68.8299 75.6283 69.5058 75.3372C71.9314 74.3071 73.7619 71.9487 74.8421 69.6371C75.3313 68.586 75.8035 67.4015 76.6823 66.6156C77.0438 66.2922 77.4739 66.0043 77.7884 65.6372C78.1442 65.233 78.3827 64.7349 78.6972 64.2983C79.2502 63.5181 79.7855 62.7322 80.3393 61.9455C80.4087 61.8553 80.4708 61.7599 80.5253 61.6601C81.864 57.0029 81.9563 52.0758 80.7929 47.3717L80.7954 47.366ZM55.4883 75.169C55.5877 75.1052 55.7502 74.971 55.8554 74.9418C55.9605 74.9127 56.1173 74.9362 56.2596 74.971C56.4634 74.9418 56.6639 74.9184 56.8595 75.0001C56.9695 75.0526 57.183 75.1513 57.2258 75.2798C57.2687 75.4084 57.2088 75.4771 57.1272 75.5588C57.0221 75.6639 56.9404 75.6639 56.7949 75.693C56.4958 75.7636 56.1881 75.7909 55.8812 75.7738C55.6944 75.756 55.4155 75.7447 55.2991 75.5701C55.1826 75.3954 55.3508 75.262 55.4907 75.169H55.4883ZM57.2994 78.767C57.141 78.9912 56.953 79.193 56.7407 79.3669C56.5305 79.5287 56.2976 79.6289 56.0704 79.7567C55.5117 80.0712 54.9385 80.4091 54.3062 80.5725C54.0564 80.6363 53.8057 80.6242 53.5438 80.642C53.2292 80.6711 52.9204 80.6768 52.6067 80.6824C52.2339 80.6889 51.8725 80.7633 51.4998 80.7875C51.127 80.8118 50.7608 80.8166 50.388 80.8401C49.793 80.8748 49.1974 80.7813 48.6416 80.566C48.102 80.3763 47.5865 80.1243 47.1054 79.8149C46.7739 79.5941 46.4885 79.2796 46.2031 78.9999C45.9353 78.7611 45.7193 78.4699 45.5684 78.1444C45.5166 78.0215 45.4576 77.8938 45.4875 77.7596C45.4997 77.6957 45.5288 77.6432 45.5288 77.6262C45.6226 77.5469 45.7264 77.4803 45.8376 77.4281C46.0381 77.346 46.25 77.295 46.4659 77.2769C46.9728 77.2065 47.5259 77.2939 48.032 77.3351C48.3204 77.3677 48.6117 77.3656 48.8995 77.3286C49.297 77.2571 49.6899 77.1618 50.0759 77.0432C50.9957 76.7867 51.934 76.6018 52.8824 76.4902C53.8373 76.3859 54.839 76.2808 55.7996 76.4441C56.1602 76.5023 56.5976 76.6058 56.9113 76.8168C57.1449 76.9877 57.3329 77.2135 57.4587 77.4742C57.6802 77.8995 57.584 78.3999 57.3018 78.767H57.2994ZM64.6069 76.3738C64.4379 76.5718 64.1929 76.6883 63.9835 76.8338C63.6924 77.0376 63.3836 77.2009 63.0812 77.3755C62.8321 77.5211 62.5754 77.6534 62.3123 77.7717C62.0503 77.8938 61.7827 78.0143 61.5207 78.1501C61.2301 78.2868 60.9306 78.4035 60.6241 78.4994C60.4025 78.5802 60.164 78.6797 59.9255 78.6393C59.7216 78.6064 59.5316 78.5155 59.3781 78.3773C59.1687 78.1558 59.2035 77.9172 59.273 77.8178C59.273 77.614 59.2148 77.323 59.2787 77.1249C59.3199 77.0085 59.4598 76.8338 59.5212 76.7206C59.7638 76.2784 60.1147 75.9582 60.4818 75.6089C60.8052 75.3 61.1108 75.0672 61.5418 74.916C62.0269 74.7543 62.5783 74.7122 63.078 74.6483C63.6253 74.5837 64.5511 74.5432 64.7953 75.1723C64.8816 75.3694 64.91 75.587 64.8771 75.7997C64.8441 76.0123 64.7512 76.2112 64.6093 76.3729L64.6069 76.3738ZM56.5717 75.0583C56.5014 75.0405 56.3849 75.0001 56.2572 74.971C56.1763 74.9823 56.0995 75.0001 56.0243 75.0057L56.5717 75.0583Z" fill="url(#paint10_linear_1107_114)"/>
<path style="mix-blend-mode:multiply" opacity="0.4" fill-rule="evenodd" clip-rule="evenodd" d="M78.5936 41.474V41.5847C78.5588 42.3472 78.2499 42.8711 77.9766 43.564C77.7541 44.1086 77.4992 44.6394 77.2134 45.1536C76.7283 46.0389 76.5035 46.8709 76.1486 47.8218C75.5947 49.307 75.3158 50.8263 74.4506 52.1773C73.6704 53.382 73.4901 54.8616 72.8554 56.148C72.139 57.5864 71.0443 58.6165 69.8638 59.6651C69.3399 60.1365 68.9033 60.7009 68.4319 61.2135C67.9314 61.7552 67.5425 62.4538 66.941 62.8847C65.6425 63.8283 64.2219 64.6433 62.9525 65.6386C62.19 66.2329 61.6483 67.0244 60.8099 67.5192C59.9714 68.0141 59.0635 68.3698 58.2307 68.876C57.4795 69.336 56.7405 69.8308 55.9247 70.1631C54.9933 70.5351 54.2187 70.4251 53.2639 70.4712C52.2047 70.5181 51.1099 70.7946 50.1106 71.1407C49.2843 71.4317 48.5913 71.7293 47.7472 71.4317C47.1877 71.2344 46.6816 70.8658 46.0938 70.7453C44.7249 70.4655 43.1645 70.7453 41.773 70.7105C40.6847 70.6806 39.4848 70.4308 38.4192 70.2149C37.3681 70.0111 36.5151 69.2778 35.502 68.9811C34.2504 68.614 32.7894 68.9285 31.5782 68.4507C31.0834 68.259 30.6079 67.8629 30.1746 67.5896L29.8956 67.4149C29.7267 67.1117 29.5633 66.8029 29.4 66.4948C29.6975 66.6169 29.9943 66.7511 30.2967 66.8991C31.8806 67.6559 33.8542 67.5394 35.5602 67.8362C37.4821 68.1741 39.4032 68.6746 41.342 68.8962C42.126 68.9812 42.917 68.9793 43.7005 68.8905C44.7953 68.7676 45.9304 68.7854 47.0074 68.5986C48.8824 68.2671 50.7105 67.3858 52.655 67.6324C53.0164 67.6793 53.4183 67.8709 53.787 67.8653C54.3287 67.8475 54.7014 67.3761 55.138 67.1028C55.9069 66.6177 56.7163 66.7123 57.3914 66.0776C58.0665 65.4429 58.791 65.0532 59.6044 64.6417C61.7122 63.5704 63.4182 61.8296 65.0717 60.1753C66.4575 58.796 67.8029 57.3341 68.7521 55.6104C69.6835 53.9124 69.4968 51.9016 70.1961 50.1439C70.7023 48.8858 71.1276 47.7037 71.9482 46.5976C72.3444 46.068 72.8279 45.6136 73.2467 45.1067C73.6955 44.5658 73.9687 43.9748 74.3124 43.3716C74.6908 42.6965 75.1678 42.0731 75.471 41.3575C75.7564 40.6703 75.733 40.0639 75.7217 39.3483C75.7095 38.5624 75.7217 37.7652 75.7217 36.9785C76.8246 38.3788 77.7866 39.8846 78.5936 41.474Z" fill="url(#paint11_linear_1107_114)"/>
<path style="mix-blend-mode:multiply" opacity="0.4" fill-rule="evenodd" clip-rule="evenodd" d="M74.2152 35.2184C73.9241 34.9096 73.633 34.6064 73.3298 34.3153C71.2141 32.2396 68.7785 30.5176 66.1161 29.2151C66.0458 29.1803 65.9762 29.1512 65.9059 29.1164C65.5016 28.924 65.103 28.7437 64.689 28.5691C64.136 28.3362 63.5773 28.1203 63.0065 27.9287C63.1548 28.0188 63.3084 28.0998 63.4665 28.1713C63.8102 28.3459 64.0899 28.4623 64.3284 28.7712C64.5669 29.0801 64.6664 29.3008 64.6834 29.6848C64.7002 30.0523 64.7432 30.4182 64.8119 30.7796C64.8701 31.1119 65.0327 31.4264 65.103 31.7579C65.1317 31.951 65.1744 32.1418 65.2308 32.3287C65.3864 32.7855 65.5186 33.25 65.6269 33.7202C65.8016 34.57 65.3472 35.2742 65.0448 36.0488C64.567 37.2778 64.2646 38.5237 63.9088 39.7931C63.6299 40.7941 63.0825 41.7845 62.3257 42.5066C61.5859 43.2221 60.4911 43.3854 59.8273 44.16C59.2452 44.8408 58.5288 45.4876 57.7082 45.8717C56.7523 46.3167 55.7645 46.6897 54.753 46.9874C54.031 47.2033 53.2742 47.2203 52.5457 47.4127C51.6434 47.6399 50.817 48.0943 49.9665 48.4638C49.0641 48.8544 48.22 49.3532 47.3112 49.7454C46.4024 50.1375 45.547 50.6533 44.6431 51.0261C44.2008 51.2064 43.7351 51.2937 43.2864 51.4514C42.3549 51.7748 41.4526 52.3707 40.463 52.4871C40.1193 52.5283 39.7701 52.61 39.4321 52.61C39.1662 52.6079 38.902 52.6531 38.6519 52.7434C37.79 53.0814 37.2604 54.054 36.2707 54.0597C35.3619 54.0597 34.4653 54.0249 33.5629 54.1292C33.1263 54.1818 32.6897 54.1527 32.2531 54.1583C32.1246 54.1583 31.9556 54.1874 31.8278 54.1349C31.6823 54.0767 31.519 53.9376 31.3735 53.8559C31.0486 53.6662 30.7374 53.4542 30.442 53.2212C29.8712 52.7782 29.1144 53.0231 28.4563 52.8889C28.259 52.8485 27.9711 52.8719 27.7925 52.7725C27.3882 52.5299 26.8732 52.0278 26.5409 51.7481C26.4713 52.4936 26.4422 53.256 26.4422 54.0184C26.4409 55.3279 26.5341 56.6357 26.7212 57.9317C26.802 58.5309 26.9079 59.1251 27.03 59.7105C27.0292 59.7188 27.0312 59.727 27.0357 59.734C27.2086 60.5674 27.4245 61.3913 27.6825 62.2024C28.0214 63.3154 28.4336 64.4047 28.9163 65.4632H28.9228C29.6731 65.5853 30.4477 65.6848 31.2045 65.574C32.2822 65.4171 33.3536 65.2506 34.4483 65.2886C35.4727 65.3355 36.4276 65.6848 37.4294 65.8546C38.5524 66.0405 39.7232 66.1917 40.864 66.2677C41.9062 66.3316 42.9427 66.4189 43.9793 66.5353C44.7595 66.6283 45.5397 66.7779 46.32 66.8321C48.3462 66.972 50.3263 66.4424 52.3169 66.233C53.313 66.1278 54.3026 65.8772 55.281 65.667C55.8809 65.5392 56.463 65.3816 56.9926 65.0557C57.6912 64.6191 58.1335 63.9497 58.7568 63.4193C59.4441 62.8315 60.1604 62.2606 60.876 61.7141C61.4872 61.2475 62.0637 60.7438 62.7041 60.3282C63.1892 60.0048 63.6824 59.7049 64.1425 59.3443C65.0448 58.6336 65.7595 57.8129 66.5066 56.951C67.5488 55.7382 67.9798 54.0573 68.3986 52.555C68.7778 51.1748 69.0398 49.7947 69.7965 48.5544C70.1694 47.9356 70.4479 47.2647 70.6229 46.5638C70.7336 46.1328 70.7749 45.6493 70.9722 45.2418C71.2867 44.578 71.9044 44.101 72.2828 43.4719C72.5795 42.9771 72.911 42.5171 73.1212 41.9697C73.5337 40.9139 73.8318 39.8169 74.0106 38.6976C74.1384 37.8526 74.4149 37.0805 74.6736 36.272C74.7148 36.1377 74.7545 36.0035 74.79 35.8677C74.5992 35.6453 74.4068 35.4303 74.2152 35.2184ZM38.3163 54.0653C38.3745 53.9198 39.4046 53.518 39.5623 53.4719C39.5516 53.4798 39.5395 53.4855 39.5267 53.4889L38.8516 53.7799C39.597 53.5301 40.9416 54.2869 40.29 55.1423C40.0975 55.393 39.597 55.515 39.3003 55.5619C39.0036 55.6088 38.8152 55.515 38.6365 55.2587C38.4853 55.038 38.3745 54.654 38.3333 54.3912C38.3195 54.2998 38.2783 54.1608 38.3196 54.0678L38.3163 54.0653ZM30.104 61.4958C29.3004 61.2742 28.7643 60.9775 28.2695 60.3024C27.9461 59.8658 27.6696 59.4292 27.5822 58.8931C27.5127 58.4508 27.3397 58.0546 27.4432 57.6124C27.5306 57.2456 27.6594 56.89 27.8272 56.5524C28.0075 56.1853 28.2752 55.8069 28.2986 55.6848C29.1023 55.6153 29.8534 55.5862 30.6571 55.5797C31.5537 55.5741 32.4504 55.6905 33.3527 55.697C33.757 55.7026 34.1677 55.7196 34.5655 55.6323C34.9561 55.5571 35.3344 55.452 35.7298 55.3897C36.4171 55.2733 37.0574 55.1916 37.7034 55.5353C38.1926 55.7972 38.4198 56.3389 38.647 56.8289C38.7756 57.1079 38.8508 57.3059 38.8508 57.6205C38.8558 57.9988 38.8345 58.377 38.7869 58.7524C38.7691 58.8923 38.7521 59.0378 38.7287 59.1777C38.1627 60.4115 36.6095 60.819 35.4509 61.25C33.7356 61.8763 31.8696 61.9621 30.104 61.4958ZM42.5053 64.1389C42.1447 65.0476 40.6247 65.3735 39.7515 65.4083C39.3205 65.426 38.8022 65.3387 38.4239 65.1115C38.1969 64.9605 38.0077 64.7594 37.8708 64.5237C37.7722 64.362 37.5474 64.058 37.1027 64.1914C37.1964 63.6952 37.3506 63.2124 37.5619 62.7538C37.76 62.5323 37.9662 62.3229 38.1853 62.1248C38.5933 61.7551 39.0474 61.4398 39.5364 61.1869C40.2988 60.8028 41.0969 61.0883 41.8302 61.4295C42.325 61.6558 42.7091 61.9954 42.8142 62.5355C42.9363 63.1508 42.7325 63.5874 42.5053 64.1405V64.1389ZM52.7187 63.9642C52.439 64.6337 52.0484 64.7857 51.4315 65.1002C50.7095 65.4665 49.8306 65.7406 49.0148 65.747C48.596 65.7527 48.2063 65.5546 47.8271 65.4034C47.5773 65.3048 47.3032 65.2417 47.1051 65.0541C46.5577 64.5536 46.4704 63.8195 46.8083 63.9715C46.6001 63.5325 46.4662 63.062 46.4122 62.5792C46.5047 62.504 46.5687 62.3992 46.5933 62.2825C46.8843 61.7351 47.4252 61.2815 47.9613 60.9783C48.4448 60.7091 48.9828 60.5526 49.5353 60.5204C50.0877 60.4882 50.6403 60.5812 51.1518 60.7923C51.6005 60.9783 51.8859 61.2055 52.2231 61.5491C52.3807 61.7108 52.6015 61.8636 52.7244 62.0617C53.0268 62.5687 52.9338 63.454 52.7187 63.9658V63.9642ZM55.8566 63.8599C55.6998 63.9877 55.3966 64.2383 55.1928 64.1971C55.0238 64.1623 54.7037 63.8187 54.7562 63.6384L54.6454 63.5276C54.888 63.1492 55.1306 62.7652 55.3731 62.3746C55.7459 62.5363 56.0782 62.5145 56.3045 62.922C56.5148 63.302 56.1364 63.6343 55.8566 63.8615V63.8599ZM63.6646 45.5483C63.3558 45.9614 62.9483 46.3511 62.4712 46.5492C61.8713 46.7999 61.0676 46.9858 61.0385 46.0835C61.0079 45.5969 61.1129 45.1113 61.3417 44.6807C61.6845 43.9878 62.0112 43.8131 62.675 43.4679C62.9082 43.4954 63.1382 43.5461 63.3614 43.6191C63.7342 43.7412 64.0891 44.0735 64.1417 44.4689C64.1999 44.8861 63.9031 45.2443 63.6646 45.5499V45.5483ZM70.9487 41.6236C70.6576 42.5316 70.2671 43.4113 69.8653 44.2732C69.3801 45.3324 69.3179 46.4215 69.0737 47.5389C68.9338 48.1679 68.6371 48.8608 68.0226 49.1058C67.755 49.2101 67.493 49.1867 67.1963 49.1867C66.9287 49.1867 66.4338 49.2861 66.4508 49.519C66.294 49.0824 66.0255 48.4946 65.9212 47.9989C65.8105 47.4515 65.7595 46.867 65.6787 46.3164C65.5857 45.7399 65.5453 45.1634 65.4871 44.5813C65.4402 44.0395 65.3253 43.4695 65.335 42.9221C65.3585 41.1167 66.3546 38.8698 68.0485 38.037C68.5668 37.7863 69.0794 37.6699 69.6502 37.7637C70.314 37.8623 70.6924 38.0426 70.9891 38.6773C71.3853 39.5522 71.2276 40.7286 70.9487 41.6253V41.6236Z" fill="url(#paint12_linear_1107_114)"/>
<path style="mix-blend-mode:multiply" opacity="0.4" fill-rule="evenodd" clip-rule="evenodd" d="M62.9192 43.3441C62.8319 43.391 62.7502 43.4315 62.6766 43.4727C62.538 43.45 62.3971 43.4441 62.257 43.4549L62.9192 43.3441Z" fill="url(#paint13_linear_1107_114)"/>
<path style="mix-blend-mode:multiply" opacity="0.4" fill-rule="evenodd" clip-rule="evenodd" d="M28.2994 55.6876C28.259 55.6932 28.2121 55.6932 28.166 55.6997C28.276 55.6294 28.3148 55.6294 28.2994 55.6876Z" fill="url(#paint14_linear_1107_114)"/>
<path fill-rule="evenodd" clip-rule="evenodd" d="M59.3074 26.94L64.1497 25.0319C64.1497 25.0319 71.8534 28.0234 76.7079 34.5806L77.0111 38.768C77.0111 38.768 67.8318 35.2493 59.3074 26.94Z" fill="url(#paint15_linear_1107_114)"/>
<path fill-rule="evenodd" clip-rule="evenodd" d="M76.9077 69.5333C76.9077 69.5333 72.8497 73.9357 69.7829 74.9181L67.2643 75.6862C67.2643 75.6862 55.7832 71.5538 55.1493 64.3667C54.6205 58.327 64.9503 49.058 67.7454 47.9535C70.5405 46.8491 73.8094 47.4757 73.8094 47.4757L76.9077 69.5333Z" fill="url(#paint16_linear_1107_114)"/>
<path fill-rule="evenodd" clip-rule="evenodd" d="M73.8118 47.4723C71.3862 46.7026 60.9198 51.5255 58.1085 62.3428C57.5377 64.538 62.849 72.8772 69.1927 74.9163C71.2949 75.5931 80.9512 67.1601 81.3538 61.4454C81.7565 55.7307 77.4098 48.6148 73.8118 47.4723Z" fill="url(#paint17_linear_1107_114)"/>
<path fill-rule="evenodd" clip-rule="evenodd" d="M58.785 63.6083C60.2792 51.3582 71.4183 47.3689 73.8407 48.1387C75.5912 48.6941 78.1639 51.2636 79.6355 53.7984C78.1162 50.6702 75.845 48.1192 73.814 47.474C71.3884 46.7043 60.922 51.5272 58.1107 62.3446C57.9126 63.1078 58.426 64.6085 59.4448 66.3371C58.8869 65.1591 58.7163 64.1913 58.785 63.6083Z" fill="url(#paint18_linear_1107_114)"/>
<path style="mix-blend-mode:multiply" fill-rule="evenodd" clip-rule="evenodd" d="M38.3029 76.7362C38.3029 76.7362 40.7996 77.6515 42.6196 77.155C42.6196 77.155 43.319 71.2527 41.094 67.4729C38.8689 63.693 35.0979 69.4036 35.0979 69.4036L34.2352 73.0178C34.2352 73.0178 36.3341 75.542 38.3029 76.7362Z" fill="url(#paint19_linear_1107_114)"/>
<path fill-rule="evenodd" clip-rule="evenodd" d="M40.4669 75.783L42.0678 75.3545C42.0678 75.3545 42.8391 72.0832 41.5018 68.393C39.9801 64.204 34.4029 61.0726 33.5782 61.0055C32.7535 60.9384 31.9336 62.8214 31.9336 62.8214L40.4669 75.783Z" fill="url(#paint20_linear_1107_114)"/>
<path fill-rule="evenodd" clip-rule="evenodd" d="M65.668 79.0201L63.0087 82.479C63.0087 82.479 58.3928 84.713 53.7599 83.6296L50.3988 81.3657L65.668 79.0201Z" fill="url(#paint21_linear_1107_114)"/>
<path fill-rule="evenodd" clip-rule="evenodd" d="M30.7316 65.4106C31.0098 64.1395 32.1296 62.0276 33.133 61.8215C34.1364 61.6153 38.8792 66.1188 39.9772 69.0174C41.0752 71.916 40.5206 75.1275 40.4664 75.7824C40.4122 76.4373 35.0322 74.6117 32.3164 72.3801C29.6005 70.1486 30.7316 65.4106 30.7316 65.4106Z" fill="url(#paint22_linear_1107_114)"/>
<path fill-rule="evenodd" clip-rule="evenodd" d="M39.9774 69.0156C38.8794 66.1178 34.1374 61.6151 33.1332 61.8196C32.7467 61.9005 32.3432 62.2627 31.977 62.7511C32.2009 62.5465 32.4305 62.4018 32.6545 62.3557C33.6579 62.1495 38.4889 65.7337 39.5666 68.638C40.891 72.2052 40.1625 74.7828 40.0332 75.9043C40.2943 75.9213 40.4577 75.8865 40.4666 75.779C40.5232 75.1281 41.0746 71.915 39.9774 69.0156Z" fill="url(#paint23_linear_1107_114)"/>
<path fill-rule="evenodd" clip-rule="evenodd" d="M54.9558 56.714C53.7641 56.1569 55.1175 50.9306 56.2883 49.7938C57.4591 48.657 60.5097 51.3138 60.9131 53.4863C61.3166 55.6589 57.6846 57.9899 54.9558 56.714Z" fill="url(#paint24_linear_1107_114)"/>
<path fill-rule="evenodd" clip-rule="evenodd" d="M56.1483 56.3155C55.1942 55.853 56.276 51.5169 57.2155 50.5749C58.155 49.633 60.5968 51.8362 60.9202 53.6384C61.2436 55.4407 58.3337 57.3731 56.1483 56.3155Z" fill="url(#paint25_linear_1107_114)"/>
<path fill-rule="evenodd" clip-rule="evenodd" d="M64.1518 25.0319C64.1518 25.0319 64.3943 27.9709 67.7004 31.5745C71.0065 35.1781 76.7099 34.5806 76.7099 34.5806L77.0131 38.768C77.0131 38.768 64.8916 33.4099 59.3062 26.94L64.1518 25.0319Z" fill="url(#paint26_linear_1107_114)"/>
<path fill-rule="evenodd" clip-rule="evenodd" d="M73.6544 51.0791C73.5178 51.1939 73.217 51.4082 73.4555 51.5747C73.5194 51.62 73.5751 51.5958 73.6439 51.616C73.6972 51.6305 73.7102 51.6726 73.7716 51.6491C73.9657 51.5747 73.8881 51.0265 73.6698 51.1365L73.6544 51.0791Z" fill="#0EDBFF"/>
<path fill-rule="evenodd" clip-rule="evenodd" d="M85.0865 46.1602C84.949 46.2742 84.6491 46.4892 84.8868 46.655C84.9507 46.7003 85.0073 46.6768 85.0752 46.6962C85.1285 46.7116 85.1415 46.7528 85.2029 46.7294C85.397 46.6558 85.3194 46.1068 85.1011 46.2168L85.0865 46.1602Z" fill="#0EDBFF"/>
<path fill-rule="evenodd" clip-rule="evenodd" d="M80.0653 66.4582C79.9279 66.5722 79.6271 66.7873 79.8656 66.953C79.9295 66.9983 79.9861 66.9748 80.054 66.9942C80.1074 67.0096 80.1203 67.0508 80.1818 67.0274C80.3758 66.9538 80.2982 66.4048 80.0799 66.5148L80.0653 66.4582Z" fill="#0EDBFF"/>
<path fill-rule="evenodd" clip-rule="evenodd" d="M74.6543 53.0776C74.7372 53.0302 74.8305 53.0041 74.926 53.0016C74.947 53.1204 75.0553 53.3533 74.8855 53.4454C74.7432 53.5263 74.7861 53.2684 74.719 53.2093L74.6543 53.0776Z" fill="#0EDBFF"/>
<path fill-rule="evenodd" clip-rule="evenodd" d="M56.5076 54.2985C56.6898 54.3707 56.8701 54.4462 57.0485 54.5249C57.1067 54.474 57.1941 54.4837 57.262 54.4384C57.3552 54.3664 57.4248 54.2681 57.4617 54.1562C57.5134 54.0018 57.4342 53.8756 57.3639 53.7584C57.3162 53.6776 57.2709 53.5644 57.2022 53.5102C57.1213 53.4479 56.9539 53.473 56.8658 53.5142C56.6521 53.662 56.5047 53.8874 56.4551 54.1425C56.4607 54.2071 56.4807 54.2697 56.5136 54.3256C56.5464 54.3816 56.5914 54.4295 56.6451 54.4659L56.5076 54.2985Z" fill="#0EDBFF"/>
<path fill-rule="evenodd" clip-rule="evenodd" d="M30.792 68.052C30.9739 68.1231 31.1542 68.1991 31.3329 68.2776C31.3911 68.2266 31.4784 68.2363 31.5464 68.191C31.6397 68.1192 31.7093 68.0208 31.7461 67.9089C31.7978 67.7544 31.7186 67.6291 31.6482 67.5111C31.6013 67.4302 31.5552 67.317 31.4865 67.2637C31.4057 67.2006 31.2383 67.2257 31.151 67.2637C31.044 67.3283 30.9546 67.4183 30.8906 67.5256C30.8095 67.6323 30.7574 67.7582 30.7394 67.8911C30.7451 67.9557 30.7651 68.0183 30.7979 68.0742C30.8308 68.1302 30.8757 68.1781 30.9295 68.2145L30.792 68.052Z" fill="#0EDBFF"/>
<path fill-rule="evenodd" clip-rule="evenodd" d="M80.9236 75.2257C81.1058 75.2969 81.2861 75.3721 81.4646 75.4513C81.522 75.4004 81.6093 75.4101 81.678 75.3648C81.7714 75.2929 81.841 75.1946 81.8777 75.0826C81.9287 74.9282 81.8502 74.8021 81.7799 74.6848C81.7322 74.604 81.6869 74.4908 81.6182 74.4374C81.5495 74.3841 81.37 74.3994 81.2818 74.4374C81.1754 74.5031 81.0861 74.5931 81.0215 74.7002C80.9406 74.807 80.8888 74.9329 80.8711 75.0657C80.8766 75.1302 80.8964 75.1928 80.9292 75.2487C80.9619 75.3047 81.0067 75.3526 81.0603 75.3891L80.9236 75.2257Z" fill="#0EDBFF"/>
<path fill-rule="evenodd" clip-rule="evenodd" d="M77.3174 70.2463C77.4996 70.3175 77.6799 70.3927 77.8583 70.4719C77.9158 70.421 78.0031 70.4307 78.0718 70.3854C78.165 70.3133 78.2345 70.215 78.2715 70.1032C78.3224 69.9488 78.244 69.8226 78.1729 69.7054C78.126 69.6245 78.0807 69.5114 78.0112 69.458C77.9263 69.3949 77.7629 69.42 77.6748 69.458C77.5684 69.5236 77.4791 69.6137 77.4145 69.7208C77.3336 69.8275 77.2818 69.9535 77.2641 70.0862C77.2696 70.1508 77.2894 70.2134 77.3221 70.2693C77.3549 70.3253 77.3997 70.3732 77.4533 70.4096L77.3174 70.2463Z" fill="#0EDBFF"/>
<path fill-rule="evenodd" clip-rule="evenodd" d="M27.2814 35.4927C27.7423 35.6749 28.2005 35.8657 28.6559 36.0652C28.8023 35.9358 29.023 35.96 29.196 35.846C29.4176 35.6989 29.6173 35.3884 29.703 35.1313C29.8323 34.7408 29.6326 34.4214 29.454 34.1239C29.3343 33.9242 29.2195 33.6323 29.0367 33.4964C28.8233 33.3347 28.4085 33.4002 28.1854 33.5061C27.9105 33.6371 27.7091 33.9193 27.5264 34.1708C27.3558 34.4069 27.1537 34.799 27.1456 35.0965C27.1359 35.4159 27.3882 35.7539 27.6251 35.9172L27.2814 35.4927Z" fill="#0EDBFF"/>
<path fill-rule="evenodd" clip-rule="evenodd" d="M57.68 18.7636C58.1398 18.9458 58.5963 19.1366 59.0496 19.3361C59.196 19.2067 59.4175 19.2309 59.5897 19.1169C59.8113 18.9698 60.0118 18.6593 60.0967 18.4022C60.2261 18.0117 60.0263 17.6923 59.8477 17.3948C59.728 17.1951 59.6132 16.9032 59.4305 16.7674C59.217 16.6056 58.8022 16.6711 58.5799 16.7771C58.3042 16.908 58.1036 17.1902 57.9209 17.4417C57.7495 17.6778 57.5482 18.0699 57.5393 18.3674C57.5304 18.6908 57.7818 19.0248 58.0187 19.1881L57.68 18.7636Z" fill="#0EDBFF"/>
<path fill-rule="evenodd" clip-rule="evenodd" d="M61.7201 58.8744C61.6423 58.9279 61.5772 58.9977 61.5293 59.079C61.6037 59.172 61.6401 59.2601 61.7719 59.2973C61.7961 59.3072 61.8226 59.3102 61.8485 59.3059C61.8743 59.3016 61.8984 59.2902 61.9182 59.273C61.9708 59.2213 61.9425 59.1639 61.957 59.1113C61.9918 58.9876 62.0257 58.9553 61.957 58.8421C61.915 58.7742 61.8859 58.7467 61.8115 58.7467C61.7597 58.7467 61.6498 58.7612 61.6207 58.8194L61.7201 58.8744Z" fill="#0EDBFF"/>
<path fill-rule="evenodd" clip-rule="evenodd" d="M62.1342 61.7572C62.1204 61.7888 61.9797 62.1453 62.1625 62.0418C62.2538 61.9901 62.2207 61.8502 62.1625 61.8106L62.1722 61.775L62.1342 61.7572Z" fill="#0EDBFF"/>
<path fill-rule="evenodd" clip-rule="evenodd" d="M71.2397 67.0112C71.1482 67.1254 71.0825 67.2581 71.0473 67.4001C71.1103 67.449 71.1882 67.4747 71.268 67.4729C71.3747 67.468 71.3796 67.4341 71.3828 67.3322C71.3828 67.2513 71.4192 67.185 71.3998 67.1058C71.3804 67.0266 71.2979 66.9441 71.2049 66.9934L71.2397 67.0112Z" fill="#0EDBFF"/>
<path fill-rule="evenodd" clip-rule="evenodd" d="M63.566 59.2223C63.6346 59.2847 63.6807 59.368 63.697 59.4592C63.6 59.4835 63.5887 59.3881 63.5741 59.3129C63.5515 59.1924 63.6072 59.232 63.6638 59.1334L63.6954 59.1399L63.566 59.2223Z" fill="#0EDBFF"/>
<path fill-rule="evenodd" clip-rule="evenodd" d="M72.2931 51.4248C72.2161 51.4785 72.1513 51.5479 72.1031 51.6285C72.1492 51.6851 72.1274 51.7902 72.2341 51.7805C72.3093 51.7749 72.3707 51.694 72.4071 51.6317C72.442 51.5678 72.4598 51.496 72.4589 51.4231C72.4589 51.3827 72.4589 51.2129 72.3877 51.3245L72.2931 51.4248Z" fill="#0EDBFF"/>
<path fill-rule="evenodd" clip-rule="evenodd" d="M71.1129 31.111C71.2074 31.0761 71.3056 31.0525 71.4056 31.0406C71.4314 31.0406 71.4654 31.0592 71.4937 31.0624C71.5875 31.0705 71.5899 31.0495 71.636 31.1247C71.6622 31.1599 71.6809 31.2001 71.691 31.2427C71.7012 31.2854 71.7025 31.3297 71.695 31.3729C71.6417 31.7157 71.1565 31.1991 71.3255 31.073L71.1129 31.111Z" fill="#0EDBFF"/>
<path fill-rule="evenodd" clip-rule="evenodd" d="M34.0695 31.7207C33.9158 31.7684 33.6822 31.7854 33.6652 31.9632C33.649 32.1161 33.9005 32.2737 34.0266 32.3158C34.253 32.3893 34.6233 32.4257 34.7349 32.1686C34.7996 32.019 34.7511 31.728 34.6589 31.5962C34.4697 31.3253 34.0816 31.4345 33.7873 31.5509L34.0695 31.7207Z" fill="#0EDBFF"/>
<path fill-rule="evenodd" clip-rule="evenodd" d="M73.3658 67.3874C73.2971 66.8594 73.2041 66.3363 73.6707 66.0606C73.9262 65.9094 74.3983 65.8568 74.636 66.0355C74.8107 66.1649 74.9635 66.4066 75.0727 66.5869C75.2344 66.8546 75.1915 66.8554 75.1074 67.0996C74.9142 67.6599 74.784 68.0286 74.2245 68.0294C73.4887 68.0294 73.3755 67.4585 73.3658 66.747V67.3874Z" fill="#0EDBFF"/>
<path fill-rule="evenodd" clip-rule="evenodd" d="M73.6934 52.5416C73.8966 52.4863 74.0798 52.3741 74.2213 52.2182C74.0742 52.1268 73.7516 51.9368 73.6934 52.2141V52.5416Z" fill="#0EDBFF"/>
<path fill-rule="evenodd" clip-rule="evenodd" d="M31.9629 65.9814C32.166 65.9258 32.3491 65.8137 32.4908 65.658C32.3437 65.5666 32.0211 65.3766 31.9629 65.6532V65.9814Z" fill="#0EDBFF"/>
<path fill-rule="evenodd" clip-rule="evenodd" d="M31.9629 70.4164C32.166 70.3608 32.3491 70.2486 32.4908 70.093C32.3437 70.0008 32.0211 69.8108 31.9629 70.0881V70.4164Z" fill="#0EDBFF"/>
<path fill-rule="evenodd" clip-rule="evenodd" d="M63.1624 54.5503C63.3662 54.2996 63.6613 53.842 64.0316 54.0927C64.2467 54.2382 64.3081 54.6247 64.102 54.7783C63.9111 54.9206 63.7365 54.961 63.5214 55.0209C63.3597 55.0661 63.1123 54.957 63.1624 54.7136V54.5503Z" fill="#0EDBFF"/>
<path fill-rule="evenodd" clip-rule="evenodd" d="M70.0871 65.9653C70.2908 65.7139 70.5859 65.2562 70.9562 65.5077C71.1713 65.6532 71.2328 66.0389 71.0266 66.1925C70.8366 66.3348 70.6611 66.3753 70.4461 66.4351C70.2844 66.4804 70.0369 66.3712 70.0871 66.1278V65.9653Z" fill="#0EDBFF"/>
<path fill-rule="evenodd" clip-rule="evenodd" d="M69.0434 28.1403C69.3668 28.1936 69.9061 28.2211 69.8706 28.6707C69.8495 28.9294 69.5471 29.1736 69.3094 29.0701C69.0911 28.9747 68.9698 28.8421 68.8122 28.6844C68.6917 28.5639 68.6658 28.2971 68.9019 28.2203L69.0434 28.1403Z" fill="#0EDBFF"/>
<path fill-rule="evenodd" clip-rule="evenodd" d="M67.9107 68.9233C68.1152 68.6727 68.4095 68.2151 68.7799 68.4657C68.9949 68.6121 69.0564 68.9977 68.851 69.1513C68.6602 69.2936 68.4855 69.3341 68.2705 69.3939C68.1088 69.4392 67.8614 69.3308 67.9107 69.0875V68.9233Z" fill="#0EDBFF"/>
<path fill-rule="evenodd" clip-rule="evenodd" d="M58.4728 54.1714C58.2116 54.338 57.7718 54.5434 57.7273 54.8991C57.7006 55.115 57.8001 55.2427 57.9958 55.3365C58.0876 55.3771 58.1869 55.398 58.2872 55.398C58.3876 55.398 58.4869 55.3771 58.5787 55.3365C58.8213 55.2161 59.0946 55.0131 59.2029 54.7617C59.2399 54.6841 59.2572 54.5986 59.2534 54.5127C59.2496 54.4269 59.2247 54.3433 59.1811 54.2693C59.1332 54.1589 59.047 54.0696 58.9385 54.0178C58.6038 53.9022 58.4033 54.2296 58.1558 54.3776L58.4728 54.1714Z" fill="#0EDBFF"/>
<path fill-rule="evenodd" clip-rule="evenodd" d="M59.32 53.2187C59.4586 53.2663 59.5829 53.3481 59.6815 53.4564C59.5392 53.5049 59.3864 53.6181 59.2408 53.5656C59.0524 53.4976 59.0177 53.319 59.0597 53.1387C59.0832 53.04 59.2602 52.867 59.3613 52.9106C59.4122 52.9325 59.4219 53.002 59.4421 53.0465C59.4769 53.1403 59.4793 53.1201 59.4292 53.2187H59.32Z" fill="#0EDBFF"/>
<path fill-rule="evenodd" clip-rule="evenodd" d="M66.5341 51.6473C65.8436 52.2537 65.1928 52.9782 64.8265 53.8449C64.6397 54.2864 64.9712 54.3082 65.3723 54.2298C66.1493 54.0786 66.9303 53.8635 67.6984 53.6638C68.1528 53.5466 68.8045 53.3073 69.1198 52.9216C69.3624 52.6249 69.4626 52.1131 69.4093 51.7428C69.3349 51.2221 68.9646 51.0199 68.4916 50.8889C67.4114 50.5898 65.8784 51.7557 65.4774 52.7486L66.5341 51.6473Z" fill="#0EDBFF"/>
<path fill-rule="evenodd" clip-rule="evenodd" d="M62.6825 55.5779C62.9009 55.5818 63.1154 55.6372 63.3083 55.7396C63.2525 55.8059 63.2703 55.8957 63.2412 55.9733C63.187 56.0954 63.0978 56.1986 62.9849 56.27C62.8884 56.3272 62.7812 56.3639 62.6699 56.3778C62.5586 56.3917 62.4457 56.3826 62.3381 56.3509C61.7584 56.131 62.6469 55.4437 62.8426 55.6871L62.6825 55.5779Z" fill="#0EDBFF"/>
<path fill-rule="evenodd" clip-rule="evenodd" d="M30.3576 77.6953C30.2803 77.7491 30.2155 77.8189 30.1676 77.8999C30.242 77.9929 30.2784 78.081 30.4061 78.1182C30.4304 78.128 30.4569 78.1309 30.4827 78.1266C30.5085 78.1223 30.5326 78.111 30.5524 78.0939C30.605 78.0422 30.5767 77.9848 30.5904 77.9322C30.626 77.8085 30.66 77.7762 30.5904 77.663C30.5484 77.5951 30.5193 77.5676 30.4449 77.5676C30.3932 77.5676 30.2832 77.5821 30.2541 77.6403L30.3576 77.6953Z" fill="#0EDBFF"/>
<path fill-rule="evenodd" clip-rule="evenodd" d="M30.7707 80.5775C30.7578 80.6091 30.6171 80.9656 30.799 80.8622C30.8912 80.8104 30.858 80.6705 30.799 80.6301C30.799 80.6188 30.8055 80.6075 30.8079 80.5953L30.7707 80.5775Z" fill="#0EDBFF"/>
<path fill-rule="evenodd" clip-rule="evenodd" d="M32.2008 78.0432C32.2694 78.1056 32.3155 78.1889 32.3317 78.2801C32.2347 78.3044 32.2234 78.209 32.2088 78.1338C32.1862 78.0133 32.242 78.0529 32.2986 77.9543L32.3301 77.9608L32.2008 78.0432Z" fill="#0EDBFF"/>
<path fill-rule="evenodd" clip-rule="evenodd" d="M31.3204 74.3983C31.5388 74.4022 31.7532 74.4576 31.9462 74.56C31.8896 74.6263 31.9082 74.716 31.8791 74.7936C31.8248 74.9157 31.7356 75.0189 31.6227 75.0904C31.5262 75.1475 31.419 75.1841 31.3077 75.198C31.1965 75.212 31.0835 75.2028 30.9759 75.1712C30.397 74.9513 31.2856 74.264 31.4804 74.5074L31.3204 74.3983Z" fill="#0EDBFF"/>
<path fill-rule="evenodd" clip-rule="evenodd" d="M67.909 28.6517C68.1055 28.7884 68.3174 28.8943 68.4669 29.0754C68.6438 29.2747 68.8026 29.4893 68.9415 29.7166C69.0095 29.8362 69.1712 30.0982 68.9327 30.1313C68.6731 30.1669 68.2139 29.8257 68.0255 29.6923C67.7021 29.4651 67.3908 29.2565 67.1571 28.9291C67.0399 28.7633 66.8596 28.4763 66.9792 28.2774C67.0795 28.11 67.2218 28.0809 67.4069 28.0849C67.5755 28.0857 67.7375 28.1508 67.8597 28.2669C67.9293 28.3227 68.264 28.6647 68.1516 28.7568L67.909 28.6517Z" fill="#0EDBFF"/>
<path fill-rule="evenodd" clip-rule="evenodd" d="M70.4179 50.6484C70.3225 50.718 69.5915 51.123 69.9392 51.2953C70.1268 51.3899 70.4939 51.3624 70.6847 51.2815C70.8537 51.2096 71.0243 51.098 70.9183 50.9039C70.7041 50.511 70.1664 50.7382 69.8891 50.9088L70.4179 50.6484Z" fill="#0EDBFF"/>
<path fill-rule="evenodd" clip-rule="evenodd" d="M75.6806 26.7199C75.438 26.8929 73.6059 27.9117 74.4799 28.3523C74.9496 28.5892 75.8722 28.5213 76.3492 28.3184C76.7737 28.1381 77.203 27.8591 76.937 27.3716C76.3985 26.386 75.0491 26.9544 74.3497 27.3837L75.6806 26.7199Z" fill="#0EDBFF"/>
<path fill-rule="evenodd" clip-rule="evenodd" d="M32.2254 68.3873C32.3063 68.8158 32.3871 69.2847 32.7639 69.5685C33.1504 69.862 33.587 69.7432 33.967 69.5192C34.2475 69.3535 34.5136 69.1764 34.7885 69.0074C34.9502 68.9088 35.0892 68.8837 35.0965 68.6549C35.1038 68.4123 34.8774 68.0784 34.7359 67.8916C34.5288 67.6365 34.2634 67.4349 33.9621 67.3038C33.3865 67.0888 32.2877 67.3038 32.3014 68.0857L32.2254 68.3873Z" fill="#0EDBFF"/>
<path fill-rule="evenodd" clip-rule="evenodd" d="M70.7695 69.23C70.8237 69.5307 70.886 69.8598 71.1471 70.0587C71.4083 70.2576 71.7252 70.1816 71.992 70.0247C72.1893 69.9083 72.3753 69.7822 72.5685 69.665C72.6809 69.5962 72.7795 69.5784 72.7844 69.4175C72.7892 69.2566 72.6308 69.0133 72.5313 68.8823C72.3867 68.7028 72.2005 68.5613 71.9888 68.4699C71.5845 68.3187 70.8132 68.4699 70.8229 69.0181L70.7695 69.23Z" fill="#0EDBFF"/>
<path style="mix-blend-mode:screen" d="M76.2431 71.571C78.9073 70.4674 80.1725 67.413 79.0689 64.7488C77.9654 62.0845 74.911 60.8193 72.2467 61.9229C69.5825 63.0265 68.3173 66.0809 69.4209 68.7451C70.5244 71.4094 73.5788 72.6745 76.2431 71.571Z" fill="url(#paint27_radial_1107_114)"/>
<path style="mix-blend-mode:screen" fill-rule="evenodd" clip-rule="evenodd" d="M70.3584 31.0203C69.7448 31.8652 68.2069 31.7932 66.9222 30.8585C65.6374 29.9239 65.0949 28.4847 65.7094 27.6398C66.3239 26.7949 67.8609 26.8668 69.1456 27.8015C70.4304 28.7361 70.9681 30.1753 70.3584 31.0203Z" fill="url(#paint28_radial_1107_114)"/>
<path style="mix-blend-mode:screen" d="M33.6617 73.4993C36.5455 73.4993 38.8832 71.1615 38.8832 68.2778C38.8832 65.394 36.5455 63.0562 33.6617 63.0562C30.778 63.0562 28.4402 65.394 28.4402 68.2778C28.4402 71.1615 30.778 73.4993 33.6617 73.4993Z" fill="url(#paint29_radial_1107_114)"/>
<path fill-rule="evenodd" clip-rule="evenodd" d="M64.2305 25.5099C64.2305 25.5099 65.4966 30.8883 69.0582 32.9153C73.5634 35.4808 76.7078 34.5793 76.7078 34.5793C76.7078 34.5793 72.6813 34.4378 68.958 31.8982C65.8483 29.7782 64.2305 25.5099 64.2305 25.5099Z" fill="url(#paint30_linear_1107_114)"/>
<path style="mix-blend-mode:multiply" opacity="0.4" fill-rule="evenodd" clip-rule="evenodd" d="M55.7777 66.9764L58.1694 63.4617C58.1694 63.4617 61.2353 72.185 69.1929 74.917L67.4473 76.0417C67.4473 76.0417 59.3377 73.7333 55.7777 66.9764Z" fill="url(#paint31_linear_1107_114)"/>
<path style="mix-blend-mode:multiply" fill-rule="evenodd" clip-rule="evenodd" d="M60.307 28.1473C60.307 28.1473 71.7793 39.6964 80.0352 44.8281C80.0352 44.8281 79.2364 41.6748 77.0113 38.7641C77.0121 38.7674 70.0806 36.4881 60.307 28.1473Z" fill="url(#paint32_linear_1107_114)"/>
<path style="mix-blend-mode:screen" d="M47.666 46.594C53.0381 43.0765 55.565 37.4331 53.3099 33.989C51.0548 30.5449 44.8718 30.6043 39.4997 34.1217C34.1276 37.6392 31.6007 43.2826 33.8558 46.7267C36.1109 50.1709 42.2939 50.1114 47.666 46.594Z" fill="url(#paint33_radial_1107_114)"/>
<defs>
<radialGradient id="paint0_radial_1107_114" cx="0" cy="0" r="1" gradientUnits="userSpaceOnUse" gradientTransform="translate(53.9999 54.0002) scale(38.1838)">
<stop offset="0.01" stop-color="#009BFF"/>
<stop offset="1"/>
</radialGradient>
<radialGradient id="paint1_radial_1107_114" cx="0" cy="0" r="1" gradientUnits="userSpaceOnUse" gradientTransform="translate(53.9997 54.0002) scale(31.9605)">
<stop offset="0.01" stop-color="#009BFF"/>
<stop offset="1"/>
</radialGradient>
<radialGradient id="paint2_radial_1107_114" cx="0" cy="0" r="1" gradientUnits="userSpaceOnUse" gradientTransform="translate(53.9996 54.0002) scale(32.5273)">
<stop offset="0.01" stop-color="#0092FF"/>
<stop offset="0.13" stop-color="#0090FB"/>
<stop offset="0.26" stop-color="#0089EF"/>
<stop offset="0.38" stop-color="#007DDB"/>
<stop offset="0.51" stop-color="#006DBF"/>
<stop offset="0.63" stop-color="#00599B"/>
<stop offset="0.76" stop-color="#003F6E"/>
<stop offset="0.88" stop-color="#00223B"/>
<stop offset="1"/>
</radialGradient>
<linearGradient id="paint3_linear_1107_114" x1="35.6949" y1="39.2144" x2="35.6949" y2="29.6607" gradientUnits="userSpaceOnUse">
<stop stop-color="#9A00B3"/>
<stop offset="1" stop-color="#7F72FF"/>
</linearGradient>
<linearGradient id="paint4_linear_1107_114" x1="33.5806" y1="39.6979" x2="37.1697" y2="28.739" gradientUnits="userSpaceOnUse">
<stop stop-color="#5B008B"/>
<stop offset="1" stop-color="#8E00FF"/>
</linearGradient>
<radialGradient id="paint5_radial_1107_114" cx="0" cy="0" r="1" gradientUnits="userSpaceOnUse" gradientTransform="translate(36.936 41.1112) scale(44.31)">
<stop offset="0.01" stop-color="#60DBFF"/>
<stop offset="0.09" stop-color="#60D5FF"/>
<stop offset="0.21" stop-color="#5FC4FF"/>
<stop offset="0.34" stop-color="#5DA9FF"/>
<stop offset="0.49" stop-color="#5A82FF"/>
<stop offset="0.64" stop-color="#5751FF"/>
<stop offset="0.68" stop-color="#5643FF"/>
<stop offset="0.74" stop-color="#563DF8"/>
<stop offset="0.83" stop-color="#552EE5"/>
<stop offset="0.93" stop-color="#5315C6"/>
<stop offset="1" stop-color="#5200AB"/>
</radialGradient>
<linearGradient id="paint6_linear_1107_114" x1="26.4342" y1="46.4473" x2="66.1146" y2="46.4473" gradientUnits="userSpaceOnUse">
<stop offset="0.01" stop-color="#81E0FF"/>
<stop offset="0.32" stop-color="#82DDFF"/>
<stop offset="0.55" stop-color="#86D4FF"/>
<stop offset="0.75" stop-color="#8BC4FF"/>
<stop offset="0.94" stop-color="#94ADFF"/>
<stop offset="1" stop-color="#97A4FF"/>
</linearGradient>
<linearGradient id="paint7_linear_1107_114" x1="66.5199" y1="79.0197" x2="66.5199" y2="66.067" gradientUnits="userSpaceOnUse">
<stop stop-color="#B8C2FF"/>
<stop offset="1" stop-color="#5B729C"/>
</linearGradient>
<radialGradient id="paint8_radial_1107_114" cx="0" cy="0" r="1" gradientUnits="userSpaceOnUse" gradientTransform="translate(33.8604 35.2385) scale(36.3072 36.3072)">
<stop stop-color="#FFFFD9"/>
<stop offset="1"/>
</radialGradient>
<linearGradient id="paint9_linear_1107_114" x1="26.6856" y1="38.6402" x2="61.3765" y2="38.6402" gradientUnits="userSpaceOnUse">
<stop stop-color="#B8C2FF"/>
<stop offset="1" stop-color="#7D72B3"/>
</linearGradient>
<linearGradient id="paint10_linear_1107_114" x1="32.3173" y1="64.4608" x2="81.6047" y2="64.4608" gradientUnits="userSpaceOnUse">
<stop stop-color="#B8C2FF"/>
<stop offset="1" stop-color="#7D72B3"/>
</linearGradient>
<linearGradient id="paint11_linear_1107_114" x1="29.4048" y1="54.2666" x2="78.5936" y2="54.2666" gradientUnits="userSpaceOnUse">
<stop stop-color="#B8C2FF"/>
<stop offset="1" stop-color="#7D72B3"/>
</linearGradient>
<linearGradient id="paint12_linear_1107_114" x1="26.4357" y1="47.3925" x2="74.7852" y2="47.3925" gradientUnits="userSpaceOnUse">
<stop stop-color="#B8C2FF"/>
<stop offset="1" stop-color="#7D72B3"/>
</linearGradient>
<linearGradient id="paint13_linear_1107_114" x1="62.2554" y1="43.4088" x2="62.9192" y2="43.4088" gradientUnits="userSpaceOnUse">
<stop stop-color="#E8DDFF"/>
<stop offset="1" stop-color="#AA8AD8"/>
</linearGradient>
<linearGradient id="paint14_linear_1107_114" x1="28.166" y1="55.6722" x2="28.3035" y2="55.6722" gradientUnits="userSpaceOnUse">
<stop stop-color="#E8DDFF"/>
<stop offset="1" stop-color="#AA8AD8"/>
</linearGradient>
<linearGradient id="paint15_linear_1107_114" x1="59.3074" y1="31.8995" x2="77.0111" y2="31.8995" gradientUnits="userSpaceOnUse">
<stop stop-color="#7F72FF"/>
<stop offset="1" stop-color="#9A00B3"/>
</linearGradient>
<linearGradient id="paint16_linear_1107_114" x1="63.3292" y1="74.3974" x2="72.3096" y2="46.9817" gradientUnits="userSpaceOnUse">
<stop stop-color="#280077"/>
<stop offset="1" stop-color="#812CFF"/>
</linearGradient>
<linearGradient id="paint17_linear_1107_114" x1="65.9626" y1="73.5365" x2="74.4935" y2="47.3932" gradientUnits="userSpaceOnUse">
<stop stop-color="#7A00B3"/>
<stop offset="1" stop-color="#B136FF"/>
</linearGradient>
<linearGradient id="paint18_linear_1107_114" x1="68.8521" y1="66.3355" x2="68.8521" y2="47.3932" gradientUnits="userSpaceOnUse">
<stop stop-color="#8E00B3"/>
<stop offset="1" stop-color="#E05CFF"/>
</linearGradient>
<linearGradient id="paint19_linear_1107_114" x1="38.48" y1="77.303" x2="38.48" y2="66.1808" gradientUnits="userSpaceOnUse">
<stop stop-color="#81A9CE"/>
<stop offset="1" stop-color="#5B729C"/>
</linearGradient>
<linearGradient id="paint20_linear_1107_114" x1="35.3537" y1="74.1077" x2="39.0632" y2="62.7834" gradientUnits="userSpaceOnUse">
<stop stop-color="#280077"/>
<stop offset="1" stop-color="#812CFF"/>
</linearGradient>
<linearGradient id="paint21_linear_1107_114" x1="58.0346" y1="83.9263" x2="58.0346" y2="79.0201" gradientUnits="userSpaceOnUse">
<stop stop-color="#7A00B3"/>
<stop offset="0.92" stop-color="#7006FC"/>
<stop offset="1" stop-color="#7006F9"/>
</linearGradient>
<linearGradient id="paint22_linear_1107_114" x1="35.5764" y1="75.9158" x2="35.5764" y2="61.815" gradientUnits="userSpaceOnUse">
<stop stop-color="#7A00B3"/>
<stop offset="1" stop-color="#B136FF"/>
</linearGradient>
<linearGradient id="paint23_linear_1107_114" x1="36.3155" y1="75.9124" x2="36.3155" y2="61.8172" gradientUnits="userSpaceOnUse">
<stop stop-color="#8E00B3"/>
<stop offset="1" stop-color="#E05CFF"/>
</linearGradient>
<linearGradient id="paint24_linear_1107_114" x1="56.6594" y1="57.301" x2="59.0195" y2="50.0961" gradientUnits="userSpaceOnUse">
<stop stop-color="#5B008B"/>
<stop offset="1" stop-color="#8E00FF"/>
</linearGradient>
<linearGradient id="paint25_linear_1107_114" x1="57.4823" y1="56.7804" x2="59.4341" y2="50.8215" gradientUnits="userSpaceOnUse">
<stop stop-color="#A400CA"/>
<stop offset="1" stop-color="#B136FF"/>
</linearGradient>
<linearGradient id="paint26_linear_1107_114" x1="67.2695" y1="35.5759" x2="70.0864" y2="26.9764" gradientUnits="userSpaceOnUse">
<stop stop-color="#5B008B"/>
<stop offset="1" stop-color="#8E00FF"/>
</linearGradient>
<radialGradient id="paint27_radial_1107_114" cx="0" cy="0" r="1" gradientUnits="userSpaceOnUse" gradientTransform="translate(74.2451 66.7472) scale(5.2215 5.2215)">
<stop stop-color="#317AFF"/>
<stop offset="0.1" stop-color="#2967D7"/>
<stop offset="0.29" stop-color="#1D4897"/>
<stop offset="0.47" stop-color="#132E61"/>
<stop offset="0.64" stop-color="#0B1A37"/>
<stop offset="0.78" stop-color="#050C19"/>
<stop offset="0.91" stop-color="#010307"/>
<stop offset="1"/>
</radialGradient>
<radialGradient id="paint28_radial_1107_114" cx="0" cy="0" r="1" gradientUnits="userSpaceOnUse" gradientTransform="translate(67.8619 29.5646) rotate(36.0694) scale(2.87955 1.89084)">
<stop stop-color="#317AFF"/>
<stop offset="0.1" stop-color="#2967D7"/>
<stop offset="0.29" stop-color="#1D4897"/>
<stop offset="0.47" stop-color="#132E61"/>
<stop offset="0.64" stop-color="#0B1A37"/>
<stop offset="0.78" stop-color="#050C19"/>
<stop offset="0.91" stop-color="#010307"/>
<stop offset="1"/>
</radialGradient>
<radialGradient id="paint29_radial_1107_114" cx="0" cy="0" r="1" gradientUnits="userSpaceOnUse" gradientTransform="translate(33.6617 68.2778) scale(5.2215 5.22151)">
<stop stop-color="#317AFF"/>
<stop offset="0.1" stop-color="#2967D7"/>
<stop offset="0.29" stop-color="#1D4897"/>
<stop offset="0.47" stop-color="#132E61"/>
<stop offset="0.64" stop-color="#0B1A37"/>
<stop offset="0.78" stop-color="#050C19"/>
<stop offset="0.91" stop-color="#010307"/>
<stop offset="1"/>
</radialGradient>
<linearGradient id="paint30_linear_1107_114" x1="70.4691" y1="34.7329" x2="70.4691" y2="25.5099" gradientUnits="userSpaceOnUse">
<stop stop-color="#B000D9"/>
<stop offset="1" stop-color="#E05CFF"/>
</linearGradient>
<linearGradient id="paint31_linear_1107_114" x1="62.4853" y1="76.0417" x2="62.4853" y2="63.4617" gradientUnits="userSpaceOnUse">
<stop stop-color="#B8C2FF"/>
<stop offset="1" stop-color="#7D72B3"/>
</linearGradient>
<linearGradient id="paint32_linear_1107_114" x1="70.1711" y1="44.8281" x2="70.1711" y2="28.1473" gradientUnits="userSpaceOnUse">
<stop stop-color="#81A9CE"/>
<stop offset="1" stop-color="#5B729C"/>
</linearGradient>
<radialGradient id="paint33_radial_1107_114" cx="0" cy="0" r="1" gradientUnits="userSpaceOnUse" gradientTransform="translate(44.2337 39.8929) rotate(-33.2153) scale(11.6482 7.46324)">
<stop stop-color="#06FEFF"/>
<stop offset="0.17" stop-color="#05C4C5"/>
<stop offset="0.4" stop-color="#037F80"/>
<stop offset="0.6" stop-color="#024849"/>
<stop offset="0.78" stop-color="#012121"/>
<stop offset="0.92" stop-color="#000909"/>
<stop offset="1"/>
</radialGradient>
</defs>
</svg>
