<svg width="70" height="70" viewBox="0 0 70 70" fill="none" xmlns="http://www.w3.org/2000/svg">
<path style="mix-blend-mode:screen" d="M35 70C54.33 70 70 54.33 70 35C70 15.67 54.33 0 35 0C15.67 0 0 15.67 0 35C0 54.33 15.67 70 35 70Z" fill="url(#paint0_radial_1107_4)"/>
<path style="mix-blend-mode:screen" d="M36.698 62.8257C51.6957 62.8257 63.8537 50.6677 63.8537 35.67C63.8537 20.6723 51.6957 8.51422 36.698 8.51422C21.7003 8.51422 9.54224 20.6723 9.54224 35.67C9.54224 50.6677 21.7003 62.8257 36.698 62.8257Z" fill="url(#paint1_radial_1107_4)"/>
<path fill-rule="evenodd" clip-rule="evenodd" d="M59.8316 34.8018C59.8344 37.9791 59.2106 41.1258 57.9958 44.0618C56.781 46.9977 54.9992 49.6652 52.7522 51.9117C50.5053 54.1582 47.8374 55.9395 44.9012 57.1537C41.965 58.3678 38.8182 58.991 35.6409 58.9876C35.2119 58.9876 34.778 58.9769 34.3541 58.9514H34.3491C33.716 58.9209 33.0878 58.86 32.4703 58.7834C27.916 58.1861 23.6282 56.2962 20.1147 53.3376C17.8482 51.4301 15.9439 49.1297 14.4931 46.5469C14.3449 46.2818 14.2024 46.0109 14.0592 45.7408C14.0592 45.7302 14.0542 45.7252 14.0493 45.7153C13.9011 45.4239 13.7657 45.1332 13.6303 44.8368H13.6253C13.2022 43.9085 12.8406 42.9533 12.5427 41.9775C12.3168 41.2661 12.1275 40.5437 11.9755 39.8129C11.9715 39.8068 11.9698 39.7996 11.9705 39.7924C11.8635 39.2769 11.7713 38.7558 11.6997 38.2326C11.5357 37.0964 11.4539 35.9498 11.4551 34.8018C11.4551 34.1332 11.4806 33.4639 11.5416 32.811C11.5721 32.3919 11.6182 31.9786 11.6742 31.5653C11.9814 29.2298 12.6346 26.953 13.6125 24.81C15.5343 20.5787 18.6332 16.9899 22.5393 14.4721C26.4454 11.9544 30.9936 10.614 35.6409 10.6111C35.8961 10.6111 36.1513 10.6167 36.4016 10.6217C36.6724 10.6316 36.9426 10.6422 37.2134 10.6621C38.5814 10.7506 39.9393 10.9558 41.2724 11.2754C42.0381 11.459 42.7889 11.6731 43.5241 11.9284C44.0247 12.0971 44.5167 12.2829 44.9995 12.4899C45.3618 12.643 45.7142 12.8018 46.063 12.9699C46.1247 13.0011 46.1857 13.0266 46.2467 13.0571C48.5816 14.199 50.7176 15.709 52.573 17.5294C52.8381 17.7846 53.0934 18.0505 53.3486 18.3206C53.5173 18.5049 53.6861 18.6935 53.8492 18.8821C54.1328 19.199 54.4007 19.5309 54.6659 19.8627C56.7787 22.549 58.2964 25.6537 59.1184 28.9711C59.5926 30.8784 59.8321 32.8364 59.8316 34.8018Z" fill="url(#paint2_radial_1107_4)"/>
<g style="mix-blend-mode:multiply" opacity="0.4">
<path fill-rule="evenodd" clip-rule="evenodd" d="M17.5379 23.9756C17.0785 24.9157 16.7261 25.6829 16.6353 26.7095C16.5687 27.4617 16.4411 28.1948 16.5155 28.9556C16.5942 29.7518 16.9076 30.4444 17.1479 31.1953C17.4315 32.0886 17.8966 32.9302 18.5709 33.5973C19.728 34.7431 21.3636 34.765 22.7355 34.01C23.4367 33.6243 24.0202 33.106 24.7611 32.7756C25.7806 32.3204 26.742 31.8929 27.4496 30.984C28.221 29.9914 28.5131 28.8301 28.6371 27.5929C28.7137 26.8534 28.8158 26.1621 28.652 25.4241C28.5149 24.8303 28.2913 24.2599 27.9884 23.731C27.7601 23.3297 27.5035 22.9452 27.2206 22.5803C26.8122 22.0599 26.3698 21.8813 25.7891 21.6168C25.4346 21.4545 25.151 21.2694 24.7412 21.2552C24.2736 21.2305 23.8049 21.2409 23.3388 21.2864C22.8057 21.3502 22.3328 21.5495 21.8308 21.7182C21.353 21.8791 20.8553 21.977 20.3887 22.1727C19.931 22.3612 19.4622 22.5217 18.9849 22.6534C18.3646 22.8313 17.864 23.0022 17.3961 23.4659C17.2862 23.575 17.1026 23.7168 17.0125 23.8402C16.8367 24.0813 16.8934 24.3393 17.5379 23.9756Z" fill="#B9BFE2"/>
<path fill-rule="evenodd" clip-rule="evenodd" d="M26.3086 34.2946C26.4411 33.8486 26.5319 32.9978 26.9615 32.6717C27.1541 32.5371 27.3707 32.4408 27.5996 32.3881C27.9499 32.3058 28.1959 32.4186 28.5022 32.5852C29.2693 33.0014 29.1261 34.1847 28.7007 34.8135C28.3341 35.3545 27.4132 35.8352 26.8247 35.3942C26.4114 35.0844 26.1866 34.4434 26.332 33.9316L26.439 33.9096L26.3086 34.2946Z" fill="#B9BFE2"/>
<path fill-rule="evenodd" clip-rule="evenodd" d="M40.8844 41.6456C40.8404 42.122 40.7021 42.8551 40.7787 43.3805C40.85 43.8817 40.9479 44.3787 41.0722 44.8694C41.2949 45.7393 41.6146 46.7503 42.5561 47.0814C43.392 47.3756 44.3917 47.092 45.1794 46.773C46.0217 46.432 46.9654 46.1618 47.724 45.6549C48.4826 45.148 49.2235 44.512 49.79 43.803C50.411 43.0231 50.6712 42.3347 50.6946 41.3173C50.7273 39.8816 50.136 38.6182 49.4007 37.4179C48.5875 36.0885 47.0859 35.7014 45.6488 36.219C44.4435 36.6529 43.8252 37.9489 42.9454 38.811C42.6703 39.0805 42.4682 39.3846 42.1747 39.6136C41.8394 39.8745 41.7117 40.1454 41.5019 40.4913C41.3331 40.7671 41.1077 40.9373 40.9786 41.2521C40.8156 41.6505 40.8844 42.1234 40.8844 41.6456Z" fill="#B9BFE2"/>
<path fill-rule="evenodd" clip-rule="evenodd" d="M51.978 40.8716C52.0588 40.7561 52.6238 39.5139 53.1357 39.5699C53.3818 39.5969 53.5746 39.8691 53.693 40.0662C53.883 40.3881 54.0347 40.688 53.7845 41.0531C53.4647 41.5218 52.1623 41.8678 52.0829 41.0234L51.9794 40.9985L51.978 40.8716Z" fill="#B9BFE2"/>
<path fill-rule="evenodd" clip-rule="evenodd" d="M32.3006 15.0627C32.3822 14.9471 32.9465 13.705 33.4584 13.761C33.7044 13.7879 33.898 14.0609 34.0157 14.2573C34.2064 14.5791 34.3581 14.8783 34.1079 15.2442C33.7874 15.7121 32.4857 16.0581 32.4063 15.2144L32.3021 15.1889L32.3006 15.0627Z" fill="#B9BFE2"/>
<path fill-rule="evenodd" clip-rule="evenodd" d="M45.7261 33.2927C45.8069 33.1778 46.372 31.935 46.8838 31.991C47.1299 32.0179 47.3227 32.2909 47.4411 32.4873C47.6311 32.8091 47.7828 33.1083 47.5326 33.4742C47.2128 33.9421 45.9104 34.2881 45.831 33.4444L45.7275 33.4189L45.7261 33.2927Z" fill="#B9BFE2"/>
<path fill-rule="evenodd" clip-rule="evenodd" d="M42.4325 27.3291C42.1425 28.109 41.7894 28.5854 42.0262 29.3214C42.1418 29.6759 42.1928 30.0523 42.2949 30.4125C42.4927 31.1158 43.0415 31.5433 43.5335 32.0432C44.1837 32.7025 44.7629 32.9067 45.635 32.4884C45.9159 32.3417 46.1825 32.1689 46.4312 31.9723C46.8197 31.6887 46.9778 31.4951 47.211 31.0662C47.4138 30.6869 47.4712 30.3331 47.6237 29.9382C47.7889 29.5128 47.9725 29.1732 47.9867 28.701C48.0002 28.2465 48.0335 27.7524 47.9158 27.3149C47.7598 26.7534 47.462 26.2614 47.1593 25.7722C46.9004 25.332 46.5691 24.9387 46.1795 24.6087C45.8477 24.3407 45.4237 24.3464 45.016 24.2599C44.3127 24.1117 43.2925 24.681 42.9174 25.2596C42.3842 26.0706 42.0999 27.0164 42.4325 27.3291Z" fill="#B9BFE2"/>
<path fill-rule="evenodd" clip-rule="evenodd" d="M40.7555 31.9713C40.8194 32.5126 41.0019 33.033 41.2901 33.4956C41.392 33.4229 41.5114 33.3789 41.6361 33.368C41.641 33.2056 41.7637 33.1489 41.7942 33.01C41.8275 32.8561 41.785 32.647 41.7871 32.4874C41.7871 32.1982 41.69 31.9685 41.595 31.7118C41.517 31.4991 41.4078 31.1397 41.1384 31.1886C40.6279 31.2815 40.6768 31.7019 40.7555 31.9685V31.9713Z" fill="#B9BFE2"/>
<path fill-rule="evenodd" clip-rule="evenodd" d="M16.5697 47.4526C16.6051 47.8922 16.5853 48.2615 16.8285 48.6331C17.078 48.9983 17.3604 49.3401 17.6722 49.654C17.8771 49.8667 18.2549 50.3219 18.6038 50.1269C18.8874 49.9674 18.9852 49.3952 18.9583 49.106C18.9342 48.8734 18.8484 48.6153 18.7924 48.3863C18.7276 48.1192 18.6144 47.8661 18.4584 47.6398C18.1911 47.2562 17.5658 46.5422 17.0241 46.8868C16.8696 46.9854 16.7122 47.0598 16.6292 47.2193C16.5463 47.3789 16.5697 47.5306 16.5697 47.4526Z" fill="#B9BFE2"/>
<path fill-rule="evenodd" clip-rule="evenodd" d="M28.7145 45.5164C28.629 45.2906 28.5682 45.0562 28.533 44.8173C28.5139 44.7867 28.5072 44.7498 28.5143 44.7144C28.5214 44.6789 28.5418 44.6475 28.5713 44.6266C28.6477 44.3702 28.7479 44.1214 28.8705 43.8836C29.1052 43.4617 29.3824 42.991 29.8085 42.7343C29.9638 42.64 30.1268 42.6152 30.3048 42.5727C30.4828 42.5301 30.6593 42.4621 30.8373 42.4309C31.1457 42.377 31.4909 42.4443 31.7894 42.523C32.1219 42.6102 32.5332 42.7138 32.8345 42.8825C33.1223 43.0441 33.2996 43.3299 33.4761 43.5986C33.8384 44.1509 33.9908 44.935 33.4853 45.4717C33.3379 45.6138 33.1758 45.7397 33.0018 45.8475C32.8238 45.9687 32.6558 46.1212 32.4651 46.2225C32.2375 46.3445 31.9355 46.3693 31.6852 46.4204C31.1982 46.5235 30.6934 46.5072 30.2141 46.3729C29.7071 46.2261 29.342 45.878 28.7145 45.5164Z" fill="#B9BFE2"/>
</g>
<path fill-rule="evenodd" clip-rule="evenodd" d="M49.6997 26.2039C49.6997 26.2039 48.398 28.5592 49.0914 32.7727C50.6341 42.1498 55.7899 40.7177 55.4567 36.3645L49.6997 26.2039Z" fill="url(#paint3_linear_1107_4)"/>
<path style="mix-blend-mode:screen" d="M42.9949 50.0487C43.4349 46.4598 39.9241 43.0763 35.1534 42.4914C30.3827 41.9065 26.1585 44.3416 25.7185 47.9305C25.2785 51.5193 28.7892 54.9028 33.56 55.4877C38.3307 56.0726 42.5548 53.6375 42.9949 50.0487Z" fill="url(#paint4_radial_1107_4)"/>
<path fill-rule="evenodd" clip-rule="evenodd" d="M46.2496 13.0586C46.1695 13.0671 46.0901 13.0756 46.01 13.0919C45.7581 13.1384 45.4985 13.1211 45.2549 13.0416C45.0621 12.987 44.9238 12.9076 44.7182 12.8736C44.424 12.8275 44.151 12.702 43.8582 12.6609C43.5477 12.6183 43.279 12.4971 42.9855 12.3922C42.7543 12.3085 42.631 12.3376 42.4105 12.3922C42.19 12.4468 42.0326 12.3589 41.8355 12.2745C41.6129 12.1781 41.3909 12.161 41.1555 12.115C40.543 11.9895 39.9347 11.7924 39.3264 11.6371C38.9492 11.5407 38.6004 11.5407 38.2147 11.5364C37.9126 11.5322 37.6397 11.6201 37.3376 11.6201C37.1446 11.6138 36.9524 11.5927 36.7627 11.557C36.557 11.5194 36.3479 11.5612 36.1423 11.5322C35.836 11.4861 35.6722 11.44 35.3624 11.5364C35.1313 11.6116 34.9512 11.6031 34.72 11.6158C34.451 11.6394 34.1844 11.6857 33.9231 11.7541C33.4608 11.8707 32.9862 11.9314 32.5094 11.9349C32.2258 11.9349 31.8047 11.8548 31.5317 11.9519C31.3552 12.0143 31.2673 12.2036 31.1453 12.3291C30.9106 12.5723 30.6214 12.7906 30.4243 13.0636C30.2272 13.3365 30.0046 13.6173 30.0209 13.9612C30.0379 14.2589 30.1761 14.6078 30.3045 14.8829C30.4385 15.1728 30.4845 15.4366 30.1868 15.6301C29.8076 15.8891 29.3918 16.0899 28.9531 16.2257C28.6695 16.3093 28.4122 16.3597 28.1732 16.1548C28.0846 16.0796 28.0314 15.9329 27.9215 15.8712C27.8116 15.8095 27.6904 15.8712 27.567 15.9088C27.2715 16.0064 26.9703 16.0862 26.6652 16.1477C26.4766 16.1775 26.3107 16.2781 26.1285 16.3115C25.9059 16.3533 25.7464 16.1902 25.5159 16.2441C25.1926 16.32 24.8693 16.4568 24.534 16.471C24.2951 16.4838 23.9923 16.3788 23.791 16.2583C23.674 16.1917 23.6442 16.1243 23.5074 16.1619C23.3792 16.2122 23.2673 16.2968 23.1841 16.4065C23.1047 16.5199 23.0749 16.6667 22.9955 16.7844C22.9118 16.9141 22.8317 17.0403 22.7565 17.1786C22.6174 17.444 22.4574 17.6979 22.278 17.9379C22.1525 18.1059 22.0653 18.3328 21.9235 18.4881C21.8526 18.5717 21.6966 18.6299 21.6044 18.6937C21.3527 18.8695 21.0883 19.029 20.8451 19.2176C20.3751 19.587 19.9305 19.994 19.4519 20.352C19.0875 20.625 18.5756 20.7845 18.1602 20.9561C17.9 21.061 17.6313 21.1369 17.3711 21.246C17.2874 21.2794 17.1321 21.3169 17.0605 21.38C16.9684 21.4594 16.9187 21.6069 16.8344 21.7154C16.6075 21.9926 16.3685 22.2698 16.1963 22.5882C16.099 22.7715 16.0204 22.9641 15.9616 23.1632C15.8694 23.4361 15.7219 23.6878 15.6298 23.9601C15.4412 24.5308 15.4036 25.1271 15.1938 25.6935C15.0718 26.0246 14.896 26.3267 14.745 26.6287C14.4848 27.1406 14.4465 27.7489 14.3713 28.3154C14.3319 28.6607 14.3432 29.0099 14.4046 29.3519C14.4677 29.7 14.4507 30.0609 14.4465 30.4154C14.4422 30.7933 14.2033 31.162 13.9644 31.4477C13.746 31.7122 13.4149 31.8128 13.171 32.0475C12.9654 32.2489 12.718 32.48 12.63 32.765C12.5925 32.8912 12.6258 33.0337 12.6045 33.1677C12.5506 33.4655 12.4748 33.747 12.4329 34.049C12.3917 34.4152 12.3735 34.7837 12.3784 35.1522C12.3784 35.3415 12.3656 35.5343 12.3741 35.7194C12.3826 35.9044 12.4493 36.0675 12.462 36.2483C12.4705 36.3738 12.4457 36.5 12.462 36.6255C12.4875 36.7673 12.5421 36.9154 12.5755 37.0508C12.6591 37.3862 12.7222 37.7138 12.7881 38.0491C12.847 38.3596 12.9682 38.6659 13.0647 38.9708C13.1933 39.3846 13.2944 39.8064 13.3674 40.2335C13.4298 40.5518 13.4255 40.8836 13.4716 41.2069C13.5099 41.4671 13.5687 41.7309 13.5808 41.9911C13.5936 42.386 13.4971 42.7802 13.4929 43.1786C13.4886 43.8501 13.7573 44.5215 13.9126 45.1674C13.9587 45.3482 14.0048 45.5325 14.0544 45.7126C12.1919 42.0247 11.3049 37.9213 11.4779 33.7934C11.6508 29.6655 12.878 25.6507 15.0424 22.1315C17.2069 18.6123 20.2365 15.7061 23.8425 13.6897C27.4486 11.6733 31.5109 10.6139 35.6424 10.6126C36.1714 10.6126 36.6917 10.6289 37.2121 10.6629C40.3527 10.8603 43.4237 11.6743 46.2496 13.0586Z" fill="url(#paint5_linear_1107_4)"/>
<path style="mix-blend-mode:screen" fill-rule="evenodd" clip-rule="evenodd" d="M48.5342 26.2267C47.7486 27.5872 44.968 27.4532 42.3227 25.9261C39.6775 24.3989 38.1709 22.0578 38.9572 20.6966C39.7434 19.3353 42.5241 19.47 45.1686 20.9972C47.8132 22.5243 49.3205 24.8654 48.5342 26.2267Z" fill="url(#paint6_radial_1107_4)"/>
<path fill-rule="evenodd" clip-rule="evenodd" d="M53.9147 43.225C53.9147 43.225 51.4999 43.259 49.5374 45.7178C47.5749 48.1766 47.5919 50.3539 47.8748 51.0835C48.1577 51.813 53.9147 43.225 53.9147 43.225Z" fill="url(#paint7_radial_1107_4)"/>
<path style="mix-blend-mode:screen" fill-rule="evenodd" clip-rule="evenodd" d="M51.6214 38.2206C48.8365 38.5956 46.226 36.2545 45.7829 32.9896C45.3398 29.7247 47.2448 26.7761 50.0298 26.401C52.8147 26.0259 55.4294 28.367 55.869 31.6305C56.3086 34.894 54.4071 37.8455 51.6214 38.2206Z" fill="url(#paint8_radial_1107_4)"/>
<path style="mix-blend-mode:screen" fill-rule="evenodd" clip-rule="evenodd" d="M21.2989 53.6923C18.7834 51.587 16.721 48.9935 15.2363 46.0685C14.2886 44.2002 13.5902 42.2155 13.159 40.1654C13.1551 40.1591 13.1536 40.1515 13.1547 40.1442C12.8123 38.502 12.6395 36.829 12.6393 35.1515C12.6395 28.7365 15.1879 22.5843 19.724 18.0482C24.26 13.5122 30.4122 10.9638 36.8272 10.9636C37.3561 10.9636 37.8758 10.9799 38.3962 11.0139C40.008 11.1175 41.6054 11.3828 43.1641 11.8058C41.2363 11.1755 39.2364 10.7915 37.2122 10.663C36.6918 10.6289 36.1714 10.6126 35.6425 10.6126C32.4656 10.6111 29.3197 11.2357 26.3844 12.4508C23.4491 13.6658 20.7821 15.4474 18.5357 17.6938C16.2894 19.9401 14.5077 22.6072 13.2927 25.5424C12.0777 28.4777 11.4531 31.6237 11.4546 34.8005C11.4546 36.479 11.6276 38.153 11.9707 39.7961C11.9696 39.8032 11.9712 39.8105 11.975 39.8166C12.4056 41.8668 13.1038 43.8514 14.0516 45.7197C15.5876 48.744 17.7404 51.4129 20.3712 53.5542C23.0019 55.6955 26.0522 57.2617 29.3254 58.1518C26.389 57.1929 23.6642 55.679 21.2989 53.6923Z" fill="url(#paint9_radial_1107_4)"/>
<path fill-rule="evenodd" clip-rule="evenodd" d="M51.6733 52.9128C51.6733 52.9128 48.921 53.5785 47.9993 51.5146C47.0776 49.4508 50.5892 44.0334 53.4124 43.3244C56.2356 42.6154 56.7822 45.9327 56.7822 45.9327L51.6733 52.9128Z" fill="#004A59"/>
<path fill-rule="evenodd" clip-rule="evenodd" d="M34.9999 15.0149C34.9999 15.0149 36.1343 18.8243 40.1755 21.6901C46.6982 26.3134 49.3881 24.648 49.3881 24.648L34.9999 15.0149Z" fill="url(#paint10_radial_1107_4)"/>
<path fill-rule="evenodd" clip-rule="evenodd" d="M43.8658 57.2025C43.8658 57.2025 46.6705 55.7306 46.7287 53.7284C46.7868 51.7262 42.496 48.9973 34.1278 47.7928C26.4636 46.6917 20.6031 48.3756 20.216 49.8644C19.8289 51.3533 21.8282 54.9592 25.8914 56.765C29.9547 58.5708 41.7835 58.222 43.8658 57.2025Z" fill="#004A59"/>
<path fill-rule="evenodd" clip-rule="evenodd" d="M30.4653 21.9885C30.4653 21.9885 32.1712 24.6827 34.8185 24.9202C37.4659 25.1577 38.2486 23.0768 38.2486 23.0768C38.2486 23.0768 32.2194 23.0307 30.4653 21.9885Z" fill="url(#paint11_radial_1107_4)"/>
<path fill-rule="evenodd" clip-rule="evenodd" d="M29.3429 19.8513C29.3429 19.8513 30.2646 23.3197 33.8542 24.2371C37.804 25.2453 38.959 22.6604 38.3918 21.2452C37.8246 19.8301 33.1509 17.6606 29.3429 19.8513Z" fill="#00777A"/>
<path fill-rule="evenodd" clip-rule="evenodd" d="M21.6043 18.693C21.6043 18.693 24.0928 19.1546 27.7569 16.978C31.4209 14.8014 30.6637 12.795 30.6637 12.795L21.6043 18.693Z" fill="url(#paint12_radial_1107_4)"/>
<path fill-rule="evenodd" clip-rule="evenodd" d="M20.7343 17.0939C20.7343 17.0939 19.8013 18.3758 21.6035 18.6927C23.4058 19.0096 29.4988 16.0198 30.6226 13.7588C31.7463 11.4978 25.839 10.2302 20.7343 17.0939Z" fill="#00777A"/>
<path fill-rule="evenodd" clip-rule="evenodd" d="M36.8854 12.3979C36.8854 12.3979 34.489 12.8098 34.36 14.0555C34.2309 15.3012 38.1531 20.2755 42.4219 22.9101C46.6907 25.5447 50.8702 24.6564 51.5147 24.009C52.1592 23.3617 45.9371 13.0452 36.8854 12.3979Z" fill="#006D7A"/>
<path fill-rule="evenodd" clip-rule="evenodd" d="M53.6297 26.6275C53.6297 26.6275 51.3475 24.2361 49.5367 25.133C48.0478 25.871 48.6859 33.1814 50.2343 35.9692C51.7828 38.7569 53.7793 38.5045 54.5592 37.8891C55.3391 37.2737 55.5021 29.1019 53.6297 26.6275Z" fill="#004A59"/>
<path fill-rule="evenodd" clip-rule="evenodd" d="M53.4754 21.2434C53.2592 21.1856 53.0302 21.1978 52.8214 21.2783C52.6126 21.3588 52.4347 21.5035 52.3133 21.6915C51.8475 22.3622 55.072 26.955 56.4255 27.4967C57.7789 28.0384 58.0512 26.0943 58.0512 26.0943L53.4754 21.2434Z" fill="#004A59"/>
<path fill-rule="evenodd" clip-rule="evenodd" d="M36.1755 13.9809C35.0986 15.8087 44.8153 26.1926 50.6864 24.235C51.8477 23.8486 52.4759 16.2234 48.5595 12.6111C45.3045 9.60573 38.3039 10.3693 36.1755 13.9809Z" fill="url(#paint13_radial_1107_4)"/>
<path fill-rule="evenodd" clip-rule="evenodd" d="M50.6863 26.2976C48.9301 27.0328 49.2031 34.8104 51.3953 37.0672C53.5875 39.3239 56.9424 36.0377 57.265 32.6175C57.5876 29.1974 53.4577 25.137 50.6863 26.2976Z" fill="url(#paint14_radial_1107_4)"/>
<path fill-rule="evenodd" clip-rule="evenodd" d="M52.9434 22.1283C52.8385 23.7058 56.2353 27.1054 57.286 26.7509C58.3367 26.3964 59.3314 23.8922 58.6224 22.1297C57.9135 20.3671 53.0725 20.1934 52.9434 22.1283Z" fill="url(#paint15_radial_1107_4)"/>
<path fill-rule="evenodd" clip-rule="evenodd" d="M22.1455 49.0612C17.6044 50.231 25.1466 59.1586 31.597 60.3341C39.1428 61.7039 46.0072 56.6119 46.1363 53.8036C46.2653 50.9953 30.6583 46.8683 22.1455 49.0612Z" fill="url(#paint16_radial_1107_4)"/>
<path fill-rule="evenodd" clip-rule="evenodd" d="M48.7079 51.3961C47.8727 49.401 52.6726 43.1286 54.8981 43.8688C57.1236 44.609 58.5735 49.7966 55.5752 51.925C53.7899 53.192 49.5771 53.4798 48.7079 51.3961Z" fill="url(#paint17_radial_1107_4)"/>
<path fill-rule="evenodd" clip-rule="evenodd" d="M21.6953 18.198C23.9201 18.6822 29.1836 15.0217 30.1443 13.2761C31.105 11.5306 26.1867 9.21789 22.875 10.9202C20.5325 12.1255 19.725 17.7683 21.6953 18.198Z" fill="url(#paint18_radial_1107_4)"/>
<path fill-rule="evenodd" clip-rule="evenodd" d="M30.2689 18.2422C27.7874 19.3921 30.5929 22.6436 33.4487 23.5844C36.3045 24.5252 38.82 22.8151 38.3365 20.9136C37.853 19.0121 34.6604 16.2038 30.2689 18.2422Z" fill="url(#paint19_radial_1107_4)"/>
<path fill-rule="evenodd" clip-rule="evenodd" d="M23.9808 47.6223C23.9808 47.6223 33.5522 46.2476 42.9172 50.1803C42.9172 50.1803 34.0967 44.7601 23.9808 47.6223Z" fill="url(#paint20_radial_1107_4)"/>
<path fill-rule="evenodd" clip-rule="evenodd" d="M52.3132 22.1608C52.3132 22.1608 52.9456 25.2059 55.4597 26.7756C55.4597 26.7756 53.0803 24.3905 52.3132 22.1608Z" fill="url(#paint21_radial_1107_4)"/>
<path style="mix-blend-mode:screen" fill-rule="evenodd" clip-rule="evenodd" d="M11.4547 34.8006C11.566 36.0286 12.1743 29.3804 14.3707 28.314C16.5672 27.2477 23.2494 32.0299 26.3307 33.9299C33.449 38.3193 41.4428 33.3358 43.4174 30.6551C45.3919 27.9744 42.4312 23.7779 40.753 22.8463C39.0748 21.9147 38.2304 26.0368 34.8159 25.5554C31.4014 25.074 28.7746 21.1483 28.5059 19.8537C28.2372 18.559 31.4638 16.6887 32.818 16.4952C34.1721 16.3016 35.6646 12.5064 34.7152 11.6194C33.7659 10.7325 32.2054 14.9517 28.5059 17.4615C25.8528 19.2617 21.7251 20.8611 19.5329 17.614C19.5372 17.614 10.5309 24.6011 11.4547 34.8006Z" fill="url(#paint22_radial_1107_4)"/>
<path style="mix-blend-mode:screen" fill-rule="evenodd" clip-rule="evenodd" d="M36.9495 14.3191C36.8445 15.9731 40.4831 15.2124 43.7444 15.0146C47.0058 14.8168 49.5362 14.8288 49.5362 14.8288C49.5362 14.8288 47.0788 11.9496 42.9574 11.4966C38.8361 11.0435 37.014 13.3052 36.9495 14.3191Z" fill="url(#paint23_linear_1107_4)"/>
<path style="mix-blend-mode:screen" fill-rule="evenodd" clip-rule="evenodd" d="M21.335 16.3289C22.3276 16.7827 22.568 13.7766 23.9221 12.3955C25.2763 11.0143 26.8892 10.7478 26.8892 10.7478C26.8892 10.7478 24.1157 10.6932 22.3744 11.4972C20.6331 12.3012 20.4899 15.9447 21.335 16.3289Z" fill="url(#paint24_linear_1107_4)"/>
<path style="mix-blend-mode:screen" fill-rule="evenodd" clip-rule="evenodd" d="M29.9525 18.9179C29.9525 18.9179 31.5647 17.6559 33.6931 17.7531C35.8215 17.8502 37.3685 19.2731 37.3685 19.2731C37.3685 19.2731 35.757 18.7847 34.6283 19.1392C33.4996 19.4936 31.7583 21.3732 29.9525 18.9179Z" fill="url(#paint25_linear_1107_4)"/>
<path style="mix-blend-mode:screen" fill-rule="evenodd" clip-rule="evenodd" d="M50.4927 26.7755C50.4927 26.7755 52.7501 25.9247 54.8459 27.8857C56.9416 29.8468 57.1033 31.6101 57.1033 31.6101C57.1033 31.6101 55.7491 29.554 54.3949 29.3597C53.0408 29.1655 51.3803 30.1673 50.6926 29.5547C50.0049 28.9421 49.9021 27.3823 50.4927 26.7755Z" fill="url(#paint26_linear_1107_4)"/>
<path style="mix-blend-mode:screen" fill-rule="evenodd" clip-rule="evenodd" d="M53.4101 21.5249C53.4101 21.5249 53.8865 20.8868 55.4597 20.9244C57.033 20.962 58.0121 21.6859 58.3928 22.1602C58.7736 22.6345 58.5545 24.2361 58.5545 24.2361C58.5545 24.2361 58.4254 22.9436 57.7803 22.3311C57.1351 21.7185 53.3923 23.2052 53.4101 21.5249Z" fill="url(#paint27_linear_1107_4)"/>
<path style="mix-blend-mode:screen" fill-rule="evenodd" clip-rule="evenodd" d="M49.5362 48.6771C49.5362 48.6771 52.3431 44.1332 54.3616 44.4494C56.3801 44.7656 57.1025 47.9029 57.1025 47.9029C57.1025 47.9029 55.8873 46.2198 53.4087 46.4849C50.9301 46.7501 49.5362 48.6771 49.5362 48.6771Z" fill="url(#paint28_linear_1107_4)"/>
<path style="mix-blend-mode:screen" fill-rule="evenodd" clip-rule="evenodd" d="M21.3346 50.1726C21.3346 50.1726 25.1851 48.2328 32.8861 49.3218C40.5872 50.4108 44.9723 52.9185 44.9723 52.9185C44.9723 52.9185 37.0018 51.1914 32.2998 51.9656C27.5978 52.7398 26.1649 56.864 26.1649 56.864C26.1649 56.864 20.3597 54.3776 21.3346 50.1726Z" fill="url(#paint29_linear_1107_4)"/>
<path fill-rule="evenodd" clip-rule="evenodd" d="M33.8033 60.0272C33.8033 60.0272 39.1207 59.2807 41.8063 58.0421C41.8063 58.0421 36.2025 61.1886 33.8033 60.0272Z" fill="#FFFF8D"/>
<path fill-rule="evenodd" clip-rule="evenodd" d="M49.3867 51.5144C49.3867 51.5144 51.525 52.2234 54.3624 51.966C54.3624 51.966 51.0181 53.2536 49.3867 51.5144Z" fill="#FFFF8D"/>
<path fill-rule="evenodd" clip-rule="evenodd" d="M50.1081 32.9765C50.1081 32.9765 51.8544 36.1733 53.6056 36.9823C53.6056 36.9823 51.5204 37.721 50.1081 32.9765Z" fill="#FFFF8D"/>
<path fill-rule="evenodd" clip-rule="evenodd" d="M41.256 19.8519C41.256 19.8519 44.4542 23.4018 49.537 23.8506L41.256 19.8519Z" fill="#FFFF8D"/>
<path fill-rule="evenodd" clip-rule="evenodd" d="M30.7628 21.2454C30.7628 21.2454 32.4743 23.5198 35.6442 23.585L30.7628 21.2454Z" fill="#FFFF8D"/>
<path fill-rule="evenodd" clip-rule="evenodd" d="M21.6037 17.7461C21.6037 17.7461 24.9722 17.2498 28.51 14.7449L21.6037 17.7461Z" fill="#FFFF8D"/>
<path fill-rule="evenodd" clip-rule="evenodd" d="M14.9702 31.6026C14.9702 31.6026 18.7002 34.5137 20.277 41.5547C20.277 41.5547 21.1774 34.6421 14.9702 31.6026Z" fill="url(#paint30_radial_1107_4)"/>
<path fill-rule="evenodd" clip-rule="evenodd" d="M15.0672 46.4367C15.0672 46.4367 18.1038 47.9079 19.7025 46.3658C21.3013 44.8238 20.3215 39.6063 18.1243 35.6537C15.9272 31.7011 13.238 29.9527 12.1128 30.5256C11.3372 30.9219 7.2314 40.7549 15.0672 46.4367Z" fill="#00777A"/>
<path fill-rule="evenodd" clip-rule="evenodd" d="M12.6537 31.5077C10.6459 31.0007 9.0556 37.9418 10.0794 41.7058C11.4109 46.5978 17.9633 47.3238 19.3466 45.8406C20.7298 44.3574 19.7925 33.3092 12.6537 31.5077Z" fill="url(#paint31_radial_1107_4)"/>
<path style="mix-blend-mode:screen" fill-rule="evenodd" clip-rule="evenodd" d="M10.5166 41.181C10.5166 41.181 9.96426 34.0436 11.746 32.7568C13.5276 31.47 16.2183 34.1869 16.2183 34.1869C16.2183 34.1869 14.9258 34.5343 13.2405 35.4708C11.5552 36.4074 10.5166 41.181 10.5166 41.181Z" fill="url(#paint32_linear_1107_4)"/>
<path fill-rule="evenodd" clip-rule="evenodd" d="M12.8901 44.6548C12.8901 44.6548 15.2574 45.9395 17.0157 46.0813C17.0157 46.0813 14.715 46.9718 12.8901 44.6548Z" fill="#FFFF8D"/>
<path style="mix-blend-mode:screen" fill-rule="evenodd" clip-rule="evenodd" d="M58.2884 50.2746C58.6642 51.8032 57.3207 53.448 55.288 53.9472C53.2553 54.4463 51.3028 53.6118 50.927 52.0832C50.5512 50.5546 51.8976 48.9098 53.9274 48.4099C55.9573 47.9101 57.9127 48.7453 58.2884 50.2746Z" fill="url(#paint33_radial_1107_4)"/>
<path style="mix-blend-mode:screen" d="M12.0482 45.7532C14.2259 45.5753 15.7996 43.0843 15.5631 40.1893C15.3266 37.2943 13.3695 35.0917 11.1918 35.2696C9.01417 35.4475 7.44053 37.9385 7.67701 40.8335C7.9135 43.7285 9.87056 45.9311 12.0482 45.7532Z" fill="url(#paint34_radial_1107_4)"/>
<path style="mix-blend-mode:screen" fill-rule="evenodd" clip-rule="evenodd" d="M20.3338 15.2503C19.0044 14.174 18.9491 12.04 20.2097 10.483C21.4703 8.92608 23.5696 8.53543 24.8982 9.61097C26.2269 10.6865 26.2829 12.8213 25.0223 14.3789C23.7617 15.9366 21.6624 16.3272 20.3338 15.2503Z" fill="url(#paint35_radial_1107_4)"/>
<path style="mix-blend-mode:screen" d="M57.2979 29.3746C60.083 28.9995 61.9845 26.0498 61.5449 22.7862C61.1054 19.5226 58.4913 17.181 55.7062 17.5561C52.9211 17.9312 51.0196 20.8809 51.4591 24.1445C51.8987 27.4081 54.5127 29.7497 57.2979 29.3746Z" fill="url(#paint36_radial_1107_4)"/>
<path style="mix-blend-mode:screen" d="M25.4551 43.3293C37.4848 43.3293 47.2367 34.0309 47.2367 22.5608C47.2367 11.0907 37.4848 1.79236 25.4551 1.79236C13.4255 1.79236 3.67355 11.0907 3.67355 22.5608C3.67355 34.0309 13.4255 43.3293 25.4551 43.3293Z" fill="url(#paint37_radial_1107_4)"/>
<defs>
<radialGradient id="paint0_radial_1107_4" cx="0" cy="0" r="1" gradientUnits="userSpaceOnUse" gradientTransform="translate(35 35) scale(35)">
<stop offset="0.01" stop-color="#00FF00"/>
<stop offset="1"/>
</radialGradient>
<radialGradient id="paint1_radial_1107_4" cx="0" cy="0" r="1" gradientUnits="userSpaceOnUse" gradientTransform="translate(36.698 35.67) scale(27.1557 27.1557)">
<stop offset="0.03" stop-color="#00FFA9"/>
<stop offset="0.15" stop-color="#00FBA6"/>
<stop offset="0.27" stop-color="#00EF9E"/>
<stop offset="0.39" stop-color="#00DB91"/>
<stop offset="0.52" stop-color="#00BF7E"/>
<stop offset="0.64" stop-color="#009B66"/>
<stop offset="0.76" stop-color="#006E49"/>
<stop offset="0.88" stop-color="#003B27"/>
<stop offset="1"/>
</radialGradient>
<radialGradient id="paint2_radial_1107_4" cx="0" cy="0" r="1" gradientUnits="userSpaceOnUse" gradientTransform="translate(20.6627 23.4877) scale(38.8548 38.8548)">
<stop offset="0.01" stop-color="#0CC463"/>
<stop offset="0.21" stop-color="#0CC163"/>
<stop offset="0.36" stop-color="#0BB765"/>
<stop offset="0.5" stop-color="#09A767"/>
<stop offset="0.63" stop-color="#078F6B"/>
<stop offset="0.76" stop-color="#04726F"/>
<stop offset="0.87" stop-color="#004F74"/>
</radialGradient>
<linearGradient id="paint3_linear_1107_4" x1="52.1833" y1="39.7499" x2="52.1833" y2="26.2039" gradientUnits="userSpaceOnUse">
<stop stop-color="#007C6F"/>
<stop offset="0.66" stop-color="#29D73B"/>
<stop offset="0.99" stop-color="#3BFF24"/>
</linearGradient>
<radialGradient id="paint4_radial_1107_4" cx="0" cy="0" r="1" gradientUnits="userSpaceOnUse" gradientTransform="translate(34.7652 48.7138) rotate(6.99) scale(8.71907 6.52625)">
<stop stop-color="#00FF00"/>
<stop offset="1"/>
</radialGradient>
<linearGradient id="paint5_linear_1107_4" x1="11.4545" y1="28.1651" x2="46.2496" y2="28.1651" gradientUnits="userSpaceOnUse">
<stop offset="0.01" stop-color="#92FF2C"/>
<stop offset="0.23" stop-color="#8FFC2D"/>
<stop offset="0.39" stop-color="#86F332"/>
<stop offset="0.54" stop-color="#76E33A"/>
<stop offset="0.67" stop-color="#5FCD44"/>
<stop offset="0.8" stop-color="#42B152"/>
<stop offset="0.91" stop-color="#1F8E63"/>
<stop offset="1" stop-color="#007072"/>
</linearGradient>
<radialGradient id="paint6_radial_1107_4" cx="0" cy="0" r="1" gradientUnits="userSpaceOnUse" gradientTransform="translate(43.2026 22.8165) rotate(30.0024) scale(5.51977 2.84051)">
<stop stop-color="#00FF00"/>
<stop offset="1"/>
</radialGradient>
<radialGradient id="paint7_radial_1107_4" cx="0" cy="0" r="1" gradientUnits="userSpaceOnUse" gradientTransform="translate(52.1911 47.0245) scale(3.47263)">
<stop offset="0.01" stop-color="#3BFF24"/>
<stop offset="0.53" stop-color="#26D832"/>
<stop offset="1" stop-color="#11B140"/>
</radialGradient>
<radialGradient id="paint8_radial_1107_4" cx="0" cy="0" r="1" gradientUnits="userSpaceOnUse" gradientTransform="translate(50.2631 31.9018) rotate(82.4054) scale(5.95404 5.08894)">
<stop stop-color="#00FF00"/>
<stop offset="1"/>
</radialGradient>
<radialGradient id="paint9_radial_1107_4" cx="0" cy="0" r="1" gradientUnits="userSpaceOnUse" gradientTransform="translate(17.9666 18.3371) scale(31.8372 31.8372)">
<stop stop-color="#FFFF4A"/>
<stop offset="1"/>
</radialGradient>
<radialGradient id="paint10_radial_1107_4" cx="0" cy="0" r="1" gradientUnits="userSpaceOnUse" gradientTransform="translate(45.3731 19.7871) scale(5.09693)">
<stop offset="0.02" stop-color="#B0FF24"/>
<stop offset="0.29" stop-color="#88F72B"/>
<stop offset="0.89" stop-color="#25E43D"/>
<stop offset="1" stop-color="#11E040"/>
</radialGradient>
<radialGradient id="paint11_radial_1107_4" cx="0" cy="0" r="1" gradientUnits="userSpaceOnUse" gradientTransform="translate(36.077 23.4065) scale(2.0738)">
<stop offset="0.02" stop-color="#B0FF24"/>
<stop offset="0.29" stop-color="#88F72B"/>
<stop offset="0.89" stop-color="#25E43D"/>
<stop offset="1" stop-color="#11E040"/>
</radialGradient>
<radialGradient id="paint12_radial_1107_4" cx="0" cy="0" r="1" gradientUnits="userSpaceOnUse" gradientTransform="translate(28.1823 15.6501) scale(3.12026)">
<stop offset="0.02" stop-color="#B0FF24"/>
<stop offset="0.29" stop-color="#88F72B"/>
<stop offset="0.89" stop-color="#25E43D"/>
<stop offset="1" stop-color="#11E040"/>
</radialGradient>
<radialGradient id="paint13_radial_1107_4" cx="0" cy="0" r="1" gradientUnits="userSpaceOnUse" gradientTransform="translate(43.4476 20.4029) scale(7.31323)">
<stop offset="0.01" stop-color="#00FF24"/>
<stop offset="0.19" stop-color="#28FF1E"/>
<stop offset="0.58" stop-color="#8DFF10"/>
<stop offset="1" stop-color="#FFFF00"/>
</radialGradient>
<radialGradient id="paint14_radial_1107_4" cx="0" cy="0" r="1" gradientUnits="userSpaceOnUse" gradientTransform="translate(50.7976 33.1138) scale(4.96577 4.96577)">
<stop offset="0.01" stop-color="#00FF24"/>
<stop offset="0.19" stop-color="#28FF1E"/>
<stop offset="0.58" stop-color="#8DFF10"/>
<stop offset="1" stop-color="#FFFF00"/>
</radialGradient>
<radialGradient id="paint15_radial_1107_4" cx="0" cy="0" r="1" gradientUnits="userSpaceOnUse" gradientTransform="translate(55.0286 24.8224) scale(2.98839)">
<stop offset="0.01" stop-color="#00FF24"/>
<stop offset="0.19" stop-color="#28FF1E"/>
<stop offset="0.58" stop-color="#8DFF10"/>
<stop offset="1" stop-color="#FFFF00"/>
</radialGradient>
<radialGradient id="paint16_radial_1107_4" cx="0" cy="0" r="1" gradientUnits="userSpaceOnUse" gradientTransform="translate(32.8193 56.9636) scale(11.1014 11.1014)">
<stop offset="0.01" stop-color="#00FF24"/>
<stop offset="0.19" stop-color="#28FF1E"/>
<stop offset="0.58" stop-color="#8DFF10"/>
<stop offset="1" stop-color="#FFFF00"/>
</radialGradient>
<radialGradient id="paint17_radial_1107_4" cx="0" cy="0" r="1" gradientUnits="userSpaceOnUse" gradientTransform="translate(52.7265 50.2128) scale(4.25748)">
<stop offset="0.01" stop-color="#00FF24"/>
<stop offset="0.19" stop-color="#28FF1E"/>
<stop offset="0.58" stop-color="#8DFF10"/>
<stop offset="1" stop-color="#FFFF00"/>
</radialGradient>
<radialGradient id="paint18_radial_1107_4" cx="0" cy="0" r="1" gradientUnits="userSpaceOnUse" gradientTransform="translate(25.1863 15.8909) scale(4.50634)">
<stop offset="0.01" stop-color="#00FF24"/>
<stop offset="0.19" stop-color="#28FF1E"/>
<stop offset="0.58" stop-color="#8DFF10"/>
<stop offset="1" stop-color="#FFFF00"/>
</radialGradient>
<radialGradient id="paint19_radial_1107_4" cx="0" cy="0" r="1" gradientUnits="userSpaceOnUse" gradientTransform="translate(33.6288 21.9729) scale(4.12278 4.12278)">
<stop offset="0.01" stop-color="#00FF24"/>
<stop offset="0.19" stop-color="#28FF1E"/>
<stop offset="0.58" stop-color="#8DFF10"/>
<stop offset="1" stop-color="#FFFF00"/>
</radialGradient>
<radialGradient id="paint20_radial_1107_4" cx="0" cy="0" r="1" gradientUnits="userSpaceOnUse" gradientTransform="translate(32.9786 49.1736) scale(8.03853 8.03853)">
<stop offset="0.01" stop-color="#3BFF24"/>
<stop offset="0.53" stop-color="#26D832"/>
<stop offset="1" stop-color="#11B140"/>
</radialGradient>
<radialGradient id="paint21_radial_1107_4" cx="0" cy="0" r="1" gradientUnits="userSpaceOnUse" gradientTransform="translate(54.582 24.3799) scale(1.99084)">
<stop offset="0.01" stop-color="#3BFF24"/>
<stop offset="0.53" stop-color="#26D832"/>
<stop offset="1" stop-color="#11B140"/>
</radialGradient>
<radialGradient id="paint22_radial_1107_4" cx="0" cy="0" r="1" gradientUnits="userSpaceOnUse" gradientTransform="translate(18.5424 20.9249) scale(25.2315 25.2315)">
<stop stop-color="#97FF11"/>
<stop offset="1"/>
</radialGradient>
<linearGradient id="paint23_linear_1107_4" x1="39.4174" y1="11.1392" x2="46.5924" y2="17.937" gradientUnits="userSpaceOnUse">
<stop stop-color="#FFFFE8"/>
<stop offset="0.2" stop-color="#BBBBAA"/>
<stop offset="0.42" stop-color="#79796E"/>
<stop offset="0.61" stop-color="#45453F"/>
<stop offset="0.78" stop-color="#1F1F1D"/>
<stop offset="0.91" stop-color="#080808"/>
<stop offset="1"/>
</linearGradient>
<linearGradient id="paint24_linear_1107_4" x1="22.0752" y1="11.6262" x2="24.2582" y2="13.6943" gradientUnits="userSpaceOnUse">
<stop stop-color="#FFFFE8"/>
<stop offset="0.2" stop-color="#BBBBAA"/>
<stop offset="0.42" stop-color="#79796E"/>
<stop offset="0.61" stop-color="#45453F"/>
<stop offset="0.78" stop-color="#1F1F1D"/>
<stop offset="0.91" stop-color="#080808"/>
<stop offset="1"/>
</linearGradient>
<linearGradient id="paint25_linear_1107_4" x1="31.5924" y1="17.1873" x2="35.6776" y2="21.0577" gradientUnits="userSpaceOnUse">
<stop stop-color="#FFFFE8"/>
<stop offset="0.2" stop-color="#BBBBAA"/>
<stop offset="0.42" stop-color="#79796E"/>
<stop offset="0.61" stop-color="#45453F"/>
<stop offset="0.78" stop-color="#1F1F1D"/>
<stop offset="0.91" stop-color="#080808"/>
<stop offset="1"/>
</linearGradient>
<linearGradient id="paint26_linear_1107_4" x1="50.599" y1="26.6634" x2="56.4964" y2="32.251" gradientUnits="userSpaceOnUse">
<stop stop-color="#FFFFE8"/>
<stop offset="0.2" stop-color="#BBBBAA"/>
<stop offset="0.42" stop-color="#79796E"/>
<stop offset="0.61" stop-color="#45453F"/>
<stop offset="0.78" stop-color="#1F1F1D"/>
<stop offset="0.91" stop-color="#080808"/>
<stop offset="1"/>
</linearGradient>
<linearGradient id="paint27_linear_1107_4" x1="54.3488" y1="20.5316" x2="58.4141" y2="24.3843" gradientUnits="userSpaceOnUse">
<stop stop-color="#FFFFE8"/>
<stop offset="0.2" stop-color="#BBBBAA"/>
<stop offset="0.42" stop-color="#79796E"/>
<stop offset="0.61" stop-color="#45453F"/>
<stop offset="0.78" stop-color="#1F1F1D"/>
<stop offset="0.91" stop-color="#080808"/>
<stop offset="1"/>
</linearGradient>
<linearGradient id="paint28_linear_1107_4" x1="51.6171" y1="45.978" x2="55.4683" y2="49.6279" gradientUnits="userSpaceOnUse">
<stop stop-color="#FFFFE8"/>
<stop offset="0.2" stop-color="#BBBBAA"/>
<stop offset="0.42" stop-color="#79796E"/>
<stop offset="0.61" stop-color="#45453F"/>
<stop offset="0.78" stop-color="#1F1F1D"/>
<stop offset="0.91" stop-color="#080808"/>
<stop offset="1"/>
</linearGradient>
<linearGradient id="paint29_linear_1107_4" x1="25.4928" y1="45.7839" x2="39.3188" y2="58.8847" gradientUnits="userSpaceOnUse">
<stop stop-color="#FFFFE8"/>
<stop offset="0.2" stop-color="#BBBBAA"/>
<stop offset="0.42" stop-color="#79796E"/>
<stop offset="0.61" stop-color="#45453F"/>
<stop offset="0.78" stop-color="#1F1F1D"/>
<stop offset="0.91" stop-color="#080808"/>
<stop offset="1"/>
</linearGradient>
<radialGradient id="paint30_radial_1107_4" cx="0" cy="0" r="1" gradientUnits="userSpaceOnUse" gradientTransform="translate(19.2938 36.8334) rotate(14.16) scale(3.76474)">
<stop offset="0.02" stop-color="#B0FF24"/>
<stop offset="0.29" stop-color="#88F72B"/>
<stop offset="0.89" stop-color="#25E43D"/>
<stop offset="1" stop-color="#11E040"/>
</radialGradient>
<radialGradient id="paint31_radial_1107_4" cx="0" cy="0" r="1" gradientUnits="userSpaceOnUse" gradientTransform="translate(14.2187 41.8522) rotate(14.16) scale(5.91227)">
<stop offset="0.01" stop-color="#00FF24"/>
<stop offset="0.19" stop-color="#28FF1E"/>
<stop offset="0.58" stop-color="#8DFF10"/>
<stop offset="1" stop-color="#FFFF00"/>
</radialGradient>
<linearGradient id="paint32_linear_1107_4" x1="10.6798" y1="33.4345" x2="14.139" y2="38.8897" gradientUnits="userSpaceOnUse">
<stop stop-color="#FFFFE8"/>
<stop offset="0.2" stop-color="#BBBBAA"/>
<stop offset="0.42" stop-color="#79796E"/>
<stop offset="0.61" stop-color="#45453F"/>
<stop offset="0.78" stop-color="#1F1F1D"/>
<stop offset="0.91" stop-color="#080808"/>
<stop offset="1"/>
</linearGradient>
<radialGradient id="paint33_radial_1107_4" cx="0" cy="0" r="1" gradientUnits="userSpaceOnUse" gradientTransform="translate(54.8068 50.9082) rotate(-13.8697) scale(3.79407 2.85659)">
<stop stop-color="#00FF00"/>
<stop offset="1"/>
</radialGradient>
<radialGradient id="paint34_radial_1107_4" cx="0" cy="0" r="1" gradientUnits="userSpaceOnUse" gradientTransform="translate(12.778 41.1258) rotate(85.33) scale(5.26886 3.94376)">
<stop stop-color="#00FF00"/>
<stop offset="1"/>
</radialGradient>
<radialGradient id="paint35_radial_1107_4" cx="0" cy="0" r="1" gradientUnits="userSpaceOnUse" gradientTransform="translate(21.2002 12.6867) rotate(128.928) scale(3.63608 3.10939)">
<stop stop-color="#00FF00"/>
<stop offset="1"/>
</radialGradient>
<radialGradient id="paint36_radial_1107_4" cx="0" cy="0" r="1" gradientUnits="userSpaceOnUse" gradientTransform="translate(57.1835 24.0419) rotate(82.33) scale(5.97335 5.07913)">
<stop stop-color="#00FF00"/>
<stop offset="1"/>
</radialGradient>
<radialGradient id="paint37_radial_1107_4" cx="0" cy="0" r="1" gradientUnits="userSpaceOnUse" gradientTransform="translate(25.1203 22.5923) scale(21.7255 20.7809)">
<stop offset="0.01" stop-color="#0092FF"/>
<stop offset="0.08" stop-color="#0077D0"/>
<stop offset="0.17" stop-color="#005BA0"/>
<stop offset="0.27" stop-color="#004375"/>
<stop offset="0.36" stop-color="#002E51"/>
<stop offset="0.47" stop-color="#001D33"/>
<stop offset="0.57" stop-color="#00101D"/>
<stop offset="0.69" stop-color="#00070C"/>
<stop offset="0.82" stop-color="#000203"/>
<stop offset="1"/>
</radialGradient>
</defs>
</svg>
