<svg width="20" height="17" viewBox="0 0 20 17" fill="none" xmlns="http://www.w3.org/2000/svg">
<path d="M19.3288 2.29878L17.9269 2.29871V0.773585C17.9269 0.424416 17.6838 0.127756 17.3552 0.0760953C17.2978 0.067037 15.932 -0.141446 14.2874 0.173048C12.4539 0.523633 10.9917 1.38821 9.99997 2.69522C9.00818 1.38821 7.54597 0.523633 5.71257 0.173048C4.06786 -0.141375 2.70208 0.067037 2.64477 0.0760953C2.31615 0.127827 2.07306 0.424487 2.07306 0.773585L2.07306 2.29871L0.671109 2.29871C0.300538 2.29871 0 2.61455 0 3.00405L0 16.2947C0 16.523 0.105185 16.7372 0.282356 16.8696C0.459527 17.0019 0.686664 17.0359 0.891849 16.9607C0.942219 16.9424 5.97136 15.1387 9.72145 16.9363C9.89842 17.0212 10.1016 17.0212 10.2786 16.9363C14.0181 15.1438 19.058 16.9425 19.1081 16.9607C19.1801 16.987 19.2545 17 19.3288 17C19.4663 17 19.6025 16.9556 19.7176 16.8696C19.8948 16.7373 20 16.5231 20 16.2947L20 3.00412C19.9999 2.61462 19.6995 2.29878 19.3288 2.29878ZM1.34229 15.351L1.34229 3.70933L2.07306 3.70933L2.07306 13.1021C2.07306 13.307 2.15838 13.5017 2.30592 13.6356C2.45346 13.7696 2.64969 13.8297 2.84255 13.7997C2.87959 13.7941 5.79513 13.3734 7.92523 14.9093C5.30133 14.4378 2.67521 14.9832 1.34229 15.351ZM9.32886 14.2732C8.39068 13.3824 7.16866 12.78 5.71257 12.5016C5.01183 12.3676 4.36174 12.3285 3.84187 12.3285C3.68753 12.3285 3.54463 12.332 3.41541 12.3374L3.41541 1.42126H3.41534C4.70524 1.36011 7.84307 1.50504 9.32886 4.15198L9.32886 14.2732ZM10.6711 4.15205C12.1515 1.51644 15.2943 1.36492 16.5846 1.42302L16.5846 12.3374C16.0201 12.3135 15.196 12.3278 14.2874 12.5016C12.8313 12.78 11.6093 13.3823 10.6711 14.2732L10.6711 4.15205ZM12.0725 14.9097C14.2028 13.3729 17.1199 13.794 17.1563 13.7997C17.3496 13.8302 17.5457 13.7704 17.6937 13.6365C17.8418 13.5025 17.9269 13.3075 17.9269 13.1021L17.9269 3.7094L18.6576 3.7094L18.6576 15.351C17.3243 14.983 14.6971 14.4374 12.0725 14.9097Z" fill="#939495"/>
</svg>
