<svg width="20" height="20" viewBox="0 0 20 20" fill="none" xmlns="http://www.w3.org/2000/svg">
<path fill-rule="evenodd" clip-rule="evenodd" d="M14.799 11.6942C15.4126 11.6942 15.9275 12.1993 15.8337 12.8038C15.2834 16.3597 12.232 18.9999 8.55169 18.9999C4.47996 18.9999 1.17969 15.7075 1.17969 11.6465C1.17969 8.30062 3.72763 5.18394 6.59623 4.47924C7.21263 4.32742 7.84436 4.75997 7.84436 5.39305C7.84436 9.68231 7.98889 10.7919 8.80534 11.3953C9.62179 11.9988 10.5818 11.6942 14.799 11.6942Z" stroke="#939495" stroke-width="1.5" stroke-linecap="round" stroke-linejoin="round"/>
<path fill-rule="evenodd" clip-rule="evenodd" d="M18.8129 8.12236C18.8617 5.36662 15.4686 0.924583 11.3337 1.00097C11.0121 1.0067 10.7546 1.27406 10.7402 1.59394C10.6359 3.85984 10.7766 6.79605 10.8551 8.12713C10.879 8.54154 11.2054 8.86715 11.6199 8.89102C12.9915 8.96932 16.0419 9.07627 18.2807 8.73825C18.5851 8.69241 18.8081 8.42887 18.8129 8.12236Z" stroke="#939495" stroke-width="1.5" stroke-linecap="round" stroke-linejoin="round"/>
</svg>
