<svg width="18" height="18" viewBox="0 0 18 18" fill="none" xmlns="http://www.w3.org/2000/svg">
<path fill-rule="evenodd" clip-rule="evenodd" d="M5.2286 0H12.7715C15.5516 0 17.0996 1.602 17.0996 4.347V13.644C17.0996 16.434 15.5516 18 12.7715 18H5.2286C2.4926 18 0.899597 16.434 0.899597 13.644V4.347C0.899597 1.602 2.4926 0 5.2286 0ZM5.47093 4.19401V4.18501H8.16103C8.54893 4.18501 8.86393 4.50001 8.86393 4.88611C8.86393 5.28301 8.54893 5.59801 8.16103 5.59801H5.47093C5.08303 5.59801 4.76893 5.28301 4.76893 4.89601C4.76893 4.50901 5.08303 4.19401 5.47093 4.19401ZM5.47093 9.66606H12.5269C12.9139 9.66606 13.2289 9.35106 13.2289 8.96406C13.2289 8.57706 12.9139 8.26116 12.5269 8.26116H5.47093C5.08303 8.26116 4.76893 8.57706 4.76893 8.96406C4.76893 9.35106 5.08303 9.66606 5.47093 9.66606ZM5.47107 13.779H12.5271C12.8862 13.743 13.1571 13.4361 13.1571 13.077C13.1571 12.708 12.8862 12.402 12.5271 12.366H5.47107C5.20107 12.339 4.94007 12.465 4.79607 12.699C4.65207 12.924 4.65207 13.221 4.79607 13.455C4.94007 13.68 5.20107 13.815 5.47107 13.779Z" fill="white"/>
</svg>
