<svg width="20" height="16" viewBox="0 0 20 16" fill="none" xmlns="http://www.w3.org/2000/svg">
<path d="M3.06021 0.359985C3.05967 0.359985 3.05906 0.359985 3.05852 0.359985C2.86936 0.359985 2.69145 0.433723 2.55711 0.56773C2.42128 0.703219 2.34647 0.883623 2.34647 1.07568V11.8074C2.34647 12.2009 2.66788 12.5218 3.06303 12.5229C4.7289 12.5268 7.51988 12.874 9.44528 14.8889V3.65791C9.44528 3.52451 9.4112 3.39919 9.34689 3.29548C7.76662 0.750559 4.72984 0.363891 3.06021 0.359985Z" fill="white"/>
<path d="M17.654 11.8074V1.07568C17.654 0.883623 17.5792 0.703219 17.4434 0.56773C17.3091 0.433723 17.131 0.359985 16.9421 0.359985C16.9414 0.359985 16.9408 0.359985 16.9403 0.359985C15.2707 0.363958 12.234 0.750626 10.6536 3.29555C10.5893 3.39925 10.5553 3.52457 10.5553 3.65798V14.8889C12.4807 12.874 15.2717 12.5268 16.9375 12.5229C17.3326 12.5218 17.654 12.2009 17.654 11.8074Z" fill="white"/>
<path d="M19.2844 2.8349H18.7655V11.8074C18.7655 12.8122 17.9468 13.6315 16.9405 13.634C15.5275 13.6374 13.1976 13.9137 11.5476 15.4753C14.4014 14.7766 17.4097 15.2308 19.1242 15.6215C19.3383 15.6703 19.5595 15.6199 19.731 15.4832C19.9019 15.3469 20 15.143 20 14.9242V3.55046C20 3.15591 19.6789 2.8349 19.2844 2.8349Z" fill="white"/>
<path d="M1.23448 11.8074V2.8349H0.715558C0.321079 2.8349 0 3.15591 0 3.55046V14.924C0 15.1429 0.0980475 15.3467 0.268957 15.483C0.440338 15.6197 0.661349 15.6702 0.875761 15.6213C2.59024 15.2306 5.59867 14.7764 8.45228 15.4751C6.80231 13.9135 4.47247 13.6373 3.05947 13.6339C2.05321 13.6315 1.23448 12.8122 1.23448 11.8074Z" fill="white"/>
</svg>
