<svg width="18" height="18" viewBox="0 0 18 18" fill="none" xmlns="http://www.w3.org/2000/svg">
<path fill-rule="evenodd" clip-rule="evenodd" d="M10.305 2.59216H13.068C16.389 2.59216 18.009 4.36516 18 8.00116V12.3842C18 15.8582 15.858 18.0002 12.375 18.0002H5.61601C2.151 18.0002 0 15.8582 0 12.3752V5.61616C0 1.89016 1.656 0.000153595 4.923 0.000153595H6.34501C7.18291 -0.00884641 7.96501 0.378154 8.47801 1.03515L9.27001 2.08816C9.52201 2.40316 9.90001 2.59216 10.305 2.59216ZM4.8331 11.9613H13.1671C13.5361 11.9613 13.8331 11.6553 13.8331 11.2863C13.8331 10.9083 13.5361 10.6113 13.1671 10.6113H4.8331C4.4551 10.6113 4.1581 10.9083 4.1581 11.2863C4.1581 11.6553 4.4551 11.9613 4.8331 11.9613Z" fill="white"/>
</svg>
