<svg width="18" height="18" viewBox="0 0 18 18" fill="none" xmlns="http://www.w3.org/2000/svg">
<path d="M6.43638 16.896V14.1441C6.43638 13.4416 7.00668 12.8721 7.71018 12.8721H10.2818C10.6196 12.8721 10.9436 13.0061 11.1825 13.2446C11.4214 13.4832 11.5556 13.8067 11.5556 14.1441L11.5556 16.896C11.5535 17.1881 11.6682 17.4689 11.8742 17.6762C12.0803 17.8834 12.3607 18 12.6532 18H14.4076C15.227 18.0021 16.0136 17.6786 16.5938 17.1007C17.1739 16.5229 17.5 15.7383 17.5 14.92L17.5 7.08017C17.5 6.41921 17.2066 5.79226 16.6989 5.3682L10.7304 0.608282C9.69222 -0.226295 8.20468 -0.199348 7.19745 0.672281L1.36522 5.3682C0.833505 5.77976 0.515705 6.40857 0.5 7.08017L0.5 14.912C0.5 16.6175 1.8845 18 3.59237 18H5.30679C5.91426 18 6.40794 17.5106 6.41235 16.904L6.43638 16.896Z" fill="white"/>
</svg>
