<svg width="102" height="24" viewBox="0 0 102 24" fill="none" xmlns="http://www.w3.org/2000/svg">
<g clip-path="url(#clip0_1_1726)">
<path d="M10.3854 0.315701C10.2511 0.112358 10.0212 -0.00675165 9.77752 0.000279603C9.53391 0.0075921 9.31149 0.14053 9.18966 0.351608C9.18966 0.351608 8.55404 1.4528 7.68315 2.96095C7.62638 3.05925 7.5714 3.15848 7.51791 3.25842L14.6989 6.8489L10.3854 0.315701Z" fill="white"/>
<path d="M23.2969 7.53122H22.835L21.7365 6.43251C20.7282 5.42433 19.0875 5.42447 18.0791 6.43256L15.6268 8.88501L1.01756 1.58048C0.799594 1.4715 0.540797 1.48312 0.333469 1.61128C0.126187 1.73934 0 1.96566 0 2.20936V5.22187C0 10.5101 3.89428 14.8447 8.9137 15.5982L1.7122 22.7997C1.51111 23.0008 1.45097 23.3032 1.55977 23.5659C1.66861 23.8287 1.92502 24 2.20936 24H6.72811C6.91463 24 7.09341 23.9259 7.22527 23.794L10.0319 20.9875H12.3765C17.5399 20.9875 21.7406 16.7868 21.7406 11.6234V10.0318L22.835 8.93742H23.2969C23.6852 8.93742 24 8.62261 24 8.2343C24 7.84598 23.6852 7.53122 23.2969 7.53122Z" fill="white"/>
</g>
<path d="M38.1138 13.7002H42.2035V15.7221H36V5H38.1138V13.7002Z" fill="white"/>
<path d="M49.688 14.7724C48.9017 15.5485 47.9419 15.9365 46.8084 15.9365C45.6749 15.9365 44.715 15.5485 43.9287 14.7724C43.1527 13.9861 42.7646 13.0263 42.7646 11.8928C42.7646 10.7593 43.1527 9.80452 43.9287 9.02845C44.715 8.24216 45.6749 7.84902 46.8084 7.84902C47.9419 7.84902 48.9017 8.24216 49.688 9.02845C50.4743 9.80452 50.8675 10.7593 50.8675 11.8928C50.8675 13.0263 50.4743 13.9861 49.688 14.7724ZM45.3226 13.4092C45.7209 13.8074 46.2161 14.0066 46.8084 14.0066C47.4006 14.0066 47.8959 13.8074 48.2942 13.4092C48.6924 13.0109 48.8915 12.5055 48.8915 11.8928C48.8915 11.2801 48.6924 10.7746 48.2942 10.3764C47.8959 9.97812 47.4006 9.77899 46.8084 9.77899C46.2161 9.77899 45.7209 9.97812 45.3226 10.3764C44.9346 10.7746 44.7405 11.2801 44.7405 11.8928C44.7405 12.5055 44.9346 13.0109 45.3226 13.4092Z" fill="white"/>
<path d="M58.124 8.06346H60.054V15.3545C60.054 16.539 59.6609 17.4427 58.8746 18.0656C58.0985 18.6885 57.159 19 56.0562 19C55.2291 19 54.4989 18.8417 53.8658 18.5252C53.2429 18.2086 52.763 17.744 52.426 17.1313L54.1109 16.1663C54.4989 16.8811 55.1678 17.2385 56.1175 17.2385C56.7404 17.2385 57.2305 17.0751 57.5879 16.7484C57.9453 16.4216 58.124 15.957 58.124 15.3545V14.5274C57.542 15.3034 56.725 15.6915 55.6733 15.6915C54.5908 15.6915 53.682 15.3136 52.9468 14.558C52.2218 13.7921 51.8593 12.8629 51.8593 11.7702C51.8593 10.6878 52.2269 9.76368 52.9621 8.99781C53.6973 8.23195 54.601 7.84902 55.6733 7.84902C56.725 7.84902 57.542 8.23705 58.124 9.01313V8.06346ZM54.4326 13.2867C54.841 13.6747 55.3567 13.8687 55.9796 13.8687C56.6025 13.8687 57.1131 13.6747 57.5113 13.2867C57.9198 12.8884 58.124 12.3829 58.124 11.7702C58.124 11.1678 57.9198 10.6725 57.5113 10.2845C57.1131 9.88621 56.6025 9.68709 55.9796 9.68709C55.3567 9.68709 54.841 9.88621 54.4326 10.2845C54.0343 10.6725 53.8352 11.1678 53.8352 11.7702C53.8352 12.3829 54.0343 12.8884 54.4326 13.2867Z" fill="white"/>
<path d="M68.3709 14.7724C67.5846 15.5485 66.6248 15.9365 65.4913 15.9365C64.3578 15.9365 63.3979 15.5485 62.6116 14.7724C61.8356 13.9861 61.4475 13.0263 61.4475 11.8928C61.4475 10.7593 61.8356 9.80452 62.6116 9.02845C63.3979 8.24216 64.3578 7.84902 65.4913 7.84902C66.6248 7.84902 67.5846 8.24216 68.3709 9.02845C69.1572 9.80452 69.5504 10.7593 69.5504 11.8928C69.5504 13.0263 69.1572 13.9861 68.3709 14.7724ZM64.0055 13.4092C64.4038 13.8074 64.899 14.0066 65.4913 14.0066C66.0835 14.0066 66.5788 13.8074 66.9771 13.4092C67.3753 13.0109 67.5744 12.5055 67.5744 11.8928C67.5744 11.2801 67.3753 10.7746 66.9771 10.3764C66.5788 9.97812 66.0835 9.77899 65.4913 9.77899C64.899 9.77899 64.4038 9.97812 64.0055 10.3764C63.6175 10.7746 63.4234 11.2801 63.4234 11.8928C63.4234 12.5055 63.6175 13.0109 64.0055 13.4092Z" fill="white"/>
<path d="M75.1566 9.9628H73.4258V13.1488C73.4258 13.4143 73.4921 13.6083 73.6249 13.7309C73.7576 13.8534 73.9516 13.9249 74.2069 13.9453C74.4622 13.9555 74.7788 13.9504 75.1566 13.93V15.7221C73.7985 15.8753 72.8386 15.7476 72.277 15.3392C71.7255 14.9307 71.4498 14.2006 71.4498 13.1488V9.9628H70.1172V8.06346H71.4498V6.51641L73.4258 5.91904V8.06346H75.1566V9.9628Z" fill="white"/>
<path d="M81.7077 8.06346H83.8215L81.0338 15.7221C80.6355 16.8249 80.1045 17.6214 79.4408 18.1116C78.7872 18.612 77.9703 18.8366 76.99 18.7856V16.9475C77.521 16.9577 77.9397 16.8454 78.246 16.6105C78.5626 16.3756 78.8128 15.9978 78.9966 15.477L75.8565 8.06346H78.0163L80.0075 13.2101L81.7077 8.06346Z" fill="white"/>
<path d="M89.2192 7.84902C90.2506 7.84902 91.1287 8.24216 91.8538 9.02845C92.589 9.80452 92.9566 10.7593 92.9566 11.8928C92.9566 13.0263 92.589 13.9861 91.8538 14.7724C91.1287 15.5485 90.2506 15.9365 89.2192 15.9365C88.147 15.9365 87.3198 15.5638 86.7378 14.8184V18.7856H84.7619V8.06346H86.7378V8.96718C87.3198 8.22174 88.147 7.84902 89.2192 7.84902ZM87.3352 13.4551C87.7334 13.8534 88.2389 14.0525 88.8516 14.0525C89.4643 14.0525 89.9697 13.8534 90.368 13.4551C90.7764 13.0467 90.9807 12.5259 90.9807 11.8928C90.9807 11.2597 90.7764 10.744 90.368 10.3457C89.9697 9.93727 89.4643 9.73304 88.8516 9.73304C88.2389 9.73304 87.7334 9.93727 87.3352 10.3457C86.9369 10.744 86.7378 11.2597 86.7378 11.8928C86.7378 12.5259 86.9369 13.0467 87.3352 13.4551Z" fill="white"/>
<path d="M96.0197 12.7046C96.2852 13.6645 97.0051 14.1444 98.1794 14.1444C98.9351 14.1444 99.5069 13.8891 99.895 13.3786L101.488 14.2976C100.732 15.3902 99.6193 15.9365 98.1488 15.9365C96.8826 15.9365 95.8665 15.5536 95.1007 14.7877C94.3348 14.0219 93.9519 13.0569 93.9519 11.8928C93.9519 10.7389 94.3297 9.77899 95.0854 9.01313C95.841 8.23705 96.8111 7.84902 97.9956 7.84902C99.1189 7.84902 100.043 8.23705 100.768 9.01313C101.503 9.7892 101.871 10.7491 101.871 11.8928C101.871 12.1481 101.845 12.4187 101.794 12.7046H96.0197ZM95.9891 11.1729H99.895C99.7827 10.6521 99.5478 10.264 99.1904 10.0088C98.8432 9.75346 98.4449 9.62582 97.9956 9.62582C97.4646 9.62582 97.0255 9.76368 96.6783 10.0394C96.3312 10.3049 96.1014 10.6827 95.9891 11.1729Z" fill="white"/>
<defs>
<clipPath id="clip0_1_1726">
<rect width="24" height="24" fill="white"/>
</clipPath>
</defs>
</svg>
